<svg viewBox="0 0 329.9917297363281 199.99655151367188" xmlns="http://www.w3.org/2000/svg"><g><g><g><g><g><line x1="31.59375" y1="175.997" x2="26.59375" y2="175.997" style="visibility: inherit;" fill="rgb(0, 0, 0)" stroke="rgb(204, 204, 204)" stroke-width="1px"></line><line x1="31.59375" y1="163.42578571428572" x2="26.59375" y2="163.42578571428572" style="visibility: inherit;" fill="rgb(0, 0, 0)" stroke="rgb(204, 204, 204)" stroke-width="1px"></line><line x1="31.59375" y1="150.85457142857146" x2="26.59375" y2="150.85457142857146" style="visibility: inherit;" fill="rgb(0, 0, 0)" stroke="rgb(204, 204, 204)" stroke-width="1px"></line><line x1="31.59375" y1="138.28335714285714" x2="26.59375" y2="138.28335714285714" style="visibility: inherit;" fill="rgb(0, 0, 0)" stroke="rgb(204, 204, 204)" stroke-width="1px"></line><line x1="31.59375" y1="125.71214285714287" x2="26.59375" y2="125.71214285714287" style="visibility: inherit;" fill="rgb(0, 0, 0)" stroke="rgb(204, 204, 204)" stroke-width="1px"></line><line x1="31.59375" y1="113.14092857142857" x2="26.59375" y2="113.14092857142857" style="visibility: inherit;" fill="rgb(0, 0, 0)" stroke="rgb(204, 204, 204)" stroke-width="1px"></line><line x1="31.59375" y1="100.56971428571428" x2="26.59375" y2="100.56971428571428" style="visibility: inherit;" fill="rgb(0, 0, 0)" stroke="rgb(204, 204, 204)" stroke-width="1px"></line><line x1="31.59375" y1="87.9985" x2="26.59375" y2="87.9985" style="visibility: inherit;" fill="rgb(0, 0, 0)" stroke="rgb(204, 204, 204)" stroke-width="1px"></line><line x1="31.59375" y1="75.42728571428573" x2="26.59375" y2="75.42728571428573" style="visibility: inherit;" fill="rgb(0, 0, 0)" stroke="rgb(204, 204, 204)" stroke-width="1px"></line><line x1="31.59375" y1="62.856071428571425" x2="26.59375" y2="62.856071428571425" style="visibility: inherit;" fill="rgb(0, 0, 0)" stroke="rgb(204, 204, 204)" stroke-width="1px"></line><line x1="31.59375" y1="50.28485714285714" x2="26.59375" y2="50.28485714285714" style="visibility: inherit;" fill="rgb(0, 0, 0)" stroke="rgb(204, 204, 204)" stroke-width="1px"></line><line x1="31.59375" y1="37.713642857142865" x2="26.59375" y2="37.713642857142865" style="visibility: inherit;" fill="rgb(0, 0, 0)" stroke="rgb(204, 204, 204)" stroke-width="1px"></line><line x1="31.59375" y1="25.14242857142858" x2="26.59375" y2="25.14242857142858" style="visibility: inherit;" fill="rgb(0, 0, 0)" stroke="rgb(204, 204, 204)" stroke-width="1px"></line><line x1="31.59375" y1="12.571214285714282" x2="26.59375" y2="12.571214285714282" style="visibility: inherit;" fill="rgb(0, 0, 0)" stroke="rgb(204, 204, 204)" stroke-width="1px"></line><line x1="31.59375" y1="0" x2="26.59375" y2="0" style="visibility: inherit;" fill="rgb(0, 0, 0)" stroke="rgb(204, 204, 204)" stroke-width="1px"></line></g><g transform="translate(21.59375, 0)"><text x="0" y="175.997" dx="0em" dy="0.3em" style="text-anchor: end; visibility: hidden; font-family: Roboto, sans-serif; font-size: 12px; font-weight: 200;" fill="rgb(33, 33, 33)" stroke="none" stroke-width="1px">0</text><text x="0" y="163.42578571428572" dx="0em" dy="0.3em" style="text-anchor: end; visibility: inherit; font-family: Roboto, sans-serif; font-size: 12px; font-weight: 200;" fill="rgb(33, 33, 33)" stroke="none" stroke-width="1px">1</text><text x="0" y="150.85457142857146" dx="0em" dy="0.3em" style="text-anchor: end; visibility: hidden; font-family: Roboto, sans-serif; font-size: 12px; font-weight: 200;" fill="rgb(33, 33, 33)" stroke="none" stroke-width="1px">2</text><text x="0" y="138.28335714285714" dx="0em" dy="0.3em" style="text-anchor: end; visibility: inherit; font-family: Roboto, sans-serif; font-size: 12px; font-weight: 200;" fill="rgb(33, 33, 33)" stroke="none" stroke-width="1px">3</text><text x="0" y="125.71214285714287" dx="0em" dy="0.3em" style="text-anchor: end; visibility: hidden; font-family: Roboto, sans-serif; font-size: 12px; font-weight: 200;" fill="rgb(33, 33, 33)" stroke="none" stroke-width="1px">4</text><text x="0" y="113.14092857142857" dx="0em" dy="0.3em" style="text-anchor: end; visibility: inherit; font-family: Roboto, sans-serif; font-size: 12px; font-weight: 200;" fill="rgb(33, 33, 33)" stroke="none" stroke-width="1px">5</text><text x="0" y="100.56971428571428" dx="0em" dy="0.3em" style="text-anchor: end; visibility: hidden; font-family: Roboto, sans-serif; font-size: 12px; font-weight: 200;" fill="rgb(33, 33, 33)" stroke="none" stroke-width="1px">6</text><text x="0" y="87.9985" dx="0em" dy="0.3em" style="text-anchor: end; visibility: inherit; font-family: Roboto, sans-serif; font-size: 12px; font-weight: 200;" fill="rgb(33, 33, 33)" stroke="none" stroke-width="1px">7</text><text x="0" y="75.42728571428573" dx="0em" dy="0.3em" style="text-anchor: end; visibility: hidden; font-family: Roboto, sans-serif; font-size: 12px; font-weight: 200;" fill="rgb(33, 33, 33)" stroke="none" stroke-width="1px">8</text><text x="0" y="62.856071428571425" dx="0em" dy="0.3em" style="text-anchor: end; visibility: inherit; font-family: Roboto, sans-serif; font-size: 12px; font-weight: 200;" fill="rgb(33, 33, 33)" stroke="none" stroke-width="1px">9</text><text x="0" y="50.28485714285714" dx="0em" dy="0.3em" style="text-anchor: end; visibility: hidden; font-family: Roboto, sans-serif; font-size: 12px; font-weight: 200;" fill="rgb(33, 33, 33)" stroke="none" stroke-width="1px">10</text><text x="0" y="37.713642857142865" dx="0em" dy="0.3em" style="text-anchor: end; visibility: inherit; font-family: Roboto, sans-serif; font-size: 12px; font-weight: 200;" fill="rgb(33, 33, 33)" stroke="none" stroke-width="1px">11</text><text x="0" y="25.14242857142858" dx="0em" dy="0.3em" style="text-anchor: end; visibility: hidden; font-family: Roboto, sans-serif; font-size: 12px; font-weight: 200;" fill="rgb(33, 33, 33)" stroke="none" stroke-width="1px">12</text><text x="0" y="12.571214285714282" dx="0em" dy="0.3em" style="text-anchor: end; visibility: inherit; font-family: Roboto, sans-serif; font-size: 12px; font-weight: 200;" fill="rgb(33, 33, 33)" stroke="none" stroke-width="1px">13</text><text x="0" y="0" dx="0em" dy="0.3em" style="text-anchor: end; visibility: hidden; font-family: Roboto, sans-serif; font-size: 12px; font-weight: 200;" fill="rgb(33, 33, 33)" stroke="none" stroke-width="1px">14</text></g><line x1="31.59375" y1="0" x2="31.59375" y2="175.997" fill="rgb(0, 0, 0)" stroke="rgb(204, 204, 204)" stroke-width="1px"></line></g></g><g transform="translate(31, 0)" clip-path="url(#clip_0)"><clipPath id="clip_0"><rect width="298" height="175"></rect></clipPath><g><g><g><line x1="0" y1="0" x2="0" y2="175.997" fill="rgb(0, 0, 0)" stroke="rgb(66, 66, 66)" stroke-width="1px" opacity="0.25"></line><line x1="19.893216666666667" y1="0" x2="19.893216666666667" y2="175.997" fill="rgb(0, 0, 0)" stroke="rgb(66, 66, 66)" stroke-width="1px" opacity="0.25"></line><line x1="39.786433333333335" y1="0" x2="39.786433333333335" y2="175.997" fill="rgb(0, 0, 0)" stroke="rgb(66, 66, 66)" stroke-width="1px" opacity="0.25"></line><line x1="59.67965000000001" y1="0" x2="59.67965000000001" y2="175.997" fill="rgb(0, 0, 0)" stroke="rgb(66, 66, 66)" stroke-width="1px" opacity="0.25"></line><line x1="79.57286666666667" y1="0" x2="79.57286666666667" y2="175.997" fill="rgb(0, 0, 0)" stroke="rgb(66, 66, 66)" stroke-width="1px" opacity="0.25"></line><line x1="99.46608333333333" y1="0" x2="99.46608333333333" y2="175.997" fill="rgb(0, 0, 0)" stroke="rgb(66, 66, 66)" stroke-width="1px" opacity="0.25"></line><line x1="119.35930000000002" y1="0" x2="119.35930000000002" y2="175.997" fill="rgb(0, 0, 0)" stroke="rgb(66, 66, 66)" stroke-width="1px" opacity="0.25"></line><line x1="139.25251666666668" y1="0" x2="139.25251666666668" y2="175.997" fill="rgb(0, 0, 0)" stroke="rgb(66, 66, 66)" stroke-width="1px" opacity="0.25"></line><line x1="159.14573333333334" y1="0" x2="159.14573333333334" y2="175.997" fill="rgb(0, 0, 0)" stroke="rgb(66, 66, 66)" stroke-width="1px" opacity="0.25"></line><line x1="179.03895" y1="0" x2="179.03895" y2="175.997" fill="rgb(0, 0, 0)" stroke="rgb(66, 66, 66)" stroke-width="1px" opacity="0.25"></line><line x1="198.93216666666666" y1="0" x2="198.93216666666666" y2="175.997" fill="rgb(0, 0, 0)" stroke="rgb(66, 66, 66)" stroke-width="1px" opacity="0.25"></line><line x1="218.82538333333332" y1="0" x2="218.82538333333332" y2="175.997" fill="rgb(0, 0, 0)" stroke="rgb(66, 66, 66)" stroke-width="1px" opacity="0.25"></line><line x1="238.71860000000004" y1="0" x2="238.71860000000004" y2="175.997" fill="rgb(0, 0, 0)" stroke="rgb(66, 66, 66)" stroke-width="1px" opacity="0.25"></line><line x1="258.6118166666667" y1="0" x2="258.6118166666667" y2="175.997" fill="rgb(0, 0, 0)" stroke="rgb(66, 66, 66)" stroke-width="1px" opacity="0.25"></line><line x1="278.50503333333336" y1="0" x2="278.50503333333336" y2="175.997" fill="rgb(0, 0, 0)" stroke="rgb(66, 66, 66)" stroke-width="1px" opacity="0.25"></line><line x1="298.39825" y1="0" x2="298.39825" y2="175.997" fill="rgb(0, 0, 0)" stroke="rgb(66, 66, 66)" stroke-width="1px" opacity="0.25"></line></g><g><line x1="0" y1="175.997" x2="298.39825" y2="175.997" fill="rgb(0, 0, 0)" stroke="rgb(66, 66, 66)" stroke-width="1px" opacity="0.25"></line><line x1="0" y1="163.42578571428572" x2="298.39825" y2="163.42578571428572" fill="rgb(0, 0, 0)" stroke="rgb(66, 66, 66)" stroke-width="1px" opacity="0.25"></line><line x1="0" y1="150.85457142857146" x2="298.39825" y2="150.85457142857146" fill="rgb(0, 0, 0)" stroke="rgb(66, 66, 66)" stroke-width="1px" opacity="0.25"></line><line x1="0" y1="138.28335714285714" x2="298.39825" y2="138.28335714285714" fill="rgb(0, 0, 0)" stroke="rgb(66, 66, 66)" stroke-width="1px" opacity="0.25"></line><line x1="0" y1="125.71214285714287" x2="298.39825" y2="125.71214285714287" fill="rgb(0, 0, 0)" stroke="rgb(66, 66, 66)" stroke-width="1px" opacity="0.25"></line><line x1="0" y1="113.14092857142857" x2="298.39825" y2="113.14092857142857" fill="rgb(0, 0, 0)" stroke="rgb(66, 66, 66)" stroke-width="1px" opacity="0.25"></line><line x1="0" y1="100.56971428571428" x2="298.39825" y2="100.56971428571428" fill="rgb(0, 0, 0)" stroke="rgb(66, 66, 66)" stroke-width="1px" opacity="0.25"></line><line x1="0" y1="87.9985" x2="298.39825" y2="87.9985" fill="rgb(0, 0, 0)" stroke="rgb(66, 66, 66)" stroke-width="1px" opacity="0.25"></line><line x1="0" y1="75.42728571428573" x2="298.39825" y2="75.42728571428573" fill="rgb(0, 0, 0)" stroke="rgb(66, 66, 66)" stroke-width="1px" opacity="0.25"></line><line x1="0" y1="62.856071428571425" x2="298.39825" y2="62.856071428571425" fill="rgb(0, 0, 0)" stroke="rgb(66, 66, 66)" stroke-width="1px" opacity="0.25"></line><line x1="0" y1="50.28485714285714" x2="298.39825" y2="50.28485714285714" fill="rgb(0, 0, 0)" stroke="rgb(66, 66, 66)" stroke-width="1px" opacity="0.25"></line><line x1="0" y1="37.713642857142865" x2="298.39825" y2="37.713642857142865" fill="rgb(0, 0, 0)" stroke="rgb(66, 66, 66)" stroke-width="1px" opacity="0.25"></line><line x1="0" y1="25.14242857142858" x2="298.39825" y2="25.14242857142858" fill="rgb(0, 0, 0)" stroke="rgb(66, 66, 66)" stroke-width="1px" opacity="0.25"></line><line x1="0" y1="12.571214285714282" x2="298.39825" y2="12.571214285714282" fill="rgb(0, 0, 0)" stroke="rgb(66, 66, 66)" stroke-width="1px" opacity="0.25"></line><line x1="0" y1="0" x2="298.39825" y2="0" fill="rgb(0, 0, 0)" stroke="rgb(66, 66, 66)" stroke-width="1px" opacity="0.25"></line></g></g></g><g><g><line x1="0" y1="175.997" x2="298.39825" y2="175.997" fill="rgb(0, 0, 0)" stroke="rgb(153, 153, 153)" stroke-width="1.5px"></line></g></g><g><g><line x1="19.893216666666667" y1="0" x2="19.893216666666667" y2="175.997" fill="rgb(0, 0, 0)" stroke="rgb(153, 153, 153)" stroke-width="1.5px"></line></g></g><g><g><g><g><g><path stroke="rgb(255, 112, 67)" stroke-width="2px" d="M32.52540925,-11.457058592629526L32.72434141666667,20.745258609134677L32.923273583333334,-67.50102649530683L33.52007008333333,-14.969517829079898L33.61953616666667,3.0868061353114205L34.315798750000006,49.95093105959232L34.51473091666667,62.15909138543423L34.614197000000004,57.09624132808957L34.91259525,71.47672543732496L35.60885783333334,77.29988237552226L35.90725608333334,76.50501157522233L36.10618825,85.57956254971411L36.30512041666667,63.54023048784911L36.901916916666664,35.17988106604793L37.001383000000004,86.95951302661769L37.10084908333334,75.05756152443108L37.399247333333335,52.1028117100437L37.5981795,83.47411694580491L37.99604383333333,95.855618061064L38.29444208333334,41.31016547082739L38.39390816666667,77.94856373219652L38.49337425,94.64230559376362L38.89123858333333,101.69260097537835L38.990704666666666,101.5698938044307L39.090170750000006,101.07937497188699L39.786433333333335,111.6395830671147L40.08483158333333,91.08594173967198L40.184297666666666,85.4268612229659L40.283763750000006,109.61885251203243L40.38322983333334,71.1383615539023L40.582162000000004,97.96067357490756L40.78109416666667,39.27971844719476L40.980026333333335,73.40838607373671L41.17895850000001,49.29150692107527L41.377890666666666,67.041129565252L41.477356750000006,66.20122757049715L41.775755000000004,54.35930508285745L41.87522108333334,40.87641773339491L41.97468716666667,65.20323943692091L42.27308541666667,48.23474336482114L42.77041583333334,86.12584440074781L43.76507666666667,81.80185276614235L43.96400883333334,37.92281825506301L44.262407083333336,14.131882803903064L44.36187316666667,57.908526886605955L44.46133925,69.79913427055368L45.25706791666667,111.77863371375133L45.65493225,77.60847490705783L45.754398333333334,91.04515547419928L45.853864416666674,122.11077597767472L46.05279658333333,89.6855563926159L46.84852525,112.50340870312954L46.947991333333334,66.70569540042656L47.24638958333333,-2.858377496085432L47.445321750000005,70.93015775603057L47.64425391666667,53.22067701714837L47.843186083333336,33.599588391073006L48.04211825,63.04172739200944L48.141584333333334,64.8231979735034L48.34051650000001,44.06095383163444L48.539448666666665,62.07566664769629L48.638914750000005,70.71116709355255L48.83784691666666,96.96511875264927L49.335177333333334,80.56623874467033L49.43464341666667,49.87925585717875L49.53410950000001,66.89878936719141L49.63357558333334,77.12776332578417L50.42930425000001,95.27988941249339L50.62823641666667,95.09846088207037L51.026100750000005,96.91347457089867L51.423965083333336,117.77097681949886L51.62289725,103.90170157745845L51.72236333333334,93.33211834895457L52.02076158333334,112.56342766232201L52.71702416666667,111.7234064184949L52.91595633333334,117.89722520312975L53.015422416666674,128.26690816347312L53.51275283333334,119.44180279883102L53.61221891666667,103.99260453144228L53.81115108333334,87.18498237710457L54.10954933333334,71.79845647617498L54.3084815,92.65632022046876L54.40794758333333,118.72520404302645L54.80581191666667,94.10507331976345L55.004744083333335,115.77677572774056L55.20367625,97.74832382503837L55.60154058333333,97.6927922619762L55.99940491666667,117.1654596948958L56.098871,80.13864119032849L56.198337083333335,101.00639639304927L56.297803166666675,117.01747811301L56.39726925,118.16353756249448L56.49673533333333,78.12669232246783L57.19299791666668,74.04843990873891L57.491396166666675,96.23458540695094L57.59086225000001,99.30679972530318L58.38659091666667,92.52359349809929L58.78445525000001,64.1382498902178L58.88392133333333,67.97879440286822L58.983387416666666,95.49973699269495L59.18231958333334,62.92133578103375L59.48071783333334,107.2027471367517L59.97804825000001,110.60899097600539L60.176980416666666,124.84238043540101L60.67431083333334,118.28849248884832L61.07217516666667,77.55130332137452L61.17164125,52.01111626437969L61.27110733333334,87.64849238997482L61.56950558333334,112.50237647436336L61.86790383333334,119.63022402952386L61.96736991666667,111.23565631796443L62.26576816666667,102.89193273686995L62.36523425,86.3762570178692L62.76309858333334,93.08555562317488L63.260429,92.68354673280741L63.35989508333334,101.24387121471787L63.459361166666675,122.31615678273842L63.65829333333334,127.6094405993157L63.75775941666667,123.03175541517318L63.857225500000006,106.63650488279308L64.05615766666668,102.92266876608049L64.15562375,120.19070970978325L64.35455591666667,123.29888954013822L64.75242025,121.09249979994308L64.95135241666668,112.78943213689406L65.0508185,117.19459590759607L65.15028458333333,132.6480004067027L65.34921675000001,122.96018246551283L65.74708108333334,122.04128014177269L65.84654716666667,106.912974174403L66.2444115,72.55625785947439L66.34387758333334,95.58763731419121L66.54280975,92.2003692008287L66.74174191666667,114.84469202972811L67.13960625,104.62469734612624L67.23907233333334,121.84150192198341L67.53747058333333,108.27513850990591L67.73640275000001,125.36117971067823L67.83586883333334,118.46799514879598L68.034801,111.06705044920812L68.13426708333334,115.07130784269835L68.43266533333333,112.72671631552711L68.53213141666667,123.54823603086946L68.63159750000001,87.81716746585508L68.83052966666666,106.05977706966088L69.12892791666667,114.58955363466278L69.52679225000001,125.83000822200248L69.92465658333334,109.36976086091268L70.02412266666667,112.85065931475074L70.32252091666668,104.82348881656839L70.62091916666667,93.89820319124036L70.72038525,105.63582790245488L70.81985133333335,120.17005941780428L70.91931741666667,75.90195766294573L71.0187835,77.37557400129238L71.11824958333334,66.4382503067204L71.41664783333334,92.6241836737091L71.51611391666667,96.95065973319912L71.61558000000001,65.5224970124795L71.71504608333333,-9.789692868899666L72.01344433333334,43.44464827003536L72.70970691666668,70.41886908712945L73.00810516666667,104.89874727390917L73.10757125,91.47191698450195L73.30650341666667,95.38435398288696L73.4059695,107.08774539344739L73.50543558333334,87.42234550730163L73.70436775,116.12036756693958L73.90329991666667,127.72749771211265L74.10223208333333,112.75874379786859L74.30116425,120.22267531476324L74.40063033333334,120.74640728127531L74.69902858333334,115.10906619124471L74.89796075000001,115.79530484943844L75.196359,129.5583937893721L75.29582508333334,132.43038461521752L75.89262158333335,109.56266709800597L75.99208766666666,103.92868521509679L76.09155375,103.71715092289512L76.48941808333335,110.30510129171239L76.78781633333334,101.1995528481696L76.9867485,112.59308981514712L77.28514675000001,107.91832497418399L77.68301108333334,129.8880109965254L78.08087541666667,86.5757330657198L78.18034150000001,98.15997219215951L78.27980758333334,112.99840183626316L78.47873975,84.33156105823828L78.67767191666667,112.33846399577531L78.77713800000001,127.7571356682079L78.87660408333333,125.7054254653994L79.07553625000001,87.15930772725679L79.27446841666666,109.2866724969448L79.47340058333333,109.02981403060664L79.57286666666667,116.77740156577464L79.87126491666668,119.51820030976695L79.97073100000001,106.14722538476613L80.46806141666667,127.79236505313774L80.66699358333334,124.92374575758102L80.96539183333333,119.49548600584707L81.06485791666667,129.23524458182732L81.26379008333333,113.52073986904932L81.46272225000001,117.5478879451227L81.66165441666668,114.93894543740169L81.86058658333333,110.44251687240148L81.96005266666667,97.14027887248953L82.25845091666667,129.5317993023269L82.45738308333334,104.24750971433316L82.55684916666668,90.84486125672541L82.95471350000001,114.40973003530053L83.35257783333334,115.20930629913568L83.65097608333333,127.29657917274153L83.75044216666667,119.06641017952931L83.84990825000001,120.82775349784286L83.94937433333334,115.19103585827885L84.04884041666668,126.68742456474816L84.54617083333333,110.28475926641694L84.745103,138.70797049118113L84.84456908333334,113.22253430324979L85.04350124999999,110.15305424425905L85.14296733333333,87.05096124228814L85.44136558333334,108.47346036339543L85.64029775,123.88095390469289L86.33656033333334,135.10685057708264L86.63495858333334,131.72508532942595L87.132289,126.41099382525067L87.23175508333334,122.29241908537435L87.33122116666668,113.40425436791695L87.62961941666669,121.26568140959496L87.82855158333334,125.61357596401562L87.92801766666668,108.09792946302508L88.02748375,137.57076015083305L88.32588200000001,112.59614682172578L88.82321241666668,106.6876226067973L89.02214458333334,133.97613251484023L89.22107675000001,128.15649530461897L89.32054283333333,132.89546203933602L89.519475,133.56262216048043L89.81787325,128.29589123131086L89.91733933333335,123.45669638352223L90.1162715,124.9946716269224L90.51413583333334,108.57102582108064L90.61360191666667,114.6353918336241L90.81253408333335,131.02461681492892L91.11093233333334,117.2915966030192L91.3098645,128.05453819177126L91.60826275000001,132.23755384146128L91.70772883333335,117.91252248927637L91.906661,129.5205742683576L92.10559316666667,120.04514429490241L92.20505925,129.5402874287404L92.40399141666667,141.72340097101696L92.50345750000001,138.7761525069045L92.70238966666666,131.0829769525121L92.80185575,119.56815584062144L92.90132183333334,117.07865304112347L93.39865225000001,125.25131058390971L93.79651658333334,103.97527668833989L93.89598266666667,125.63613124974836L93.99544875000001,120.51367001259817L95.18904175,115.88828548208674L95.38797391666667,118.61222509271259L95.98477041666666,129.24250793745006L96.0842365,127.68572289946816L96.38263475000001,121.07358855920856L96.48210083333333,123.42362720319353L96.78049908333332,110.06556507307944L97.07889733333333,139.07656077598503L97.17836341666667,120.6756982872686L97.37729558333334,93.6776648672833L97.47676166666668,117.37773848396542L97.57622775000002,135.36503870996137L97.67569383333333,125.12284512998949L97.77515991666667,127.48391031541209L98.37195641666668,113.60312901551569L98.67035466666667,130.7315257764514L99.96341375000002,135.7449518474204L100.06287983333334,110.66148819024926L100.16234591666668,108.80120289444058L100.261812,121.92686221755324L100.56021025000001,110.77433282275817L101.35593891666667,137.72938794141217L101.45540500000001,122.2471751203299L102.25113366666668,126.99561492731706L102.35059975000001,121.72611013763063L102.74846408333333,123.91755073404168L102.84793016666667,119.91189345370664L103.04686233333334,137.19217727871018L103.14632841666668,137.80471118623916L103.2457945,107.0654412392459L103.44472666666668,132.52747458232196L103.54419275,130.1231955930656L103.842591,133.81775974343168L104.04152316666668,138.5799337150878L104.53885358333333,123.12410962680318L104.63831966666667,123.80579699760601L104.93671791666668,143.0637387935753L105.23511616666669,128.22056060276267L105.53351441666668,124.28910081018364L105.73244658333334,134.78593483360683L106.03084483333335,127.52082552608576L106.13031091666667,107.65419450162373L106.52817525,108.26351966743272L106.62764133333334,114.88627608728567L107.92070041666668,127.22643605468832L108.0201665,134.02169048217607L108.11963258333334,121.88824487676374L108.51749691666669,130.6131776148514L108.71642908333334,128.36089090119395L109.01482733333334,122.59104076559414L109.21375950000001,145.76767872377252L109.31322558333335,141.2307645208288L109.61162383333334,128.37441663218968L109.71108991666667,128.1178849877853L110.20842033333335,119.05024877406454L110.30788641666666,130.62690995914957L110.50681858333334,117.10104056695279L110.60628466666667,119.96916115128614L110.90468291666667,129.5542443353879L111.30254725,129.5356008251845L111.40201333333334,124.18917335765508L111.60094550000001,120.60777202736L111.79987766666667,116.52426246094045L112.29720808333335,128.62018710127168L112.49614025000001,129.4292391834117L112.59560633333335,139.0893517221557L112.69507241666668,127.90371607339742L112.99347066666667,145.56927251530246L113.39133500000001,136.23319311248935L113.59026716666666,132.55231396341634L113.68973325,146.79315838935923L113.98813150000001,135.88426197782874L114.38599583333335,132.39323877721282L114.68439408333334,144.1768121360156L114.98279233333335,145.8431217348793L115.48012275,133.25046117499417L115.67905491666667,137.72630864619978L115.77852100000001,146.71618996954604L115.97745316666668,149.81511274913643L116.17638533333333,137.30412813074338L116.27585141666667,141.94470615411072L117.07158008333333,132.0346100686243L117.27051225000001,136.00942138044883L117.36997833333334,131.1483572808284L117.66837658333334,135.45321836874766L118.06624091666667,126.3962596133895L118.46410525000002,132.4853257000835L118.66303741666667,138.52040401055638L118.86196958333333,135.79393329238977L119.06090175000001,131.43762073415505L119.25983391666668,135.41226499306526L119.35930000000002,144.13590172381063L119.65769825000001,141.62575626038583L119.75716433333334,136.28162537203448L119.85663041666668,136.4460390496079L120.05556258333334,139.97298365108244L120.55289300000001,146.50369910867636L120.75182516666668,133.59380600015567L120.95075733333334,137.50467526367603L121.64701991666668,144.84192850314392L122.04488425,131.1088023224658L122.24381641666668,133.79909226143104L122.3432825,139.7860799092894L122.940079,132.37291721963427L123.03954508333334,143.32003450522296L123.13901116666668,132.29998649957483L123.23847725,120.35241525032022L123.33794333333334,139.19704028248913L123.73580766666667,151.23882993433105L124.03420591666668,135.7414859233021L125.02886675,149.97982531843112L125.22779891666669,135.2077294673961L125.327265,134.59534017026974L125.42673108333334,135.80797777234608L125.62566325,136.74444402714877L125.92406150000001,140.21141560826862L126.12299366666669,124.10945587748613L126.32192583333334,148.29757839163995L126.42139191666668,130.26162229468443L126.520858,118.80352853397302L126.62032408333334,131.0696040683359L126.71979016666668,141.31239755757198L126.81925625000001,136.3867358658724L127.1176545,136.0485856015085L127.21712058333334,124.61829242088147L127.41605275,136.34154761575024L127.51551883333335,134.974853425344L127.61498491666667,141.59969842507553L127.91338316666666,144.66177289349216L128.01284925000002,129.59263387720975L128.11231533333336,130.8017096052031L128.51017966666666,144.58357570319825L129.20644225,149.11654694297246L129.40537441666666,134.91620552748074L129.60430658333334,135.92942631496956L129.70377266666668,142.54819888573533L129.80323875000002,131.2967779305527L130.101637,136.2930225329796L130.30056916666666,133.65023166871646L130.49950133333334,144.40698104203398L130.59896741666668,133.1918428838144L130.79789958333336,128.64365259531067L131.29523,128.99818614843483L131.49416216666668,140.56955046922099L131.59362825000002,104.79964401425538L131.89202650000001,126.60945178134045L131.99149258333335,125.9111801968389L132.19042475,133.38381770214517L132.28989083333335,133.62391998346735L132.58828908333334,137.07602916404403L132.78722125000002,141.1788022242023L132.88668733333336,143.69479332475544L132.98615341666667,136.93683411579158L133.28455166666666,147.09719863047235L133.98081425,145.6230119055183L134.17974641666666,146.1545525636157L134.37867858333334,142.68526862476085L134.47814466666668,133.03413528289357L134.57761075000002,135.0577723821377L134.67707683333333,140.43384621684024L135.37333941666668,133.83955933583945L135.57227158333333,127.05262959995237L135.77120375,132.66987738750313L136.069602,135.8068799247659L136.6663985,131.4118856523724L136.76586458333333,133.16019990414196L136.96479675,112.44123133463593L137.06426283333334,131.495961240055L137.16372891666668,136.21973166455544L137.56159325000002,134.53055273186544L137.76052541666667,136.3084206655374L137.95945758333335,136.2765977199277L138.25785583333334,147.56047299808998L138.35732191666668,131.08514463438604L138.65572016666667,136.03205023956642L138.75518625,142.66671922984483L139.05358450000003,124.25313380757488L139.15305058333334,134.37647588442692L139.45144883333333,136.12320697499817L139.8493131666667,140.65727946939674L139.94877925,132.88495151093875L140.04824533333334,149.62424814398526L140.2471775,132.1774114209646L140.64504183333335,138.5618909678202L140.7445079166667,133.11172230349592L141.14237225,128.9447225596318L141.6397026666667,145.51028156358336L141.83863483333334,144.115550938542L142.23649916666668,134.37159735870875L142.5348974166667,140.122015190503L142.6343635,154.14690231746485L143.13169391666668,138.00756642153308L143.33062608333336,150.201540554787L143.62902433333335,135.51057332541706L143.7284904166667,132.27365959061908L143.92742258333334,141.2746119950956L144.22582083333333,143.92497031152058L144.32528691666667,146.26956432939863L144.424753,146.59892071094623L144.52421908333335,146.51057275279467L144.72315125,139.645003678829L144.92208341666668,134.31959660876822L145.0215495,149.26207196911477L145.31994775,130.6459825005781L145.41941383333335,127.6975935165928L146.01621033333333,145.4189583175499L146.41407466666666,140.43457556827852L146.91140508333334,138.71440631971927L147.01087116666667,136.4619748051832L147.11033725000001,124.8274180860373L147.50820158333335,121.04816693905187L147.80659983333334,129.10487104148734L148.30393025,126.49702860073272L148.6023285,129.74809338226595L149.09965891666667,137.14544215396765L149.199125,140.33456659648988L149.49752325,140.45845900558984L149.89538758333333,143.84467868382748L150.2932519166667,141.85244596289377L150.79058233333333,143.56327199370546L151.28791275,128.7904052590962L151.48684491666668,130.45200840466518L151.7852431666667,138.82346915926382L151.88470925000001,138.49312509159245L152.0836414166667,136.9816504194774L152.77990400000002,128.10581114620956L153.67509875000002,143.96917200986425L153.77456483333333,149.59620047651157L154.07296308333335,140.24092661417833L154.37136133333334,142.3796134929512L154.47082741666668,132.11865989800526L154.66975958333333,141.2320111888055L155.0676239166667,115.59246354503033L155.26655608333334,138.5380215023963L155.66442041666667,141.01979284734622L155.7638865,150.08774100954034L155.86335258333332,125.94825804476456L155.96281866666666,133.32835090778482L156.06228475,137.0257831384983L156.75854733333333,147.77323503979193L156.85801341666667,143.22880490244725L157.25587775000002,149.04327165518185L157.75320816666667,142.05675571895702L157.85267425,142.53327552870692L158.25053858333334,144.58402789196808L158.54893683333333,145.7325624711316L158.94680116666666,135.54668510735553L160.93612283333334,143.79467255093232L161.33398716666667,143.1526332828118L162.32864800000002,150.24534136686177L162.42811408333336,134.9120464280341L162.82597841666666,138.8246354203202L163.02491058333334,145.77607148312347L163.12437666666668,148.25064910568864L163.22384275000002,149.00607083252456L163.32330883333336,139.72327711303808L163.62170708333335,137.49792008806298L163.92010533333334,144.6084365725601L164.11903750000002,140.03586207548622L164.31796966666667,145.94531028723202L164.41743575,136.74974716618942L164.61636791666666,143.6410106743372L164.71583400000003,142.0936150957036L164.91476616666668,145.95882145586245L165.01423225000002,139.66271348788032L165.21316441666667,141.80812293144882L165.3126305,145.26855861230504L165.51156266666666,145.01921760274732L166.20782525,143.52574024216966L166.50622350000003,143.9298124905324L166.60568958333334,138.35663428004176L166.80462175000002,146.35182769388456L167.50088433333335,147.2413060763873L167.89874866666668,148.65337422790634L168.19714691666667,150.52262365562203L168.49554516666666,143.44492857428966L168.59501125,134.19239401031385L168.99287558333336,136.29323513237924L169.09234166666667,136.27365238851294L169.39073991666666,142.75863287893205L170.08700249999998,143.14821013392424L170.18646858333335,129.28838755440216L170.28593466666666,136.03022582391134L170.48486683333334,143.1445783975856L170.683799,144.91378543292976L170.78326508333336,147.22742109016647L171.47952766666668,137.82645101289006L171.97685808333335,134.74215670282948L172.57365458333337,109.79976440377426L172.87205283333336,145.51610779126884L172.97151891666667,142.50910730180527L173.2699171666667,134.05778688506427L173.96617975,129.66655089296304L174.264578,152.28816914115333L174.36404408333337,139.20512030236247L174.46351016666668,148.19529513070097L175.35870491666668,151.60656583300903L175.65710316666667,145.34076618713462L175.75656925,148.86342575899917L175.9555014166667,148.0624951991988L176.15443358333334,151.48917166933657L176.25389966666668,147.5089205372607L176.35336575,140.51411441225093L176.45283183333336,138.09893706554416L176.75123008333335,147.48532175523212L177.14909441666668,140.60518835144364L177.2485605,146.23494810896264L177.34802658333336,148.97648525121468L177.64642483333336,142.33524097068053L178.14375525,151.56730396023545L178.64108566666667,140.36327787764904L178.74055175,146.67170235291104L178.84001783333335,138.22590703086823L179.23788216666668,144.5701647467586L179.33734825,139.2958314219946L179.43681433333336,145.85605203714053L180.232543,154.2506757619619L180.53094125,153.0456174920571L180.7298734166667,137.54528039070993L181.32666991666667,132.92960273034532L181.52560208333333,135.50083889744323L181.82400033333332,143.5733997847195L182.22186466666668,147.46324240951813L182.619729,148.177223438096L182.8186611666667,144.03065483469265L183.11705941666668,144.4311543146274L183.21652550000002,149.4219120530242L183.7138559166667,146.8249505731294L183.813322,156.66132281922089L184.21118633333333,158.6443358694041L184.3106524166667,144.29153701858195L184.4101185,143.89213099067507L184.50958458333332,145.63824648303475L184.70851675,145.33311784966784L184.90744891666668,157.2426642476956L185.30531325,156.6553723004959L185.5042454166667,146.89055999498783L185.70317758333334,149.96111466456114L186.00157583333333,151.51627212082508L186.1010419166667,151.45932486288248L186.49890625,144.60459187653294L186.79730450000002,147.89826823678152L186.9962366666667,146.7419060149025L187.09570275000002,140.37068937292656L187.2946349166667,135.94900080194563L187.5930331666667,138.36708333107958L187.69249925000003,147.8254137373L187.79196533333334,148.9679663759642L187.89143141666668,144.25556342640778L188.38876183333335,148.62337673836896L188.4882279166667,147.2497567461863L188.58769400000003,148.33298674860018L188.98555833333333,146.8710063808346L189.28395658333335,145.4371585012251L189.48288875,146.24853635573126L189.78128700000002,150.9588221873489L189.9802191666667,154.23372509994692L190.07968525,150.8341898240924L190.17915133333335,150.30043062349864L190.2786174166667,146.68088746966941L190.8754139166667,148.72383910266848L191.27327825,155.9050447650541L191.37274433333334,153.59547862087146L191.47221041666668,150.8929105534512L191.57167650000002,153.89646164408165L192.0690069166667,141.65939591641126L192.86473558333333,147.91110488467794L192.96420166666667,153.01062214574452L193.36206600000003,154.48626183120464L193.56099816666665,149.25106405322552L193.85939641666667,149.36243432905124L194.05832858333335,153.19183393187026L194.15779466666666,157.15549562962397L194.35672683333334,157.3481801271259L194.45619291666665,149.57076028024977L195.25192158333334,145.62985740670658L195.35138766666665,151.425516409224L195.55031983333333,149.15032460682923L195.84871808333335,147.61327321388669L196.54498066666667,146.7050033338557L196.64444675000001,145.1504558499001L196.74391283333335,151.1282430918988L197.04231108333335,148.25262986304233L197.44017541666668,151.93943142620284L197.53964150000002,154.986440597508L197.63910758333336,148.8933786148737L197.93750583333335,147.74074521767602L198.23590408333334,151.71372381213232L198.43483625000002,155.77905675243304L198.63376841666667,147.8264165386646L199.03163275000003,154.0985462176006L199.23056491666668,153.33449366174406L199.82736141666666,148.8492876646109L200.02629358333334,145.95514955548663L200.42415791666667,151.18542274023898L200.92148833333334,153.05754222071056L201.31935266666667,146.4257476286012L201.61775091666667,156.44936670423934L201.71721700000003,156.0594663560349L201.91614916666668,150.48225681690855L202.01561525000002,151.5412621845951L202.21454741666668,133.63494071548678L202.31401350000002,151.96544804511103L202.41347958333336,134.3124347486016L202.61241175000004,143.70926520150738L202.71187783333335,160.1269441924612L202.81134391666666,141.67078165236674L203.50760650000004,144.86396960683817L203.60707258333335,154.49241054934512L203.70653866666666,156.40788267583315L203.80600475000003,154.7169457662312L204.10440300000002,147.30145811291248L204.99959775000002,142.3907457517245L205.49692816666666,157.93814439820207L205.59639425,157.4844640799928L205.69586033333334,154.0523100212116L206.09372466666667,149.85663049515063L206.19319074999999,158.38822128932114L206.39212291666666,158.55050439906734L206.69052116666668,162.52856645421875L206.98891941666668,154.99165066718635L207.28731766666667,146.92464067441887L207.38678375,150.83146290840298L207.5857159166667,152.3005609001612L207.78464808333337,157.04235028225838L207.98358025,152.42403140053844L208.4809106666667,158.25664839426108L208.878775,157.70873866235576L209.17717325,154.19926643898725L209.57503758333337,157.23443178058986L209.77396975,152.84748362748223L209.87343583333336,155.59841962050612L209.97290191666667,151.38523712240624L210.2713001666667,154.73925684265274L210.76863058333336,151.5125667919608L211.36542708333334,148.28812080774614L211.46489316666668,148.44318888100378L211.56435925,152.67755248073777L211.86275750000001,156.24699896182324L212.16115575,145.50430247668243L212.459554,151.53629747559702L212.55902008333337,153.00838189137633L212.95688441666667,140.07741646275966L213.0563505,140.83920647000252L213.15581658333335,154.2325705618814L213.45421483333337,148.9485825614047L213.65314700000002,156.40402762221999L213.95154525,140.93262532069804L214.2499435,156.0078377190722L214.54834175,157.05070602451468L214.94620608333335,149.35989274000295L215.0456721666667,146.31793878187378L215.14513825,149.14457588728445L215.24460433333337,158.24033605355874L215.34407041666668,153.53345787334558L215.54300258333336,150.2430459564375L215.64246866666667,156.33425772357631L215.74193475,157.39912211706348L215.84140083333335,158.16674211201843L216.63712950000001,153.4732261574286L216.8360616666667,157.4457357466341L216.93552775,150.02382706895182L217.03499383333337,150.80461744275502L217.13445991666669,155.85443400404478L217.43285816666668,147.45025464440673L217.63179033333333,137.42325632957653L217.7312564166667,129.97904809453564L218.0296546666667,124.96025036688118L218.12912075,143.6586414119495L220.51630675,150.53323251886363L220.61577283333332,154.45988800042633L221.01363716666668,149.86443851890883L221.11310325000002,157.4333889457336L221.21256933333333,145.71686268530968L221.51096758333333,151.36011031049267L221.70989975,154.01720484464298L222.00829800000002,158.2596278045019L222.10776408333334,157.44456001533942L222.30669625000002,155.28504545774203L222.40616233333333,153.62780733604862L222.5056284166667,155.46596269381317L222.90349275000003,148.01708806217198L223.20189100000002,161.34830004155017L223.59975533333335,152.06287651245577L223.79868750000003,154.31118355734165L224.2960179166667,156.16689593157324L224.395484,159.6456554337699L224.49495008333335,154.6952579639521L224.5944161666667,153.75544331511426L225.589077,157.5999091028033L225.68854308333334,150.76716352948822L225.88747525000002,155.5735560740297L226.28533958333333,156.44804103302107L226.78267000000002,155.58541052933293L227.2800004166667,154.39778188610333L227.47893258333335,158.4767960629243L227.5783986666667,150.11561506730214L227.77733083333334,154.41312887808706L227.8767969166667,156.7994876589885L227.97626300000002,152.45360510870287L228.37412733333335,153.37292933828027L228.57305950000003,153.23908340454685L228.67252558333334,146.58629153847727L228.87145775000002,155.8202124247623L229.169856,149.67983195977993L229.26932208333335,148.0226991817611L229.3687881666667,151.06298393356826L229.76665250000002,151.07418110087076L229.86611858333333,145.11760342403295L230.26398291666666,150.30711422967016L230.36344900000003,151.10965031115424L230.76131333333333,147.30572240716413L230.86077941666667,150.82383153783564L231.05971158333335,143.38255603132143L231.15917766666666,147.6165248148953L231.25864375000003,151.0994582750861L231.55704200000002,160.36626291803086L232.25330458333335,155.9147391424867L232.35277066666666,157.6557903425753L232.45223675000003,158.76464152770006L232.75063500000002,158.43477840719865L233.14849933333335,153.28046978224774L233.74529583333336,151.57927081697005L233.84476191666667,153.0221340960454L234.24262625000003,152.2962593597413L234.34209233333334,152.4548369313777L234.73995666666667,157.4121690712478L234.83942275,153.76073084167234L235.03835491666666,158.08138385630326L235.7346175,161.33053565523028L236.13248183333334,153.50298939651546L236.33141400000002,152.8748186004757L236.43088008333334,156.871250289344L237.12714266666666,159.5407908053117L237.32607483333334,157.72251407121607L237.52500700000002,152.03014080128423L237.72393916666667,151.75972244111443L238.22126958333334,155.3285175165586L238.71860000000004,153.97785699757617L238.91753216666666,157.06260449668946L239.01699825000003,155.13245977419822L239.11646433333334,162.64872894006007L239.41486258333336,154.64499005090659L239.71326083333335,152.58481462419212L239.91219300000003,155.4649283358496L240.01165908333334,153.49811816555112L240.21059125000002,152.47305449753927L240.31005733333336,153.76426889809647L240.90685383333334,154.50121384862612L241.30471816666667,154.8701359288701L241.50365033333335,159.62026188067287L242.39884508333336,159.73596573439121L242.69724333333335,151.73839466350785L242.99564158333337,154.96299899333695L243.19457375,160.05073219529405L244.18923458333336,157.9488148399485L244.48763283333335,159.82086834731285L244.5870989166667,154.14921899267483L245.18389541666667,147.31292504671976L245.4822936666667,153.88133782555252L246.3774884166667,159.97809779111856L246.77535275,155.8799441715636L246.87481883333336,147.57058322145258L247.27268316666667,155.76255741997258L247.86947966666668,155.323516931565L247.96894575000002,152.1755162468967L248.06841183333336,155.92225778088084L248.76467441666668,156.1565695137005L249.26200483333335,130.30311365423856L249.3614709166667,146.5530556583767L249.460937,155.02824951120547L249.65986916666668,138.9358328411052L249.85880133333336,156.69963582690687L250.2566656666667,157.08572713426148L250.35613175,147.49623126726624L250.65453,154.8228012112612L251.1518604166667,152.3062442637983L251.74865691666668,147.84458257920392L251.94758908333336,154.38744303724098L252.24598733333337,145.7228102448818L252.74331775000002,153.22174762167512L252.9422499166667,152.90227395777276L253.041716,149.52210926781032L253.14118208333338,157.85789613692907L253.34011425,154.55527808363883L253.43958033333337,143.96130930735035L253.53904641666668,152.32881543649512L253.8374446666667,151.07873971620666L253.93691075,148.54224182168988L254.03637683333338,158.86381175690906L254.43424116666668,153.63089599864287L254.63317333333336,152.6026925434242L255.22996983333334,158.83756270380542L255.52836808333333,151.78641864225207L255.82676633333332,155.49123883505376L256.02569850000003,146.501516987L256.5230289166667,153.12400932147784L257.1198254166667,152.33888187400555L257.61715583333336,148.47982151775767L257.81608800000004,152.18510413298438L258.0150201666667,147.3239390755128L258.11448625,145.4120941709735L258.21395233333334,155.95761854147938L258.3134184166667,161.054020746804L258.4128845,148.77569071225622L258.51235058333333,158.43465268635268L259.50701141666667,152.20769965585262L259.90487575000003,150.99926000931316L260.203274,145.8094523924691L260.6011383333333,153.05503471343044L261.49633308333335,157.50869728643443L261.79473133333335,149.76667798599357L262.1925956666667,157.48588590842775L262.29206175,147.89742917712312L262.4909939166667,156.74809065717204L262.59046,154.5475789915715L262.7893921666667,157.4966082882374L262.88885825,154.48557384951135L263.48565475000004,156.45502868249133L264.08245125,156.69723703630578L264.4803155833333,153.66768421666117L264.8781799166667,153.60713182739195L265.07711208333336,150.71672616866678L265.1765781666667,157.8912887399163L265.37551033333335,150.68448941339204L265.57444250000003,157.28847966291295L265.97230683333333,154.7710606929674L266.171239,153.25627877851144L266.3701711666667,152.67070373426284L267.06643375000004,154.0256527560113L267.16589983333336,150.75276441491863L267.56376416666666,155.69979975376893L267.9616285,158.53763678719298L268.26002675,151.78520677472653L268.4589589166667,151.94477023370868L268.558425,160.30988509816666L268.65789108333337,159.42289983723245L268.7573571666667,155.8527025121319L268.95628933333336,155.44306408251188L269.15522150000004,153.21172790715437L269.25468758333335,149.21519995218802L269.45361975000003,149.85193059957487L269.65255191666665,145.39180100033158L269.95095016666664,150.49050874671812L270.1498823333333,142.36480008996645L270.3488145,148.60444323372326L270.44828058333337,147.22651602960366L270.5477466666667,142.1162003465844L270.74667883333336,144.89339793689035L270.94561100000004,154.1117036091371L271.44294141666666,153.70643330138176L271.64187358333334,142.11856948026144L271.74133966666665,150.56019694057684L271.9402718333333,155.19475449096635L272.43760225000005,155.46556851435903L272.6365344166667,151.7827137386923L272.83546658333336,155.72695180936313L272.93493266666667,144.0053288734226L273.23333091666666,149.46589180991586L274.0290595833334,160.01682384023516L274.1285256666667,155.9349680794372L274.62585608333336,154.273810038433L275.12318650000003,153.5336285958374L275.22265258333334,154.365448503346L275.42158475,154.55555912693808L275.719983,157.37650838579924L275.9189151666667,158.9504389341203L276.1178473333334,153.0739222505081L276.31677950000005,155.16594326784903L276.41624558333336,155.86878634927203L276.91357600000003,151.53765285246766L277.01304208333335,154.36200987220158L277.11250816666666,152.40354070323954L277.41090641666665,147.2763645981476L277.5103725,149.73162135396225L277.80877075,149.55985950674543L278.40556725000005,159.94473624280312L278.50503333333336,148.5052655474277L278.70396550000004,147.21865250084352L278.90289766666666,147.20786270986198L279.10182983333334,160.84976860406118L279.20129591666665,156.22408025454743L280.29542283333336,152.65221028851084L280.3948889166667,153.67076253661625L280.494355,158.72389688404672L280.79275325,156.63860293755872L281.2900836666667,150.79655748390476L281.38954975,155.4183669010753L281.8868801666667,158.07505766366157L281.98634625,149.90829113532166L282.08581233333337,158.35189095154033L282.1852784166667,155.82817070018555L282.38421058333336,155.97309518594594L282.48367666666667,152.74526218695095L282.58314275,151.96285419573917L282.68260883333335,156.76764380366208" style="fill: none;" fill="none"></path></g></g></g></g><g opacity="0.2"><g><g><g><path stroke="rgb(255, 112, 67)" stroke-width="2px" d="M32.02807883333334,-52.82339898940494L32.42594316666667,0.9578007512092591L32.52540925,-12.131163759708405L32.72434141666667,23.431692438534327L32.923273583333334,-74.8628509298052L33.022739666666666,5.307629166875559L33.52007008333333,-16.193415769781375L33.61953616666667,4.593130019664764L34.315798750000006,53.86050594493322L34.51473091666667,63.177540296690815L34.614197000000004,56.673880055700025L34.91259525,72.67639745943887L35.60885783333334,77.78567119918551L35.90725608333334,76.43870057671411L36.10618825,86.33659442949296L36.30512041666667,61.70162965495246L36.901916916666664,32.813958091531475L37.001383000000004,91.27915729635103L37.10084908333334,74.06465766130175L37.399247333333335,50.187843415669036L37.5981795,86.09122474987167L37.99604383333333,96.88852768823078L38.29444208333334,36.75978643567222L38.39390816666667,81.00507149614607L38.49337425,96.03495794841221L38.89123858333333,102.28076212855747L38.990704666666666,101.55965712819781L39.090170750000006,101.03845411586762L39.786433333333335,112.52055383995604L40.08483158333333,89.37128260401319L40.184297666666666,84.95476024811609L40.283763750000006,111.63703596735002L40.38322983333334,67.92817975132806L40.582162000000004,100.19828790385384L40.78109416666667,34.38434082548959L40.980026333333335,76.25552302633012L41.17895850000001,47.279589591979985L41.377890666666666,68.52186731563296L41.477356750000006,66.13115990679604L41.775755000000004,53.37140905734472L41.87522108333334,39.75162648105621L41.97468716666667,67.23267093331474L42.27308541666667,46.819170019694745L42.77041583333334,89.28685716322492L43.76507666666667,81.44112973703658L43.96400883333334,34.2622704139437L44.262407083333336,12.147156877858293L44.36187316666667,61.560532947676535L44.46133925,70.7910917662893L45.25706791666667,115.28071546578408L45.65493225,74.75787661007472L45.754398333333334,92.16609198955129L45.853864416666674,124.70238245521273L46.05279658333333,86.9805272397995L46.84852525,114.40695651234901L46.947991333333334,62.88508443151201L47.24638958333333,-8.661664184093476L47.445321750000005,77.08586438052996L47.64425391666667,51.743288049766L47.843186083333336,31.962726176330026L48.04211825,65.49789716781889L48.141584333333334,64.97181469590325L48.34051650000001,42.32889229433877L48.539448666666665,63.57851917948043L48.638914750000005,71.43157178946905L48.83784691666666,99.15531840351652L49.335177333333334,79.19818483284541L49.43464341666667,47.31923669971739L49.53410950000001,68.31862044007438L49.63357558333334,77.981101348332L50.42930425000001,96.79420545656342L50.62823641666667,95.08332545753888L51.026100750000005,97.06488958069257L51.423965083333336,119.51098513276237L51.62289725,102.74467644892421L51.72236333333334,92.45036546857017L52.02076158333334,114.16777307632994L52.71702416666667,111.65332880660466L52.91595633333334,118.41226750694003L53.015422416666674,129.13198464012146L53.51275283333334,118.70558057447842L53.61221891666667,102.70377650696892L53.81115108333334,85.78282971634185L54.10954933333334,70.51485680730003L54.3084815,94.39635869101117L54.40794758333333,120.89996466527667L54.80581191666667,92.05117292356492L55.004744083333335,117.58470756459236L55.20367625,96.24432512892997L55.60154058333333,97.6881596180371L55.99940491666667,118.78994007662367L56.098871,77.04973000414032L56.198337083333335,102.74726004484724L56.297803166666675,118.35318048834802L56.39726925,118.2591459889412L56.49673533333333,74.78667381381989L57.19299791666668,73.7082173346792L57.491396166666675,98.0854339479719L57.59086225000001,99.56309496096205L58.38659091666667,91.95771388867925L58.78445525000001,61.770241810253694L58.88392133333333,68.29918652364188L58.983387416666666,97.79563361178126L59.18231958333334,60.203527662617816L59.48071783333334,110.89686271030564L59.97804825000001,110.89315216302873L60.176980416666666,126.02978128954342L60.67431083333334,117.74174344021935L61.07217516666667,74.15285958800997L61.17164125,49.88046143947329L61.27110733333334,90.62149126502446L61.56950558333334,114.57577742181506L61.86790383333334,120.22485486565319L61.96736991666667,110.53535110259057L62.26576816666667,102.19586912284579L62.36523425,84.99845958518982L62.76309858333334,93.64526959133148L63.260429,92.65000969644954L63.35989508333334,101.95800445968766L63.459361166666675,124.07408309773038L63.65829333333334,128.05102548975606L63.75775941666667,122.6498683521407L63.857225500000006,105.26875375495638L64.05615766666668,102.6128471182074L64.15562375,121.63127217204232L64.35455591666667,123.55818514895441L64.75242025,120.90843478369713L64.95135241666668,112.09676018667221L65.0508185,117.56209061002733L65.15028458333333,133.9371793302468L65.34921675000001,122.15198963618279L65.74708108333334,121.96462198475432L65.84654716666667,105.6509161467893L66.2444115,69.6900962600708L66.34387758333334,97.50899833045688L66.54280975,91.91779103752545L66.74174191666667,116.73376338165147L67.13960625,103.77210840719087L67.23907233333334,123.27779006103108L67.53747058333333,107.14338338235449L67.73640275000001,126.78655909579142L67.83586883333334,117.89294074872564L68.034801,110.44963686105183L68.13426708333334,115.4053574844088L68.43266533333333,112.53112200610978L68.53213141666667,124.4510063646521L68.63159750000001,84.83635242847033L68.83052966666666,107.5816415761539L69.12892791666667,115.30113846186231L69.52679225000001,126.76772761877946L69.92465658333334,107.99658746242524L70.02412266666667,113.14104845987048L70.32252091666668,104.15383320621083L70.62091916666667,92.98677632975578L70.72038525,106.61502303004265L70.81985133333335,121.38255760489191L70.91931741666667,72.2089524244581L71.0187835,77.49850840871675L71.11824958333334,65.52581918593816L71.41664783333334,94.8087089925153L71.51611391666667,97.31159002201898L71.61558000000001,62.90064595127106L71.71504608333333,-16.072508276121965L72.01344433333334,47.8856496434893L72.70970691666668,72.66915619754792L73.00810516666667,107.77518348234041L73.10757125,90.3518022149631L73.30650341666667,95.71074363497327L73.4059695,108.06408465521677L73.50543558333334,85.78178668689729L73.70436775,118.51446041481836L73.90329991666667,128.69580651078905L74.10223208333333,111.50999617988724L74.30116425,120.84534349114556L74.40063033333334,120.79009889711654L74.69902858333334,114.63877879803522L74.89796075000001,115.85255336155211L75.196359,130.70656047233513L75.29582508333334,132.66997648259573L75.89262158333335,107.65495935279984L75.99208766666666,103.45867805910112L76.09155375,103.69950396677426L76.48941808333335,110.85469195086617L76.78781633333334,100.43993504735401L76.9867485,113.54357989798274L77.28514675000001,107.52833917488373L77.68301108333334,131.72080170478142L78.08087541666667,82.96246610941206L78.18034150000001,99.12637133921898L78.27980758333334,114.23627733203342L78.47873975,81.94006946570534L78.67767191666667,114.67490118558068L78.77713800000001,129.04341705366542L78.87660408333333,125.534264375891L79.07553625000001,83.94365110121454L79.27446841666666,111.13261733688628L79.47340058333333,109.00838596786772L79.57286666666667,117.42373335364888L79.87126491666668,119.74684765894074L79.97073100000001,105.03177027184624L80.46806141666667,129.59808093013083L80.66699358333334,124.68443515545982L80.96539183333333,119.04264093446733L81.06485791666667,130.04777048686574L81.26379008333333,112.20977902085441L81.46272225000001,117.88384721040727L81.66165441666668,114.72129801259723L81.86058658333333,110.06740853057589L81.96005266666667,96.03055804259438L82.25845091666667,132.2340171496698L82.45738308333334,102.13820278229034L82.55684916666668,89.72676382310051L82.95471350000001,116.37559666146552L83.35257783333334,115.27600984443939L83.65097608333333,128.30494321528505L83.75044216666667,118.37981970013892L83.84990825000001,120.97469113111497L83.94937433333334,114.72080047556332L84.04884041666668,127.64649491187504L84.54617083333333,108.91638957197327L84.745103,141.0791376247747L84.84456908333334,111.09644699396408L85.04350124999999,109.89698711041044L85.14296733333333,85.12370104602405L85.44136558333334,110.26060276028088L85.64029775,125.16630277000155L86.33656033333334,136.04335549991472L86.63495858333334,131.4429662350927L87.132289,125.96767308221546L87.23175508333334,121.94883267695565L87.33122116666668,112.66277150416376L87.62961941666669,121.92151010104588L87.82855158333334,125.9762930611883L87.92801766666668,106.63671084918296L88.02748375,140.02949033822333L88.32588200000001,110.51267420380456L88.82321241666668,106.19471213599614L89.02214458333334,136.25263875852312L89.22107675000001,127.67100010940007L89.32054283333333,133.29080379293646L89.519475,133.6182790719952L89.81787325,127.85652147882325L89.91733933333335,123.05299323804039L90.1162715,125.12297508709771L90.51413583333334,107.20090585677966L90.61360191666667,115.14130319111689L90.81253408333335,132.39186526949067L91.11093233333334,116.14593836215566L91.3098645,128.9524217262609L91.60826275000001,132.58651614376475L91.70772883333335,116.71747653681892L91.906661,130.4889599530697L92.10559316666667,119.25466963839531L92.20505925,130.33240662842138L92.40399141666667,142.73976038895336L92.50345750000001,138.53028237501215L92.70238966666666,130.44118440897125L92.80185575,118.60754779553415L92.90132183333334,116.87096970898766L93.39865225000001,125.93310324999264L93.79651658333334,102.20035295057298L93.89598266666667,127.44315811998504L93.99544875000001,120.08633575987817L95.18904175,115.50241916697367L95.38797391666667,118.83946599197388L95.98477041666666,130.1293245994704L96.0842365,127.55585025816305L96.38263475000001,120.5219803856441L96.48210083333333,123.61967593080658L96.78049908333332,108.9511871922357L97.07889733333333,141.49676301772254L97.17836341666667,119.14063175245694L97.37729558333334,91.42539122336252L97.47676166666668,119.35488438698223L97.57622775000002,136.86560438428606L97.67569383333333,124.26840427878926L97.77515991666667,127.68087891701292L98.37195641666668,112.44514400999887L98.67035466666667,132.1604386156627L99.96341375000002,136.1631899920191L100.06287983333334,108.56893488407135L100.16234591666668,108.64601116337096L100.261812,123.021852215256L100.56021025000001,109.84394846371244L101.35593891666667,139.97807617991313L101.45540500000001,120.9555929023198L102.25113366666668,127.39174695888589L102.35059975000001,121.28650897966112L102.74846408333333,124.10036863861765L102.84793016666667,119.5777270283699L103.04686233333334,138.63376108642987L103.14632841666668,137.8558109813418L103.2457945,104.50106010607313L103.44472666666668,134.6516095416035L103.54419275,129.922621939574L103.842591,134.12597365413393L104.04152316666668,138.9772115003722L104.53885358333333,121.83472885237421L104.63831966666667,123.86266582485608L104.93671791666668,144.6703059856551L105.23511616666669,126.98228896604266L105.53351441666668,123.96112420776915L105.73244658333334,135.66161871205057L106.03084483333335,126.91474381787438L106.13031091666667,105.99684825147902L106.52817525,108.31435177768981L106.62764133333334,115.43877039316725L107.92070041666668,128.25589685370244L108.0201665,134.58857519606184L108.11963258333334,120.8760289378507L108.51749691666669,131.34104307620868L108.71642908333334,128.1729969933374L109.01482733333334,122.10969898830142L109.21375950000001,147.70115773003442L109.31322558333335,140.85227872058323L109.61162383333334,127.30189356889045L109.71108991666667,128.09648418971472L110.20842033333335,118.29379374865125L110.30788641666666,131.5926769269194L110.50681858333334,115.97266359707287L110.60628466666667,120.20843014911244L110.90468291666667,130.35386665952205L111.30254725,129.53404551609924L111.40201333333334,123.74315503154483L111.60094550000001,120.30899856860299L111.79987766666667,116.18360131617955L112.29720808333335,129.62927290550303L112.49614025000001,129.49673323576792L112.59560633333335,139.89523326655797L112.69507241666668,126.97056987084663L112.99347066666667,147.04299715888502L113.39133500000001,135.45434358484405L113.59026716666666,132.245241705043L113.68973325,147.98118116378785L113.98813150000001,134.97420236386574L114.38599583333335,132.10200498907906L114.68439408333334,145.15984046605658L114.98279233333335,145.98213131138257L115.48012275,132.19993586284775L115.67905491666667,138.09970003870558L115.77852100000001,147.46615840063777L115.97745316666668,150.07363610127996L116.17638533333333,136.26041652119162L116.27585141666667,142.33183996537755L117.07158008333333,131.2078739921536L117.27051225000001,136.3410145234721L117.36997833333334,130.74282972322192L117.66837658333334,135.8123454584224L118.06624091666667,125.64069534019063L118.46410525000002,132.9932976271425L118.66303741666667,139.02387208196095L118.86196958333333,135.56648123897827L119.06090175000001,131.0742013766425L119.25983391666668,135.74384419992995L119.35930000000002,144.86365906754565L119.65769825000001,141.41635084252698L119.75716433333334,135.83579863486972L119.85663041666668,136.45975503354413L120.05556258333334,140.26721413246224L120.55289300000001,147.0485150244236L120.75182516666668,132.51681600085328L120.95075733333334,137.83093412964686L121.64701991666668,145.45402871922087L122.04488425,129.96313524130414L122.24381641666668,134.02352598331657L122.3432825,140.2855360835961L122.940079,131.75448436253413L123.03954508333334,144.23328264280727L123.13901116666668,131.3806542174135L123.23847725,119.3557056228093L123.33794333333334,140.7691270944902L123.73580766666667,152.24339960192785L124.03420591666668,134.44864140667235L125.02886675,151.16763911412443L125.22779891666669,133.97538777668137L125.327265,134.5442524390902L125.42673108333334,135.90914038920403L125.62566325,136.82256743085387L125.92406150000001,140.50064292326996L126.12299366666669,122.76617212963106L126.32192583333334,150.3154390997546L126.42139191666668,128.7569975715365L126.520858,117.84765288979668L126.62032408333334,132.0928844758613L126.71979016666668,142.1668884553739L126.81925625000001,135.97581934337958L127.1176545,136.0203758828129L127.21712058333334,123.6647360016959L127.41605275,137.31954398628645L127.51551883333335,134.86083885041307L127.61498491666667,142.15236696784837L127.91338316666666,144.91722222617696L128.01284925000002,128.33551177075933L128.11231533333336,130.9025750776359L128.51017966666666,145.73330884463448L129.20644225,149.4947038069623L129.40537441666666,133.73156166074958L129.60430658333334,136.01395285953797L129.70377266666668,143.10036084450996L129.80323875000002,130.35814367968698L130.101637,136.7098273372991L130.30056916666666,133.42976049152443L130.49950133333334,145.30434799950464L130.59896741666668,132.2562354751655L130.79789958333336,128.26422610320364L131.29523,129.02776262036394L131.49416216666668,141.5348755534036L131.59362825000002,101.81558897955078L131.89202650000001,128.42890486700196L131.99149258333335,125.85292785446985L132.19042475,134.0072121635846L132.28989083333335,133.64395018461775L132.58828908333334,137.36401660381046L132.78722125000002,141.52107039931843L132.88668733333336,143.90468640681675L132.98615341666667,136.37306070399285L133.28455166666666,147.9448130049365L133.98081425,145.50002991437913L134.17974641666666,146.19889560876575L134.37867858333334,142.39584840450968L134.47814466666668,132.2290028155872L134.57761075000002,135.22659151176046L134.67707683333333,140.88233775017943L135.37333941666668,133.28944006190983L135.57227158333333,126.48643936196397L135.77120375,133.13848852470946L136.069602,136.0685800280912L136.6663985,131.04523932628973L136.76586458333333,133.30605060553552L136.96479675,110.71278000218528L137.06426283333334,133.08557576087546L137.16372891666668,136.61380568696774L137.56159325000002,134.3896353127786L137.76052541666667,136.4567368420192L137.95945758333335,136.27394293464934L138.25785583333334,148.501814706019L138.35732191666668,129.71071312408787L138.65572016666667,136.44473900619576L138.75518625,143.22020732545855L139.05358450000003,122.71700587960652L139.15305058333334,135.2210017131567L139.45144883333333,136.26892560335568L139.8493131666667,141.03552820403237L139.94877925,132.23655578742708L140.04824533333334,151.0207008425168L140.2471775,130.72193316779817L140.64504183333335,139.0945073547193L140.7445079166667,132.6570495113475L141.14237225,128.59709636214802L141.6397026666667,146.89224044040273L141.83863483333334,143.99919746278013L142.23649916666668,133.5587214912687L142.5348974166667,140.60173585469383L142.6343635,155.31690915254185L143.13169391666668,136.66116461873057L143.33062608333336,151.21880600252322L143.62902433333335,134.2849996778965L143.7284904166667,132.00362453365327L143.92742258333334,142.0255040158374L144.22582083333333,144.14607279295583L144.32528691666667,146.46515884659973L144.424753,146.62639681211542L144.52421908333335,146.50320244642666L144.72315125,139.072253062691L144.92208341666668,133.87533188027996L145.0215495,150.50862733503752L145.31994775,129.09296095228197L145.41941383333335,127.4516282384055L146.01621033333333,146.89733869639468L146.41407466666666,140.018760322673L146.91140508333334,138.57090357634L147.01087116666667,136.27406881751335L147.11033725000001,123.85682126331331L147.50820158333335,120.73288813264031L147.80659983333334,129.77699045198304L148.30393025,126.27947294749534L148.6023285,130.01930897075792L149.09965891666667,137.76255575680733L149.199125,140.60061489776206L149.49752325,140.46879455867838L149.89538758333333,144.12716938287872L150.2932519166667,141.68624670015063L150.79058233333333,143.70599529205052L151.28791275,127.55799925848416L151.48684491666668,130.59062535180365L151.7852431666667,139.5218467086724L151.88470925000001,138.46556659407275L152.0836414166667,136.8555577328546L152.77990400000002,127.36535651561192L153.67509875000002,145.29255097682136L153.77456483333333,150.06562755336083L154.07296308333335,139.4604758152621L154.37136133333334,142.55803049150538L154.47082741666668,131.26265401847024L154.66975958333333,141.99227993137498L155.0676239166667,113.45351970042503L155.26655608333334,140.45222297879627L155.66442041666667,141.22683119356634L155.7638865,150.84422205882413L155.86335258333332,123.93445502386774L155.96281866666666,133.94402496027948L156.06228475,137.3342363148417L156.75854733333333,148.6698263685022L156.85801341666667,142.84969209575655L157.25587775000002,149.5283355121272L157.75320816666667,141.47391527790685L157.85267425,142.57302853558744L158.25053858333334,144.75510907503536L158.54893683333333,145.8283773818527L158.94680116666666,134.69694235869815L160.93612283333334,144.4827495099306L161.33398716666667,143.0990720437595L162.32864800000002,150.83704074115414L162.42811408333336,133.63288747864112L162.82597841666666,139.15103775228775L163.02491058333334,146.35598543419158L163.12437666666668,148.45708732555593L163.22384275000002,149.06909084657264L163.32330883333336,138.94887286991735L163.62170708333335,137.31227275228503L163.92010533333334,145.20162158805985L164.11903750000002,139.65440136446273L164.31796966666667,146.43829784119131L164.41743575,135.98262001524654L164.61636791666666,144.2159048131534L164.71583400000003,141.96452575707437L164.91476616666668,146.28127095719745L165.01423225000002,139.13746937787533L165.21316441666667,141.98710075068476L165.3126305,145.55724067885538L165.51156266666666,144.99841667345595L166.20782525,143.40114895640102L166.50622350000003,143.9635216596808L166.60568958333334,137.89169958642552L166.80462175000002,147.01881566015314L167.50088433333335,147.3155095817532L167.89874866666668,148.77117406286513L168.19714691666667,150.67856320701327L168.49554516666666,142.85448163901057L168.59501125,133.42051409544266L168.99287558333336,136.4684949009589L169.09234166666667,136.27201872515678L169.39073991666666,143.29963341821946L170.08700249999998,143.18071007827353L170.18646858333335,128.13215100118092L170.28593466666666,136.59265436860494L170.48486683333334,143.73808343352593L170.683799,145.0613790859325L170.78326508333336,147.42043294889586L171.47952766666668,137.04218807036537L171.97685808333335,134.48485371054923L172.57365458333337,107.71897978077617L172.87205283333336,148.49569440105986L172.97151891666667,142.25825243973733L173.2699171666667,133.35274715365685L173.96617975,129.30021809622218L174.264578,154.17534639479433L174.36404408333337,138.11368502545358L174.46351016666668,148.9452880470412L175.35870491666668,151.89114637913875L175.65710316666667,144.81805050703457L175.75656925,149.15729876770294L175.9555014166667,147.995678673625L176.15443358333334,151.77503742036652L176.25389966666668,147.1768735847473L176.35336575,139.93058237365315L176.45283183333336,137.89745423163689L176.75123008333335,148.268367931945L177.14909441666668,140.03122272620882L177.2485605,146.70460303997996L177.34802658333336,149.20519420024326L177.64642483333336,141.7812043405601L178.14375525,152.3374760622893L178.64108566666667,139.42859747856005L178.74055175,147.1979739505223L178.84001783333335,137.5213282228538L179.23788216666668,145.09942568297046L179.33734825,138.85582745015623L179.43681433333336,146.40332937989916L180.232543,154.95098565016474L180.53094125,152.94508717051576L180.7298734166667,136.25218617965496L181.32666991666667,132.5445461974655L181.52560208333333,135.71534072286744L181.82400033333332,144.24684202558655L182.22186466666668,147.78774715719905L182.619729,148.23678631913663L182.8186611666667,143.68473307687898L183.11705941666668,144.46456543050493L183.21652550000002,149.8382591232913L183.7138559166667,146.60830264902117L183.813322,157.48190858622962L184.21118633333333,158.8097659938506L184.3106524166667,143.09417460090773L184.4101185,143.85881109452248L184.50958458333332,145.78391375596183L184.70851675,145.30766291492327L184.90744891666668,158.23620170451915L185.30531325,156.60637828106542L185.5042454166667,146.07594401717188L185.70317758333334,150.2172714463132L186.00157583333333,151.64600898337366L186.1010419166667,151.45457411655357L186.49890625,144.03274524603572L186.79730450000002,148.1730386373656L186.9962366666667,146.64543809390068L187.09570275000002,139.83917942554612L187.2946349166667,135.5801275408779L187.5930331666667,138.56880852581776L187.69249925000003,148.6144618860313L187.79196533333334,149.06328225156238L187.89143141666668,143.86243771989007L188.38876183333335,148.98775553037441L188.4882279166667,147.1351643958092L188.58769400000003,148.42335371521543L188.98555833333333,146.74904268818244L189.28395658333335,145.3175417225361L189.48288875,146.31622443243435L189.78128700000002,151.35177127622708L189.9802191666667,154.50692935159378L190.07968525,150.55058828970365L190.17915133333335,150.25590249950545L190.2786174166667,146.37893208197187L190.8754139166667,148.8942695205893L191.27327825,156.50412692757166L191.37274433333334,153.40280625564714L191.47221041666668,150.6674525456599L191.57167650000002,154.1470287448168L192.0690069166667,140.63853561193605L192.86473558333333,148.43264506946292L192.96420166666667,153.43604232895376L193.36206600000003,154.60936503356697L193.56099816666665,148.81432491031717L193.85939641666667,149.371725240469L194.05832858333335,153.51129630393643L194.15779466666666,157.48615863149507L194.35672683333334,157.36425456516233L194.45619291666665,148.92193977298058L195.25192158333334,145.30109302830698L195.35138766666665,151.90901125558784L195.55031983333333,148.960519873585L195.84871808333335,147.48504682465963L196.54498066666667,146.6292321737664L196.64444675000001,145.02076987344878L196.74391283333335,151.6269317350558L197.04231108333335,148.01273580169678L197.44017541666668,152.24699775379045L197.53964150000002,155.24063312859195L197.63910758333336,148.38507333571573L197.93750583333335,147.6445883687224L198.23590408333334,152.0451640632408L198.43483625000002,156.11820153726853L198.63376841666667,147.16297851433075L199.03163275000003,154.62178997196472L199.23056491666668,153.27075363270725L199.82736141666666,148.47511555000713L200.02629358333334,145.71371008159434L200.42415791666667,151.62175105576006L200.92148833333334,153.21372120228838L201.31935266666667,145.87249932568415L201.61775091666667,157.28557327934675L201.71721700000003,156.0269394580807L201.91614916666668,150.0169858152696L202.01561525000002,151.62960824452128L202.21454741666668,132.1411305820942L202.31401350000002,153.4946452979616L202.41347958333336,132.83975649959703L202.61241175000004,144.49318280158724L202.71187783333335,161.49656638347253L202.81134391666666,140.13110178715843L203.50760650000004,145.1303569009815L203.60707258333335,155.29564993458135L203.70653866666666,156.56767829201902L203.80600475000003,154.57588169034892L204.10440300000002,146.68283129893032L204.99959775000002,141.98107635647912L205.49692816666666,159.23516465365037L205.59639425,157.44661642614435L205.69586033333334,153.7659873099157L206.09372466666667,149.50661172645434L206.19319074999999,159.09995746608294L206.39212291666666,158.56404264332568L206.69052116666668,162.8604307860136L206.98891941666668,154.3628938788857L207.28731766666667,146.2516615092584L207.38678375,151.15738415652515L207.5857159166667,152.4231183707629L207.78464808333337,157.43792751131738L207.98358025,152.03875452741556L208.4809106666667,158.74322640998875L208.878775,157.66303004983493L209.17717325,153.90649356661524L209.57503758333337,157.48763625654155L209.77396975,152.48150853778637L209.87343583333336,155.82791265567712L209.97290191666667,151.03375819244556L210.2713001666667,155.01906130468848L210.76863058333336,151.2433846317189L211.36542708333334,148.01912585565023L211.46489316666668,148.4561252208097L211.56435925,153.03079841484345L211.86275750000001,156.54477510379894L212.16115575,144.6081078619957L212.459554,152.03950832599403L212.55902008333337,153.13118850027664L212.95688441666667,138.99866853426184L213.0563505,140.9027577490466L213.15581658333335,155.34989346012048L213.45421483333337,148.50777316158158L213.65314700000002,157.0259878277268L213.95154525,139.64194495534898L214.2499435,157.26546648903405L214.54834175,157.13770587231434L214.94620608333335,148.7182972655637L215.0456721666667,146.06416797496593L215.14513825,149.38038418318547L215.24460433333337,158.99913728086437L215.34407041666668,153.14079306307863L215.54300258333336,149.96854788752964L215.64246866666667,156.84240865106244L215.74193475,157.48795695812362L215.84140083333335,158.23077974973407L216.63712950000001,153.08167607237613L216.8360616666667,157.77713687162742L216.93552775,149.40466458988192L217.03499383333337,150.86975380113296L217.13445991666669,156.27570797502995L217.43285816666668,146.7491475905691L217.63179033333333,136.5867678461075L217.7312564166667,129.3580253056969L218.0296546666667,124.54156409924371L218.12912075,145.21852885557925L220.51630675,151.1067357856376L220.61577283333332,154.7874638098308L221.01363716666668,149.48106949390686L221.11310325000002,158.0648181796074L221.21256933333333,144.73942766683444L221.51096758333333,151.83089044823816L221.70989975,154.23886928573677L222.00829800000002,158.61354607959305L222.10776408333334,157.37656411093474L222.30669625000002,155.10489093885252L222.40616233333333,153.48955453499727L222.5056284166667,155.619308265371L222.90349275000003,147.39567598564287L223.20189100000002,162.46043798565867L223.59975533333335,151.28825288110122L223.79868750000003,154.49874546682835L224.2960179166667,156.32170617297717L224.395484,159.9358661398036L224.49495008333335,154.2822778933389L224.5944161666667,153.67704057626213L225.589077,157.92062835053036L225.68854308333334,150.19715116855076L225.88747525000002,155.9745227326751L226.28533958333333,156.5209937327419L226.78267000000002,155.51344677117044L227.2800004166667,154.29870560709068L227.47893258333335,158.81708218601773L227.5783986666667,149.41809509258613L227.77733083333334,154.77164303131616L227.8767969166667,156.99856634385247L227.97626300000002,152.09105586019587L228.37412733333335,153.44962269221034L228.57305950000003,153.22791749241523L228.67252558333334,146.031291566985L228.87145775000002,156.59053951928445L229.169856,149.16757920159614L229.26932208333335,147.8844551688603L229.3687881666667,151.31661548924447L229.76665250000002,151.0751152090856L229.86611858333333,144.62068415955136L230.26398291666666,150.74004200002125L230.36344900000003,151.17660077515671L230.76131333333333,146.98838497638704L230.86077941666667,151.1173249322687L231.05971158333335,142.7617779013089L231.15917766666666,147.9697378120082L231.25864375000003,151.3900171877997L231.55704200000002,161.1393332945279L232.25330458333335,155.54337692069157L232.35277066666666,157.80103513391532L232.45223675000003,158.85714590609075L232.75063500000002,158.4072600320322L233.14849933333335,152.85047870519332L233.74529583333336,151.43735064326867L233.84476191666667,153.1425029719813L234.24262625000003,152.2357042625632L234.34209233333334,152.46806604623796L234.73995666666667,157.82572765713078L234.83942275,153.45611465133942L235.03835491666666,158.4418283656495L235.7346175,161.60159165579083L236.13248183333334,152.84998716258153L236.33141400000002,152.82241431954932L236.43088008333334,157.20464708245655L237.12714266666666,159.7634935352462L237.32607483333334,157.5708268463782L237.52500700000002,151.55526242448605L237.72393916666667,151.73716316296375L238.22126958333334,155.62623931591853L238.71860000000004,153.86518000953538L238.91753216666666,157.31994529564042L239.01699825000003,154.97144011695897L239.11646433333334,163.2757633125101L239.41486258333336,153.97728919016464L239.71326083333335,152.41294733507294L239.91219300000003,155.70519784375603L240.01165908333334,153.33403974397694L240.21059125000002,152.38753997702258L240.31005733333336,153.87198667582445L240.90685383333334,154.56269246313403L241.30471816666667,154.90091274379833L241.50365033333335,160.01653457654376L242.39884508333336,159.74561816855842L242.69724333333335,151.0712083444851L242.99564158333337,155.23200715519704L243.19457375,160.47516930965014L244.18923458333336,157.77346528809412L244.48763283333335,159.9770418251753L244.5870989166667,153.67606947988273L245.18389541666667,146.7426166676964L245.4822936666667,154.42929858825036L246.3774884166667,160.4867115693944L246.77535275,155.5380613668987L246.87481883333336,146.87738626245093L247.27268316666667,156.44596155137677L247.86947966666668,155.2868905852948L247.96894575000002,151.9128986383166L248.06841183333336,156.23482451773543L248.76467441666668,156.17611664634092L249.26200483333335,128.14632481222495L249.3614709166667,147.90868462296893L249.460937,155.73528085104059L249.65986916666668,137.5933452099051L249.85880133333336,158.18155655269965L250.2566656666667,157.11793626824448L250.35613175,146.6962408211572L250.65453,155.43401018817084L251.1518604166667,152.09630397674016L251.74865691666668,147.47237461635044L251.94758908333336,154.93327213287355L252.24598733333337,144.9999752232007L252.74331775000002,153.8473361135636L252.9422499166667,152.8756223086715L253.041716,149.2401236977918L253.14118208333338,158.55329764172012L253.34011425,154.27976173466445L253.43958033333337,143.07752209632739L253.53904641666668,153.02686307673795L253.8374446666667,150.97445387605262L253.93691075,148.33063798866954L254.03637683333338,159.7248744708981L254.43424116666668,153.1943472300768L254.63317333333336,152.51691609049698L255.22996983333334,159.3576981343031L255.52836808333333,151.1981866891214L255.82676633333332,155.8003083419289L256.02569850000003,145.75156185991426L256.5230289166667,153.67648159640177L257.1198254166667,152.27338370124784L257.61715583333336,148.15788473830904L257.81608800000004,152.49421221681155L258.0150201666667,146.91840309563707L258.11448625,145.25260115076816L258.21395233333334,156.83736434486934L258.3134184166667,161.47918106079103L258.4128845,147.75138798998083L258.51235058333333,159.2404382464886L259.50701141666667,151.68822470097882L259.90487575000003,150.898447601097L260.203274,145.37649986105308L260.6011383333333,153.659487409762L261.49633308333335,157.88023793445316L261.79473133333335,149.12081072040968L262.1925956666667,158.1298501663123L262.29206175,147.09752541947367L262.4909939166667,157.4864448651501L262.59046,154.36400434557882L262.7893921666667,157.74262698362554L262.88885825,154.23438246079857L263.48565475000004,156.61932773139648L264.08245125,156.71744293364458L264.4803155833333,153.41494795760087L264.8781799166667,153.60208032796214L265.07711208333336,150.47559806929317L265.1765781666667,158.48981671173235L265.37551033333335,150.08327213479794L265.57444250000003,157.83940842695748L265.97230683333333,154.56104849287445L266.171239,153.12991018976487L266.3701711666667,152.62185294508936L267.06643375000004,154.13868750647137L267.16589983333336,150.47972822611675L267.56376416666666,156.11249934325048L267.9616285,158.7743794216173L268.26002675,151.22189462850775L268.4589589166667,151.95808159485887L268.558425,161.00773325045623L268.65789108333337,159.3489043170895L268.7573571666667,155.55486373203144L268.95628933333336,155.4088905623811L269.15522150000004,153.0255817690151L269.25468758333335,148.88179512820926L269.45361975000003,149.9050489742756L269.65255191666665,145.01972084958214L269.95095016666664,150.91586139728344L270.1498823333333,141.68692406984738L270.3488145,149.1249768437658L270.44828058333337,147.11156435602052L270.5477466666667,141.6898793199403L270.74667883333336,145.12508180953776L270.94561100000004,154.88072802599842L271.44294141666666,153.67262418578352L271.64187358333334,141.15186794805527L271.74133966666665,151.26442805048399L271.9402718333333,155.58138605259145L272.43760225000005,155.48816080016752L272.6365344166667,151.47547666639943L272.83546658333336,156.05599442197598L272.93493266666667,143.0274686718328L273.23333091666666,149.9214317298617L274.0290595833334,160.89702077017512L274.1285256666667,155.5944449011258L274.62585608333336,154.135230223528L275.12318650000003,153.4718799814497L275.22265258333334,154.43484193008288L275.42158475,154.57141884309905L275.719983,157.61184218095883L275.9189151666667,159.08174191594125L276.1178473333334,152.58368196379288L276.31677950000005,155.34046723137584L276.41624558333336,155.9274200624568L276.91357600000003,151.1763340233735L277.01304208333335,154.59762795510466L277.11250816666666,152.24015811817986L277.41090641666665,146.8486370140825L277.5103725,149.93644775721006L277.80877075,149.54553051190717L278.40556725000005,160.8110802392023L278.50503333333336,147.55094350675176L278.70396550000004,147.11131858471464L278.90289766666666,147.20696258645398L279.10182983333334,161.98782575883186L279.20129591666665,155.83818859375376L280.29542283333336,152.35423197065083L280.3948889166667,153.7557338509219L280.494355,159.14544763675758L280.79275325,156.4646401706253L281.2900836666667,150.30919291193146L281.38954975,155.80393496729647L281.8868801666667,158.2966884206704L281.98634625,149.2269899189813L282.08581233333337,159.05628660251415L282.1852784166667,155.6176328243954L282.38421058333336,155.98518531097687L282.48367666666667,152.47598467782566L282.58314275,151.89758288986343L282.68260883333335,157.16847673953433" style="fill: none;" fill="none"></path></g></g></g></g></g></g><g transform="translate(31, 175)" clip-path="url(#clip_1)"><clipPath id="clip_1"><rect width="298" height="23"></rect></clipPath><g><g><line x1="0" y1="0" x2="0" y2="5" style="visibility: inherit;" fill="rgb(0, 0, 0)" stroke="rgb(204, 204, 204)" stroke-width="1px"></line><line x1="19.893216666666667" y1="0" x2="19.893216666666667" y2="5" style="visibility: inherit;" fill="rgb(0, 0, 0)" stroke="rgb(204, 204, 204)" stroke-width="1px"></line><line x1="39.786433333333335" y1="0" x2="39.786433333333335" y2="5" style="visibility: inherit;" fill="rgb(0, 0, 0)" stroke="rgb(204, 204, 204)" stroke-width="1px"></line><line x1="59.67965000000001" y1="0" x2="59.67965000000001" y2="5" style="visibility: inherit;" fill="rgb(0, 0, 0)" stroke="rgb(204, 204, 204)" stroke-width="1px"></line><line x1="79.57286666666667" y1="0" x2="79.57286666666667" y2="5" style="visibility: inherit;" fill="rgb(0, 0, 0)" stroke="rgb(204, 204, 204)" stroke-width="1px"></line><line x1="99.46608333333333" y1="0" x2="99.46608333333333" y2="5" style="visibility: inherit;" fill="rgb(0, 0, 0)" stroke="rgb(204, 204, 204)" stroke-width="1px"></line><line x1="119.35930000000002" y1="0" x2="119.35930000000002" y2="5" style="visibility: inherit;" fill="rgb(0, 0, 0)" stroke="rgb(204, 204, 204)" stroke-width="1px"></line><line x1="139.25251666666668" y1="0" x2="139.25251666666668" y2="5" style="visibility: inherit;" fill="rgb(0, 0, 0)" stroke="rgb(204, 204, 204)" stroke-width="1px"></line><line x1="159.14573333333334" y1="0" x2="159.14573333333334" y2="5" style="visibility: inherit;" fill="rgb(0, 0, 0)" stroke="rgb(204, 204, 204)" stroke-width="1px"></line><line x1="179.03895" y1="0" x2="179.03895" y2="5" style="visibility: inherit;" fill="rgb(0, 0, 0)" stroke="rgb(204, 204, 204)" stroke-width="1px"></line><line x1="198.93216666666666" y1="0" x2="198.93216666666666" y2="5" style="visibility: inherit;" fill="rgb(0, 0, 0)" stroke="rgb(204, 204, 204)" stroke-width="1px"></line><line x1="218.82538333333332" y1="0" x2="218.82538333333332" y2="5" style="visibility: inherit;" fill="rgb(0, 0, 0)" stroke="rgb(204, 204, 204)" stroke-width="1px"></line><line x1="238.71860000000004" y1="0" x2="238.71860000000004" y2="5" style="visibility: inherit;" fill="rgb(0, 0, 0)" stroke="rgb(204, 204, 204)" stroke-width="1px"></line><line x1="258.6118166666667" y1="0" x2="258.6118166666667" y2="5" style="visibility: inherit;" fill="rgb(0, 0, 0)" stroke="rgb(204, 204, 204)" stroke-width="1px"></line><line x1="278.50503333333336" y1="0" x2="278.50503333333336" y2="5" style="visibility: inherit;" fill="rgb(0, 0, 0)" stroke="rgb(204, 204, 204)" stroke-width="1px"></line><line x1="298.39825" y1="0" x2="298.39825" y2="5" style="visibility: inherit;" fill="rgb(0, 0, 0)" stroke="rgb(204, 204, 204)" stroke-width="1px"></line></g><g transform="translate(0, 8)"><text x="0" y="0" dx="0em" dy="0.95em" style="text-anchor: middle; visibility: hidden; font-family: Roboto, sans-serif; font-size: 12px; font-weight: 200;" fill="rgb(33, 33, 33)" stroke="none" stroke-width="1px">-2k</text><text x="19.893216666666667" y="0" dx="0em" dy="0.95em" style="text-anchor: middle; visibility: inherit; font-family: Roboto, sans-serif; font-size: 12px; font-weight: 200;" fill="rgb(33, 33, 33)" stroke="none" stroke-width="1px">0</text><text x="39.786433333333335" y="0" dx="0em" dy="0.95em" style="text-anchor: middle; visibility: hidden; font-family: Roboto, sans-serif; font-size: 12px; font-weight: 200;" fill="rgb(33, 33, 33)" stroke="none" stroke-width="1px">2k</text><text x="59.67965000000001" y="0" dx="0em" dy="0.95em" style="text-anchor: middle; visibility: inherit; font-family: Roboto, sans-serif; font-size: 12px; font-weight: 200;" fill="rgb(33, 33, 33)" stroke="none" stroke-width="1px">4k</text><text x="79.57286666666667" y="0" dx="0em" dy="0.95em" style="text-anchor: middle; visibility: hidden; font-family: Roboto, sans-serif; font-size: 12px; font-weight: 200;" fill="rgb(33, 33, 33)" stroke="none" stroke-width="1px">6k</text><text x="99.46608333333333" y="0" dx="0em" dy="0.95em" style="text-anchor: middle; visibility: inherit; font-family: Roboto, sans-serif; font-size: 12px; font-weight: 200;" fill="rgb(33, 33, 33)" stroke="none" stroke-width="1px">8k</text><text x="119.35930000000002" y="0" dx="0em" dy="0.95em" style="text-anchor: middle; visibility: hidden; font-family: Roboto, sans-serif; font-size: 12px; font-weight: 200;" fill="rgb(33, 33, 33)" stroke="none" stroke-width="1px">10k</text><text x="139.25251666666668" y="0" dx="0em" dy="0.95em" style="text-anchor: middle; visibility: inherit; font-family: Roboto, sans-serif; font-size: 12px; font-weight: 200;" fill="rgb(33, 33, 33)" stroke="none" stroke-width="1px">12k</text><text x="159.14573333333334" y="0" dx="0em" dy="0.95em" style="text-anchor: middle; visibility: hidden; font-family: Roboto, sans-serif; font-size: 12px; font-weight: 200;" fill="rgb(33, 33, 33)" stroke="none" stroke-width="1px">14k</text><text x="179.03895" y="0" dx="0em" dy="0.95em" style="text-anchor: middle; visibility: inherit; font-family: Roboto, sans-serif; font-size: 12px; font-weight: 200;" fill="rgb(33, 33, 33)" stroke="none" stroke-width="1px">16k</text><text x="198.93216666666666" y="0" dx="0em" dy="0.95em" style="text-anchor: middle; visibility: hidden; font-family: Roboto, sans-serif; font-size: 12px; font-weight: 200;" fill="rgb(33, 33, 33)" stroke="none" stroke-width="1px">18k</text><text x="218.82538333333332" y="0" dx="0em" dy="0.95em" style="text-anchor: middle; visibility: inherit; font-family: Roboto, sans-serif; font-size: 12px; font-weight: 200;" fill="rgb(33, 33, 33)" stroke="none" stroke-width="1px">20k</text><text x="238.71860000000004" y="0" dx="0em" dy="0.95em" style="text-anchor: middle; visibility: hidden; font-family: Roboto, sans-serif; font-size: 12px; font-weight: 200;" fill="rgb(33, 33, 33)" stroke="none" stroke-width="1px">22k</text><text x="258.6118166666667" y="0" dx="0em" dy="0.95em" style="text-anchor: middle; visibility: inherit; font-family: Roboto, sans-serif; font-size: 12px; font-weight: 200;" fill="rgb(33, 33, 33)" stroke="none" stroke-width="1px">24k</text><text x="278.50503333333336" y="0" dx="0em" dy="0.95em" style="text-anchor: middle; visibility: hidden; font-family: Roboto, sans-serif; font-size: 12px; font-weight: 200;" fill="rgb(33, 33, 33)" stroke="none" stroke-width="1px">26k</text><text x="298.39825" y="0" dx="0em" dy="0.95em" style="text-anchor: middle; visibility: hidden; font-family: Roboto, sans-serif; font-size: 12px; font-weight: 200;" fill="rgb(33, 33, 33)" stroke="none" stroke-width="1px">28k</text></g><line x1="0" y1="0" x2="298.39825" y2="0" fill="rgb(0, 0, 0)" stroke="rgb(204, 204, 204)" stroke-width="1px"></line></g></g></g></g></svg>