<svg viewBox="0 0 329.9917297363281 199.99655151367188" xmlns="http://www.w3.org/2000/svg"><g><g><g><g><g><line x1="41.171875" y1="175.06148936105924" x2="36.171875" y2="175.06148936105924" style="visibility: inherit;" fill="rgb(0, 0, 0)" stroke="rgb(204, 204, 204)" stroke-width="1px"></line><line x1="41.171875" y1="165.00818811852793" x2="36.171875" y2="165.00818811852793" style="visibility: inherit;" fill="rgb(0, 0, 0)" stroke="rgb(204, 204, 204)" stroke-width="1px"></line><line x1="41.171875" y1="156.5082430308727" x2="36.171875" y2="156.5082430308727" style="visibility: inherit;" fill="rgb(0, 0, 0)" stroke="rgb(204, 204, 204)" stroke-width="1px"></line><line x1="41.171875" y1="149.14525568590307" x2="36.171875" y2="149.14525568590307" style="visibility: inherit;" fill="rgb(0, 0, 0)" stroke="rgb(204, 204, 204)" stroke-width="1px"></line><line x1="41.171875" y1="142.65064056997568" x2="36.171875" y2="142.65064056997568" style="visibility: inherit;" fill="rgb(0, 0, 0)" stroke="rgb(204, 204, 204)" stroke-width="1px"></line><line x1="41.171875" y1="136.84100937988217" x2="36.171875" y2="136.84100937988217" style="visibility: inherit;" fill="rgb(0, 0, 0)" stroke="rgb(204, 204, 204)" stroke-width="1px"></line><line x1="41.171875" y1="98.62052939870506" x2="36.171875" y2="98.62052939870506" style="visibility: inherit;" fill="rgb(0, 0, 0)" stroke="rgb(204, 204, 204)" stroke-width="1px"></line><line x1="41.171875" y1="76.26298185015283" x2="36.171875" y2="76.26298185015283" style="visibility: inherit;" fill="rgb(0, 0, 0)" stroke="rgb(204, 204, 204)" stroke-width="1px"></line><line x1="41.171875" y1="60.40004941752796" x2="36.171875" y2="60.40004941752796" style="visibility: inherit;" fill="rgb(0, 0, 0)" stroke="rgb(204, 204, 204)" stroke-width="1px"></line><line x1="41.171875" y1="48.09580311150704" x2="36.171875" y2="48.09580311150704" style="visibility: inherit;" fill="rgb(0, 0, 0)" stroke="rgb(204, 204, 204)" stroke-width="1px"></line><line x1="41.171875" y1="38.042501868975734" x2="36.171875" y2="38.042501868975734" style="visibility: inherit;" fill="rgb(0, 0, 0)" stroke="rgb(204, 204, 204)" stroke-width="1px"></line><line x1="41.171875" y1="29.542556781320503" x2="36.171875" y2="29.542556781320503" style="visibility: inherit;" fill="rgb(0, 0, 0)" stroke="rgb(204, 204, 204)" stroke-width="1px"></line><line x1="41.171875" y1="22.17956943635087" x2="36.171875" y2="22.17956943635087" style="visibility: inherit;" fill="rgb(0, 0, 0)" stroke="rgb(204, 204, 204)" stroke-width="1px"></line><line x1="41.171875" y1="15.684954320423463" x2="36.171875" y2="15.684954320423463" style="visibility: inherit;" fill="rgb(0, 0, 0)" stroke="rgb(204, 204, 204)" stroke-width="1px"></line><line x1="41.171875" y1="9.875323130329951" x2="36.171875" y2="9.875323130329951" style="visibility: inherit;" fill="rgb(0, 0, 0)" stroke="rgb(204, 204, 204)" stroke-width="1px"></line></g><g transform="translate(31.171875, 0)"><text x="0" y="175.06148936105924" dx="0em" dy="0.3em" style="text-anchor: end; visibility: hidden; font-family: Roboto, sans-serif; font-size: 12px; font-weight: 200;" fill="rgb(33, 33, 33)" stroke="none" stroke-width="1px">0.5</text><text x="0" y="165.00818811852793" dx="0em" dy="0.3em" style="text-anchor: end; visibility: inherit; font-family: Roboto, sans-serif; font-size: 12px; font-weight: 200;" fill="rgb(33, 33, 33)" stroke="none" stroke-width="1px">0.6</text><text x="0" y="156.5082430308727" dx="0em" dy="0.3em" style="text-anchor: end; visibility: hidden; font-family: Roboto, sans-serif; font-size: 12px; font-weight: 200;" fill="rgb(33, 33, 33)" stroke="none" stroke-width="1px">0.7</text><text x="0" y="149.14525568590307" dx="0em" dy="0.3em" style="text-anchor: end; visibility: hidden; font-family: Roboto, sans-serif; font-size: 12px; font-weight: 200;" fill="rgb(33, 33, 33)" stroke="none" stroke-width="1px">0.8</text><text x="0" y="142.65064056997568" dx="0em" dy="0.3em" style="text-anchor: end; visibility: hidden; font-family: Roboto, sans-serif; font-size: 12px; font-weight: 200;" fill="rgb(33, 33, 33)" stroke="none" stroke-width="1px">0.9</text><text x="0" y="136.84100937988217" dx="0em" dy="0.3em" style="text-anchor: end; visibility: inherit; font-family: Roboto, sans-serif; font-size: 12px; font-weight: 200;" fill="rgb(33, 33, 33)" stroke="none" stroke-width="1px">1</text><text x="0" y="98.62052939870506" dx="0em" dy="0.3em" style="text-anchor: end; visibility: hidden; font-family: Roboto, sans-serif; font-size: 12px; font-weight: 200;" fill="rgb(33, 33, 33)" stroke="none" stroke-width="1px">2</text><text x="0" y="76.26298185015283" dx="0em" dy="0.3em" style="text-anchor: end; visibility: hidden; font-family: Roboto, sans-serif; font-size: 12px; font-weight: 200;" fill="rgb(33, 33, 33)" stroke="none" stroke-width="1px">3</text><text x="0" y="60.40004941752796" dx="0em" dy="0.3em" style="text-anchor: end; visibility: hidden; font-family: Roboto, sans-serif; font-size: 12px; font-weight: 200;" fill="rgb(33, 33, 33)" stroke="none" stroke-width="1px">4</text><text x="0" y="48.09580311150704" dx="0em" dy="0.3em" style="text-anchor: end; visibility: inherit; font-family: Roboto, sans-serif; font-size: 12px; font-weight: 200;" fill="rgb(33, 33, 33)" stroke="none" stroke-width="1px">5</text><text x="0" y="38.042501868975734" dx="0em" dy="0.3em" style="text-anchor: end; visibility: hidden; font-family: Roboto, sans-serif; font-size: 12px; font-weight: 200;" fill="rgb(33, 33, 33)" stroke="none" stroke-width="1px">6</text><text x="0" y="29.542556781320503" dx="0em" dy="0.3em" style="text-anchor: end; visibility: hidden; font-family: Roboto, sans-serif; font-size: 12px; font-weight: 200;" fill="rgb(33, 33, 33)" stroke="none" stroke-width="1px">7</text><text x="0" y="22.17956943635087" dx="0em" dy="0.3em" style="text-anchor: end; visibility: hidden; font-family: Roboto, sans-serif; font-size: 12px; font-weight: 200;" fill="rgb(33, 33, 33)" stroke="none" stroke-width="1px">8</text><text x="0" y="15.684954320423463" dx="0em" dy="0.3em" style="text-anchor: end; visibility: inherit; font-family: Roboto, sans-serif; font-size: 12px; font-weight: 200;" fill="rgb(33, 33, 33)" stroke="none" stroke-width="1px">9</text><text x="0" y="9.875323130329951" dx="0em" dy="0.3em" style="text-anchor: end; visibility: hidden; font-family: Roboto, sans-serif; font-size: 12px; font-weight: 200;" fill="rgb(33, 33, 33)" stroke="none" stroke-width="1px">10</text></g><line x1="41.171875" y1="0" x2="41.171875" y2="176.997" fill="rgb(0, 0, 0)" stroke="rgb(204, 204, 204)" stroke-width="1px"></line></g></g><g transform="translate(41, 0)" clip-path="url(#clip_0)"><clipPath id="clip_0"><rect width="288" height="176"></rect></clipPath><g><g><g><line x1="27.192121522869158" y1="0" x2="27.192121522869158" y2="176.997" fill="rgb(0, 0, 0)" stroke="rgb(66, 66, 66)" stroke-width="1px" opacity="0.25"></line><line x1="63.58117787756307" y1="0" x2="63.58117787756307" y2="176.997" fill="rgb(0, 0, 0)" stroke="rgb(66, 66, 66)" stroke-width="1px" opacity="0.25"></line><line x1="99.97023423225698" y1="0" x2="99.97023423225698" y2="176.997" fill="rgb(0, 0, 0)" stroke="rgb(66, 66, 66)" stroke-width="1px" opacity="0.25"></line><line x1="136.35929058695092" y1="0" x2="136.35929058695092" y2="176.997" fill="rgb(0, 0, 0)" stroke="rgb(66, 66, 66)" stroke-width="1px" opacity="0.25"></line><line x1="172.74834694164485" y1="0" x2="172.74834694164485" y2="176.997" fill="rgb(0, 0, 0)" stroke="rgb(66, 66, 66)" stroke-width="1px" opacity="0.25"></line><line x1="209.13740329633873" y1="0" x2="209.13740329633873" y2="176.997" fill="rgb(0, 0, 0)" stroke="rgb(66, 66, 66)" stroke-width="1px" opacity="0.25"></line><line x1="245.5264596510327" y1="0" x2="245.5264596510327" y2="176.997" fill="rgb(0, 0, 0)" stroke="rgb(66, 66, 66)" stroke-width="1px" opacity="0.25"></line><line x1="281.9155160057266" y1="0" x2="281.9155160057266" y2="176.997" fill="rgb(0, 0, 0)" stroke="rgb(66, 66, 66)" stroke-width="1px" opacity="0.25"></line></g><g><line x1="0" y1="175.06148936105924" x2="288.820125" y2="175.06148936105924" fill="rgb(0, 0, 0)" stroke="rgb(66, 66, 66)" stroke-width="1px" opacity="0.25"></line><line x1="0" y1="165.00818811852793" x2="288.820125" y2="165.00818811852793" fill="rgb(0, 0, 0)" stroke="rgb(66, 66, 66)" stroke-width="1px" opacity="0.25"></line><line x1="0" y1="156.5082430308727" x2="288.820125" y2="156.5082430308727" fill="rgb(0, 0, 0)" stroke="rgb(66, 66, 66)" stroke-width="1px" opacity="0.25"></line><line x1="0" y1="149.14525568590307" x2="288.820125" y2="149.14525568590307" fill="rgb(0, 0, 0)" stroke="rgb(66, 66, 66)" stroke-width="1px" opacity="0.25"></line><line x1="0" y1="142.65064056997568" x2="288.820125" y2="142.65064056997568" fill="rgb(0, 0, 0)" stroke="rgb(66, 66, 66)" stroke-width="1px" opacity="0.25"></line><line x1="0" y1="136.84100937988217" x2="288.820125" y2="136.84100937988217" fill="rgb(0, 0, 0)" stroke="rgb(66, 66, 66)" stroke-width="1px" opacity="0.25"></line><line x1="0" y1="98.62052939870506" x2="288.820125" y2="98.62052939870506" fill="rgb(0, 0, 0)" stroke="rgb(66, 66, 66)" stroke-width="1px" opacity="0.25"></line><line x1="0" y1="76.26298185015283" x2="288.820125" y2="76.26298185015283" fill="rgb(0, 0, 0)" stroke="rgb(66, 66, 66)" stroke-width="1px" opacity="0.25"></line><line x1="0" y1="60.40004941752796" x2="288.820125" y2="60.40004941752796" fill="rgb(0, 0, 0)" stroke="rgb(66, 66, 66)" stroke-width="1px" opacity="0.25"></line><line x1="0" y1="48.09580311150704" x2="288.820125" y2="48.09580311150704" fill="rgb(0, 0, 0)" stroke="rgb(66, 66, 66)" stroke-width="1px" opacity="0.25"></line><line x1="0" y1="38.042501868975734" x2="288.820125" y2="38.042501868975734" fill="rgb(0, 0, 0)" stroke="rgb(66, 66, 66)" stroke-width="1px" opacity="0.25"></line><line x1="0" y1="29.542556781320503" x2="288.820125" y2="29.542556781320503" fill="rgb(0, 0, 0)" stroke="rgb(66, 66, 66)" stroke-width="1px" opacity="0.25"></line><line x1="0" y1="22.17956943635087" x2="288.820125" y2="22.17956943635087" fill="rgb(0, 0, 0)" stroke="rgb(66, 66, 66)" stroke-width="1px" opacity="0.25"></line><line x1="0" y1="15.684954320423463" x2="288.820125" y2="15.684954320423463" fill="rgb(0, 0, 0)" stroke="rgb(66, 66, 66)" stroke-width="1px" opacity="0.25"></line><line x1="0" y1="9.875323130329951" x2="288.820125" y2="9.875323130329951" fill="rgb(0, 0, 0)" stroke="rgb(66, 66, 66)" stroke-width="1px" opacity="0.25"></line></g></g></g><g><g><line x1="27.192121522869158" y1="0" x2="27.192121522869158" y2="176.997" fill="rgb(0, 0, 0)" stroke="rgb(153, 153, 153)" stroke-width="1.5px"></line></g></g><g><g><g><g><g><path stroke="rgb(0, 119, 187)" stroke-width="2px" d="M30.12144055942202,-5.768949777559889L30.157829615776713,7.80250594009242L30.194218672131406,21.527808416263813L30.339774897550182,28.431180444031806L30.685470932919774,33.5548978849974L30.903805271047936,35.53817996286608L30.940194327402633,40.71178973817845L31.37686300365896,42.62411641645029L31.649780926319163,40.27924716022839L31.667975454496514,27.632093463343217L31.92269884897937,33.41457331320509L32.14103318710753,42.6249387703238L32.19561677163957,44.24746493057231L32.34117299705835,41.484360513024235L32.39575658159039,38.275965222533515L32.57770186336386,26.537869677319033L32.95978695508815,24.319362644970887L33.01437053962019,32.16727202075397L33.06895412415223,40.871228649436645L33.50562280040855,50.74730669036592L33.72395713853672,54.4663817725119L33.8331243076008,54.021144504065056L33.86951336395549,47.111176553689916L34.08784770208366,50.521072813082434L34.23340392750243,40.720304548102426L34.30618204021182,30.818793942370267L34.52451637833998,37.842230728281L34.560905434694675,40.22344023768423L34.761045244645494,47.95008472365031L34.88840694188693,55.86174928057689L35.14313033636978,55.7711011450037L35.161324864547126,64.99498327092549L35.19771392090182,54.235972973888515L35.32507561814325,50.03279430918001L35.59799354080345,46.068163931993254L35.67077165351284,24.573386855813247L35.85271693528631,35.06518169811803L35.94368957617304,40.55058436252181L35.96188410435039,40.618550120047445L36.071051273414476,48.51370713622925L36.489525421493454,54.53484022849711L36.52591447784815,63.735768920674296L36.544109006025494,67.58020573818605L36.56230353420285,59.726067819987485L36.61688711873488,59.90329833396226L36.90799956957243,54.27119865546616L36.96258315410448,56.574238932655L36.998972210459165,59.39808157681633L37.03536126681386,46.682915245086136L37.144528435877945,58.668972715220946L37.253695604942024,62.09241919396787L37.32647371765142,57.9876882678277L37.4356408867155,57.42340996603195L37.54480805577958,61.38999838661351L37.945087675681215,39.41210410524086L38.017865788390594,26.379583063313135L38.054254844745294,23.278675609685603L38.54550710553366,30.449166081781634L38.6364797464204,47.33922616488471L38.654674274597745,59.77882592836646L38.80023050001652,47.668463063365905L38.909397669080604,52.31107507741586L38.927592197257944,45.5575798126175L39.1823155917408,54.28662058238142L39.34606634533692,54.241003232185946L39.49162257075571,49.65594335349598L39.837318606125294,69.1678714356492L40.32857086691366,68.69937537113223L40.40134897962305,65.7152810411573L40.51051614868713,63.09135221327664L40.74704501499264,40.29947832745171L41.11093557853958,33.18985288935054L41.3110753884904,47.52487140467715L41.32926991666775,39.08326845591819L41.43843708573183,49.93194506154247L41.547604254795914,62.08757741848118L41.83871670563346,66.73548191605806L41.856911233810806,60.167676882922024L41.8933002901655,54.48342046597108L42.111634628293665,50.897898733878776L42.34816349459918,53.483061751058656L42.80302669903285,56.74116877761908L42.96677745262897,58.96624963338312L43.05775009351571,55.657442004386354L43.33066801617591,47.94399137969714L43.53080782612673,44.75904260847919L43.60358593883611,46.55957061737273L44.13122725597918,44.96176130227131L44.34956159410734,43.71438997654592L44.476923291348776,47.59435959045051L45.38664970021612,58.003791845798645L45.441233284748165,52.06082078184397L45.47762234110285,44.84590006158619L45.67776215105366,54.864621431325496L45.8051238482951,63.01120811977019L45.87790196100448,60.5575928496299L45.914291017359176,53.34989221328154L46.0780417709553,57.308750095844566L46.423737806324894,59.014725249303446L46.67846120080775,60.943223211257845L46.6966557289851,61.316446133426844L46.73304478533979,59.790242121629085L46.80582289804918,60.53413699627976L46.969573651645305,54.484108497751144L47.187907989773464,65.52753713012022L47.26068610248285,54.670044463641254L47.29707515883755,49.51472068866553L47.38804779972428,34.045486670879875L47.42443685607898,25.127742593655967L47.60638213785244,40.69765148194269L47.679160250561836,50.63501177130051L47.80652194780326,47.0294854549697L47.842911004157955,53.51222578641512L48.06124534228612,60.14708878601216L48.152217983172854,61.65532269739548L48.1704125113502,55.40822428290808L48.388746849478366,46.633008864717496L48.57069213125183,58.612805009133574L48.60708118760653,68.97154999075022L48.752637413025305,43.352510462164375L48.916388166621424,29.638260303199694L48.93458269479877,23.196470874271522L49.3712513710551,36.97030524304376L49.49861306829653,43.33231530447544L49.88069816002081,44.718336553213064L49.97167080090755,48.311314847699606L49.9898653290849,54.36499051048267L50.02625438543959,62.513574611867355L50.08083796997163,70.58468071844011L50.15361608268102,64.47769140035506L50.2627832517451,63.87188878525513L50.33556136445449,63.55374350464427L50.42653400534123,53.45671186760898L50.82681362524286,43.19960402353085L50.972369850661636,57.71290636660229L51.26348230149918,29.43551277112197L51.31806588603123,33.88525204357222L51.681956449578166,28.209045596822172L51.95487437223837,46.38542202169563L52.02765248494776,54.58268453302899L52.22779229489857,62.55318330941511L52.24598682307592,60.06429753458985L52.99196247834715,59.91928169801558L53.37404757007143,54.19628033532034L53.39224209824878,66.74643143522691L53.71974360544103,67.74735012947157L53.73793813361837,70.53206842056095L54.02905058445592,69.82286888343596L54.06543964081062,75.8185977578429L54.320163035293476,75.0091522847977L54.39294114800286,66.31121073037882L54.538497373421635,46.232890423311076L54.68405359884042,57.04018312203786L54.738637183372454,61.72448861024365L54.793220767904494,60.10655880100715L55.01155510603266,70.94866479314595L55.19350038780613,71.09087401607914L55.3754456695796,71.57348982211415L55.430029254111645,60.03310552089654L55.6847526485945,56.61435635127574L55.73933623312654,59.43734445807073L55.83030887401328,63.77489038777759L55.88489245854531,71.20341851292959L56.048643212141435,52.300072154819105L56.24878302209225,67.15708884950764L56.33975566297899,71.52229348975331L56.37614471933368,68.00575580620065L56.812813395590005,83.68266040958976L56.958369621008785,63.75579078426539L56.99475867736348,56.803424195618035L57.59517810721592,60.70869453784124L57.75892886081205,72.00448203573626L57.868096029876135,80.49182155817658L58.031846783472254,54.89322046527744L58.17740300889103,67.867985089967L58.21379206524573,73.26773494522637L58.26837564977777,79.69548479876524L58.34115376248715,77.2894536848295L58.468515459728586,59.655844791044096L58.95976772051695,71.1937600091015L59.505603565837355,73.57793936475028L59.54199262219205,76.39841429662708L59.76032696032021,67.70283284601926L59.81491054485225,73.09577572667945L59.960466770271026,74.43443100493997L60.81560959460633,71.47943447067085L60.88838770731572,64.13816003063579L61.05213846091184,75.2845620831889L61.14311110179858,74.07759911542122L61.179500158153274,80.74579992788978L61.56158524987756,87.63990205486665L61.76172505982838,78.89959943568044L61.81630864436041,72.14142623013723L61.9254758134245,74.10541780889663L61.943670341601845,83.41932790094606L62.21658826426205,82.48952912292793L62.2347827924394,87.77881626187293L62.43492260239021,88.31382739035875L62.5077007150996,87.30367047157691L62.598673355986335,77.57530837098264L62.63506241234103,66.3485700402356L62.87159127864654,81.5190613167599L62.88978580682389,86.44667807162539L62.98075844771062,80.12448794536151L63.18089825766144,81.39438118015615L63.21728731401613,86.70683294610647L63.362843539434905,87.6361092752615L64.8729893781547,78.70078623948382L65.03674013175083,83.67193983314831L65.2186854135243,76.55487883629607L65.41882522347511,71.10805402204078L65.58257597707123,73.02593320773055L65.67354861795798,82.96283527218063L65.69174314613532,89.24885943133366L65.76452125884471,89.49114186745696L65.78271578702206,84.85398889576676L65.91007748426348,90.51846954197984L66.12841182239164,92.75214110725553L66.67424766771205,99.05650615574335L67.12911087214573,94.83553388218174L67.40202879480593,91.35189363538423L67.51119596387001,93.6654790763846L67.94786464012634,95.78220863869224L68.03883728101307,100.01352746185461L68.71203482357491,82.45998251146082L69.14870349983124,90.07036674003315L69.34884330978205,82.86126443082372L69.4034268943141,83.70017791232983L69.63995576061961,82.16385147897547L69.82190104239308,89.618861143596L70.13120802140799,81.50477292602397L70.67704386672838,82.0759474251326L70.74982197943777,81.1123226964376L70.76801650761512,77.77920762663481L71.53218669106369,89.67240213639587L71.62315933195043,95.98220066419904L71.85968819825594,94.22242943036746L72.00524442367471,79.71565445168179L72.05982800820675,80.94642906296107L72.4237185717537,73.63610037966922L72.56927479717247,72.75876994651674L72.6602474380592,77.42201224565586L72.75122007894593,82.09543435455197L73.00594347342879,81.0746063392051L73.04233252978348,77.19678706263049L73.2060832833796,72.47189237427844L73.2424723397343,79.80143291518603L73.8974753541188,76.40634190770858L74.09761516406962,87.4421142093819L74.11580969224696,87.61791427330783L74.29775497402044,97.62493689155326L74.37053308672981,102.27636933057238L74.49789478397125,113.79569988381668L74.62525648121267,102.37312206425788L74.8617853475182,94.46179559018213L75.00734157293695,97.26342823737453L75.02553610111431,103.34015230315045L75.15289779835574,96.30542170521271L75.22567591106512,98.51621615241945L75.24387043924247,95.82354662577151L75.29845402377453,91.14806834373668L75.64415005914411,92.25384030395685L75.78970628456288,85.19044721788305L75.80790081274023,76.86943169514207L75.86248439727227,89.21880573029274L75.9898460945137,87.40593305025895L76.04442967904573,88.97066939948839L76.08081873540043,89.50176769620236L76.13540231993247,91.42509515476844L76.20818043264185,97.07953979494512L76.37193118623799,96.31599338195582L76.48109835530207,95.18820563352416L76.5720709961888,99.38870439555299L76.64484910889819,98.90170968471043L76.86318344702634,88.60587291864756L76.8813779752037,96.31602842575032L76.95415608791309,96.31552348419092L77.04512872879982,88.36019084550027L77.06332325697716,95.52032135955746L77.29985212328268,91.84331913279134L77.31804665146002,89.82302007658888L77.33624117963737,93.66108890282737L77.42721382052412,90.49629965229857L77.51818646141085,94.14809559779529L77.57277004594287,97.0600169620559L77.75471532771635,92.66661994932035L77.88207702495778,87.07506447676676L78.37332928574615,92.42689318587554L78.77360890564778,94.16117709540775L78.95555418742126,95.66952598442631L79.26486116643615,103.96931919889198L79.2830556946135,103.99621641051435L79.62875172998308,103.58791170308794L80.30194927254493,109.06553130110723L80.35653285707696,104.74385950616903L80.59306172338248,107.94116018958138L80.92056323057471,107.765056871377L80.97514681510677,102.96160512681082L81.1025085123482,96.70656808160491L81.15709209688023,100.66154223020048L81.302648322299,96.8694629803631L81.53917718860453,91.28693144615431L81.72112247037799,92.91872489310614L82.13959661845698,96.287504313711L82.41251454111716,96.97784077658511L82.64904340742268,81.10431969053549L83.30404642180719,80.453123904864L83.32224094998452,95.31785789958388L83.54057528811269,97.55071785917738L83.66793698535412,97.84294993618234L83.68613151353146,96.01103030321438L83.70432604170881,98.77744369347194L83.88627132348228,105.82194757801241L83.95904943619166,101.19861542909415L83.97724396436901,93.44098389944654L83.99543849254636,91.76686842023027L84.08641113343309,99.23340733586392L84.12280018978778,104.13194596657934L84.43210716880269,98.72915474187964L84.94155395776839,100.12763682294029L85.03252659865514,99.37928744540004L85.28724999313799,100.06569187024336L85.41461169037942,99.52160907195476L85.50558433126615,99.17559489795455L85.74211319757167,95.39467796593564L85.79669678210371,94.6828574735226L85.8330858384584,90.23624174557281L85.96044753569983,94.08063348790017L86.17878187382799,100.31963254795875L86.61545055008432,85.72594371556474L86.67003413461636,92.98524765544656L87.21586997993677,92.83294658076623L87.36142620535556,97.02159694582821L87.98004016338534,99.44682203745813L88.27115261422288,101.45049877076649L88.43490336781902,107.37006832963039L88.59865412141514,107.2210479173746L88.68962676230188,108.02943942688806L88.78059940318862,111.63032854632125L88.79879393136595,99.93319098897854L88.94435015678474,97.43051446111947L89.14448996673555,100.93700847865908L89.3992133612184,99.38170530847775L89.47199147392779,98.6504056503649L89.54476958663719,100.15373863771039L89.69032581205596,100.80975805011408L89.78129845294269,100.69274651653862L90.18157807284433,102.77929640669835L90.30893977008576,97.57122446676766L90.58185769274596,106.68197690566315L90.6000522209233,91.76776183969174L90.61824674910066,92.99557914198365L90.72741391816473,95.2977906783938L90.76380297451942,104.04684450382742L90.89116467176085,95.18925883396858L91.36422240437187,95.60309531283754L91.69172391156411,99.30240061819165L91.8008910806282,90.5239764152945L91.94644730604699,105.81798465841266L92.09200353146575,104.79878923777693L92.1465871159978,100.55116418551596L92.27394881323923,103.30727006916155L92.47408862319004,104.27677023145249L92.49228315136739,100.34570714103016L92.71061748949556,102.77744683744626L92.94714635580107,101.94649826593655L92.96534088397841,104.94532947344176L93.0017299403331,97.63488789816209L93.25645333481596,96.17430119862988L93.69312201107229,96.45587986796893L93.74770559560432,103.45449343164599L93.78409465195904,99.31720093448953L93.82048370831372,98.0710108982571L93.87506729284576,107.14193347254502L93.94784540555516,110.66360723752365L94.00242899008718,108.96995015447436L94.02062351826453,105.91025189031748L94.34812502545677,102.44703326688617L94.53007030723025,104.13047528316888L94.7484046453584,104.45467511403908L94.83937728624515,104.53871516883851L95.34882407521086,105.4140249028313L95.36701860338822,104.63200265030478L95.40340765974291,97.77012311997817L95.49438030062964,104.45640313724621L95.51257482880698,103.42801013832643L95.63993652604842,102.8375786880411L95.6763255824031,107.917559725758L95.985632561418,107.9675992155083L96.0220216177727,108.69382204959162L96.04021614595005,106.6282906286477L96.11299425865943,101.40821708442203L96.16757784319148,98.71185544552081L96.58605199127045,95.34056111794331L96.76799727304393,105.69306063214182L97.2228604774776,106.01099744849257L97.25924953383229,106.78637719482617L97.44119481560575,106.07216018649996L97.60494556920187,104.21738653242798L97.65952915373393,106.50349904221984L98.20536499905432,107.16529884819244L98.36911575265044,105.13510031025805L98.44189386535984,102.38645375389986L98.55106103442392,94.9332738452312L98.76939537255208,91.69006819494112L98.82397895708414,97.01511016725489L99.13328593609904,101.45395788520493L99.20606404880841,100.01238857081356L99.36981480240453,97.22905029480314L99.53356555600065,97.9702079189221L99.64273272506475,93.59510847866918L100.2067630985625,89.36753425983599L100.2431521549172,101.28418456764656L100.40690290851332,101.09797693125205L100.60704271846413,101.37299390068901L100.71620988752822,102.83607762945944L100.84357158476965,99.62648000302367L101.51676912733149,104.61767698778323L101.97163233176515,99.81817133421363L102.08079950082924,103.41776706165626L102.18996666989332,99.43151173555242L102.24455025442536,107.99931436352854L102.644829874327,104.8434548849666L102.82677515610045,108.20674168253939L103.28163836053415,113.36609221102479L103.48177817048496,107.54804183878713L103.75469609314517,102.03513031337667L104.00941948762802,93.69150888353514L104.1185866566921,103.62307259824698L104.46428269206169,99.4791298273058L104.51886627659374,95.39409279319698L104.57344986112577,98.73525263270587L104.59164438930311,102.33819044581342L104.6644225020125,97.8445892196606L105.10109117826883,97.46294430858251L105.77428872083067,105.22709287697484L105.8652613617174,110.92371099491046L105.95623400260413,103.16184037647946L106.06540117166823,89.17163050449665L106.8295713551168,99.90674027366852L106.88415493964882,104.81743230985695L107.1752673904864,99.53933522150531L107.32082361590516,99.89399513343542L107.39360172861456,102.61064894703752L107.66651965127475,104.66460610312072L107.70290870762945,105.31537466952719L107.90304851758027,105.61592355635814L108.04860474299903,98.02389045326848L108.24874455294986,97.50005669543873L108.46707889107802,99.8118109472761L108.885553039157,104.67907452267737L108.99472020822108,114.46766238588488L109.06749832093047,109.86437161192768L109.34041624359067,107.92954445025619L109.54055605354148,106.88501457130023L109.72250133531496,103.11855538269228L109.79527944802435,105.97521786670585L109.88625208891108,108.84762877931328L110.21375359610333,105.07130327915003L110.25014265245802,107.52792168279132L110.32292076516741,95.58975225560451L110.4320879342315,99.93651007853595L110.57764415965026,106.54650365145979L111.0143128359066,112.28196306037609L111.06889642043865,111.55454660256015L111.12348000497067,100.06319419784997L111.79667754753252,100.51820517814464L111.88765018841926,108.27295165182694L111.96042830112864,107.96356923838962L111.97862282930598,113.69355017437337L112.03320641383802,107.03080801052592L112.12417905472476,115.35207839471397L112.32431886467558,109.3649841352947L112.46987509009435,109.89396367249483L112.54265320280373,100.03344120646412L112.57904225915843,98.87367730044863L112.68820942822252,104.68484512655438L112.83376565364128,107.0594809779161L112.85196018181864,106.27508215957552L112.9611273508827,111.08027335012187L113.01571093541476,102.1219679426482L113.27043432989761,104.98463080414788L113.39779602713904,108.76908092537614L113.79807564704068,100.12047292744965L113.92543734428212,101.5317594773537L114.03460451334618,104.86153309727919L114.10738262605558,111.43562973808274L114.12557715423291,106.81302908243171L114.6168294150213,108.66178750992428L114.67141299955333,104.35021366447548L114.72599658408537,105.12286585064409L114.79877469679475,104.85438984687673L115.08988714763233,100.34373623393174L115.126276203987,102.02121598555458L115.1626652603417,96.16054206426745L115.18085978851906,98.8000761132726L115.19905431669639,100.94188738126421L115.32641601393782,94.41000484625289L115.34461054211518,90.24706113953766L115.67211204930742,96.6277066737048L116.03600261285436,98.52536607441368L116.27253147915987,110.9780638283468L116.54544940182008,104.87728585762233L116.89114543718966,108.08505301136545L116.96392354989905,107.35422811135834L117.09128524714048,96.4075836821464L117.16406335984986,105.53753465483356L117.2550360007366,115.73287967033329L117.81906637423435,110.23108632817787L118.00101165600783,100.5723795430977L118.01920618418517,101.68294964065986L118.60143108586028,102.07139873656311L119.0380997621166,102.69908493485117L119.29282315659945,103.06091811765744L119.38379579748619,103.85207024749576L119.6203246637917,107.32009837846091L119.63851919196905,107.02572245742621L119.78407541738783,103.005507183739L119.82046447374252,102.38093434421832L119.91143711462925,101.7817396288517L120.58463465719109,101.11024941093433L120.65741276990049,101.06251873362707L120.73019088260988,102.18356674511692L120.93033069256069,100.62455329837806L120.94852522073803,105.83119138264053L120.98491427709273,106.09213463576866L121.00310880527007,107.29002458209624L121.58533370694518,109.52148423922799L121.78547351689599,110.01253871905412L121.82186257325068,107.27808122798326L121.91283521413742,110.13263021635385L121.94922427049211,104.32071595889398L122.04019691137884,105.91118743863127L122.14936408044294,109.26370146305237L122.27672577768436,96.69377520267273L122.51325464398987,95.51066263821042L122.78617256665008,95.27058345076586L122.80436709482741,89.90935493248867L122.87714520753681,100.5939463654635L122.9499233202462,98.22460512453343L123.00450690477824,104.48335333199155L123.38659199650253,104.06279292821617L123.55034275009865,104.24486374148289L123.58673180645334,102.55729273675664L123.96881689817762,106.37514854956936L123.98701142635498,111.22970075538802L124.04159501088701,107.05248335705966L124.07798406724172,104.8210686402665L124.1507621799511,105.37444818346256L124.16895670812845,99.64657017130455L124.25992934901518,109.31443700741843L124.76937613798088,105.75991637596793L124.87854330704498,105.79415515720744L124.91493236339967,109.77548667478618L125.33340651147864,112.36173152009451L125.49715726507476,105.28488540255343L125.51535179325212,105.56275481331666L125.77007518773497,106.77492295206147L125.8974368849764,112.22265795692905L126.27952197670069,99.53722067567521L126.40688367394212,108.83707587427261L126.44327273029681,98.96937696552389L126.49785631482885,103.08933298882134L126.53424537118354,97.03816889122128L127.35299913916417,107.55994274571358L127.4439717800509,100.36314704995901L127.46216630822825,101.89261423483308L127.58952800546969,96.95463397223953L127.66230611817906,97.56968589258759L127.69869517453375,98.2959119832085L128.0989747944354,101.9474394567353L128.49925441433703,102.43862427304059L129.17245195689887,97.92560332149188L129.8820385558154,104.95795392380198L130.06398383758886,105.74646321858592L130.31870723207172,105.65354745224289L130.68259779561865,98.38789207610562L131.02829383098825,90.94778307503884L131.1556555282297,90.45205343319655L131.33760081000315,95.08911929293134L131.46496250724456,99.5458978140842L131.64690778901806,101.41084381366105L131.86524212714622,98.91125989858286L131.91982571167824,92.48499123817271L131.95621476803296,104.41646464361777L131.9744092962103,101.90380157779578L132.22913269069315,106.66508038617762L132.39288344428925,105.25319098125308L132.53843966970805,96.5855047399694L133.32080438133397,97.7341716744674L133.93941833936375,95.11911841658295L134.17594720566927,100.25364504980055L134.1941417338466,109.24823468064311L134.2305307902013,102.0993660964838L135.4313696499062,110.94232278200988L135.52234229079295,109.72232518445055L135.576925875325,111.85482079845433L135.72248210074378,108.50576612587382L136.03178907975865,101.60736346183492L136.1955398333548,91.19286334061188L136.3229015305962,102.48193544797692L136.4320686996603,96.67428206504334L136.54123586872439,98.20466354093023L136.55943039690172,95.46588034343345L137.19623888310886,90.99295462392485L137.34179510852766,100.90464715867536L137.76026925660662,99.01126254213615L137.7966583129613,100.26970207353696L137.81485284113867,100.00669082302356L138.32429963010438,107.60012413547537L138.39707774281376,104.31434586017377L138.43346679916846,112.15923019568793L138.79735736271542,103.08008705526329L138.88833000360214,97.23923367058121L138.92471905995683,98.21256297213007L138.96110811631152,99.11934353657325L139.43416584892256,100.79252668006124L140.10736339148437,100.31523772938799L140.21653056054845,93.70941468731333L140.39847584232194,95.36918939509965L140.47125395503133,97.78833991150252L140.54403206774072,95.95747504286606L140.67139376498213,99.5185203028146L140.79875546222357,105.40118221777962L140.94431168764234,101.88046911632637L141.45375847660807,105.75352283632637L141.49014753296277,108.13036009652501L141.61750923020418,99.73599971938393L141.76306545562295,104.24828933878877L141.7812599838003,107.86177725977345L141.83584356833234,109.0178962427789L142.09056696281522,102.69356654157258L142.34529035729807,107.81812494634099L142.41806847000746,104.77984636372767L142.4362629981848,107.3779402385038L142.45445752636215,103.01360294956228L142.69098639266767,102.09929063861527L142.89112620261847,103.1667652570579L142.90932073079583,111.13476540337999L143.00029337168255,106.54452826547094L143.03668242803724,100.46478675888719L143.0912660125693,106.7429536892519L143.76446355513113,106.05792127401537L144.09196506232337,99.25414899622639L144.43766109769294,108.33140587131912L144.54682826675705,100.72156254979829L144.7287735485305,100.28319039586184L144.98349694301336,108.15978280351756L145.3109984502056,106.3130717714665L145.36558203473766,104.50724011640857L145.383776562915,99.77971996898872L145.87502882370336,95.87028324070813L145.98419599276747,96.9945051065554L146.0387795772995,99.37768326537343L146.2025303308956,94.76745009717258L146.3116974999597,97.43896984991842L146.40267014084642,102.98320581380635L146.42086466902379,106.95923004209418L146.63919900715194,102.08908215322323L146.7301716480387,104.60780746930078L147.0212840988762,116.04408012737598L147.11225673976298,104.69859268094628L147.2032293806497,103.94553712151313L147.2760074933591,99.84785682489319L147.56711994419663,98.69329892163712L147.82184333867949,101.77922326124069L148.18573390222645,105.39259918959053L148.4040682403546,102.15953391968257L148.62240257848276,103.05398752912113L149.2592110646899,105.10968362708171L149.38657276193135,96.9153032508534L149.47754540281807,102.68327174025109L149.5139344591728,96.59832519570277L149.55032351552745,98.03672627753693L149.65949068459153,103.93395247088323L149.73226879730092,102.11766920596065L150.0233812481385,98.8115098173826L150.2235210580893,101.28953822396812L150.25991011444398,84.91695868057143L150.4964389807495,78.79114471636258L150.66018973434564,83.85548679805703L150.96949671336054,91.00592517100557L151.3151927487301,105.35525542249631L151.49713803050358,101.64007367039606L151.6063051995677,112.90626504139614L151.6972778404544,117.79177496692729L151.7336668968091,104.33798383350357L151.84283406587315,105.65603615549378L152.00658481946928,102.59864298282785L152.13394651671072,95.34537336713312L152.2067246294201,96.62634901066144L152.29769727030686,98.47900532067298L152.60700424932173,107.97778163566895L153.0072838692234,108.79046967061755L153.04367292557805,116.00782074753944L153.0982565101101,113.05656155797293L153.29839632006093,111.34925811560144L153.42575801730234,105.14240751341963L153.826037637204,107.46421696072196L154.11715008804154,105.16582348519442L154.4082625388791,96.35498044659641L154.4992351797658,99.74122556781579L154.53562423612053,92.46814491273538L154.59020782065258,99.84432156823597L154.79034763060338,99.31486696410445L154.8995147996675,102.55850483978766L155.08146008144095,111.56055923874304L155.09965460961828,109.96206216055707L155.37257253227847,104.54275055490488L155.5363232858746,99.85421317290562L155.55451781405196,101.1779742810816L156.1549372439044,107.88028154437244L156.57341139198337,108.69312218500914L156.7007730892248,104.94284236471904L156.75535667375686,110.55967990136507L156.86452384282094,104.32294925758555L157.55591591356014,102.03133307666977L157.7924447798656,100.0356473200368L157.810639308043,93.82375415009565L157.84702836439766,98.84068470766302L157.95619553346174,106.08689514777791L158.0107791179938,104.53205848433917L158.33828062518603,99.68784239888801L158.4838368506048,100.88486612442145L158.66578213237827,98.30337582508416L159.10245080863461,100.0556615145271L159.175228921344,102.55228054219315L159.39356325947216,107.42043381713013L159.55731401306826,98.890773749808L159.9030100484379,97.83262767423808L160.066760802034,96.72467758930979L160.17592797109808,90.8202222835068L160.6489857037091,94.98340075088655L160.7217638164185,99.94159262481547L160.75815287277317,96.39979856862064L160.9946817390787,92.63140150234199L161.0310707954334,98.32764035074787L161.0856543799654,100.33418923704843L161.17662702085218,88.53031720301463L161.24940513356154,102.00382321796975L161.43135041533503,105.08524827946086L161.5769066407538,97.81583430636044L162.1591315424289,96.21665355409249L162.2864932396703,101.3182570036571L162.48663304962116,99.00845887925443L162.5048275777985,105.12191685510372L162.55941116233055,110.63373152411631L162.61399474686257,109.10666970862965L162.94149625405484,112.76083264022992L163.0142743667642,115.20767791448709L163.08705247947358,110.93138568479245L163.1234415358283,104.86004090770416L163.34177587395644,111.67176541847088L163.77844455021278,104.23772253470146L163.99677888834094,92.14126612954357L164.1423351137597,91.21547655654972L164.2515022828238,100.57328441161911L164.45164209277462,104.54893381309827L164.5971983181934,100.59383402969247L164.63358737454809,101.7090261623283L164.74275454361216,93.2151575724705L164.85192171267624,99.45911781459922L165.0702560508044,99.77117396576185L165.23400680440054,87.8868274985607L165.36136850164198,91.57067602250474L165.4887301988834,93.36588463714392L165.5251192552381,93.60444184452267L165.56150831159277,93.94869686497641L165.61609189612483,100.60695394214692L166.1801222696226,107.18111877068473L166.19831679779992,109.4730668686013L166.28928943868667,108.20799379572999L166.307483966864,92.6720560046098L166.54401283316952,89.40582289416056L166.5804018895242,92.12696948139403L166.59859641770154,94.65642879698545L167.03526509395786,93.10238610084777L167.6902681083424,94.15431810964715L167.79943527740645,94.85462805749107L167.8176298055838,94.415090590652L167.8540188619385,85.94358701313915L168.32707659454954,89.65177082092096L168.34527112272687,95.83146160706059L168.38166017908156,94.07175754762739L168.3998547072589,100.28315874080761L168.41804923543626,94.8441481455217L169.0184686652887,94.55249406709791L169.03666319346604,98.28782116124874L169.2913865879489,96.90173960167158L169.50972092607705,102.64058742737426L169.81902790509196,93.50176576518598L169.89180601780134,97.91578850126982L170.03736224322014,108.97357078479463L170.12833488410686,108.42553243932488L170.14652941228422,98.31223963814148L170.25569658134827,106.82003646339058L170.36486375041238,99.28511423966019L170.61958714489523,102.0521039061759L170.85611601120075,91.84226756009227L170.9652831802648,96.96578872627886L171.20181204657032,104.15140327160772L171.23820110292505,101.44301268010746L171.25639563110238,95.16075747582637L171.4201463846985,98.14789076350961L171.45653544105318,87.0772106341508L171.47472996923054,80.23994619480716L171.60209166647198,84.09872335322657L172.02056581455093,87.65064841516354L172.51181807533933,90.05377683172752L172.63917977258075,100.39387189589671L173.2395992024332,92.03734208823106L173.29418278696522,97.44529280564237L173.3123773151426,98.37445301585231L173.34876637149728,101.02687494639262L173.60348976598013,106.5670014637458L173.7490459913989,97.233884718693L173.8764076886403,100.54854784779066L173.94918580134973,101.21872726810817L174.1675201394779,94.6618444621058L174.18571466765522,91.45341475578707L174.31307636489666,102.22914044460538L174.51321617484746,108.08578221498549L174.9862739074585,100.63652902832185L175.13183013287727,101.71782262904048L175.35016447100546,102.48330940307325L175.38655352736012,96.8478410741353L175.47752616824687,100.96557199797942L175.73224956272975,103.85032831930563L175.75044409090708,105.33138817186261L175.78683314726177,110.91854049621757L176.114334654454,92.51989646241036L176.13252918263137,85.10567975560893L176.25989087987278,95.84386955256383L176.40544710529156,107.26536332129639L176.42364163346892,108.8696969783298L176.69655955612913,107.23929192974674L176.71475408430646,108.1307181306174L176.93308842243465,111.5592342511216L176.95128295061198,107.3390629753806L177.40614615504563,101.6376173725615L177.8064257749473,102.57874615999332L177.91559294401137,97.87869444614583L177.9701765285434,96.82529159648891L177.98837105672075,97.45760946185567L178.06114916943017,116.48383667753274L178.15212181031688,117.09801262491331L178.2430944512036,102.19527041090774L179.11643180371627,97.0503184749005L179.1710153882483,101.01316937043018L179.37115519819912,102.61649195412592L179.42573878273117,101.46865613906807L179.53490595179525,98.34628257468279L179.62587859268197,93.72109768757329L179.77143481810077,106.27664809785932L179.98976915622893,106.71856301391787L180.24449255071178,94.17863422703265L180.3354651915985,98.03329179472912L180.69935575514543,98.34020636060619L181.0632463186924,101.52046562808204L181.08144084686973,100.29220150071525L181.1542189595791,101.00998989260465L181.70005480489954,101.18008266873021L181.93658367120506,101.06920541005347L182.24589065021996,103.4837552911532L182.40964140381607,107.62374910028792L182.5733921574122,98.87290105662521L182.7371429110083,93.63935801643522L182.84631008007239,97.92031022635221L182.86450460824972,103.52347329975554L183.01006083366852,102.81775429066309L183.22839517179668,112.19913442424108L183.70145290440772,113.01207037879408L183.79242554529444,117.4684491988619L184.01075988342262,107.6704602516079L184.0471489397773,102.55164706681832L184.06534346795462,100.51850902823315L184.17451063701873,99.26934138841344L184.75673553869382,104.92402699021133L184.8295136514032,103.95069879482307L185.39354402490096,107.19245185737472L185.50271119396504,102.15534081463308L185.73924006027056,93.47428483812816L185.83021270115728,96.29214580115598L185.9393798702214,98.98126735374359L186.30327043376832,92.90146241388786L186.4488266591871,97.70571541775428L186.48521571554178,103.9495346913703L186.6853555254926,99.65682226334552L186.8854953354434,95.31146078733354L186.9218843917981,98.16878919350884L187.10382967357157,100.8272832358716L187.30396948352242,104.03701934395771L187.3767475962318,101.66872622882669L187.41313665258647,104.39209793789334L187.54049834982789,99.58051255153067L187.6860545752467,97.62296928458592L187.7406381597787,108.12359531421899L187.7770272161334,103.83372656826064L187.92258344155218,97.4571956499837L188.50480834322732,96.43300851659205L188.59578098411404,95.02923363895948L188.72314268135545,98.59446031739328L188.92328249130628,98.30209534023322L189.03244966037036,103.05862977582642L189.1598113576118,97.56526882412706L189.3599511675626,98.79911683940202L189.45092380844932,103.08338493886164L189.52370192115873,94.03028353250686L189.8693979565283,96.915497110825L190.34245568913934,98.00705359084246L190.41523380184873,100.50560559307685L190.57898455544483,98.19629890937392L190.68815172450894,96.2138698961031L190.70634625268627,99.60169848576821L190.77912436539566,106.70950896837151L191.0702368162332,115.09127821362696L191.36134926707078,109.40259671235333L191.5614890770216,112.07292562712867L191.85260152785912,101.31498138811438L192.01635228145526,98.14337338640162L192.1437139786967,101.08754429345427L192.2346866195834,96.61912965649783L193.08982944391875,100.48913085306174L193.1626075566281,98.3789408755175L193.72663793012586,88.71263537588376L193.87219415554463,98.54113378571569L193.89038868372202,103.33152595964249L193.9267777400767,104.63581581232451L193.94497226825402,100.4094997181927L194.09052849367282,106.74013005359686L194.363446416333,107.77020881270882L194.41803000086506,105.28591976572221L194.4726135853971,104.73988486058478L194.59997528263852,103.26689267448707L194.65455886717058,109.69017461460226L194.7455315080573,106.10697784514572L194.81830962076668,109.29965047822516L194.98206037436282,101.75107952164609L195.00025490254015,103.52973799713122L195.07303301524954,108.56204050800275L195.21858924066834,101.83135003304899L195.4733126351512,102.93580520721594L195.54609074786057,103.11282685005932L195.5642852760379,104.91025631804196L196.2556773467771,109.06257820300844L196.47401168490526,104.98979718020682L196.51040074125996,113.12256442778961L196.6377624385014,112.30035646433345L196.81970772027486,101.34346357583539L196.8379022484522,99.1618929505171L196.91068036116158,102.20045570999464L196.9470694175163,89.9867221126235L197.01984753022566,93.10836122000892L197.07443111475772,98.06590773365343L197.23818186835382,102.14068270712401L197.36554356559526,103.32025615528298L197.49290526283667,109.72279181573047L197.60207243190078,112.39234231300343L197.6202669600781,104.67959070593581L197.7294341291422,97.94628895437796L197.82040677002894,99.17361932204693L198.00235205180243,102.77933528501246L198.18429733357587,110.32563994271469L198.29346450263995,116.10413864968885L198.40263167170406,114.52267359521595L198.56638242530016,107.03321023576704L198.9302729888471,107.19185488601026L198.98485657337915,106.55444608981169L199.02124562973384,104.40685885290658L199.239579967862,104.21449912788081L199.25777449603933,110.5466358041723L199.40333072145813,102.84269496799088L199.51249789052218,88.91293408082885L199.5488869468769,88.96512599252182L199.83999939771448,90.67369315479138L199.8581939258918,98.6629979859217L199.87638845406914,101.21840070842866L199.91277751042384,104.9648622437098L200.42222429938957,102.67230830259787L200.4768078839216,111.4273819977775L200.49500241209896,105.64538558011601L200.67694769387242,109.61018332858981" style="fill: none;" fill="none"></path></g></g></g></g><g opacity="0.2"><g><g><g><path stroke="rgb(0, 119, 187)" stroke-width="2px" d="M29.57560471410161,-34.75780300003819L30.066856974889976,38.22304465500635L30.12144055942202,36.39782106184543L30.157829615776713,27.55681833454149L30.194218672131406,41.587232248714535L30.339774897550182,36.998706576272646L30.685470932919774,39.67590703390364L30.903805271047936,37.76131485328243L30.940194327402633,46.89888263752154L31.37686300365896,44.764736629385624L31.649780926319163,37.85619773982926L31.667975454496514,16.615323553193278L31.92269884897937,40.41945740443776L32.14103318710753,54.66495347024763L32.19561677163957,46.05344075358853L32.34117299705835,38.650515893697644L32.39575658159039,35.011460915309804L32.57770186336386,16.168788512083086L32.95978695508815,22.021649740090584L33.01437053962019,42.112755200442216L33.06895412415223,52.11733278085055L33.50562280040855,63.86013021559613L33.72395713853672,58.78227790231975L33.8331243076008,53.544730967281744L33.86951336395549,40.51438310973278L34.08784770208366,54.453448601256106L34.23340392750243,31.794767368285513L34.30618204021182,21.815981191631938L34.52451637833998,46.5817310597877L34.560905434694675,42.91362481657504L34.761045244645494,57.71538505636513L34.88840694188693,65.9023601065508L35.14313033636978,55.67345847490044L35.161324864547126,77.0564467311179L35.19771392090182,44.585366092935814L35.32507561814325,45.83038489407844L35.59799354080345,42.087680622027975L35.67077165351284,8.09398602227363L35.85271693528631,49.20110260923436L35.94368957617304,47.15381221540848L35.96188410435039,40.691979398805174L36.071051273414476,58.52966113161679L36.489525421493454,61.86610895648316L36.52591447784815,75.76081719050828L36.544109006025494,72.05298755478957L36.56230353420285,52.34424986926623L36.61688711873488,60.095171527138945L36.90799956957243,48.77722608901078L36.96258315410448,59.17209630087105L36.998972210459165,62.61650715923551L37.03536126681386,35.618416867838356L37.144528435877945,75.42053572053824L37.253695604942024,66.04150267777375L37.32647371765142,53.87664217914608L37.4356408867155,56.82096038209163L37.54480805577958,66.01642402898926L37.945087675681215,22.672651967495618L38.017865788390594,15.093696790364168L38.054254844745294,20.117502230766263L38.54550710553366,39.40053309848328L38.6364797464204,74.2990272854243L38.654674274597745,77.36416290805748L38.80023050001652,37.031934084054285L38.909397669080604,57.80192832852132L38.927592197257944,39.09328691278898L39.1823155917408,65.57161158378382L39.34606634533692,54.19182430852551L39.49162257075571,45.10208746366703L39.837318606125294,102.95040489735881L40.32857086691366,68.19829225680907L40.40134897962305,62.666852558514535L40.51051614868713,60.39352255718018L40.74704501499264,23.129702650311856L41.11093557853958,26.424993919650188L41.3110753884904,68.8188678864415L41.32926991666775,31.22522184945597L41.43843708573183,64.67503995348615L41.547604254795914,79.14860542710262L41.83871670563346,72.23319861435729L41.856911233810806,53.861530725520716L41.8933002901655,48.94349469500245L42.111634628293665,47.273953766554946L42.34816349459918,56.41549061878928L42.80302669903285,60.48700986973777L42.96677745262897,61.472311258617715L43.05775009351571,52.29676457320192L43.33066801617591,40.6775945236994L43.53080782612673,41.51704439329779L43.60358593883611,48.57064319483335L44.13122725597918,43.28811938824675L44.34956159410734,42.3993886265366L44.476923291348776,52.11175579091881L45.38664970021612,72.00108399743249L45.441233284748165,46.294154896086546L45.47762234110285,37.99285667594695L45.67776215105366,68.2117717617337L45.8051238482951,73.40472198718126L45.87790196100448,58.02713658221375L45.914291017359176,46.50288574770806L46.0780417709553,61.925429366062865L46.423737806324894,60.91667501762974L46.67846120080775,63.10262923109546L46.6966557289851,61.72200822284147L46.73304478533979,58.1895073622319L46.80582289804918,61.34821988351685L46.969573651645305,48.62419804378963L47.187907989773464,80.60649171053797L47.26068610248285,44.94616266752274L47.29707515883755,44.4446381554606L47.38804779972428,21.129199835903588L47.42443685607898,16.89037121852327L47.60638213785244,64.6247654476763L47.679160250561836,63.84831025659498L47.80652194780326,43.386607651478975L47.842911004157955,61.48441029871703L48.06124534228612,68.33331931274678L48.152217983172854,63.3303572213459L48.1704125113502,49.37755241876154L48.388746849478366,38.508568805702865L48.57069213125183,75.35299276958096L48.60708118760653,82.88380325726531L48.752637413025305,24.76063051430688L48.916388166621424,17.884023284947972L48.93458269479877,16.99821210244177L49.3712513710551,57.12654207589304L49.49861306829653,51.13563196500015L49.88069816002081,46.25399758057536L49.97167080090755,52.47021230132421L49.9898653290849,61.7410247974607L50.02625438543959,72.91010519498317L50.08083796997163,80.86439607454155L50.15361608268102,58.56830717967782L50.2627832517451,63.225606394599744L50.33556136445449,63.21251052599864L50.42653400534123,44.30463174532254L50.82681362524286,33.92600847030285L50.972369850661636,79.3758020381824L51.26348230149918,9.601703647046126L51.31806588603123,39.12701023406675L51.681956449578166,22.676206996545318L51.95487437223837,76.54677297279751L52.02765248494776,65.05281958711947L52.22779229489857,72.68182304283789L52.24598682307592,57.49909541543044L52.99196247834715,59.763235895285476L53.37404757007143,48.62227082282059L53.39224209824878,84.5379805668226L53.71974360544103,68.84811974395626L53.73793813361837,73.7034266482302L54.02905058445592,69.06773548954624L54.06543964081062,83.11496402478222L54.320163035293476,74.1488839804562L54.39294114800286,58.248217163780836L54.538497373421635,30.53656888806856L54.68405359884042,71.71232418646858L54.738637183372454,67.26945220234862L54.793220767904494,58.41246493679922L55.01155510603266,85.68048453334008L55.19350038780613,71.24473055287112L55.3754456695796,72.0990152055735L55.430029254111645,49.80733465864344L55.6847526485945,53.14877102081777L55.73933623312654,62.654741229260594L55.83030887401328,68.87266528385156L55.88489245854531,80.52991089591906L56.048643212141435,37.27761213967221L56.24878302209225,89.54166020206313L56.33975566297899,76.65550209478798L56.37614471933368,64.4472017434219L56.812813395590005,107.8468175645968L56.958369621008785,48.14506671278834L56.99475867736348,50.17084706263758L57.59517810721592,65.25789747079713L57.75892886081205,87.5234952135029L57.868096029876135,91.40397985058894L58.031846783472254,36.311234652369706L58.17740300889103,86.46273505962922L58.21379206524573,79.75609825275635L58.26837564977777,87.5906430294588L58.34115376248715,74.80594374859416L58.468515459728586,45.387622859394654L58.95976772051695,87.14023781550175L59.505603565837355,76.27163732107532L59.54199262219205,79.6127855610664L59.76032696032021,59.641718416868514L59.81491054485225,79.5750284502385L59.960466770271026,75.91625244125426L60.81560959460633,68.45916353587863L60.88838770731572,57.17970312439871L61.05213846091184,90.54241279968691L61.14311110179858,72.80424968557236L61.179500158153274,88.97912918583826L61.56158524987756,96.1941987184227L61.76172505982838,70.80290213111869L61.81630864436041,65.67316198421673L61.9254758134245,76.30609737345263L61.943670341601845,95.62399847270186L62.21658826426205,81.5035535516192L62.2347827924394,94.11965835722151L62.43492260239021,88.89698804870537L62.5077007150996,86.23407349131541L62.598673355986335,68.70546555287461L62.63506241234103,56.35197382216547L62.87159127864654,104.57416187973917L62.88978580682389,92.30930024104124L62.98075844771062,74.02904785071345L63.18089825766144,82.7982182353219L63.21728731401613,93.07855388220317L63.362843539434905,88.65668386217895L64.8729893781547,70.44952252663454L65.03674013175083,89.59174425748934L65.2186854135243,69.78378245200507L65.41882522347511,65.77798312126032L65.58257597707123,75.17300240637076L65.67354861795798,96.17538138287831L65.69174314613532,96.94634642692048L65.76452125884471,89.75376471469845L65.78271578702206,80.2525523427129L65.91007748426348,97.36320588806518L66.12841182239164,95.26830428405599L66.67424766771205,106.77950556287024L67.12911087214573,90.61664482669325L67.40202879480593,87.82457967733782L67.51119596387001,96.27577489553717L67.94786464012634,98.161156600354L68.03883728101307,104.9755901986828L68.71203482357491,68.24025615921623L69.14870349983124,99.66384140686199L69.34884330978205,76.0130858726704L69.4034268943141,84.61991628585139L69.63995576061961,80.55279866107666L69.82190104239308,98.98409599723828L70.13120802140799,73.9110924587639L70.67704386672838,82.69895524578737L70.74982197943777,80.09111722345851L70.76801650761512,74.39530044788174L71.53218669106369,106.25562887244037L71.62315933195043,103.71276200764231L71.85968819825594,92.38458330006938L72.00524442367471,67.42903202216891L72.05982800820675,82.30599340607947L72.4237185717537,66.70341974068066L72.56927479717247,71.82752783464261L72.6602474380592,82.93962800259027L72.75122007894593,87.62626428398916L73.00594347342879,79.99392360562001L73.04233252978348,73.29752738822076L73.2060832833796,67.79050856090268L73.2424723397343,88.98351127772989L73.8974753541188,72.96329705988936L74.09761516406962,102.50780388245099L74.11580969224696,87.80823368357544L74.29775497402044,110.9528087428015L74.37053308672981,107.77866200694184L74.49789478397125,129.7091829344902L74.62525648121267,92.23316557071884L74.8617853475182,87.03321258311183L75.00734157293695,100.45512573557536L75.02553610111431,110.74792997377288L75.15289779835574,89.60347559893265L75.22567591106512,101.00548640814905L75.24387043924247,93.05845250470412L75.29845402377453,86.5116811663617L75.64415005914411,93.47237977116448L75.78970628456288,78.4644055881569L75.80790081274023,69.10839203997882L75.86248439727227,106.6367183552431L75.9898460945137,85.51446121931917L76.04442967904573,90.71036433874927L76.08081873540043,90.08062023283304L76.13540231993247,93.57849347779039L76.20818043264185,103.91069255083683L76.37193118623799,95.50381402798838L76.48109835530207,93.99664807734881L76.5720709961888,104.31150370792557L76.64484910889819,98.3810211739297L76.86318344702634,79.30297092056466L76.8813779752037,106.0569043534294L76.95415608791309,96.31497865638484L77.04512872879982,80.89568243155944L77.06332325697716,104.45671710812697L77.29985212328268,88.13290381650718L77.31804665146002,87.7230643926811L77.33624117963737,98.12588202493698L77.42721382052412,87.2736673770017L77.51818646141085,98.38012454776008L77.57277004594287,100.38467280135048L77.75471532771635,88.28856775063477L77.88207702495778,81.6168703257132L78.37332928574615,98.85117378232448L78.77360890564778,96.09575554921608L78.95555418742126,97.34469194261237L79.26486116643615,114.5950220326391L79.2830556946135,104.0252532813781L79.62875172998308,103.15071500049461L80.30194927254493,115.6583044200263L80.35653285707696,100.43189973484851L80.59306172338248,111.61259616768322L80.92056323057471,107.5756697407821L80.97514681510677,98.20884865839686L81.1025085123482,90.66904120671974L81.15709209688023,105.27332620003484L81.302648322299,93.05066830985028L81.53917718860453,85.8367072507995L81.72112247037799,94.73534354001711L82.13959661845698,100.16923826717651L82.41251454111716,97.7325387616367L82.64904340742268,67.92889453240491L83.30404642180719,79.75900229964613L83.32224094998452,117.71879374696428L83.54057528811269,100.0659265472876L83.66793698535412,98.16001583520321L83.68613151353146,94.10034874573316L83.70432604170881,101.92680601445788L83.88627132348228,114.59171567265642L83.95904943619166,96.60979412504842L83.97724396436901,86.1382828741365L83.99543849254636,90.01574289607869L84.08641113343309,108.61552380186016L84.12280018978778,109.95643439150439L84.43210716880269,93.43819074255126L84.94155395776839,101.67747816397576L85.03252659865514,98.58304826829453L85.28724999313799,100.81603485032205L85.41461169037942,98.9405022799563L85.50558433126615,98.80466427879071L85.74211319757167,91.58637672881048L85.79669678210371,93.924970311113L85.8330858384584,85.80925684517062L85.96044753569983,98.55335875002507L86.17878187382799,107.95179961360776L86.61545055008432,73.38170921209033L86.67003413461636,102.0652426449938L87.21586997993677,92.6690838636783L87.36142620535556,101.92931518546881L87.98004016338534,102.18912012573803L88.27115261422288,103.6973941046432L88.43490336781902,114.56202878887721L88.59865412141514,107.06070502029081L88.68962676230188,108.9151971060964L88.78059940318862,115.79905181967028L88.79879393136595,89.59372535074822L88.94435015678474,94.85173871914381L89.14448996673555,104.98869193045401L89.3992133612184,97.75131929086142L89.47199147392779,97.87206065022097L89.54476958663719,101.82317132073803L89.69032581205596,101.52646957753282L89.78129845294269,100.56676871348193L90.18157807284433,105.12293519909399L90.30893977008576,92.45390310556687L90.58185769274596,118.56434086516894L90.6000522209233,79.21236064958838L90.61824674910066,94.35179925577782L90.72741391816473,97.89467073276145L90.76380297451942,115.36289326983204L90.89116467176085,86.99948963780491L91.36422240437187,96.05313714122111L91.69172391156411,103.59362876534205L91.8008910806282,82.3969881412512L91.94644730604699,129.14060676332292L92.09200353146575,103.7198022547675L92.1465871159978,96.30760967571102L92.27394881323923,106.4442535469194L92.47408862319004,105.34234338203785L92.49228315136739,96.39660126474388L92.71061748949556,105.52746580161416L92.94714635580107,101.06372910103671L92.96534088397841,108.3751737256901L93.0017299403331,90.70211317759465L93.25645333481596,94.64054482397218L93.69312201107229,96.76132534150851L93.74770559560432,112.15836559198401L93.78409465195904,95.17590162462724L93.82048370831372,96.75722631252455L93.87506729284576,118.96146677285928L93.94784540555516,114.73408168956612L94.00242899008718,107.19901621049051L94.02062351826453,102.78879894790317L94.34812502545677,98.93913040784855L94.53007030723025,106.00647910235855L94.7484046453584,104.80663870000363L94.83937728624515,104.62953845798964L95.34882407521086,106.3743359336513L95.36701860338822,103.8004560983758L95.40340765974291,91.2139769145728L95.49438030062964,112.71530294659591L95.51257482880698,102.33947111051535L95.63993652604842,102.20751409433414L95.6763255824031,113.98075871104923L95.985632561418,108.02164291104202L96.0220216177727,109.48829694910721L96.04021614595005,104.4830802633734L96.11299425865943,96.28015959325695L96.16757784319148,95.94315319344508L96.58605199127045,91.92020778986186L96.76799727304393,119.59485024639679L97.2228604774776,106.35612066344055L97.25924953383229,107.6354269518574L97.44119481560575,105.31175530300432L97.60494556920187,102.28367322488594L97.65952915373393,109.08140025460378L98.20536499905432,107.88840535964279L98.36911575265044,103.02523391089655L98.44189386535984,99.56670709495927L98.55106103442392,87.88182614016245L98.76939537255208,88.39218431284618L98.82397895708414,103.40362676345401L99.13328593609904,106.68170905646312L99.20606404880841,98.4980741837872L99.36981480240453,94.37548774318495L99.53356555600065,98.78125282592542L99.64273272506475,89.23390120012876L100.2067630985625,85.14253338410816L100.2431521549172,117.90985531230905L100.40690290851332,100.89776130304644L100.60704271846413,101.67128439932378L100.71620988752822,104.45954504382709L100.84357158476965,96.36082208778929L101.51676912733149,110.56384199286688L101.97163233176515,95.06899544222561L102.08079950082924,107.58488363197708L102.18996666989332,95.43083379906237L102.24455025442536,119.03512891115383L102.644829874327,101.62940529846138L102.82677515610045,112.08171698666449L103.28163836053415,119.53428584736942L103.48177817048496,101.8906084878057L103.75469609314517,96.64647729159157L104.00941948762802,85.91225465983379L104.1185866566921,116.82685471335641L104.46428269206169,95.33165593033237L104.51886627659374,91.30136119635767L104.57344986112577,102.58301601055386L104.59164438930311,106.50945886095954L104.6644225020125,93.37447808884797L105.10109117826883,97.05408999276489L105.77428872083067,115.04801393149035L105.8652613617174,117.8119841291022L105.95623400260413,95.85565880780547L106.06540117166823,77.23056106758331L106.8295713551168,114.4554668537768L106.88415493964882,110.65785334662918L107.1752673904864,94.35943468467708L107.32082361590516,100.27924995794888L107.39360172861456,105.700299305511L107.66651965127475,106.97015958154543L107.70290870762945,106.02627828747228L107.90304851758027,105.9420644517694L108.04860474299903,90.85753790269496L108.24874455294986,96.94036542483073L108.46707889107802,102.41994643209001L108.885553039157,110.4625999256816L108.99472020822108,127.43755111489737L109.06749832093047,105.29385424675795L109.34041624359067,105.91530598052111L109.54055605354148,105.77972460761129L109.72250133531496,99.32385165925261L109.79527944802435,109.2331831579261L109.88625208891108,112.12458542770757L110.21375359610333,101.26731953594897L110.25014265245802,110.30744434994716L110.32292076516741,85.0765465200469L110.4320879342315,105.04608187341778L110.57764415965026,114.6976440471777L111.0143128359066,119.2229345221434L111.06889642043865,110.78027872006503L111.12348000497067,89.87310139351435L111.79667754753252,101.01341124235455L111.88765018841926,118.07992003172352L111.96042830112864,107.63168055299704L111.97862282930598,120.62708335949527L112.03320641383802,100.64368357464403L112.12417905472476,126.01046051203814L112.32431886467558,103.55984692012765L112.46987509009435,110.4704836720801L112.54265320280373,91.06203878107375L112.57904225915843,97.64905806292413L112.68820942822252,111.72878676559323L112.83376565364128,109.74189027905999L112.85196018181864,105.4410453501201L112.9611273508827,116.78265709935452L113.01571093541476,93.85255362444953L113.27043432989761,108.2498306643489L113.39779602713904,113.16669135541976L113.79807564704068,92.09678929003891L113.92543734428212,103.09617932721895L114.03460451334618,108.69530308693307L114.10738262605558,119.53618768400018L114.12557715423291,102.22487563292242L114.6168294150213,110.72867802322868L114.67141299955333,100.04757209715804L114.72599658408537,105.96888473157058L114.79877469679475,104.56616238819768L115.08988714763233,95.85799077411797L115.126276203987,103.89035832575449L115.1626652603417,90.46578588917838L115.18085978851906,101.79741577721178L115.19905431669639,103.35021200253128L115.32641601393782,88.13456687185872L115.34461054211518,86.08195333291454L115.67211204930742,104.45703131604272L116.03600261285436,100.64895825951669L116.27253147915987,128.58777079062023L116.54544940182008,98.9732919141614L116.89114543718966,111.76928319395184L116.96392354989905,106.57638154597707L117.09128524714048,86.61756574694135L117.16406335984986,117.45022566516994L117.2550360007366,129.37241207757165L117.81906637423435,104.85227968157152L118.00101165600783,91.75623745702681L118.01920618418517,102.90688970437013L118.60143108586028,102.49362840353683L119.0380997621166,103.3844711787198L119.29282315659945,103.45401854524727L119.38379579748619,104.71865255133501L119.6203246637917,111.32421671869722L119.63851919196905,106.70984309157531L119.78407541738783,98.97314637452307L119.82046447374252,101.7148604729112L119.91143711462925,101.14242795754842L120.58463465719109,100.39476593764576L120.65741276990049,101.01106353307028L120.73019088260988,103.41930381388923L120.93033069256069,98.99038887907182L120.94852522073803,112.06210699468733L120.98491427709273,106.37508494606374L121.00310880527007,108.6124232763071L121.58533370694518,112.03504617379869L121.78547351689599,110.54733894413721L121.82186257325068,104.4721775300342L121.91283521413742,113.38804770970924L121.94922427049211,98.66866008461793L122.04019691137884,107.68038036239595L122.14936408044294,113.12542527514981L122.27672577768436,85.7313215518412L122.51325464398987,94.26192671923003L122.78617256665008,95.01270458780158L122.80436709482741,84.6553575583099L122.87714520753681,115.05655922472765L122.9499233202462,95.77734827723904L123.00450690477824,112.14293662354704L123.38659199650253,103.61257651155739L123.55034275009865,104.44199518647562L123.58673180645334,100.79252645324026L123.96881689817762,110.81459806185673L123.98701142635498,116.99659256007462L124.04159501088701,102.87413648548689L124.07798406724172,102.51052655576609L124.1507621799511,105.97784149571368L124.16895670812845,94.06827388219244L124.25992934901518,122.08807746203172L124.76937613798088,102.16533805350981L124.87854330704498,105.83112273481267L124.91493236339967,114.42050842731354L125.33340651147864,115.29545055871549L125.49715726507476,98.54754223913477L125.51535179325212,105.86415543759729L125.77007518773497,108.11345279968027L125.8974368849764,118.77532020174714L126.27952197670069,88.49357250917346L126.40688367394212,121.01934945260912L126.44327273029681,89.99247205819518L126.49785631482885,107.90975946781383L126.53424537118354,91.1772711704009L127.35299913916417,121.74646107262112L127.4439717800509,93.52526127143028L127.46216630822825,103.59193108883645L127.58952800546969,92.08010163298924L127.66230611817906,98.24111456259817L127.69869517453375,99.09039049478979L128.0989747944354,106.17913420165935L128.49925441433703,102.97356777269677L129.17245195689887,93.43768812084777L129.8820385558154,113.71025757673016L130.06398383758886,106.61010701417L130.31870723207172,105.55346644875448L130.68259779561865,91.49246888043271L131.02829383098825,83.90717917428356L131.1556555282297,89.92211209918989L131.33760081000315,100.57278175246216L131.46496250724456,104.79671215449069L131.64690778901806,103.49649212380096L131.86524212714622,96.3355274914832L131.91982571167824,86.3000521601809L131.95621476803296,121.06898442939554L131.9744092962103,99.31520073602134L132.22913269069315,112.31018849469595L132.39288344428925,103.76924628484589L132.53843966970805,88.54661169585468L133.32080438133397,99.00102753390367L133.93941833936375,92.42998582721411L134.17594720566927,106.38896243055183L134.1941417338466,120.94768071511498L134.2305307902013,95.30160495591225L135.4313696499062,122.40448219051198L135.52234229079295,108.43553321216336L135.576925875325,114.25223118000821L135.72248210074378,105.10663690826465L136.03178907975865,95.02033972386674L136.1955398333548,81.80039261098095L136.3229015305962,117.98916665509628L136.4320686996603,91.02596093303772L136.54123586872439,99.90502642656978L136.55943039690172,92.65575570737188L137.19623888310886,86.54181208428764L137.34179510852766,114.0758263463501L137.76026925660662,97.03868150933172L137.7966583129613,101.66056940522907L137.81485284113867,99.72430121086126L138.32429963010438,117.16862121974772L138.39707774281376,100.97569524087426L138.43346679916846,122.10020658886108L138.79735736271542,94.71546196844066L138.88833000360214,91.56182639123183L138.92471905995683,99.28242342332429L138.96110811631152,100.11478232006391L139.43416584892256,102.65672539725509L140.10736339148437,99.80483397248584L140.21653056054845,87.37080938927556L140.39847584232194,97.21796586063239L140.47125395503133,100.52344042667235L140.54403206774072,94.04785691510364L140.67139376498213,103.63778671068043L140.79875546222357,112.54266925168812L140.94431168764234,98.31795258577714L141.45375847660807,110.26223047263252L141.49014753296277,110.81537298364793L141.61750923020418,91.91591195554058L141.76306545562295,109.57061267847884L141.7812599838003,112.0461556879337L141.83584356833234,110.29315415477495L142.09056696281522,96.5962834226315L142.34529035729807,113.9402502868172L142.41806847000746,101.67906232319426L142.4362629981848,110.32579387362641L142.45445752636215,98.66230842634899L142.69098639266767,101.12945903513658L142.89112620261847,104.34223450433305L142.90932073079583,121.25966186744834L143.00029337168255,101.9859397325788L143.03668242803724,94.57905692421471L143.0912660125693,114.42951738473103L143.76446355513113,105.32819229129379L144.09196506232337,92.74720594278622L144.43766109769294,120.16092355993565L144.54682826675705,93.54050976237828L144.7287735485305,99.81406248282799L144.98349694301336,118.14802936298219L145.3109984502056,104.38748159861717L145.36558203473766,102.62287285751495L145.383776562915,95.09594767023948L145.87502882370336,91.94141246011799L145.98419599276747,98.23381653480979L146.0387795772995,102.07019674306194L146.2025303308956,90.19059074996775L146.3116974999597,100.47456129103895L146.40267014084642,109.6655744991287L146.42086466902379,111.59755618426196L146.63919900715194,97.27588125908395L146.7301716480387,107.46111001625073L147.0212840988762,131.81048047963355L147.11225673976298,94.61496339648946L147.2032293806497,103.14436066606201L147.2760074933591,95.74336607462645L147.56711994419663,97.47405976270271L147.82184333867949,105.31484637422196L148.18573390222645,109.57683842139316L148.4040682403546,98.87136936416984L148.62240257848276,104.0356619059408L149.2592110646899,107.41726786422159L149.38657276193135,89.2565489604856L149.47754540281807,109.66841756941773L149.5139344591728,90.7080750729727L149.55032351552745,99.63204125047211L149.65949068459153,111.09534747929025L149.73226879730092,100.22275666387668L150.0233812481385,95.4533644244842L150.2235210580893,104.09447436305958L150.25991011444398,71.4259076267914L150.4964389807495,72.86543118025493L150.66018973434564,89.8980389985592L150.96949671336054,99.92832094447523L151.3151927487301,126.67873046618361L151.49713803050358,97.89365223647543L151.6063051995677,128.3733822705041L151.6972778404544,123.59919230761538L151.7336668968091,92.76153147166976L151.84283406587315,107.11446959305128L152.00658481946928,99.4794135788825L152.13394651671072,88.4602896767677L152.2067246294201,98.04274082000875L152.29769727030686,100.55041152661906L152.60700424932173,120.47842824948154L153.0072838692234,109.68100835021593L153.04367292557805,125.02699246203676L153.0982565101101,110.03990932117686L153.29839632006093,109.56449986730104L153.42575801730234,99.14651796980576L153.826037637204,110.08421693018646L154.11715008804154,102.78880603732297L154.4082625388791,88.20226208623L154.4992351797658,103.64446097547713L154.53562423612053,85.56652521326185L154.59020782065258,109.09435843228651L154.79034763060338,98.74922942602643L154.8995147996675,106.28662434295L155.08146008144095,123.27173001730044L155.09965460961828,108.28772090509774L155.37257253227847,99.23710764175472L155.5363232858746,95.20592740137631L155.55451781405196,102.6428863318872L156.1549372439044,116.16186662730931L156.57341139198337,109.58383069254337L156.7007730892248,101.16336355041578L156.75535667375686,117.33998368563746L156.86452384282094,98.30123273752768L157.55591591356014,99.66103467438076L157.7924447798656,97.9603483064841L157.810639308043,87.82350420519845L157.84702836439766,104.82072643246306L157.95619553346174,115.1478950049064L158.0107791179938,102.90214757540708L158.33828062518603,94.89812605030903L158.4838368506048,102.20628646969385L158.66578213237827,95.64715625885455L159.10245080863461,102.01100759618551L159.175228921344,105.37930108863648L159.39356325947216,113.20512377748392L159.55731401306826,90.96213057430015L159.9030100484379,96.71321114620038L160.066760802034,95.55365075772032L160.17592797109808,85.08718571597534L160.6489857037091,99.85872234849448L160.7217638164185,105.84436191614445L160.75815287277317,92.81728515739447L160.9946817390787,88.83487480259923L161.0310707954334,105.21539933814891L161.0856543799654,102.58443216246744L161.17662702085218,78.11375418104166L161.24940513356154,121.56531572491063L161.43135041533503,108.61539772880579L161.5769066407538,90.91727431527202L162.1591315424289,94.54161713247404L162.2864932396703,107.41002461527312L162.48663304962116,96.62013851362491L162.5048275777985,112.58035152483595L162.55941116233055,117.27246353886942L162.61399474686257,107.50506041835165L162.94149625405484,116.99580827072568L163.0142743667642,117.97560713983664L163.08705247947358,106.6613271277247L163.1234415358283,98.98160484970583L163.34177587395644,120.1086484620248L163.77844455021278,97.20215276621346L163.99677888834094,81.51467231256126L164.1423351137597,90.23367951863275L164.2515022828238,112.84800315693145L164.45164209277462,109.18678713351099L164.5971983181934,96.62225580297971L164.63358737454809,102.93816955338743L164.74275454361216,85.31518440414837L164.85192171267624,107.09816990327091L165.0702560508044,100.1098758853675L165.23400680440054,77.41230509770686L165.36136850164198,95.84263162016356L165.4887301988834,95.37080742852532L165.5251192552381,93.8630084737491L165.56150831159277,94.32257537118133L165.61609189612483,108.82622777714597L166.1801222696226,115.28177272492377L166.19831679779992,112.05784615194366L166.28928943868667,106.87476544088995L166.307483966864,79.71279847744248L166.54401283316952,86.0858807034456L166.5804018895242,95.2220063441618L166.59859641770154,97.52250123746593L167.03526509395786,91.47328381787518L167.6902681083424,95.31232583889845L167.79943527740645,95.62037530544197L167.8176298055838,93.94472585398316L167.8540188619385,78.06154589157788L168.32707659454954,93.95407476975204L168.34527112272687,103.38143628330988L168.38166017908156,92.23397932068663L168.3998547072589,107.877053054718L168.41804923543626,89.52101286911497L169.0184686652887,94.23951939927282L169.03666319346604,102.62401083629914L169.2913865879489,95.44422944525954L169.50972092607705,109.58616031006237L169.81902790509196,85.0902559864538L169.89180601780134,103.1116372733212L170.03736224322014,124.07740722419894L170.12833488410686,107.8402441227738L170.14652941228422,89.14778716055523L170.25569658134827,117.76359030511101L170.36486375041238,92.16595850916582L170.61958714489523,105.20215845889555L170.85611601120075,82.60449173152765L170.9652831802648,103.08654169442502L171.20181204657032,113.12463857696137L171.23820110292505,98.662558400104L171.25639563110238,89.09974166510705L171.4201463846985,101.56355547431136L171.45653544105318,77.19548738804785L171.47472996923054,73.7046314825336L171.60209166647198,88.58950285770717L172.02056581455093,91.75860548110296L172.51181807533933,92.76990157231832L172.63917977258075,114.27488850126171L173.2395992024332,84.24769306557639L173.29418278696522,103.94463579653693L173.3123773151426,99.39489780067507L173.34876637149728,104.03962139705791L173.60348976598013,113.24383580527338L173.7490459913989,88.67035818985777L173.8764076886403,104.36375735105175L173.94918580134973,101.95110684984847L174.1675201394779,88.3650311949994L174.18571466765522,88.18887742448042L174.31307636489666,116.84725606673055L174.51321617484746,115.19173315896096L174.9862739074585,93.58833849152597L175.13183013287727,102.90882574691301L175.35016447100546,103.32136755619672L175.38655352736012,91.35089805443886L175.47752616824687,105.78317510847025L175.73224956272975,107.14218092213694L175.75044409090708,106.97537571361823L175.78683314726177,117.65876412822706L176.114334654454,77.79392586756238L176.13252918263137,78.08657035017441L176.25989087987278,110.39785326462807L176.40544710529156,123.0056567781773L176.42364163346892,110.65479118413771L176.69655955612913,105.53252486937883L176.71475408430646,109.10901306743636L176.93308842243465,115.51457106350982L176.95128295061198,103.12091554791164L177.40614615504563,96.08256480196674L177.8064257749473,103.61257291349371L177.91559294401137,93.21992203796617L177.9701765285434,95.71079527517969L177.98837105672075,98.14811417334803L178.06114916943017,148.911529250246L178.15212181031688,117.76847382330875L178.2430944512036,89.64739261526881L179.11643180371627,91.98953456684055L179.1710153882483,105.6348824957924L179.37115519819912,104.40042606905944L179.42573878273117,100.25636536644764L179.53490595179525,95.16444166117151L179.62587859268197,89.13058490638714L179.77143481810077,124.07829899332364L179.98976915622893,107.19939635862791L180.24449255071178,83.23731371039501L180.3354651915985,102.51889997134228L180.69935575514543,98.67329518463934L181.0632463186924,105.17108173614419L181.08144084686973,98.99688764540572L181.1542189595791,101.79511104056826L181.70005480489954,101.36420354798712L181.93658367120506,100.94981815925685L182.24589065021996,106.21340581097974L182.40964140381607,112.4696126344446L182.5733921574122,90.76782071910527L182.7371429110083,88.49925655196013L182.84631008007239,102.94570879206815L182.86450460824972,110.28530790239823L183.01006083366852,102.06627821061853L183.22839517179668,124.51152753303424L183.70145290440772,113.9028849573586L183.79242554529444,122.71874924414489L184.01075988342262,98.74705851859639L184.0471489397773,97.51431195506068L184.06534346795462,98.4057004780422L184.17451063701873,97.95248988140371L184.75673553869382,111.75550581603379L184.8295136514032,102.91939525100464L185.39354402490096,110.91826363246342L185.50271119396504,97.19143601437688L185.73924006027056,85.42473891327576L185.83021270115728,99.50337053962751L185.9393798702214,102.03792962678116L186.30327043376832,87.01567748612234L186.4488266591871,103.4068743753925L186.48521571554178,111.58839112651798L186.6853555254926,95.371594460394L186.8854953354434,90.97765348102193L186.9218843917981,101.42755729185977L187.10382967357157,103.84729131846814L187.30396948352242,107.72365697791639L187.3767475962318,99.22250573446865L187.41313665258647,107.48980291504151L187.54049834982789,94.82037737781825L187.6860545752467,95.58592353607358L187.7406381597787,122.27441348035559L187.7770272161334,99.5511251828587L187.92258344155218,91.31498774508151L188.50480834322732,95.34883704160478L188.59578098411404,93.55359781663579L188.72314268135545,102.7189132212527L188.92328249130628,97.98836198636742L189.03244966037036,108.69755600877882L189.1598113576118,92.19393248444656L189.3599511675626,100.16215710119472L189.45092380844932,108.11301944880154L189.52370192115873,85.6861457958784L189.8693979565283,100.20790158071364L190.34245568913934,99.20959852897184L190.41523380184873,103.33492331848605L190.57898455544483,95.80846550476438L190.68815172450894,94.15186011839424L190.70634625268627,103.50688400117456L190.77912436539566,115.57040150305157L191.0702368162332,125.84188717939827L191.36134926707078,103.85877593840243L191.5614890770216,115.10709206884637L191.85260152785912,91.66516894765358L192.01635228145526,94.91418922679875L192.1437139786967,104.45118953377386L192.2346866195834,92.17212758914536L193.08982944391875,104.99400433030681L193.1626075566281,96.18912268829722L193.72663793012586,79.8906292240956L193.87219415554463,111.57615124746287L193.89038868372202,109.01459536458994L193.9267777400767,106.07863680331171L193.94497226825402,96.18566345595073L194.09052849367282,114.49970017298939L194.363446416333,108.90368293310485L194.41803000086506,102.72524349780117L194.4726135853971,104.15671436225256L194.59997528263852,101.72046114017868L194.65455886717058,117.57908264255326L194.7455315080573,102.48523414768373L194.81830962076668,112.96543085204404L194.98206037436282,94.62063626448428L195.00025490254015,105.51553524356021L195.07303301524954,114.56233597922864L195.21858924066834,95.38642622426092L195.4733126351512,104.1528627260007L195.54609074786057,103.30447315807194L195.5642852760379,106.91774649678864L196.2556773467771,113.92410209577845L196.47401168490526,100.90846953397545L196.51040074125996,123.49521414680603L196.6377624385014,111.42673131319746L196.81970772027486,91.54585487337572L196.8379022484522,96.90092491333593L196.91068036116158,105.67850998084543L196.9470694175163,79.27647662891904L197.01984753022566,96.68746881094484L197.07443111475772,103.96782909278231L197.23818186835382,106.90383079146561L197.36554356559526,104.62197433635963L197.49290526283667,117.58269360314489L197.60207243190078,115.42557730897035L197.6202669600781,97.41376867009572L197.7294341291422,91.49914652465745L197.82040677002894,100.52928882963592L198.00235205180243,106.95405540180482L198.18429733357587,119.82479149933653L198.29346450263995,123.10360645207666L198.40263167170406,112.86565627235791L198.56638242530016,99.95168591234071L198.9302729888471,107.36354629889871L198.98485657337915,105.87484584460285L199.02124562973384,102.17974138857367L199.239579967862,104.00769250202742L199.25777449603933,118.30830455506506L199.40333072145813,95.58411939424204L199.51249789052218,77.01265631656604L199.5488869468769,89.02149663834979L199.83999939771448,92.57862897436651L199.8581939258918,108.81982521264588L199.87638845406914,104.11535967549979L199.91277751042384,109.3149630280399L200.42222429938957,100.30108010187088L200.4768078839216,122.75277848016705L200.49500241209896,100.01956474833952L200.67694769387242,114.23435108387186" style="fill: none;" fill="none"></path></g></g></g></g></g></g><g transform="translate(41, 176)" clip-path="url(#clip_1)"><clipPath id="clip_1"><rect width="288" height="22"></rect></clipPath><g><g><line x1="27.192121522869158" y1="0" x2="27.192121522869158" y2="5" style="visibility: inherit;" fill="rgb(0, 0, 0)" stroke="rgb(204, 204, 204)" stroke-width="1px"></line><line x1="63.58117787756307" y1="0" x2="63.58117787756307" y2="5" style="visibility: inherit;" fill="rgb(0, 0, 0)" stroke="rgb(204, 204, 204)" stroke-width="1px"></line><line x1="99.97023423225698" y1="0" x2="99.97023423225698" y2="5" style="visibility: inherit;" fill="rgb(0, 0, 0)" stroke="rgb(204, 204, 204)" stroke-width="1px"></line><line x1="136.35929058695092" y1="0" x2="136.35929058695092" y2="5" style="visibility: inherit;" fill="rgb(0, 0, 0)" stroke="rgb(204, 204, 204)" stroke-width="1px"></line><line x1="172.74834694164485" y1="0" x2="172.74834694164485" y2="5" style="visibility: inherit;" fill="rgb(0, 0, 0)" stroke="rgb(204, 204, 204)" stroke-width="1px"></line><line x1="209.13740329633873" y1="0" x2="209.13740329633873" y2="5" style="visibility: inherit;" fill="rgb(0, 0, 0)" stroke="rgb(204, 204, 204)" stroke-width="1px"></line><line x1="245.5264596510327" y1="0" x2="245.5264596510327" y2="5" style="visibility: inherit;" fill="rgb(0, 0, 0)" stroke="rgb(204, 204, 204)" stroke-width="1px"></line><line x1="281.9155160057266" y1="0" x2="281.9155160057266" y2="5" style="visibility: inherit;" fill="rgb(0, 0, 0)" stroke="rgb(204, 204, 204)" stroke-width="1px"></line></g><g transform="translate(0, 8)"><text x="27.192121522869158" y="0" dx="0em" dy="0.95em" style="text-anchor: middle; visibility: inherit; font-family: Roboto, sans-serif; font-size: 12px; font-weight: 200;" fill="rgb(33, 33, 33)" stroke="none" stroke-width="1px">0</text><text x="63.58117787756307" y="0" dx="0em" dy="0.95em" style="text-anchor: middle; visibility: inherit; font-family: Roboto, sans-serif; font-size: 12px; font-weight: 200;" fill="rgb(33, 33, 33)" stroke="none" stroke-width="1px">20k</text><text x="99.97023423225698" y="0" dx="0em" dy="0.95em" style="text-anchor: middle; visibility: inherit; font-family: Roboto, sans-serif; font-size: 12px; font-weight: 200;" fill="rgb(33, 33, 33)" stroke="none" stroke-width="1px">40k</text><text x="136.35929058695092" y="0" dx="0em" dy="0.95em" style="text-anchor: middle; visibility: inherit; font-family: Roboto, sans-serif; font-size: 12px; font-weight: 200;" fill="rgb(33, 33, 33)" stroke="none" stroke-width="1px">60k</text><text x="172.74834694164485" y="0" dx="0em" dy="0.95em" style="text-anchor: middle; visibility: inherit; font-family: Roboto, sans-serif; font-size: 12px; font-weight: 200;" fill="rgb(33, 33, 33)" stroke="none" stroke-width="1px">80k</text><text x="209.13740329633873" y="0" dx="0em" dy="0.95em" style="text-anchor: middle; visibility: inherit; font-family: Roboto, sans-serif; font-size: 12px; font-weight: 200;" fill="rgb(33, 33, 33)" stroke="none" stroke-width="1px">100k</text><text x="245.5264596510327" y="0" dx="0em" dy="0.95em" style="text-anchor: middle; visibility: inherit; font-family: Roboto, sans-serif; font-size: 12px; font-weight: 200;" fill="rgb(33, 33, 33)" stroke="none" stroke-width="1px">120k</text><text x="281.9155160057266" y="0" dx="0em" dy="0.95em" style="text-anchor: middle; visibility: hidden; font-family: Roboto, sans-serif; font-size: 12px; font-weight: 200;" fill="rgb(33, 33, 33)" stroke="none" stroke-width="1px">140k</text></g><line x1="0" y1="0" x2="288.820125" y2="0" fill="rgb(0, 0, 0)" stroke="rgb(204, 204, 204)" stroke-width="1px"></line></g></g></g></g></svg>