<svg viewBox="0 0 329.9917297363281 199.99655151367188" xmlns="http://www.w3.org/2000/svg"><g><g><g><g><g><line x1="51.5625" y1="173.43559106407344" x2="46.5625" y2="173.43559106407344" style="visibility: inherit;" fill="rgb(0, 0, 0)" stroke="rgb(204, 204, 204)" stroke-width="1px"></line><line x1="51.5625" y1="155.7358910640734" x2="46.5625" y2="155.7358910640734" style="visibility: inherit;" fill="rgb(0, 0, 0)" stroke="rgb(204, 204, 204)" stroke-width="1px"></line><line x1="51.5625" y1="138.03619106407342" x2="46.5625" y2="138.03619106407342" style="visibility: inherit;" fill="rgb(0, 0, 0)" stroke="rgb(204, 204, 204)" stroke-width="1px"></line><line x1="51.5625" y1="120.33649106407346" x2="46.5625" y2="120.33649106407346" style="visibility: inherit;" fill="rgb(0, 0, 0)" stroke="rgb(204, 204, 204)" stroke-width="1px"></line><line x1="51.5625" y1="102.63679106407344" x2="46.5625" y2="102.63679106407344" style="visibility: inherit;" fill="rgb(0, 0, 0)" stroke="rgb(204, 204, 204)" stroke-width="1px"></line><line x1="51.5625" y1="84.93709106407346" x2="46.5625" y2="84.93709106407346" style="visibility: inherit;" fill="rgb(0, 0, 0)" stroke="rgb(204, 204, 204)" stroke-width="1px"></line><line x1="51.5625" y1="67.23739106407344" x2="46.5625" y2="67.23739106407344" style="visibility: inherit;" fill="rgb(0, 0, 0)" stroke="rgb(204, 204, 204)" stroke-width="1px"></line><line x1="51.5625" y1="49.537691064073485" x2="46.5625" y2="49.537691064073485" style="visibility: inherit;" fill="rgb(0, 0, 0)" stroke="rgb(204, 204, 204)" stroke-width="1px"></line><line x1="51.5625" y1="31.837991064073467" x2="46.5625" y2="31.837991064073467" style="visibility: inherit;" fill="rgb(0, 0, 0)" stroke="rgb(204, 204, 204)" stroke-width="1px"></line><line x1="51.5625" y1="14.138291064073469" x2="46.5625" y2="14.138291064073469" style="visibility: inherit;" fill="rgb(0, 0, 0)" stroke="rgb(204, 204, 204)" stroke-width="1px"></line></g><g transform="translate(41.5625, 0)"><text x="0" y="173.43559106407344" dx="0em" dy="0.3em" style="text-anchor: end; visibility: hidden; font-family: Roboto, sans-serif; font-size: 12px; font-weight: 200;" fill="rgb(33, 33, 33)" stroke="none" stroke-width="1px">0.35</text><text x="0" y="155.7358910640734" dx="0em" dy="0.3em" style="text-anchor: end; visibility: inherit; font-family: Roboto, sans-serif; font-size: 12px; font-weight: 200;" fill="rgb(33, 33, 33)" stroke="none" stroke-width="1px">0.4</text><text x="0" y="138.03619106407342" dx="0em" dy="0.3em" style="text-anchor: end; visibility: hidden; font-family: Roboto, sans-serif; font-size: 12px; font-weight: 200;" fill="rgb(33, 33, 33)" stroke="none" stroke-width="1px">0.45</text><text x="0" y="120.33649106407346" dx="0em" dy="0.3em" style="text-anchor: end; visibility: inherit; font-family: Roboto, sans-serif; font-size: 12px; font-weight: 200;" fill="rgb(33, 33, 33)" stroke="none" stroke-width="1px">0.5</text><text x="0" y="102.63679106407344" dx="0em" dy="0.3em" style="text-anchor: end; visibility: hidden; font-family: Roboto, sans-serif; font-size: 12px; font-weight: 200;" fill="rgb(33, 33, 33)" stroke="none" stroke-width="1px">0.55</text><text x="0" y="84.93709106407346" dx="0em" dy="0.3em" style="text-anchor: end; visibility: inherit; font-family: Roboto, sans-serif; font-size: 12px; font-weight: 200;" fill="rgb(33, 33, 33)" stroke="none" stroke-width="1px">0.6</text><text x="0" y="67.23739106407344" dx="0em" dy="0.3em" style="text-anchor: end; visibility: hidden; font-family: Roboto, sans-serif; font-size: 12px; font-weight: 200;" fill="rgb(33, 33, 33)" stroke="none" stroke-width="1px">0.65</text><text x="0" y="49.537691064073485" dx="0em" dy="0.3em" style="text-anchor: end; visibility: inherit; font-family: Roboto, sans-serif; font-size: 12px; font-weight: 200;" fill="rgb(33, 33, 33)" stroke="none" stroke-width="1px">0.7</text><text x="0" y="31.837991064073467" dx="0em" dy="0.3em" style="text-anchor: end; visibility: hidden; font-family: Roboto, sans-serif; font-size: 12px; font-weight: 200;" fill="rgb(33, 33, 33)" stroke="none" stroke-width="1px">0.75</text><text x="0" y="14.138291064073469" dx="0em" dy="0.3em" style="text-anchor: end; visibility: inherit; font-family: Roboto, sans-serif; font-size: 12px; font-weight: 200;" fill="rgb(33, 33, 33)" stroke="none" stroke-width="1px">0.8</text></g><line x1="51.5625" y1="0" x2="51.5625" y2="176.997" fill="rgb(0, 0, 0)" stroke="rgb(204, 204, 204)" stroke-width="1px"></line></g></g><g transform="translate(51, 0)" clip-path="url(#clip_0)"><clipPath id="clip_0"><rect width="278" height="176"></rect></clipPath><g><g><g><line x1="17.114012800521387" y1="0" x2="17.114012800521387" y2="176.997" fill="rgb(0, 0, 0)" stroke="rgb(66, 66, 66)" stroke-width="1px" opacity="0.25"></line><line x1="40.31647113385474" y1="0" x2="40.31647113385474" y2="176.997" fill="rgb(0, 0, 0)" stroke="rgb(66, 66, 66)" stroke-width="1px" opacity="0.25"></line><line x1="63.518929467188094" y1="0" x2="63.518929467188094" y2="176.997" fill="rgb(0, 0, 0)" stroke="rgb(66, 66, 66)" stroke-width="1px" opacity="0.25"></line><line x1="86.72138780052144" y1="0" x2="86.72138780052144" y2="176.997" fill="rgb(0, 0, 0)" stroke="rgb(66, 66, 66)" stroke-width="1px" opacity="0.25"></line><line x1="109.9238461338548" y1="0" x2="109.9238461338548" y2="176.997" fill="rgb(0, 0, 0)" stroke="rgb(66, 66, 66)" stroke-width="1px" opacity="0.25"></line><line x1="133.12630446718813" y1="0" x2="133.12630446718813" y2="176.997" fill="rgb(0, 0, 0)" stroke="rgb(66, 66, 66)" stroke-width="1px" opacity="0.25"></line><line x1="156.32876280052147" y1="0" x2="156.32876280052147" y2="176.997" fill="rgb(0, 0, 0)" stroke="rgb(66, 66, 66)" stroke-width="1px" opacity="0.25"></line><line x1="179.5312211338548" y1="0" x2="179.5312211338548" y2="176.997" fill="rgb(0, 0, 0)" stroke="rgb(66, 66, 66)" stroke-width="1px" opacity="0.25"></line><line x1="202.73367946718818" y1="0" x2="202.73367946718818" y2="176.997" fill="rgb(0, 0, 0)" stroke="rgb(66, 66, 66)" stroke-width="1px" opacity="0.25"></line><line x1="225.93613780052152" y1="0" x2="225.93613780052152" y2="176.997" fill="rgb(0, 0, 0)" stroke="rgb(66, 66, 66)" stroke-width="1px" opacity="0.25"></line><line x1="249.13859613385486" y1="0" x2="249.13859613385486" y2="176.997" fill="rgb(0, 0, 0)" stroke="rgb(66, 66, 66)" stroke-width="1px" opacity="0.25"></line><line x1="272.3410544671882" y1="0" x2="272.3410544671882" y2="176.997" fill="rgb(0, 0, 0)" stroke="rgb(66, 66, 66)" stroke-width="1px" opacity="0.25"></line></g><g><line x1="0" y1="173.43559106407344" x2="278.4295" y2="173.43559106407344" fill="rgb(0, 0, 0)" stroke="rgb(66, 66, 66)" stroke-width="1px" opacity="0.25"></line><line x1="0" y1="155.7358910640734" x2="278.4295" y2="155.7358910640734" fill="rgb(0, 0, 0)" stroke="rgb(66, 66, 66)" stroke-width="1px" opacity="0.25"></line><line x1="0" y1="138.03619106407342" x2="278.4295" y2="138.03619106407342" fill="rgb(0, 0, 0)" stroke="rgb(66, 66, 66)" stroke-width="1px" opacity="0.25"></line><line x1="0" y1="120.33649106407346" x2="278.4295" y2="120.33649106407346" fill="rgb(0, 0, 0)" stroke="rgb(66, 66, 66)" stroke-width="1px" opacity="0.25"></line><line x1="0" y1="102.63679106407344" x2="278.4295" y2="102.63679106407344" fill="rgb(0, 0, 0)" stroke="rgb(66, 66, 66)" stroke-width="1px" opacity="0.25"></line><line x1="0" y1="84.93709106407346" x2="278.4295" y2="84.93709106407346" fill="rgb(0, 0, 0)" stroke="rgb(66, 66, 66)" stroke-width="1px" opacity="0.25"></line><line x1="0" y1="67.23739106407344" x2="278.4295" y2="67.23739106407344" fill="rgb(0, 0, 0)" stroke="rgb(66, 66, 66)" stroke-width="1px" opacity="0.25"></line><line x1="0" y1="49.537691064073485" x2="278.4295" y2="49.537691064073485" fill="rgb(0, 0, 0)" stroke="rgb(66, 66, 66)" stroke-width="1px" opacity="0.25"></line><line x1="0" y1="31.837991064073467" x2="278.4295" y2="31.837991064073467" fill="rgb(0, 0, 0)" stroke="rgb(66, 66, 66)" stroke-width="1px" opacity="0.25"></line><line x1="0" y1="14.138291064073469" x2="278.4295" y2="14.138291064073469" fill="rgb(0, 0, 0)" stroke="rgb(66, 66, 66)" stroke-width="1px" opacity="0.25"></line></g></g></g><g><g><line x1="0" y1="297.33349106407337" x2="278.4295" y2="297.33349106407337" fill="rgb(0, 0, 0)" stroke="rgb(153, 153, 153)" stroke-width="1.5px"></line></g></g><g><g><line x1="40.31647113385474" y1="0" x2="40.31647113385474" y2="176.997" fill="rgb(0, 0, 0)" stroke="rgb(153, 153, 153)" stroke-width="1.5px"></line></g></g><g><g><g><g><g><path stroke="rgb(0, 119, 187)" stroke-width="2px" d="M44.95696280052141,188.29172222852847L47.27720863385474,164.6360626163704L49.59745446718808,170.47539491745317L51.917700300521425,196.54082345915774L58.87843780052142,177.0530214386641L61.198683633854756,174.78528304070156L63.518929467188094,173.98467654446068L65.83917530052143,158.73707831313638L68.15942113385476,163.17739620126716L70.4796669671881,149.1996611894819L72.79991280052144,145.3830142236129L75.12015863385476,142.72001972241142L77.4404044671881,119.20222784137914L79.76065030052143,104.06358720084523L82.08089613385476,89.57529705705605L84.40114196718811,93.04194946292775L86.72138780052144,95.31981855230538L89.04163363385477,103.92174098410068L91.36187946718812,102.2256557331919L93.68212530052143,95.65437340777004L96.00237113385478,89.72594484826647L98.32261696718813,103.67141750217756L100.64286280052144,92.93196788027869L102.96310863385479,95.93604533318754L105.28335446718813,99.8472312484006L107.60360030052145,94.77249667215952L109.9238461338548,83.8537770741514L112.24409196718811,86.05885204965898L114.56433780052146,81.04071202449066L116.8845836338548,73.90565416608896L119.20482946718812,69.47976112176865L121.52507530052146,64.53002071998716L123.84532113385481,66.9703020431944L126.16556696718813,69.0537984657344L128.48581280052147,68.46688942450106L130.8060586338548,74.28268867829695L133.12630446718813,70.89587348157899L135.44655030052147,71.14523349493346L137.7667961338548,79.5422289883155L140.08704196718816,77.33414304938712L142.40728780052146,71.53497499625148L144.72753363385482,64.05774079950302L147.04777946718815,78.50487119778566L149.36802530052148,76.44226645318668L151.68827113385484,71.55880420274967L154.00851696718814,72.41134687788795L156.32876280052147,66.90666419305381L158.6490086338548,60.04078728131838L160.96925446718816,56.211180075944846L163.2895003005215,51.728636844727504L165.60974613385483,55.089231671282285L167.92999196718816,41.39442325249321L170.2502378005215,53.425817846425794L172.57048363385482,63.02006666527718L174.89072946718818,55.52332772546018L177.2109753005215,58.55823423710354L179.5312211338548,60.65214470519926L181.85146696718817,63.80510881910003L184.1717128005215,60.76768278057712L186.49195863385484,48.370296725489936L188.8122044671882,43.46020226569098L191.1324503005215,44.50649928349714L193.4526961338548,37.67676234813496L195.77294196718816,36.42681645655629L198.0931878005215,49.42716268223944L200.41343363385482,59.165166679261134L202.73367946718818,52.83812860055823L205.05392530052148,46.13399695625935L207.37417113385482,39.80150031325502L209.69441696718818,52.51839654535134L212.0146628005215,51.15105336684277L214.33490863385484,53.710997901513146L216.6551544671882,40.532680737031384L218.9754003005215,50.25401700793818L221.29564613385483,43.216680771912685L223.6158919671882,39.16759098757711L225.93613780052152,30.94143563572432L228.25638363385485,45.41138540037301L230.57662946718816,43.67424673712109L232.89687530052151,33.02984285922074L235.21712113385485,44.1099713524512L237.53736696718818,47.949125233675815L239.85761280052154,47.15068505002436L242.17785863385487,57.207675978353606L244.49810446718817,53.126219268959524L246.81835030052153,34.607078840580016L249.13859613385486,44.33801991586614L251.4588419671882,50.04218379457113L253.77908780052155,58.383729386618434L256.0993336338549,58.75322675872501L258.4195794671882,62.51529475695154L260.73982530052155,52.55946738473525" style="fill: none;" fill="none"></path></g><g><path stroke="rgb(255, 112, 67)" stroke-width="2px" d="M42.63671696718807,24.957404356123828L44.95696280052141,16.526322400711372L47.27720863385474,17.09646854684049L49.59745446718808,21.815357565124145L51.917700300521425,25.153826978126602L54.237946133854756,27.97740706611066L56.55819196718809,31.681886556072783L58.87843780052142,30.603653522428132L61.198683633854756,19.58876547595288L63.518929467188094,22.11479401218672L65.83917530052143,23.50992984436388L68.15942113385476,29.577378206851478L70.4796669671881,24.764661596228297L72.79991280052144,19.65284942263835L75.12015863385476,21.483588680688936L77.4404044671881,24.14658701416119L79.76065030052143,20.876760978436554L82.08089613385476,25.846294950684022L84.40114196718811,26.216132802358455L86.72138780052144,25.8534059610182L89.04163363385477,16.068578993853123L91.36187946718812,22.86410192515574L93.68212530052143,25.457941873355637L96.00237113385478,22.155813193593044L98.32261696718813,22.29028479619836L100.64286280052144,28.449171327448042L102.96310863385479,25.316626581913333L105.28335446718813,21.4880977848148L107.60360030052145,21.359678606876294L109.9238461338548,21.824580273336732L112.24409196718811,19.39080418590759L114.56433780052146,17.040640740401322L116.8845836338548,14.494712265605557L119.20482946718812,17.617864144882077L121.52507530052146,25.206889883859375L123.84532113385481,23.562931272171753L126.16556696718813,20.898413479411662L128.48581280052147,22.818849347800576L130.8060586338548,25.650769761265916L133.12630446718813,29.126222554436907L135.44655030052147,24.14174619940983L137.7667961338548,30.35984867281175L140.08704196718816,20.68702906257066L142.40728780052146,20.483872070532836L144.72753363385482,21.486881532542615L147.04777946718815,18.060892585102838L149.36802530052148,25.948694048673204L151.68827113385484,16.783946730487468L154.00851696718814,21.943768071715272L156.32876280052147,22.95006161639666L158.6490086338548,20.158350966632067L160.96925446718816,15.69132815998797L163.2895003005215,13.56424086804474L165.60974613385483,13.314560218998716L167.92999196718816,21.008618269815628L170.2502378005215,19.691538780316908L172.57048363385482,20.48655464585631L174.89072946718818,22.838012998799304L177.2109753005215,21.02687799363149L179.5312211338548,25.00023869120137L181.85146696718817,25.852536353403753L184.1717128005215,20.34031777389216L186.49195863385484,27.96475162631439L188.8122044671882,26.15512878043092L191.1324503005215,30.372179240389407L193.4526961338548,29.853464276200608L195.77294196718816,27.016272726091483L198.0931878005215,31.85510754025816L200.41343363385482,28.1277210142333L202.73367946718818,26.42431927989993L205.05392530052148,20.98234036675532L207.37417113385482,21.315271129425554L209.69441696718818,25.49670432507993L212.0146628005215,30.233973827682888L214.33490863385484,27.923432609648707L216.6551544671882,25.300019071267098L218.9754003005215,21.727204229934994L221.29564613385483,14.283612945153612L223.6158919671882,15.893078023421728L225.93613780052152,20.494320407187494L228.25638363385485,22.461467980423897L230.57662946718816,22.23384308754795L232.89687530052151,22.01432791393245L235.21712113385485,21.412945505605016L237.53736696718818,11.812844583241468L239.85761280052154,16.710911910892165L242.17785863385487,22.628021634279712L244.49810446718817,16.261158743422275L246.81835030052153,21.245586449271563L249.13859613385486,23.741113140471644L251.4588419671882,23.058931112013962L253.77908780052155,27.31518092837845L256.0993336338549,15.104598211423946L258.4195794671882,21.479910078112663L260.73982530052155,21.696900734789722L263.0600711338549,17.842680277801044L265.3803169671882,22.197013102660822L267.70056280052154,20.349276857799026" style="fill: none;" fill="none"></path></g></g></g></g><g opacity="0.2"><g><g><g><path stroke="rgb(0, 119, 187)" stroke-width="2px" d="M44.95696280052141,188.6876176974791L47.27720863385474,145.98686314886987L49.59745446718808,175.8952258430141L51.917700300521425,222.62488115346605L54.237946133854756,175.97939249295172L56.55819196718809,174.57601013630804L58.87843780052142,173.17711146307167L61.198683633854756,172.35126972866234L63.518929467188094,173.12318066406425L65.83917530052143,142.30821718496261L68.15942113385476,167.96498247480568L70.4796669671881,134.12341664749562L72.79991280052144,141.26566056925236L75.12015863385476,139.84693874043404L77.4404044671881,93.82783647668542L79.76065030052143,87.72941515183628L82.08089613385476,73.94262671637715L84.40114196718811,96.78244669413746L86.72138780052144,97.77763451337994L89.04163363385477,113.20321450913133L91.36187946718812,100.39557813108146L93.68212530052143,88.56394995713414L96.00237113385478,83.32915990543545L98.32261696718813,118.71860929322422L100.64286280052144,81.34408028829277L102.96310863385479,99.1774510229844L105.28335446718813,104.06740889620961L107.60360030052145,89.29684757197083L109.9238461338548,72.07245599258125L112.24409196718811,88.43813252580345L114.56433780052146,75.62612851262273L116.8845836338548,66.206911908986L119.20482946718812,64.70421332740965L121.52507530052146,59.1892405370492L123.84532113385481,69.6033706640023L126.16556696718813,71.30189543712319L128.48581280052147,67.83361334884346L130.8060586338548,80.55794816410722L133.12630446718813,67.24149284315288L135.44655030052147,71.41429346776188L137.7667961338548,88.60260458302677L140.08704196718816,74.95161373067081L142.40728780052146,65.27766061043921L144.72753363385482,55.98978955602827L147.04777946718815,94.09335493314445L149.36802530052148,74.21671164560497L151.68827113385484,66.28953828180018L154.00851696718814,73.33124219680012L156.32876280052147,60.96710013187113L158.6490086338548,52.632491819383525L160.96925446718816,52.07902593958559L163.2895003005215,46.891963379027274L165.60974613385483,58.71532047581854L167.92999196718816,26.61769649708452L170.2502378005215,66.40771762657344L172.57048363385482,73.37228108728111L174.89072946718818,47.43433082366171L177.2109753005215,61.8329046727437L179.5312211338548,62.911478453518775L181.85146696718817,67.20716365301789L184.1717128005215,57.49029377019587L186.49195863385484,34.99349139785948L188.8122044671882,38.162200135471245L191.1324503005215,45.63545594096365L193.4526961338548,30.307461995841884L195.77294196718816,35.07812224090281L198.0931878005215,63.45456328749838L200.41343363385482,69.672493237378L202.73367946718818,46.01124135971251L205.05392530052148,38.90022497415724L207.37417113385482,32.96872327017965L209.69441696718818,66.23995401823701L212.0146628005215,49.67568723452273L214.33490863385484,56.473183376552484L216.6551544671882,26.31324911880674L218.9754003005215,60.74335905492487L221.29564613385483,35.62338034260454L223.6158919671882,34.798614692212965L225.93613780052152,22.06539690888111L228.25638363385485,61.02449127948466L230.57662946718816,41.799870507957365L232.89687530052151,21.5445089452285L235.21712113385485,56.06545303225698L237.53736696718818,52.09158025312605L239.85761280052154,46.28916643190565L242.17785863385487,68.05919009852589L244.49810446718817,48.72231899416628L246.81835030052153,14.624887817027014L249.13859613385486,54.83772556674662L251.4588419671882,56.1969884786624L253.77908780052155,67.38427442252815L256.0993336338549,59.151915191413785L258.4195794671882,66.57457394838512L260.73982530052155,41.81710895192804" style="fill: none;" fill="none"></path></g><g><path stroke="rgb(255, 112, 67)" stroke-width="2px" d="M42.63671696718807,24.957404356123828L44.95696280052141,12.150590865852278L47.27720863385474,17.5459495327491L49.59745446718808,26.19523857152643L51.917700300521425,28.49468241965952L54.237946133854756,30.90933055675211L56.55819196718809,35.60090917635145L58.87843780052142,29.452038500787637L61.198683633854756,7.7662447831648995L63.518929467188094,24.832937304736994L65.83917530052143,25.01314972818079L68.15942113385476,36.11934957635584L70.4796669671881,19.573713815929334L72.79991280052144,14.13828684413616L75.12015863385476,23.458756914379023L77.4404044671881,27.019814324738405L79.76065030052143,17.34870966220085L82.08089613385476,31.208355315567875L84.40114196718811,26.61518563437643L86.72138780052144,25.4620244613904L89.04163363385477,5.510751582266729L91.36187946718812,30.196477644206905L93.68212530052143,28.25669905424299L96.00237113385478,18.59281048453037L98.32261696718813,22.435379913808724L100.64286280052144,35.094622195841694L102.96310863385479,21.93660442173664L105.28335446718813,17.357107337476652L107.60360030052145,21.221114048363606L109.9238461338548,22.326210135223292L112.24409196718811,16.76475473523323L114.56433780052146,14.504809500457686L116.8845836338548,11.74765015042011L119.20482946718812,20.987751514317434L121.52507530052146,33.39546443212213L123.84532113385481,21.789096512557904L126.16556696718813,18.023393241645735L128.48581280052147,24.891003642322442L130.8060586338548,28.706417774917504L133.12630446718813,32.87624334371271L135.44655030052147,18.763485849620743L137.7667961338548,37.069194169046305L140.08704196718816,10.250036593319814L142.40728780052146,20.26466525376026L144.72753363385482,22.56913082730951L147.04777946718815,14.364243388177794L149.36802530052148,34.45964822662058L151.68827113385484,6.8951653206366705L154.00851696718814,27.511226026179216L156.32876280052147,24.035854443194292L158.6490086338548,17.146089371563832L160.96925446718816,10.87140126466934L163.2895003005215,11.269109257819098L165.60974613385483,13.045154279591483L167.92999196718816,29.31052290260973L170.2502378005215,18.270407272936744L172.57048363385482,21.34437841761295L174.89072946718818,25.375241450311563L177.2109753005215,19.072659557701986L179.5312211338548,29.287503144504452L181.85146696718817,26.772167302848718L184.1717128005215,14.392622466685218L186.49195863385484,36.19153160429182L188.8122044671882,24.20254196751299L191.1324503005215,34.922385453941246L193.4526961338548,29.29376975143137L195.77294196718816,23.954937144996546L198.0931878005215,37.076220364691636L200.41343363385482,24.105863203408145L202.73367946718818,24.586345267178437L205.05392530052148,15.110433805586737L207.37417113385482,21.67450411451046L209.69441696718818,30.008479436399362L212.0146628005215,35.34549746978464L214.33490863385484,25.430353831769846L216.6551544671882,22.469350409271144L218.9754003005215,17.872129588248175L221.29564613385483,6.251962473632734L223.6158919671882,17.629694188954275L225.93613780052152,25.45907050526323L228.25638363385485,24.58402430164995L230.57662946718816,21.98823535490219L232.89687530052151,21.777470585228844L235.21712113385485,20.76405263674442L237.53736696718818,1.4543157293814821L239.85761280052154,21.995936740519447L242.17785863385487,29.01259532749834L244.49810446718817,9.391300447465818L246.81835030052153,26.62379430651846L249.13859613385486,26.433791628481767L251.4588419671882,22.322855285050295L253.77908780052155,31.90768332898798L256.0993336338549,1.9293540740031405L258.4195794671882,28.35888483655634L260.73982530052155,21.931034104468267L263.0600711338549,13.683968391777913L265.3803169671882,26.89534727335157L267.70056280052154,18.355565608145636" style="fill: none;" fill="none"></path></g></g></g></g></g></g><g transform="translate(51, 176)" clip-path="url(#clip_1)"><clipPath id="clip_1"><rect width="278" height="22"></rect></clipPath><g><g><line x1="17.114012800521387" y1="0" x2="17.114012800521387" y2="5" style="visibility: inherit;" fill="rgb(0, 0, 0)" stroke="rgb(204, 204, 204)" stroke-width="1px"></line><line x1="40.31647113385474" y1="0" x2="40.31647113385474" y2="5" style="visibility: inherit;" fill="rgb(0, 0, 0)" stroke="rgb(204, 204, 204)" stroke-width="1px"></line><line x1="63.518929467188094" y1="0" x2="63.518929467188094" y2="5" style="visibility: inherit;" fill="rgb(0, 0, 0)" stroke="rgb(204, 204, 204)" stroke-width="1px"></line><line x1="86.72138780052144" y1="0" x2="86.72138780052144" y2="5" style="visibility: inherit;" fill="rgb(0, 0, 0)" stroke="rgb(204, 204, 204)" stroke-width="1px"></line><line x1="109.9238461338548" y1="0" x2="109.9238461338548" y2="5" style="visibility: inherit;" fill="rgb(0, 0, 0)" stroke="rgb(204, 204, 204)" stroke-width="1px"></line><line x1="133.12630446718813" y1="0" x2="133.12630446718813" y2="5" style="visibility: inherit;" fill="rgb(0, 0, 0)" stroke="rgb(204, 204, 204)" stroke-width="1px"></line><line x1="156.32876280052147" y1="0" x2="156.32876280052147" y2="5" style="visibility: inherit;" fill="rgb(0, 0, 0)" stroke="rgb(204, 204, 204)" stroke-width="1px"></line><line x1="179.5312211338548" y1="0" x2="179.5312211338548" y2="5" style="visibility: inherit;" fill="rgb(0, 0, 0)" stroke="rgb(204, 204, 204)" stroke-width="1px"></line><line x1="202.73367946718818" y1="0" x2="202.73367946718818" y2="5" style="visibility: inherit;" fill="rgb(0, 0, 0)" stroke="rgb(204, 204, 204)" stroke-width="1px"></line><line x1="225.93613780052152" y1="0" x2="225.93613780052152" y2="5" style="visibility: inherit;" fill="rgb(0, 0, 0)" stroke="rgb(204, 204, 204)" stroke-width="1px"></line><line x1="249.13859613385486" y1="0" x2="249.13859613385486" y2="5" style="visibility: inherit;" fill="rgb(0, 0, 0)" stroke="rgb(204, 204, 204)" stroke-width="1px"></line><line x1="272.3410544671882" y1="0" x2="272.3410544671882" y2="5" style="visibility: inherit;" fill="rgb(0, 0, 0)" stroke="rgb(204, 204, 204)" stroke-width="1px"></line></g><g transform="translate(0, 8)"><text x="17.114012800521387" y="0" dx="0em" dy="0.95em" style="text-anchor: middle; visibility: inherit; font-family: Roboto, sans-serif; font-size: 12px; font-weight: 200;" fill="rgb(33, 33, 33)" stroke="none" stroke-width="1px">-1k</text><text x="40.31647113385474" y="0" dx="0em" dy="0.95em" style="text-anchor: middle; visibility: inherit; font-family: Roboto, sans-serif; font-size: 12px; font-weight: 200;" fill="rgb(33, 33, 33)" stroke="none" stroke-width="1px">0</text><text x="63.518929467188094" y="0" dx="0em" dy="0.95em" style="text-anchor: middle; visibility: inherit; font-family: Roboto, sans-serif; font-size: 12px; font-weight: 200;" fill="rgb(33, 33, 33)" stroke="none" stroke-width="1px">1k</text><text x="86.72138780052144" y="0" dx="0em" dy="0.95em" style="text-anchor: middle; visibility: inherit; font-family: Roboto, sans-serif; font-size: 12px; font-weight: 200;" fill="rgb(33, 33, 33)" stroke="none" stroke-width="1px">2k</text><text x="109.9238461338548" y="0" dx="0em" dy="0.95em" style="text-anchor: middle; visibility: inherit; font-family: Roboto, sans-serif; font-size: 12px; font-weight: 200;" fill="rgb(33, 33, 33)" stroke="none" stroke-width="1px">3k</text><text x="133.12630446718813" y="0" dx="0em" dy="0.95em" style="text-anchor: middle; visibility: inherit; font-family: Roboto, sans-serif; font-size: 12px; font-weight: 200;" fill="rgb(33, 33, 33)" stroke="none" stroke-width="1px">4k</text><text x="156.32876280052147" y="0" dx="0em" dy="0.95em" style="text-anchor: middle; visibility: inherit; font-family: Roboto, sans-serif; font-size: 12px; font-weight: 200;" fill="rgb(33, 33, 33)" stroke="none" stroke-width="1px">5k</text><text x="179.5312211338548" y="0" dx="0em" dy="0.95em" style="text-anchor: middle; visibility: inherit; font-family: Roboto, sans-serif; font-size: 12px; font-weight: 200;" fill="rgb(33, 33, 33)" stroke="none" stroke-width="1px">6k</text><text x="202.73367946718818" y="0" dx="0em" dy="0.95em" style="text-anchor: middle; visibility: inherit; font-family: Roboto, sans-serif; font-size: 12px; font-weight: 200;" fill="rgb(33, 33, 33)" stroke="none" stroke-width="1px">7k</text><text x="225.93613780052152" y="0" dx="0em" dy="0.95em" style="text-anchor: middle; visibility: inherit; font-family: Roboto, sans-serif; font-size: 12px; font-weight: 200;" fill="rgb(33, 33, 33)" stroke="none" stroke-width="1px">8k</text><text x="249.13859613385486" y="0" dx="0em" dy="0.95em" style="text-anchor: middle; visibility: inherit; font-family: Roboto, sans-serif; font-size: 12px; font-weight: 200;" fill="rgb(33, 33, 33)" stroke="none" stroke-width="1px">9k</text><text x="272.3410544671882" y="0" dx="0em" dy="0.95em" style="text-anchor: middle; visibility: hidden; font-family: Roboto, sans-serif; font-size: 12px; font-weight: 200;" fill="rgb(33, 33, 33)" stroke="none" stroke-width="1px">10k</text></g><line x1="0" y1="0" x2="278.4295" y2="0" fill="rgb(0, 0, 0)" stroke="rgb(204, 204, 204)" stroke-width="1px"></line></g></g></g></g></svg>