<svg viewBox="0 0 329.9917297363281 199.99655151367188" xmlns="http://www.w3.org/2000/svg"><g><g><g><g><g><line x1="51.5625" y1="172.09391162020975" x2="46.5625" y2="172.09391162020975" style="visibility: inherit;" fill="rgb(0, 0, 0)" stroke="rgb(204, 204, 204)" stroke-width="1px"></line><line x1="51.5625" y1="159.53206587085074" x2="46.5625" y2="159.53206587085074" style="visibility: inherit;" fill="rgb(0, 0, 0)" stroke="rgb(204, 204, 204)" stroke-width="1px"></line><line x1="51.5625" y1="146.97022012149174" x2="46.5625" y2="146.97022012149174" style="visibility: inherit;" fill="rgb(0, 0, 0)" stroke="rgb(204, 204, 204)" stroke-width="1px"></line><line x1="51.5625" y1="134.40837437213273" x2="46.5625" y2="134.40837437213273" style="visibility: inherit;" fill="rgb(0, 0, 0)" stroke="rgb(204, 204, 204)" stroke-width="1px"></line><line x1="51.5625" y1="121.84652862277373" x2="46.5625" y2="121.84652862277373" style="visibility: inherit;" fill="rgb(0, 0, 0)" stroke="rgb(204, 204, 204)" stroke-width="1px"></line><line x1="51.5625" y1="109.28468287341472" x2="46.5625" y2="109.28468287341472" style="visibility: inherit;" fill="rgb(0, 0, 0)" stroke="rgb(204, 204, 204)" stroke-width="1px"></line><line x1="51.5625" y1="96.72283712405573" x2="46.5625" y2="96.72283712405573" style="visibility: inherit;" fill="rgb(0, 0, 0)" stroke="rgb(204, 204, 204)" stroke-width="1px"></line><line x1="51.5625" y1="84.16099137469672" x2="46.5625" y2="84.16099137469672" style="visibility: inherit;" fill="rgb(0, 0, 0)" stroke="rgb(204, 204, 204)" stroke-width="1px"></line><line x1="51.5625" y1="71.59914562533768" x2="46.5625" y2="71.59914562533768" style="visibility: inherit;" fill="rgb(0, 0, 0)" stroke="rgb(204, 204, 204)" stroke-width="1px"></line><line x1="51.5625" y1="59.0372998759787" x2="46.5625" y2="59.0372998759787" style="visibility: inherit;" fill="rgb(0, 0, 0)" stroke="rgb(204, 204, 204)" stroke-width="1px"></line><line x1="51.5625" y1="46.47545412661967" x2="46.5625" y2="46.47545412661967" style="visibility: inherit;" fill="rgb(0, 0, 0)" stroke="rgb(204, 204, 204)" stroke-width="1px"></line><line x1="51.5625" y1="33.913608377260715" x2="46.5625" y2="33.913608377260715" style="visibility: inherit;" fill="rgb(0, 0, 0)" stroke="rgb(204, 204, 204)" stroke-width="1px"></line><line x1="51.5625" y1="21.351762627901685" x2="46.5625" y2="21.351762627901685" style="visibility: inherit;" fill="rgb(0, 0, 0)" stroke="rgb(204, 204, 204)" stroke-width="1px"></line><line x1="51.5625" y1="8.789916878542673" x2="46.5625" y2="8.789916878542673" style="visibility: inherit;" fill="rgb(0, 0, 0)" stroke="rgb(204, 204, 204)" stroke-width="1px"></line></g><g transform="translate(41.5625, 0)"><text x="0" y="172.09391162020975" dx="0em" dy="0.3em" style="text-anchor: end; visibility: hidden; font-family: Roboto, sans-serif; font-size: 12px; font-weight: 200;" fill="rgb(33, 33, 33)" stroke="none" stroke-width="1px">0.4</text><text x="0" y="159.53206587085074" dx="0em" dy="0.3em" style="text-anchor: end; visibility: inherit; font-family: Roboto, sans-serif; font-size: 12px; font-weight: 200;" fill="rgb(33, 33, 33)" stroke="none" stroke-width="1px">0.45</text><text x="0" y="146.97022012149174" dx="0em" dy="0.3em" style="text-anchor: end; visibility: hidden; font-family: Roboto, sans-serif; font-size: 12px; font-weight: 200;" fill="rgb(33, 33, 33)" stroke="none" stroke-width="1px">0.5</text><text x="0" y="134.40837437213273" dx="0em" dy="0.3em" style="text-anchor: end; visibility: inherit; font-family: Roboto, sans-serif; font-size: 12px; font-weight: 200;" fill="rgb(33, 33, 33)" stroke="none" stroke-width="1px">0.55</text><text x="0" y="121.84652862277373" dx="0em" dy="0.3em" style="text-anchor: end; visibility: hidden; font-family: Roboto, sans-serif; font-size: 12px; font-weight: 200;" fill="rgb(33, 33, 33)" stroke="none" stroke-width="1px">0.6</text><text x="0" y="109.28468287341472" dx="0em" dy="0.3em" style="text-anchor: end; visibility: inherit; font-family: Roboto, sans-serif; font-size: 12px; font-weight: 200;" fill="rgb(33, 33, 33)" stroke="none" stroke-width="1px">0.65</text><text x="0" y="96.72283712405573" dx="0em" dy="0.3em" style="text-anchor: end; visibility: hidden; font-family: Roboto, sans-serif; font-size: 12px; font-weight: 200;" fill="rgb(33, 33, 33)" stroke="none" stroke-width="1px">0.7</text><text x="0" y="84.16099137469672" dx="0em" dy="0.3em" style="text-anchor: end; visibility: inherit; font-family: Roboto, sans-serif; font-size: 12px; font-weight: 200;" fill="rgb(33, 33, 33)" stroke="none" stroke-width="1px">0.75</text><text x="0" y="71.59914562533768" dx="0em" dy="0.3em" style="text-anchor: end; visibility: hidden; font-family: Roboto, sans-serif; font-size: 12px; font-weight: 200;" fill="rgb(33, 33, 33)" stroke="none" stroke-width="1px">0.8</text><text x="0" y="59.0372998759787" dx="0em" dy="0.3em" style="text-anchor: end; visibility: inherit; font-family: Roboto, sans-serif; font-size: 12px; font-weight: 200;" fill="rgb(33, 33, 33)" stroke="none" stroke-width="1px">0.85</text><text x="0" y="46.47545412661967" dx="0em" dy="0.3em" style="text-anchor: end; visibility: hidden; font-family: Roboto, sans-serif; font-size: 12px; font-weight: 200;" fill="rgb(33, 33, 33)" stroke="none" stroke-width="1px">0.9</text><text x="0" y="33.913608377260715" dx="0em" dy="0.3em" style="text-anchor: end; visibility: inherit; font-family: Roboto, sans-serif; font-size: 12px; font-weight: 200;" fill="rgb(33, 33, 33)" stroke="none" stroke-width="1px">0.95</text><text x="0" y="21.351762627901685" dx="0em" dy="0.3em" style="text-anchor: end; visibility: hidden; font-family: Roboto, sans-serif; font-size: 12px; font-weight: 200;" fill="rgb(33, 33, 33)" stroke="none" stroke-width="1px">1</text><text x="0" y="8.789916878542673" dx="0em" dy="0.3em" style="text-anchor: end; visibility: inherit; font-family: Roboto, sans-serif; font-size: 12px; font-weight: 200;" fill="rgb(33, 33, 33)" stroke="none" stroke-width="1px">1.05</text></g><line x1="51.5625" y1="0" x2="51.5625" y2="176.997" fill="rgb(0, 0, 0)" stroke="rgb(204, 204, 204)" stroke-width="1px"></line></g></g><g transform="translate(51, 0)" clip-path="url(#clip_0)"><clipPath id="clip_0"><rect width="278" height="176"></rect></clipPath><g><g><g><line x1="1.9033724437361395" y1="0" x2="1.9033724437361395" y2="176.997" fill="rgb(0, 0, 0)" stroke="rgb(66, 66, 66)" stroke-width="1px" opacity="0.25"></line><line x1="38.72390878674083" y1="0" x2="38.72390878674083" y2="176.997" fill="rgb(0, 0, 0)" stroke="rgb(66, 66, 66)" stroke-width="1px" opacity="0.25"></line><line x1="75.54444512974551" y1="0" x2="75.54444512974551" y2="176.997" fill="rgb(0, 0, 0)" stroke="rgb(66, 66, 66)" stroke-width="1px" opacity="0.25"></line><line x1="112.3649814727502" y1="0" x2="112.3649814727502" y2="176.997" fill="rgb(0, 0, 0)" stroke="rgb(66, 66, 66)" stroke-width="1px" opacity="0.25"></line><line x1="149.1855178157549" y1="0" x2="149.1855178157549" y2="176.997" fill="rgb(0, 0, 0)" stroke="rgb(66, 66, 66)" stroke-width="1px" opacity="0.25"></line><line x1="186.00605415875958" y1="0" x2="186.00605415875958" y2="176.997" fill="rgb(0, 0, 0)" stroke="rgb(66, 66, 66)" stroke-width="1px" opacity="0.25"></line><line x1="222.8265905017643" y1="0" x2="222.8265905017643" y2="176.997" fill="rgb(0, 0, 0)" stroke="rgb(66, 66, 66)" stroke-width="1px" opacity="0.25"></line><line x1="259.64712684476893" y1="0" x2="259.64712684476893" y2="176.997" fill="rgb(0, 0, 0)" stroke="rgb(66, 66, 66)" stroke-width="1px" opacity="0.25"></line></g><g><line x1="0" y1="172.09391162020975" x2="278.4295" y2="172.09391162020975" fill="rgb(0, 0, 0)" stroke="rgb(66, 66, 66)" stroke-width="1px" opacity="0.25"></line><line x1="0" y1="159.53206587085074" x2="278.4295" y2="159.53206587085074" fill="rgb(0, 0, 0)" stroke="rgb(66, 66, 66)" stroke-width="1px" opacity="0.25"></line><line x1="0" y1="146.97022012149174" x2="278.4295" y2="146.97022012149174" fill="rgb(0, 0, 0)" stroke="rgb(66, 66, 66)" stroke-width="1px" opacity="0.25"></line><line x1="0" y1="134.40837437213273" x2="278.4295" y2="134.40837437213273" fill="rgb(0, 0, 0)" stroke="rgb(66, 66, 66)" stroke-width="1px" opacity="0.25"></line><line x1="0" y1="121.84652862277373" x2="278.4295" y2="121.84652862277373" fill="rgb(0, 0, 0)" stroke="rgb(66, 66, 66)" stroke-width="1px" opacity="0.25"></line><line x1="0" y1="109.28468287341472" x2="278.4295" y2="109.28468287341472" fill="rgb(0, 0, 0)" stroke="rgb(66, 66, 66)" stroke-width="1px" opacity="0.25"></line><line x1="0" y1="96.72283712405573" x2="278.4295" y2="96.72283712405573" fill="rgb(0, 0, 0)" stroke="rgb(66, 66, 66)" stroke-width="1px" opacity="0.25"></line><line x1="0" y1="84.16099137469672" x2="278.4295" y2="84.16099137469672" fill="rgb(0, 0, 0)" stroke="rgb(66, 66, 66)" stroke-width="1px" opacity="0.25"></line><line x1="0" y1="71.59914562533768" x2="278.4295" y2="71.59914562533768" fill="rgb(0, 0, 0)" stroke="rgb(66, 66, 66)" stroke-width="1px" opacity="0.25"></line><line x1="0" y1="59.0372998759787" x2="278.4295" y2="59.0372998759787" fill="rgb(0, 0, 0)" stroke="rgb(66, 66, 66)" stroke-width="1px" opacity="0.25"></line><line x1="0" y1="46.47545412661967" x2="278.4295" y2="46.47545412661967" fill="rgb(0, 0, 0)" stroke="rgb(66, 66, 66)" stroke-width="1px" opacity="0.25"></line><line x1="0" y1="33.913608377260715" x2="278.4295" y2="33.913608377260715" fill="rgb(0, 0, 0)" stroke="rgb(66, 66, 66)" stroke-width="1px" opacity="0.25"></line><line x1="0" y1="21.351762627901685" x2="278.4295" y2="21.351762627901685" fill="rgb(0, 0, 0)" stroke="rgb(66, 66, 66)" stroke-width="1px" opacity="0.25"></line><line x1="0" y1="8.789916878542673" x2="278.4295" y2="8.789916878542673" fill="rgb(0, 0, 0)" stroke="rgb(66, 66, 66)" stroke-width="1px" opacity="0.25"></line></g></g></g><g><g><line x1="0" y1="272.5886776150818" x2="278.4295" y2="272.5886776150818" fill="rgb(0, 0, 0)" stroke="rgb(153, 153, 153)" stroke-width="1.5px"></line></g></g><g><g><line x1="1.9033724437361395" y1="0" x2="1.9033724437361395" y2="176.997" fill="rgb(0, 0, 0)" stroke="rgb(153, 153, 153)" stroke-width="1.5px"></line></g></g><g><g><g><g><g><path stroke="rgb(255, 112, 67)" stroke-width="2px" d="M6.874144850041772,202.65989767679935L7.0582475317567965,171.2603750612642L7.242350213471819,77.66996938983226L7.426452895186843,45.128658362700165L7.6105555769018665,33.24117797268015L7.794658258616891,28.5021453353353L7.978760940331914,26.491350840382328L8.162863622046938,25.291729339956582L8.34696630376196,25.162533815699824L8.715171667192008,25.515239875787938L8.899274348907031,24.313939614648994L9.083377030622055,24.91220931967726L9.267479712337078,51.82533946652816L9.451582394052101,71.68945097800359L9.81978775748215,40.715974592216064L10.003890439197171,29.29993315836407L10.556198484342243,56.358143623896474L10.740301166057264,35.42293669178291L10.924403847772288,67.88418654130076L11.108506529487313,40.95570759835966L11.292609211202336,34.58224664266852L11.476711892917358,28.601396205657363L11.660814574632383,25.644369227510275L11.844917256347406,31.409991361131574L12.02901993806243,26.81251652919453L12.213122619777453,25.08316814369366L12.5813279832075,40.40355891010309L12.765430664922524,72.7757998482349L13.13363602835257,81.48166106290762L13.317738710067594,43.403046400544206L13.501841391782618,29.990757197042466L13.68594407349764,25.572996757896757L14.054149436927688,23.425752859234837L14.238252118642711,23.325031952863345L14.422354800357736,22.915432093436063L14.606457482072758,23.307642730457214L14.974662845502804,33.4748873808455L15.15876552721783,40.314877425938334L15.34286820893285,37.96723086912348L15.526970890647874,54.41690989497124L15.7110735723629,42.68288665020223L15.895176254077922,29.90597435471224L16.079278935792946,27.401397266797254L16.263381617507967,28.11065927630279L16.447484299222992,36.545345845791296L16.631586980938017,27.867161365281216L16.81568966265304,24.642393134470417L16.99979234436806,33.607980551612656L17.183895026083086,27.244448333054404L17.36799770779811,24.058516422433044L17.552100389513132,22.94156415130756L17.736203071228157,27.876869087907895L17.92030575294318,33.957494529130116L18.104408434658204,33.17936742232619L18.28851111637323,31.95420328104264L18.47261379808825,42.69767219898796L18.656716479803272,40.08528384626281L19.02492184323332,31.89930581539167L19.39312720666337,29.593230451899135L19.57722988837839,28.237157945586883L19.761332570093415,28.015120020291974L20.313640615238484,37.06697473383725L20.497743296953505,35.014211042588464L20.68184597866853,34.88667275514075L21.050051342098577,30.276221774221057L21.234154023813602,30.253420246783612L21.418256705528627,26.34936092343532L21.60235938724365,33.518935689551626L21.78646206895867,43.94667351681714L21.970564750673695,35.428261903430375L22.154667432388717,27.991041802617495L22.338770114103742,29.42883289227706L22.522872795818767,40.82212054746813L22.70697547753379,55.731199806502836L23.07518084096384,35.94049666984643L23.259283522678857,29.31343513914769L23.44338620439388,26.84205400556823L23.627488886108907,25.79333757639399L23.81159156782393,24.36346236015287L23.995694249538953,28.00751890911988L24.17979693125398,32.324499283819826L24.363899612969,27.202238191911672L24.548002294684025,24.807398191278875L24.732104976399047,26.876438744766535L25.100310339829093,24.97541840702907L25.28441302154412,30.033982515060053L25.46851570325914,27.50752641770214L25.652618384974165,28.206529407897776L25.83672106668919,28.82506155590877L26.02082374840421,26.35060736953421L26.204926430119233,26.011581598888938L26.389029111834258,33.39461961555194L26.757234475264305,28.494443409050035L27.12543983869435,26.006613452281247L27.309542520409376,27.95078736278369L27.4936452021244,30.5614383936087L27.67774788383942,27.573342793811044L27.861850565554445,31.31955185687474L28.04595324726947,28.855188821113984L28.23005592898449,35.4235384535898L28.414158610699516,32.66802113339669L28.59826129241454,28.217173684759526L28.782363974129563,35.61336642975618L28.966466655844588,30.69722895039547L29.150569337559613,29.90984423798576L29.33467201927463,38.8104249327663L29.702877382704678,31.43521760892372L30.071082746134728,28.30044695175201L30.255185427849746,29.877087171556358L30.43928810956477,31.224798165140378L30.807493472994818,28.64511392146201L30.99159615470984,28.132696910829694L31.175698836424864,26.038201162022432L31.359801518139886,25.22662822757156L31.54390419985491,25.709398495162436L31.728006881569936,26.428947939235474L31.912109563284957,27.91706364135144L32.09621224499998,25.507716626168108L32.28031492671501,30.448017790824444L32.464417608430026,40.741944399536806L32.64852029014505,35.382336792727806L33.0167256535751,30.584295603531086L33.20082833529012,27.843964028481942L33.384931017005144,26.45100774291351L33.56903369872017,27.396886792690108L33.753136380435194,43.805857556102715L33.93723906215021,32.9049234502469L34.12134174386524,29.192172942222484L34.30544442558026,27.336054643450094L34.48954710729529,26.843505514619725L34.67364978901031,29.236607328187834L34.85775247072533,29.02902189301977L35.22595783415538,26.406274585062487L35.410060515870406,25.5296749349292L35.59416319758543,26.0946126856079L35.778265879300456,27.497947243878663L35.962368561015474,26.19541154866787L36.1464712427305,25.991992839227482L36.33057392444552,27.953555898130773L36.88288196959059,27.303203316251345L37.06698465130561,26.664147170334218L37.251087333020635,25.592542719082832L37.43519001473566,26.786556185243096L37.619292696450685,26.501030582167854L37.80339537816571,25.485685520928673L37.987498059880735,25.162492024126152L38.35570342331078,26.150194693884L38.539806105025804,25.902466347735803L38.72390878674083,28.12990186262974L38.908011468455854,26.500705859240988L39.27621683188589,28.46083868574795L39.460319513600915,27.30869619798204L39.64442219531594,26.00547371070257L39.828524877030965,30.504266634076597L40.01262755874599,26.622141125642568L40.19673024046101,25.643947908858962L40.38083292217603,30.47566176554301L40.56493560389106,26.396826920360965L40.74903828560608,37.55621422422288L40.93314096732111,30.014945705581983L41.30134633075115,29.134535418370813L41.48544901246618,26.718582760873144L41.6695516941812,25.344048087386792L41.85365437589623,25.495336781761527L42.22185973932628,25.388041695032516L42.40596242104129,25.786809902211512L42.59006510275631,24.88448791334106L42.77416778447134,26.34544956073981L42.95827046618636,25.38807143443652L43.14237314790139,25.955086452157516L43.32647582961641,32.86564155256665L43.51057851133143,29.56151811472546L43.694681193046456,30.48003267915997L44.24698923819153,27.20356531929393L44.43109191990656,25.541194558016116L44.615194601621575,25.20687597181511L44.7992972833366,25.002693156979134L44.983399965051625,24.88417440661006L45.16750264676665,23.762429685801198L45.35160532848167,23.726405732172623L45.535708010196686,23.851989228401784L45.71981069191171,24.69862864226172L45.903913373626736,24.75451851662608L46.08801605534176,29.346536942468365L46.45622141877181,29.17985719991222L46.640324100486836,25.919778172548963L46.824426782201854,25.675854061852696L47.00852946391688,34.54274845392566L47.192632145631904,29.251658467318922L47.37673482734693,26.87229047754393L47.560837509061955,26.380904847839307L47.74494019077698,29.016874955457965L47.929042872492,25.67236548334596L48.481350917637066,26.082273122597776L48.66545359935209,25.87736899210871L48.84955628106711,25.621864171282958L49.033658962782134,24.67287879980846L49.401864326212184,24.145739566757616L49.58596700792721,23.79826902314172L49.770069689642234,24.334690438213837L49.95417237135725,24.81685450105396L50.3223777347873,25.748923860050095L50.50648041650233,95.67176782101592L50.87468577993238,49.71198038101938L51.24289114336242,34.70077365976874L51.42699382507744,148.84383490859537L51.79519918850749,69.1859730273207L51.979301870222514,40.111208703275274L52.34750723365256,29.569900642655817L52.53160991536758,28.45154022953728L52.71571259708261,140.36754227007847L52.89981527879763,163.20877618076275L53.268020642227675,163.3612995082953L53.4521233239427,90.68254973491283L53.636226005657726,146.46189877664872L53.82032868737275,99.82094289255672L54.004431369087776,51.21521787619301L54.1885340508028,39.46875490898926L54.37263673251781,29.648438561502697L54.55673941423284,25.91721142371121L54.74084209594786,24.619110225322398L54.92494477766289,25.084437862765387L55.10904745937791,32.782374439068924L55.29315014109293,27.266679418469504L55.477252822807955,25.51290101067712L55.66135550452298,25.104426002229573L55.845458186238005,25.131923580837174L56.213663549668055,25.08453408885256L56.39776623138307,29.1013811427243L56.5818689130981,26.1891784675732L56.765971594813124,25.988823874024877L56.95007427652815,29.242238379739803L57.134176958243174,26.012780464045345L57.3182796399582,25.474344500047657L57.50238232167321,26.073888595382893L57.686485003388235,25.38626560010572L57.87058768510326,24.48476204405831L58.054690366818285,23.71269634049772L58.23879304853331,24.376444070418213L58.422895730248335,24.793659995178388L58.60699841196335,24.220152880171618L58.79110109367838,24.671192829649996L58.9752037753934,24.322215867380322L59.34340913882345,24.642102711090054L59.52751182053848,24.48341954287966L59.7116145022535,25.158200388986465L59.89571718396852,26.723176715982408L60.07981986568355,25.475512560107056L60.26392254739857,25.007739686809476L60.632127910828615,25.641709241033443L60.81623059254363,23.787209009782327L61.00033327425866,23.82827460981528L61.18443595597368,23.29769078622092L61.36853863768871,25.710613150605372L61.73674400111876,24.275678753524474L61.920846682833776,24.308116526223223L62.289052046263826,43.437830288140546L62.65725740969388,31.523941830298877L62.8413600914089,28.85062172641903L63.02546277312392,35.16327373068929L63.209565454838945,28.423124590246413L63.39366813655397,26.404930334414605L63.57777081826899,25.852217046640206L63.76187349998401,25.25145455974303L63.94597618169903,24.852638287369896L64.13007886341406,24.58667245644011L64.31418154512909,25.61066660635812L64.68238690855912,24.535351406771422L64.86648959027416,24.513076492164906L65.05059227198917,23.986520197807188L65.2346949537042,24.380656592550984L65.41879763541922,24.948228137192835L65.60290031713424,24.17483381576426L65.78700299884927,24.106378352181736L65.97110568056429,24.152083660677324L66.15520836227932,23.916784178102613L66.33931104399434,25.824955820327165L66.52341372570936,27.3101127192908L66.89161908913941,26.3132906841434L67.07572177085443,29.487306009999163L67.25982445256946,26.535275544650492L67.44392713428448,26.414250314099977L67.81213249771453,31.285665579481513L67.99623517942955,27.40400732936045L68.3644405428596,26.439956276005805L68.54854322457463,26.52914786821789L68.73264590628965,31.581977822378917L68.91674858800467,27.94461697703479L69.1008512697197,54.57443963761311L69.28495395143472,39.02587922869472L69.46905663314973,36.00486274393705L69.65315931486477,28.451789946301872L69.8372619965798,25.534117531850914L70.02136467829482,26.32717040240807L70.57367272343988,26.09685526850524L70.75777540515492,25.6015710990244L70.94187808686993,30.724525449513635L71.12598076858494,28.33930616752121L71.31008345029997,28.148704729659066L71.49418613201499,28.26311929876668L71.67828881373002,31.278879347830106L71.86239149544504,27.3895247144222L72.23059685887509,26.629623328500404L72.4146995405901,36.42732441757418L72.78290490402016,34.99383354657368L72.96700758573519,27.890966980851417L73.1511102674502,25.60448664182087L73.70341831259528,24.612765366776785L73.88752099431031,24.2581350727611L74.07162367602533,24.021783256865298L74.25572635774034,23.824445389636217L74.43982903945538,23.87170625782493L74.6239317211704,23.155902357281843L74.80803440288543,23.211443511088333L74.99213708460044,23.550152220879262L75.17623976631548,23.28074807485319L75.3603424480305,28.427839804725L75.54444512974551,25.074626441060857L75.72854781146054,24.773029013070012L75.91265049317556,24.95975371148322L76.0967531748906,24.59963384039093L76.28085585660561,23.503351487418588L76.46495853832063,25.3752582029395L76.64906122003566,23.824963798477402L76.83316390175068,31.420823710397688L77.01726658346571,27.918643833472146L77.20136926518072,26.58683739655019L77.38547194689573,24.233602895003937L77.56957462861077,27.587777696172L77.93777999204082,32.65499272773473L78.12188267375583,26.75291041808582L78.30598535547087,24.887888747682585L78.49008803718588,33.85264723995462L79.04239608233095,28.52992372046393L79.22649876404599,27.857385261012894L79.410601445761,29.651145505579212L79.59470412747602,27.133008230735832L79.77880680919105,29.88167423977309L79.96290949090607,31.22038016420412L80.1470121726211,27.34352871298881L80.33111485433612,25.642971482835414L80.51521753605115,24.480869336761366L80.69932021776617,23.481985489684032L81.06752558119622,23.75175567210506L81.25162826291124,26.159590195499675L81.43573094462627,25.066480819371222L81.98803898977134,24.095247833931452L82.17214167148636,24.905179581323925L82.35624435320139,32.36993908549686L82.54034703491641,28.56961642631306L82.72444971663144,28.148297441541278L82.90855239834646,25.54834904635784L83.09265508006146,24.70457920259514L83.2767577617765,39.41593022946227L83.64496312520654,29.817076221008136L83.82906580692156,30.787132292914873L84.01316848863658,28.549916874288833L84.19727117035161,25.805023374918417L84.93368189721171,25.0473007267421L85.11778457892673,24.923809382402133L85.30188726064175,24.22945928837868L85.48598994235678,24.28059133480845L85.6700926240718,36.2822934887823L85.85419530578683,29.1975528287806L86.03829798750185,26.239826309017378L86.4065033509319,24.946228745183262L86.59060603264692,24.729630720321996L86.77470871436195,24.249444796040063L86.95881139607697,24.88118094765097L87.142914077792,24.27736919575087L87.32701675950702,23.55616072159328L87.51111944122204,29.816123851131547L87.69522212293707,27.23277033462622L87.87932480465209,31.386000419393067L88.06342748636712,36.60296078466253L88.24753016808214,37.26032311017129L88.43163284979715,34.144072098890796L88.61573553151219,28.11433483482523L88.7998382132272,26.374937136260396L89.16804357665724,24.634170897082384L89.35214625837226,25.34146380916544L89.53624894008729,24.28880767717978L90.08855698523236,24.032729984246895L90.27265966694739,25.780761746806135L90.45676234866241,26.16501042763074L90.64086503037743,25.07975409431766L90.82496771209246,23.57566074760052L91.00907039380748,23.55684050520147L91.19317307552251,23.534067754748627L91.37727575723753,23.675153968921865L91.56137843895254,23.548280660550322L91.74548112066758,41.078551590193065L91.9295838023826,31.044092312978748L92.11368648409763,27.701287937075286L92.29778916581265,25.685123430396303L92.48189184752768,24.616220588287838L93.03419989267275,24.26946478345862L93.21830257438776,25.483347526757555L93.58650793781781,25.176836014391277L93.77061061953283,24.484149836831474L93.95471330124786,25.293991955271206L94.32291866467791,25.32008974441746L94.50702134639293,24.364246947575488L94.69112402810796,24.18953771993702L95.24343207325302,23.71494020979192L95.42753475496804,24.3508527965121L95.61163743668307,23.70474032887714L95.79574011839809,23.36914289669325L95.9798428001131,23.54138289307749L96.16394548182814,24.558633600168154L96.34804816354315,24.062819014604422L96.53215084525819,26.943178239938703L96.7162535269732,24.64772370517555L97.08445889040325,23.985011773390944L97.26856157211827,24.08748837279269L97.4526642538333,23.823739606012317L97.63676693554832,24.367551101263434L97.82086961726336,24.846929713356584L98.00497229897837,23.919627725035856L98.37317766240842,23.588271947497766L98.92548570755349,24.058195240765148L99.10958838926851,23.965360431364292L99.29369107098354,25.301954608929286L99.66189643441359,25.241956406747388L99.84599911612861,30.670645823467876L100.03010179784364,27.16567193669891L100.21420447955866,26.14095078002954L100.39830716127368,24.67099079305042L100.58240984298871,24.512210053323777L100.76651252470373,24.793427685071503L100.95061520641876,25.741988549085473L101.13471788813378,25.232297845981375L101.31882056984878,25.918264116791068L101.50292325156381,27.40305412632237L101.68702593327883,29.614978075965688L101.87112861499386,35.270884220534626L102.05523129670888,36.22912818855791L102.2393339784239,36.52254653594177L102.60753934185395,28.952086639299758L102.79164202356898,25.668972999497882L102.975744705284,32.85509582844358L103.34395006871405,32.26252875197968L103.7121554321441,33.278371691856684L103.89625811385912,37.61057947874441L104.08036079557415,40.50697547311025L104.26446347728917,29.912131587894805L104.44856615900419,32.16034997313069L104.81677152243424,27.889035526562033L105.00087420414927,24.908618348767806L105.18497688586429,32.006047467428104L105.36907956757932,29.20348993146858L105.55318224929434,25.136126697394488L105.73728493100936,28.12137238613399L105.92138761272439,27.937573486130358L106.28959297615444,25.402250423432015L106.47369565786946,26.12194356466665L106.65779833958449,24.38688106872358L106.8419010212995,24.177356960020365L107.02600370301452,31.75604086496923L107.21010638472956,29.57193698791586L107.39420906644456,26.219206025151493L107.57831174815959,24.370014755893735L107.94651711158963,35.42353587917502L108.13061979330466,27.517792366070214L108.31472247501968,26.21498403344949L108.86703052016475,36.58501721686476L109.60344124702485,30.166797398713733L109.78754392873988,25.908072085293092L109.9716466104549,24.375226363129382L110.33985197388495,23.532396651319726L110.52395465559997,23.159988042044418L110.708057337315,22.420534093850694L110.89216001903002,22.20789633780237L111.07626270074503,22.664291193039066L111.26036538246007,22.738889548283293L111.44446806417508,26.592720614946884L111.62857074589012,24.623617908751854L111.81267342760513,24.31380719875936L111.99677610932017,24.155346868662868L112.18087879103518,23.34469270864543L112.3649814727502,23.237134071372875L112.73318683618025,31.196815638245067L112.91728951789528,26.20050518113949L113.1013921996103,30.007796422277963L113.28549488132532,26.136706284458548L113.46959756304034,33.16673792838883L113.65370024475536,33.63652336139769L113.83780292647039,38.447065752180684L114.0219056081854,34.222758365329355L114.20600828990042,29.63284378539828L114.39011097161546,30.046386331133046L114.7583163350455,31.087357544980637L114.94241901676052,32.05713892742815L115.12652169847556,27.27537876420261L115.31062438019057,29.63640530415209L115.49472706190559,28.090806328753352L115.67882974362062,26.347006124623313L115.86293242533564,25.50535063873836L116.04703510705068,24.17438470705L116.2311377887657,23.710980734134765L116.41524047048071,37.88226932686859L116.59934315219574,28.6644890988876L116.78344583391076,24.81956469060499L117.15165119734081,26.650366444066247L117.33575387905584,25.963532506179252L117.51985656077086,30.624339949075125L117.70395924248588,27.265090683218123L117.88806192420091,24.5709611745851L118.44036996934598,24.7106743623316L118.624472651061,23.93246490472014L118.80857533277603,36.376640159273514L118.99267801449105,35.66044687329027L119.17678069620608,27.437850673068194L119.3608833779211,25.859837796504074L119.72908874135113,23.782960157093616L119.91319142306615,23.188097291778085L120.09729410478118,27.7823778848414L120.2813967864962,44.2167947227567L120.46549946821123,30.486597005344894L120.64960214992625,25.468006699754007L120.83370483164128,24.179083321929028L121.01780751335632,24.854821415632458L121.38601287678637,25.167535807195783L121.57011555850139,28.358799378353687L121.93832092193144,28.22370971594187L122.12242360364645,25.133172252063055L122.30652628536149,27.10215058697656L122.4906289670765,24.76329973400958L122.67473164879154,24.941067886407875L123.04293701222157,24.66917934513784L123.2270396939366,29.268729888757022L123.41114237565162,26.286111718812656L123.59524505736665,24.901684047614307L123.77934773908167,23.81205226527206L124.14755310251172,23.258348198792092L124.51575846594177,22.809369778302173L124.69986114765678,22.928600246182256L124.88396382937181,27.910853816224087L125.25216919280184,28.424885091596877L125.43627187451688,31.31401368889582L125.6203745562319,29.23096886522019L125.80447723794693,29.762624952492917L125.98857991966194,25.5174124607667L126.356785283092,24.818475367857832L126.54088796480701,23.922556156499784L126.72499064652204,29.55824844170196L126.90909332823706,25.11425731904808L127.0931960099521,37.674103630038026L127.27729869166711,29.345048972158896L127.64550405509716,29.021349602296954L127.82960673681218,25.46958338803611L128.0137094185272,23.89126984893192L128.19781210024223,27.139695022534248L128.56601746367227,25.82350693972168L128.7501201453873,25.409142112158065L128.93422282710233,24.48759018225228L129.11832550881735,27.322875956881912L129.4865308722474,24.841821439962736L129.67063355396243,23.51449168611832L129.85473623567745,31.298706466247054L130.03883891739247,32.195181819780096L130.2229415991075,26.06433529619153L130.40704428082253,24.86176248466918L130.59114696253755,40.79681170434874L130.77524964425254,29.295027360450927L130.9593523259676,25.255329551688074L131.32755768939762,23.94683989288693L131.51166037111264,23.554438680951165L131.8798657345427,23.53302193109648L132.06396841625772,24.603109494882755L132.24807109797274,23.9277954202766L132.43217377968776,23.362364114901666L132.6162764614028,22.75003580617839L132.80037914311782,33.80777503072687L132.98448182483284,32.24863755359275L133.16858450654786,31.87022885599383L133.35268718826288,28.4701948046902L133.72089255169294,25.076874211986524L133.90499523340796,26.4573948237273L134.08909791512298,34.42156700037901L134.273200596838,29.42112304006332L134.45730327855304,30.30391324819393L134.64140596026806,25.762857417266186L134.82550864198308,26.843579369528662L135.0096113236981,24.554210458364864L135.1937140054131,31.90833978062537L135.37781668712816,43.85762992477953L135.56191936884318,31.64091313693129L135.7460220505582,29.767359580544248L135.9301247322732,26.284012432112117L136.11422741398823,24.449370482175645L136.29833009570328,26.1469580524234L136.4824327774183,24.541068231596643L136.6665354591333,24.659572668909195L136.85063814084833,26.201779284282523L137.03474082256335,24.46260883259213L137.21884350427837,25.074353508923053L137.4029461859934,27.672881224363095L137.58704886770843,38.57102738867634L137.95525423113847,35.13486890816505L138.1393569128535,33.5836970982314L138.3234595945685,27.164526429546964L138.69166495799857,26.490849561788117L138.8757676397136,28.253790103398245L139.0598703214286,26.103211314312777L139.24397300314362,24.897981550919354L139.42807568485867,23.553021719669058L140.3485890934338,23.715997515703435L140.5326917751488,23.407254087251406L140.71679445686382,23.850626252705755L141.0849998202939,23.35123448325417L141.2691025020089,23.462227014414545L141.45320518372392,26.885049807378262L141.63730786543894,25.468843061199426L141.82141054715396,34.02154509209629L142.18961591058402,27.36463442736648L142.37371859229904,24.714786869637052L142.55782127401406,24.11693016936972L142.74192395572908,23.954231037061795L142.92602663744412,23.81615990511862L143.11012931915914,26.20649445679974L143.29423200087416,24.941601404058588L143.47833468258918,23.628159529683654L143.6624373643042,23.36793889079434L143.84654004601924,23.86996324901457L144.03064272773426,23.69092212182886L144.21474540944928,24.49907907556606L144.3988480911643,39.225314156434074L144.76705345459436,34.067809667531705L144.95115613630938,33.21028067941276L145.1352588180244,26.922992994878967L145.31936149973941,24.755536324111244L145.50346418145446,24.188151347209736L145.68756686316948,39.488015705162226L145.87166954488447,33.62565233710524L146.0557722265995,27.7154357653062L146.2398749083145,26.94663050621662L146.7921829534596,25.888762763971634L146.9762856351746,26.125133808819687L147.16038831688962,36.29177251823208L147.34449099860467,31.04462867605357L147.5285936803197,32.00718883237507L147.7126963620347,26.385775385736004L148.08090172546474,30.740015035259198L148.2650044071798,26.205814937759797L148.4491070888948,24.55764494132481L148.63320977060982,23.833805558340902L148.81731245232484,23.5070094377531L149.00141513403986,23.168429036734317L149.1855178157549,22.84509872611163L149.36962049746992,23.06269516582615L149.73782586089996,22.959641041973928L149.92192854261498,23.1541050345144L150.10603122433002,23.49496742110075L150.29013390604504,31.08385997683483L150.47423658776006,26.586600566720232L150.65833926947508,24.574117161039467L150.84244195119012,23.893781123653305L151.02654463290514,23.38160287620837L151.21064731462016,23.31595567076536L151.39474999633518,23.56179343506659L151.76295535976524,24.574456358893784L151.94705804148026,26.239377444203736L152.13116072319528,24.820176570799898L152.49936608662532,23.6640433979545L152.68346876834036,22.882891977027192L152.86757145005538,22.67553226785239L153.0516741317704,23.371755079782805L153.23577681348542,25.860567618895022L153.41987949520043,25.991849240328744L153.60398217691548,27.548781792345547L153.7880848586305,24.516734672850863L153.97218754034552,23.564077542318365L154.15629022206053,23.362797781620245L154.34039290377558,23.58369609040028L154.5244955854906,23.79596667037293L154.70859826720562,30.351384120086177L154.89270094892063,27.589315138173575L155.07680363063565,24.503586765657037L155.2609063123507,23.617720223914237L155.44500899406572,22.81902253162936L155.62911167578073,23.065926947979953L155.81321435749575,23.454121303845273L155.99731703921077,23.290401814296118L156.18141972092582,23.294735210283168L156.54962508435585,23.371544611104053L156.73372776607087,23.874894306941606L157.10193312950094,23.75917350027565L157.28603581121595,23.153091322663286L157.654241174646,23.04393750333465L158.02244653807603,24.702471248521107L158.20654921979104,23.716527917642953L158.57475458322108,22.88030359316749L158.7588572649361,29.885517709766216L159.12706262836616,30.57719341020262L159.31116531008118,27.126411284627924L159.4952679917962,25.17912738080964L159.67937067351122,24.037268132916846L159.86347335522626,23.44030644143484L160.04757603694128,23.598394434166L160.41578140037132,26.221796309737158L160.59988408208636,24.60766188910078L160.78398676380138,24.114590075266577L161.33629480894643,32.15879421000366L161.52039749066148,26.099489553079234L161.88860285409152,24.628879694552765L162.07270553580653,24.054124428984228L162.25680821752155,23.715828959660893L162.4409108992366,23.088086744040766L162.62501358095162,23.50949002047773L162.80911626266663,23.404453182226117L162.99321894438165,23.740854501477646L163.36142430781172,23.139508176105483L163.54552698952673,23.200118059538642L163.72962967124175,22.962759352621703L164.0978350346718,23.024586394360643L164.28193771638684,22.805470609828348L164.46604039810185,22.919614564072912L164.65014307981687,25.128053813004822L164.8342457615319,23.93782921974966L165.01834844324694,23.573416501750494L165.20245112496195,24.541666605704883L165.38655380667697,23.386725990409843L165.570656488392,22.91652841690897L165.754759170107,22.605740420118828L165.93886185182205,22.969899337447803L166.3070672152521,23.199385825526406L166.4911698969671,23.32368065757892L166.85937526039717,28.933332692909904L167.2275806238272,27.4470205179424L167.41168330554223,29.961033084544063L167.59578598725724,25.631186392944016L167.9639913506873,23.707980201015346L168.14809403240233,22.99610139675907L168.51629939583236,22.80013954274979L168.7004020775474,22.81128203543893L168.88450475926243,26.39520502993214L169.06860744097744,24.596896874183802L169.25271012269246,27.83815820195234L169.62091548612253,33.16586121492565L169.80501816783755,29.047208974309772L170.17322353126755,24.883877839966587L170.35732621298257,25.0406668707329L170.72553157641264,23.711167817459526L170.90963425812765,29.24150371605035L171.09373693984267,25.83347444276573L171.27783962155772,23.90305809188864L171.46194230327274,23.246466247351556L171.64604498498775,23.158374080591134L171.83014766670277,23.25303282397439L172.0142503484178,23.736601635376555L172.19835303013284,22.89611302610621L172.56655839356287,22.75873248424506L172.7506610752779,22.54954900558427L172.9347637569929,22.92699241254986L173.11886643870795,22.58869837272604L173.30296912042297,22.725991748591376L173.487071802138,22.463012374861663L173.671174483853,22.584437480855513L173.85527716556803,22.839428536502744L174.03937984728307,22.916882001932827L174.2234825289981,22.844670167446186L174.4075852107131,22.538987656329418L174.59168789242813,29.030165682279804L174.9598932558582,25.092658548974647L175.1439959375732,24.997217082519562L175.32809861928823,23.473223658444397L175.51220130100324,32.38108374833507L175.6963039827183,29.365256500797607L175.8804066644333,25.158260566407687L176.06450934614833,23.822630813426596L176.24861202786335,23.508596214551478L176.43271470957836,22.890200676904776L176.6168173912934,22.818826627397257L176.80092007300843,23.383274617414802L176.98502275472345,22.962476769253048L177.35322811815348,23.81376475470356L177.72143348158355,24.521651339128645L177.90553616329856,23.383783514506984L178.08963884501358,37.94593223374357L178.2737415267286,28.36880292319643L178.64194689015866,24.350797314817274L178.82604957187368,25.224755305455762L179.0101522535887,23.969917407468223L179.19425493530375,23.23466657122978L179.37835761701876,23.115830092184144L179.56246029873378,22.966102038855475L179.7465629804488,23.202674009563673L180.11476834387886,23.483909116909672L180.29887102559388,23.000365588257946L180.66707638902392,23.157966542473982L180.85117907073894,24.040631075837872L181.03528175245398,26.459653809227675L181.219384434169,23.755970195915896L181.58758979759904,24.508581207225607L181.77169247931405,37.68176263537498L181.9557951610291,27.92296903578675L182.1398978427441,24.29926570747489L182.3240005244591,23.477729173962867L182.50810320617413,26.408337376099166L182.69220588788914,34.67385433922988L182.8763085696042,26.92778612410848L183.0604112513192,24.29327732315437L183.61271929646426,24.55522556794609L183.7968219781793,23.464579283951693L183.98092465989433,22.993204074690855L184.16502734160935,22.531948525625214L184.34913002332436,22.47223776378968L184.71733538675443,25.28271147305962L184.90143806846945,24.19793394099264L185.08554075018446,22.999856539165506L185.26964343189948,23.029903289426283L185.45374611361453,26.208599041966654L185.82195147704456,23.865073350301113L186.00605415875958,23.292711696655445L186.1901568404746,22.826745938002304L186.37425952218965,23.602172694639265L186.55836220390466,24.934740313064747L186.74246488561968,27.993269980227723L186.9265675673347,25.008326523452343L187.11067024904972,23.62563295800178L187.29477293076476,23.42883897407727L187.47887561247978,29.30395052265562L187.84708097590982,35.832905586799214L188.03118365762484,27.767317769996314L188.21528633933988,24.854107746657892L188.58349170276992,23.985257563775317L188.76759438448494,23.60807405386776L188.95169706619996,23.77503593638285L189.135799747915,23.831448399235818L189.31990242963002,24.83768681826064L189.8722104747751,24.63590794071301L190.24041583820514,23.853678364153325L190.42451851992016,23.68229164106544L190.79272388335022,23.475775300167726L190.97682656506524,23.257966318811224L191.16092924678026,23.289093161100276L191.34503192849527,35.3487744765692L191.5291346102103,28.301132970594615L191.89733997364036,24.882928310109616L192.08144265535537,26.30606751690295L192.63375070050046,25.68455368675536L192.81785338221547,24.676714242078916L193.0019560639305,23.116564910931956L193.1860587456455,25.437132786463632L193.37016142736053,31.47950791978225L193.55426410907558,25.986718059580685L194.10657215422063,25.672408876059716L194.29067483593562,25.767865540244006L194.47477751765067,24.525361267975995L194.65888019936568,23.256039624764274L195.02708556279572,23.015876422921437L195.21118824451074,22.739760555553648L195.39529092622578,22.53592724495755L195.5793936079408,23.219628476500908L195.76349628965582,22.93474966322472L195.94759897137084,23.021268892907617L196.13170165308588,26.910751953428715L196.3158043348009,24.615764689288344L196.49990701651592,23.86968931748116L196.86811237994596,27.11950646746559L197.052215061661,24.752529191393833L197.23631774337602,23.979574109454866L197.60452310680606,35.58999305716175L197.78862578852107,27.657274874646607L197.97272847023612,24.847940398971236L198.15683115195114,24.169512013472286L198.34093383366616,23.547726779365956L198.52503651538117,23.522294000966074L198.7091391970962,23.283675637252504L198.89324187881124,23.24141655363446L199.07734456052626,23.82690230933787L199.26144724224127,23.261495027959935L199.4455499239563,23.643674494722237L199.62965260567134,23.04761667126299L199.81375528738636,22.680634993561004L200.1819606508164,23.126040424413585L200.3660633325314,25.874273398827878L200.55016601424646,24.14211853035045L200.9183713776765,23.472225650137084L201.1024740593915,23.23112002612421L201.28657674110653,23.53623573583926L201.47067942282158,24.274740359822836L201.8388847862516,23.40551605133374L202.02298746796663,23.588603428252927L202.20709014968165,23.134129749203122L202.3911928313967,22.982518006917147L202.94350087654175,22.843534179746676L203.12760355825677,23.32820111621054L203.3117062399718,23.042469291403147L203.49580892168683,22.78760442125926L203.86401428511687,22.91947301811859L204.0481169668319,24.31672213542814L204.23221964854693,23.696081795366215L204.41632233026195,23.256490006773305L204.60042501197697,23.497923607179924L204.78452769369198,23.130837548789753L204.96863037540703,23.12373933723702L205.15273305712205,23.357309573372238L205.33683573883707,22.858969951916244L205.52093842055208,22.91306895759875L205.7050411022671,23.09174092830436L205.88914378398215,23.1811033617088L206.07324646569717,22.9121774906827L206.25734914741219,22.854542334535473L206.44145182912717,22.81045642401588L206.6255545108422,22.751061210791462L206.80965719255724,22.4565062444949L206.99375987427226,22.49251343811982L207.17786255598728,22.771115886146536L207.5460679194173,22.998578411967184L207.73017060113236,22.677511779908063L207.91427328284738,22.914466384465086L208.0983759645624,22.744452525408555L208.2824786462774,26.56446342106047L208.46658132799243,24.389058089873245L208.65068400970748,23.750071008329925L209.20299205485253,23.08886460237191L209.38709473656755,23.080809097385668L209.5711974182826,24.944648134078445L209.7553000999976,24.10562290025385L209.93940278171263,23.165429622092052L210.12350546342765,23.25929481524806L210.3076081451427,23.277587862654936L210.4917108268577,23.025187361344372L210.67581350857273,23.022562696844513L210.85991619028775,22.893729082722945L211.04401887200277,23.109205795368545L211.2281215537178,22.99460062759014L211.41222423543283,23.244307680017872L211.78042959886287,23.283819357033547L211.96453228057788,22.933129632751413L212.33273764400795,23.489628627036165L212.51684032572297,23.016227419048246L212.885045689153,28.06228116111879L213.06914837086805,24.900065256957255L213.25325105258307,23.539833442595437L213.43735373429809,23.851725684365757L213.6214564160131,23.099414139449323L213.80555909772812,23.172014636621608L213.98966177944317,23.122796873134945L214.17376446115819,26.51590556317746L214.3578671428732,24.02655650825553L214.72607250630327,25.878249001137103L214.9101751880183,24.156994239383568L215.0942778697333,23.817052058033358L215.46248323316334,23.195215974696293L215.6465859148784,23.256655729065503L215.8306885965934,23.406716416968486L216.01479127830842,23.55654700638373L216.19889396002344,22.917992772415403L216.38299664173846,22.890731307587604L216.5670993234535,23.08551101173087L216.75120200516852,23.01178480512704L216.93530468688354,23.231148411533216L217.11940736859856,23.10699898579497L217.85581809545866,23.038180088519837L218.03992077717368,36.86813236576656L218.2240234588887,42.95266211912832L218.59222882231873,29.85016906385878L218.77633150403375,25.553010939713243L218.96043418574877,23.97084195455721L219.14453686746378,23.656398664955574L219.32863954917883,23.55090463651961L219.51274223089385,23.000137215545685L219.69684491260887,22.821807448947613L220.0650502760389,22.563923812259464L220.24915295775395,24.08115486807644L220.43325563946897,23.040065140556734L220.801461002899,23.040439386483634L220.98556368461405,22.656818375104443L221.16966636632907,22.444772683887532L221.3537690480441,22.86609411784293L221.72197441147412,24.254259722092144L221.90607709318917,23.103961040679184L222.0901797749042,23.238941606775033L222.2742824566192,23.44288799785789L222.45838513833422,23.329588836333002L222.64248782004924,22.843816749078403L223.19479586519432,23.385211090659528" style="fill: none;" fill="none"></path></g></g></g></g><g opacity="0.2"><g><g><g><path stroke="rgb(255, 112, 67)" stroke-width="2px" d="M6.874144850041772,196.12273371799154L7.0582475317567965,153.97846727131687L7.242350213471819,26.15897092606955L7.426452895186843,27.218324387336487L7.6105555769018665,26.698456207735372L7.794658258616891,25.893840550454915L7.978760940331914,25.384634490449237L8.162863622046938,24.631472545149112L8.34696630376196,25.09142620157408L8.715171667192008,25.70936491661154L8.899274348907031,23.652758850766386L9.083377030622055,25.24148954492536L9.267479712337078,66.63799249308943L9.451582394052101,82.6224115773428L9.81978775748215,23.66855735662763L10.003890439197171,23.01668554748439L10.556198484342243,71.25064705841429L10.740301166057264,23.900458457828904L10.924403847772288,85.75045583832222L11.108506529487313,26.134606784802962L11.292609211202336,31.07437278333461L11.476711892917358,25.309610306217134L11.660814574632383,24.016858255041704L11.844917256347406,34.58331827188443L12.02901993806243,24.282123404639993L12.213122619777453,24.131356241596333L12.5813279832075,48.835711967584224L12.765430664922524,90.59307974441602L13.13363602835257,86.27325909578951L13.317738710067594,22.445049183274403L13.501841391782618,22.60879957340974L13.68594407349764,23.14151620611888L14.054149436927688,22.24393644989375L14.238252118642711,23.26959641524806L14.422354800357736,22.689993411115623L14.606457482072758,23.52351060044558L14.974662845502804,39.070812731059206L15.15876552721783,44.079523109671605L15.34286820893285,36.67511532234943L15.526970890647874,63.470609203771154L15.7110735723629,36.224625794554164L15.895176254077922,22.87372030060538L16.079278935792946,26.022909102130853L16.263381617507967,28.501028289286428L16.447484299222992,41.18769271737026L16.631586980938017,23.090796263605096L16.81568966265304,22.867520697357456L16.99979234436806,38.542528664923445L17.183895026083086,23.742039127491296L17.36799770779811,22.30501901426156L17.552100389513132,22.32680747495172L17.736203071228157,30.593199711928236L17.92030575294318,37.304195353368684L18.104408434658204,32.75109591393026L18.28851111637323,31.279888133514525L18.47261379808825,48.61074423909742L18.656716479803272,38.6474576986389L19.02492184323332,27.393845038710637L19.39312720666337,28.323995174317986L19.57722988837839,27.49079245761655L19.761332570093415,27.892913100168375L20.313640615238484,42.04900329710637L20.497743296953505,33.8843953675601L20.68184597866853,34.816477263599765L21.050051342098577,27.738686738211012L21.234154023813602,30.24087056889173L21.418256705528627,24.200615094305604L21.60235938724365,37.4649807158637L21.78646206895867,49.685971080660984L21.970564750673695,30.739833806139956L22.154667432388717,23.897688103720533L22.338770114103742,30.220175274957853L22.522872795818767,47.09284476079032L22.70697547753379,63.93697211186304L23.07518084096384,25.04793912951618L23.259283522678857,25.665982668763164L23.44338620439388,25.48183648243538L23.627488886108907,25.216137061111993L23.81159156782393,23.576476776020222L23.995694249538953,30.0131624360707L24.17979693125398,34.70051173811207L24.363899612969,24.38300921884592L24.548002294684025,23.489307958372496L24.732104976399047,28.015213002887652L25.100310339829093,23.92912039168525L25.28441302154412,32.81815345823991L25.46851570325914,26.11699631760596L25.652618384974165,28.5912519838969L25.83672106668919,29.165493978457462L26.02082374840421,24.988698476258268L26.204926430119233,25.824986019696574L26.389029111834258,37.45815216735874L26.757234475264305,25.797447202370662L27.12543983869435,24.637342700881447L27.309542520409376,29.020836569339274L27.4936452021244,31.99830834080696L27.67774788383942,25.92873203733331L27.861850565554445,33.381418860576495L28.04595324726947,27.49883397197436L28.23005592898449,39.03867662340211L28.414158610699516,31.151418577321465L28.59826129241454,25.767482453339042L28.782363974129563,39.684139180878404L28.966466655844588,27.99144785710396L29.150569337559613,29.476477458287416L29.33467201927463,43.70919415237424L29.702877382704678,27.375994973320477L30.071082746134728,26.575108062921025L30.255185427849746,30.744850393309164L30.43928810956477,31.966561580213728L30.807493472994818,27.225287709825107L30.99159615470984,27.850668943737478L31.175698836424864,24.885416680120777L31.359801518139886,24.77994855047074L31.54390419985491,25.975109262596142L31.728006881569936,26.82497902860902L31.912109563284957,28.736104066547007L32.09621224499998,24.181641912385036L32.28031492671501,33.16709827679809L32.464417608430026,46.40759392836298L32.64852029014505,32.432475241693446L33.0167256535751,27.9435132435856L33.20082833529012,26.335719518183616L33.384931017005144,25.684341880313767L33.56903369872017,27.917486889853976L33.753136380435194,52.83715154216704L33.93723906215021,26.905184523768128L34.12134174386524,27.148721112224546L34.30544442558026,26.314470153428065L34.48954710729529,26.572412583248017L34.67364978901031,30.553740884492782L34.85775247072533,28.91476944420634L35.22595783415538,24.962746996962007L35.410060515870406,25.047205360049652L35.59416319758543,26.405547416601642L35.778265879300456,28.270325179050943L35.962368561015474,25.47851205750533L36.1464712427305,25.880033704574277L36.33057392444552,29.03317587628682L36.88288196959059,26.94525732157355L37.06698465130561,26.312418593899167L37.251087333020635,25.002744920332066L37.43519001473566,27.443726387548388L37.619292696450685,26.343880831638007L37.80339537816571,24.926852192649765L37.987498059880735,24.984610332087527L38.35570342331078,26.693813992742953L38.539806105025804,25.766119738615476L38.72390878674083,29.355854742920226L38.908011468455854,25.60401658605808L39.27621683188589,29.539671481732416L39.460319513600915,26.67457126285508L39.64442219531594,25.288196217703785L39.828524877030965,32.98034646011974L40.01262755874599,24.48546739619443L40.19673024046101,25.10556249497031L40.38083292217603,33.134977144028056L40.56493560389106,24.15188681177241L40.74903828560608,43.69820258526318L40.93314096732111,25.864325048035447L41.30134633075115,28.649968516107275L41.48544901246618,25.3888723834907L41.6695516941812,24.587521251591987L41.85365437589623,25.578604202696425L42.22185973932628,25.32898781008866L42.40596242104129,26.006286977480627L42.59006510275631,24.387861082257334L42.77416778447134,27.149544731013528L42.95827046618636,24.861142388176624L43.14237314790139,26.267164485166745L43.32647582961641,36.669125367520536L43.51057851133143,27.742969555913675L43.694681193046456,30.985571702996015L44.24698923819153,25.40023832277854L44.43109191990656,24.62624630956089L44.615194601621575,25.022871168557188L44.7992972833366,24.89031346819341L44.983399965051625,24.818943156406945L45.16750264676665,23.145035304580873L45.35160532848167,23.70657859490415L45.535708010196686,23.921108827101563L45.71981069191171,25.164608474696283L45.903913373626736,24.785279610268468L46.08801605534176,31.87392692878464L46.45622141877181,29.088118736954996L46.640324100486836,24.125471110976925L46.824426782201854,25.541601256740826L47.00852946391688,39.422977150337914L47.192632145631904,26.339508164612912L47.37673482734693,25.562715847512745L47.560837509061955,26.110452291955387L47.74494019077698,30.467680208488414L47.929042872492,23.831588952183512L48.481350917637066,26.307881203116256L48.66545359935209,25.76459230013409L48.84955628106711,25.481237486952484L49.033658962782134,24.15056902171006L49.401864326212184,23.855608671047435L49.58596700792721,23.607025545647662L49.770069689642234,24.62993013178068L49.95417237135725,25.0822316209117L50.3223777347873,26.26192327469145L50.50648041650233,134.15643387705134L50.87468577993238,24.416283417920518L51.24289114336242,26.438791665902095L51.42699382507744,211.66676009205807L51.79519918850749,25.343273852355612L51.979301870222514,24.108819036552553L52.34750723365256,23.768095430997064L52.53160991536758,27.836008529293736L52.71571259708261,201.96472168774073L52.89981527879763,175.78030802307734L53.268020642227675,163.445246456007L53.4521233239427,50.68106730150078L53.636226005657726,177.16216065233283L53.82032868737275,74.15033926642857L54.004431369087776,24.463229688892103L54.1885340508028,33.00364738440419L54.37263673251781,24.243458246219376L54.55673941423284,23.863590285856954L54.74084209594786,23.90465142620913L54.92494477766289,25.34054842290846L55.10904745937791,37.019223252383256L55.29315014109293,24.230909290852818L55.477252822807955,24.54764312731853L55.66135550452298,24.879606423936732L55.845458186238005,25.14705790704759L56.213663549668055,25.05845150024093L56.39776623138307,31.31220393981649L56.5818689130981,24.58633823551329L56.765971594813124,25.878551190754113L56.95007427652815,31.032877371257335L57.134176958243174,24.23532688253913L57.3182796399582,25.177996023738913L57.50238232167321,26.403870229249556L57.686485003388235,25.00780643216249L57.87058768510326,23.988585668249243L58.054690366818285,23.28776095326674L58.23879304853331,24.74176258843644L58.422895730248335,25.023290465395217L58.60699841196335,23.90450167733841L58.79110109367838,24.919439623548993L58.9752037753934,24.130143275743468L59.34340913882345,24.81816446227918L59.52751182053848,24.396082295260012L59.7116145022535,25.529591397308874L59.89571718396852,27.58452027580192L60.07981986568355,24.78881368361753L60.26392254739857,24.750283299180566L60.632127910828615,25.990638220490105L60.81623059254363,22.766515084054966L61.00033327425866,23.8508766067326L61.18443595597368,23.005664030599196L61.36853863768871,27.038655692243328L61.73674400111876,23.485908659007084L61.920846682833776,24.32596987398763L62.289052046263826,53.96658747493223L62.65725740969388,24.966685392262026L62.8413600914089,27.379259498702236L63.02546277312392,38.6376790973807L63.209565454838945,24.71343010209569L63.39366813655397,25.294141247871483L63.57777081826899,25.548010508407764L63.76187349998401,24.920802338272562L63.94597618169903,24.633134757614148L64.13007886341406,24.44028816189737L64.31418154512909,26.174260285770355L64.68238690855912,23.94351125816169L64.86648959027416,24.500816655443526L65.05059227198917,23.69671014432351L65.2346949537042,24.597584375704567L65.41879763541922,25.260612475716655L65.60290031713424,23.749167173737693L65.78700299884927,24.068701314085917L65.97110568056429,24.177239295585775L66.15520836227932,23.78727826133665L66.33931104399434,26.875189824962366L66.52341372570936,28.12752465592973L66.89161908913941,25.76465219968238L67.07572177085443,31.23424467771822L67.25982445256946,24.910514590853914L67.44392713428448,26.347639528293154L67.81213249771453,33.966832120892974L67.99623517942955,25.267590773092326L68.3644405428596,25.909354533461787L68.54854322457463,26.578237814319134L68.73264590628965,34.36299275839005L68.91674858800467,25.942658682310526L69.1008512697197,69.23116373762132L69.28495395143472,30.468144429987657L69.46905663314973,34.34213274069836L69.65315931486477,24.29467236000657L69.8372619965798,23.928266823122122L70.02136467829482,26.76365686604805L70.57367272343988,25.970092675426933L70.75777540515492,25.328972835201586L70.94187808686993,33.54413598350386L71.12598076858494,27.026511058827705L71.31008345029997,28.043800062308634L71.49418613201499,28.3260916585081L71.67828881373002,32.93871627405881L71.86239149544504,25.248872164251985L72.23059685887509,26.211383030822514L72.4146995405901,41.819857575126385L72.78290490402016,34.20485795090681L72.96700758573519,23.981637320647717L73.1511102674502,24.346036222664466L73.70341831259528,24.066934277411395L73.88752099431031,24.062950957450163L74.07162367602533,23.89169814889162L74.25572635774034,23.715833075114805L74.43982903945538,23.89771805349468L74.6239317211704,22.761932768610837L74.80803440288543,23.24201267326093L74.99213708460044,23.736573293709917L75.17623976631548,23.132471374327242L75.3603424480305,31.260735252949086L75.54444512974551,23.229059395943416L75.72854781146054,24.60703352944716L75.91265049317556,25.06252466952458L76.0967531748906,24.401428329944814L76.28085585660561,22.89997127764307L76.46495853832063,26.40553244171457L76.64906122003566,22.971700986719288L76.83316390175068,35.60149079370261L77.01726658346571,25.991087467102275L77.20136926518072,25.853827652197786L77.38547194689573,22.938411812757618L77.56957462861077,29.433873904566784L77.93777999204082,35.44392503192813L78.12188267375583,23.50447751897672L78.30598535547087,23.861403952344407L78.49008803718588,38.786739123298126L79.04239608233095,25.600362713612437L79.22649876404599,27.487228434493343L79.410601445761,30.63840889599944L79.59470412747602,25.74705670737245L79.77880680919105,31.394505919165713L79.96290949090607,31.957187300906494L80.1470121726211,25.209757759219197L80.33111485433612,24.70700587554168L80.51521753605115,23.84126272923219L80.69932021776617,22.932212209509693L81.06752558119622,23.90023383452282L81.25162826291124,27.484832452561783L81.43573094462627,24.464846976695917L81.98803898977134,23.56069324504603L82.17214167148636,25.350955969423687L82.35624435320139,36.47845013042923L82.54034703491641,26.477965970483172L82.72444971663144,27.91640869798478L82.90855239834646,24.117369697070824L83.09265508006146,24.240178745950544L83.2767577617765,47.512875368280596L83.64496312520654,24.533986030308615L83.82906580692156,31.321039123189138L84.01316848863658,27.318581256285377L84.19727117035161,24.294268038055613L84.93368189721171,24.63025957929627L85.11778457892673,24.85584127815304L85.30188726064175,23.84729760872232L85.48598994235678,24.308733778967436L85.6700926240718,42.88788149600819L85.85419530578683,25.298199442268057L86.03829798750185,24.61193031751981L86.4065033509319,24.23424869066994L86.59060603264692,24.6104178539255L86.77470871436195,23.98515641910969L86.95881139607697,25.22888069001049L87.142914077792,23.94503869664307L87.32701675950702,23.159216522638317L87.51111944122204,33.26152991467587L87.69522212293707,25.810924600735706L87.87932480465209,33.67188674511744L88.06342748636712,39.474311063221684L88.24753016808214,37.62212718080016L88.43163284979715,32.42892619345733L88.61573553151219,24.79564223212248L88.7998382132272,25.417594216895314L89.16804357665724,23.676074749937925L89.35214625837226,25.730749055350746L89.53624894008729,23.709438798334958L90.08855698523236,23.891787998214056L90.27265966694739,26.742856747904668L90.45676234866241,26.37649613568144L90.64086503037743,24.48244246900583L90.82496771209246,22.74782642498875L91.00907039380748,23.546482077214435L91.19317307552251,23.521533915352023L91.37727575723753,23.75280607129626L91.56137843895254,23.478451165245097L91.74548112066758,50.72699528015146L91.9295838023826,25.521250385209616L92.11368648409763,25.86144986971757L92.29778916581265,24.575451492611744L92.48189184752768,24.027909721701043L93.03419989267275,24.078614689327775L93.21830257438776,26.151453532759273L93.58650793781781,25.008135879678083L93.77061061953283,24.102903956159L93.95471330124786,25.73971901270704L94.32291866467791,25.334453643870038L94.50702134639293,23.838162927608227L94.69112402810796,24.093379927981026L95.24343207325302,23.45372762668877L95.42753475496804,24.700851196954968L95.61163743668307,23.34912804048893L95.79574011839809,23.184434232468032L95.9798428001131,23.636181650777374L96.16394548182814,25.118515772287825L96.34804816354315,23.78992881634844L96.53215084525819,28.52849223217698L96.7162535269732,23.384333999995846L97.08445889040325,23.620263345819552L97.26856157211827,24.143890222075814L97.4526642538333,23.678575556078993L97.63676693554832,24.666858203300915L97.82086961726336,25.110773755671463L98.00497229897837,23.409252212084112L98.37317766240842,23.405897837379918L98.92548570755349,24.316835192873537L99.10958838926851,23.91426530370954L99.29369107098354,26.03759946634876L99.66189643441359,25.208934140430216L99.84599911612861,33.65852914584896L100.03010179784364,25.23657778196564L100.21420447955866,25.576956965118484L100.39830716127368,23.861943048279013L100.58240984298871,24.424819103551716L100.76651252470373,24.948206381614824L100.95061520641876,26.26406468354278L101.13471788813378,24.95177040473803L101.31882056984878,26.295811444136014L101.50292325156381,28.220264131568324L101.68702593327883,30.8323935831337L101.87112861499386,38.383824811731486L102.05523129670888,36.7565337833614L102.2393339784239,36.68404035504451L102.60753934185395,24.785399409365045L102.79164202356898,23.86198797294023L102.975744705284,36.81024870328966L103.34395006871405,31.93638718276309L103.7121554321441,33.83747904636266L103.89625811385912,39.994972911837635L104.08036079557415,42.10111590411788L104.26446347728917,24.080860922388613L104.44856615900419,33.39774148748527L104.81677152243424,25.538157032714217L105.00087420414927,23.268233700524494L105.18497688586429,35.91238442421013L105.36907956757932,27.660997024080046L105.55318224929434,22.897500421276145L105.73728493100936,29.764414586913134L105.92138761272439,27.83641285124469L106.28959297615444,24.00684005559036L106.47369565786946,26.518053743175663L106.65779833958449,23.43192419111154L106.8419010212995,24.062037489338767L107.02600370301452,35.92725448707291L107.21010638472956,28.369833303646214L107.39420906644456,24.37390448750597L107.57831174815959,23.352242816999947L107.94651711158963,41.50725680749264L108.13061979330466,23.1665691921908L108.31472247501968,25.497934486038073L108.86703052016475,42.292554860449854L109.60344124702485,26.634288816630665L109.78754392873988,23.564122494185586L109.9716466104549,23.531567089690462L110.33985197388495,23.06851363164155L110.52395465559997,22.95501896252077L110.708057337315,22.01354781228678L110.89216001903002,22.09086315424094L111.07626270074503,22.91548526064996L111.26036538246007,22.779947557758792L111.44446806417508,28.713821434583462L111.62857074589012,23.53984820224143L111.81267342760513,24.143291226592922L111.99677610932017,24.068132268377166L112.18087879103518,22.89851871359707L112.3649814727502,23.17793513147866L112.73318683618025,35.57772564791892L112.91728951789528,23.45059787529066L113.1013921996103,32.10328229918361L113.28549488132532,24.006106286123813L113.46959756304034,37.035980151017135L113.65370024475536,33.89508743692971L113.83780292647039,41.094728618425584L114.0219056081854,31.897751974116623L114.20600828990042,27.106611729777324L114.39011097161546,30.2739950190956L114.7583163350455,31.660295189811553L114.94241901676052,32.590894572031054L115.12652169847556,24.64355727901645L115.31062438019057,30.935885027690205L115.49472706190559,27.240127822913717L115.67882974362062,25.387240120799813L115.86293242533564,25.042113898445063L116.04703510705068,23.441837566353378L116.2311377887657,23.45592893508839L116.41524047048071,45.68197080038879L116.59934315219574,23.591137190463964L116.78344583391076,22.703365985271162L117.15165119734081,27.65801702155266L117.33575387905584,25.585507625636755L117.51985656077086,33.18959055718064L117.70395924248588,25.416201552397602L117.88806192420091,23.088145708593306L118.44036996934598,24.787570767990523L118.624472651061,23.504148071461128L118.80857533277603,43.225759873019946L118.99267801449105,35.266262971702645L119.17678069620608,22.912235710155272L119.3608833779211,24.991319081495917L119.72908874135113,22.639872464084714L119.91319142306615,22.860692148852507L120.09729410478118,30.311012939938273L120.2813967864962,53.26209391261702L120.46549946821123,22.929666478707407L120.64960214992625,22.705836841638085L120.83370483164128,23.46967588142074L121.01780751335632,25.226739281159162L121.38601287678637,25.339649929684118L121.57011555850139,30.115231266355327L121.93832092193144,28.149358041281104L122.12242360364645,23.43217876419177L122.30652628536149,28.185851841076246L122.4906289670765,23.476025233539392L122.67473164879154,25.038909272611612L123.04293701222157,24.519535264283864L123.2270396939366,31.800265459276105L123.41114237565162,24.64451567178908L123.59524505736665,24.13971222858266L123.77934773908167,23.212332447083686L124.14755310251172,22.953596348248897L124.51575846594177,22.56225762438911L124.69986114765678,22.994223216875973L124.88396382937181,30.653024385781986L125.25216919280184,28.707801529980422L125.43627187451688,32.90415423469599L125.6203745562319,28.084486830484L125.80447723794693,30.0552418687438L125.98857991966194,23.18090015911897L126.356785283092,24.433789060908016L126.54088796480701,23.42945333474462L126.72499064652204,32.660063575417894L126.90909332823706,22.668339724409115L127.0931960099521,44.58688725856738L127.27729869166711,24.760840594566517L127.64550405509716,28.843189484000867L127.82960673681218,23.514735316621223L128.0137094185272,23.02258565299087L128.19781210024223,28.9275879475402L128.56601746367227,25.099093343755083L128.7501201453873,25.181080850475784L128.93422282710233,23.980379430133638L129.11832550881735,28.883382080902845L129.4865308722474,23.476279806619623L129.67063355396243,22.78394585260708L129.85473623567745,35.58304173282957L130.03883891739247,32.68859073529058L130.2229415991075,22.689993411115623L130.40704428082253,24.19988132483906L130.59114696253755,49.567265150839056L130.77524964425254,22.964587915359946L130.9593523259676,23.031929982523977L131.32755768939762,23.226663414011856L131.51166037111264,23.33846592089345L131.8798657345427,23.521234417610597L132.06396841625772,25.192072417586832L132.24807109797274,23.556110929601918L132.43217377968776,23.051157737524775L132.6162764614028,22.413017899826812L132.80037914311782,39.893817549664405L132.98448182483284,31.390507624317426L133.16858450654786,31.661957402276567L133.35268718826288,26.598858233817648L133.72089255169294,23.20923264545972L133.90499523340796,27.21721624569315L134.08909791512298,38.804948585978025L134.273200596838,26.6689407053159L134.45730327855304,30.78979002941307L134.64140596026806,23.263516611096712L134.82550864198308,27.43839532775066L135.0096113236981,23.29417020493366L135.1937140054131,35.95596134559047L135.37781668712816,50.43437101187211L135.56191936884318,24.916983742069142L135.7460220505582,28.73617894098237L135.9301247322732,24.366821365920792L136.11422741398823,23.439606308179613L136.29833009570328,27.0812891957381L136.4824327774183,23.65720639222686L136.6665354591333,24.72479604138355L136.85063814084833,27.050590677239935L137.03474082256335,23.505390987088116L137.21884350427837,25.41105019124474L137.4029461859934,29.103078649140205L137.58704886770843,44.56923186670918L137.95525423113847,33.24364989951156L138.1393569128535,32.72995137338421L138.3234595945685,23.63149451112376L138.69166495799857,26.12006616945578L138.8757676397136,29.22409071157126L139.0598703214286,24.919559422645573L139.24397300314362,24.234638037733802L139.42807568485867,22.81277251022122L140.3485890934338,23.80569737243554L140.5326917751488,23.23732553360731L140.71679445686382,24.094652793382178L141.0849998202939,23.07637544735449L141.2691025020089,23.52331592691364L141.45320518372392,28.768929019009434L141.63730786543894,24.68938043345762L141.82141054715396,38.72884620987671L142.18961591058402,23.700753363833034L142.37371859229904,23.2563436401891L142.55782127401406,23.787877256819524L142.74192395572908,23.86468345261324L142.92602663744412,23.74016726660727L143.11012931915914,27.522104946484685L143.29423200087416,24.24541995642586L143.47833468258918,22.9052574127796L143.6624373643042,23.224716678692445L143.84654004601924,24.146271229120305L144.03064272773426,23.59238010609097L144.21474540944928,24.943878639250944L144.3988480911643,47.330451293966135L144.76705345459436,31.229183165887797L144.95115613630938,32.73830736037054L145.1352588180244,23.462547835174345L145.31936149973941,23.56259505570422L145.50346418145446,23.87586969325623L145.68756686316948,47.90887128201985L145.87166954488447,30.399080250810325L146.0557722265995,24.4625258691997L146.2398749083145,26.523489627182897L146.7921829534596,25.306525479480243L146.9762856351746,26.255229500170135L147.16038831688962,41.88736436604821L147.34449099860467,28.15666578617237L147.5285936803197,32.5369700036838L147.7126963620347,23.29181914766332L148.08090172546474,33.136534532283584L148.2650044071798,23.710247442236845L148.4491070888948,23.650512617705548L148.63320977060982,23.435413339799364L148.81731245232484,23.32714490626683L149.00141513403986,22.98207858346037L149.1855178157549,22.667141733443327L149.36962049746992,23.182457547374497L149.73782586089996,22.90292133039631L149.92192854261498,23.261135604052225L150.10603122433002,23.68257385092728L150.29013390604504,35.26069231371176L150.47423658776006,24.11136476735484L150.65833926947508,23.46647125558727L150.84244195119012,23.519332606952403L151.02654463290514,23.099706321413084L151.21064731462016,23.27982426311844L151.39474999633518,23.697099491387394L151.76295535976524,25.131813472008L151.94705804148026,27.155729359374384L152.13116072319528,24.03906601256989L152.49936608662532,23.027722039256656L152.68346876834036,22.45295592364858L152.86757145005538,22.561404055825985L153.0516741317704,23.754947480147592L153.23577681348542,27.230379171429675L153.41987949520043,26.06410501646668L153.60398217691548,28.40569815818431L153.7880848586305,22.847933545066915L153.97218754034552,23.0397468735757L154.15629022206053,23.25201589782522L154.34039290377558,23.705275779728854L154.5244955854906,23.91279776477645L154.70859826720562,33.95940457690513L154.89270094892063,26.069106628748816L155.07680363063565,22.80524014202387L155.2609063123507,23.130150266831023L155.44500899406572,22.379429228123698L155.62911167578073,23.20182007635895L155.81321435749575,23.667778662499884L155.99731703921077,23.200292637877567L156.18141972092582,23.297120257686903L156.54962508435585,23.413819552641147L156.73372776607087,24.151931736433628L157.10193312950094,23.695482203583595L157.28603581121595,22.819511209403732L157.654241174646,22.983860595021966L158.02244653807603,25.615307650910577L158.20654921979104,23.17387693708208L158.57475458322108,22.420056096750773L158.7588572649361,33.7411006731655L159.12706262836616,30.957883136799378L159.31116531008118,25.227143603110115L159.4952679917962,24.10736647250653L159.67937067351122,23.40880296547194L159.86347335522626,23.111746130619203L160.04757603694128,23.68540410458394L160.41578140037132,27.665684163733662L160.59988408208636,23.719262324254363L160.78398676380138,23.843209464551602L161.33629480894643,36.5862243926884L161.52039749066148,22.764523424074337L161.88860285409152,23.819474268542034L162.07270553580653,23.737786259562778L162.25680821752155,23.529635329258145L162.4409108992366,22.742585214513458L162.62501358095162,23.74142515712133L162.80911626266663,23.346642209234915L162.99321894438165,23.926005615174212L163.36142430781172,22.808534617179756L163.54552698952673,23.23347698762973L163.72962967124175,22.832120064318598L164.0978350346718,23.058615231286765L164.28193771638684,22.68487199973691L164.46604039810185,22.982437980750106L164.65014307981687,26.343551384122435L164.8342457615319,23.282744366097532L165.01834844324694,23.372848261611406L165.20245112496195,25.07457945361777L165.38655380667697,22.751061000596366L165.570656488392,22.65773750436195L165.754759170107,22.434686561420392L165.93886185182205,23.170327888845947L166.3070672152521,23.32569234222081L166.4911698969671,23.39209099149928L166.85937526039717,32.020815596076595L167.2275806238272,26.62897273172001L167.41168330554223,31.344714419650398L167.59578598725724,23.248092477412275L167.9639913506873,22.649471366698055L168.14809403240233,22.604292132400992L168.51629939583236,22.692284568837678L168.7004020775474,22.817414725213617L168.88450475926243,28.36775179434317L169.06860744097744,23.60713036985717L169.25271012269246,29.62210823506529L169.62091548612253,36.09816287322879L169.80501816783755,26.780353865133637L170.17322353126755,22.592432021839745L170.35732621298257,25.126961608596588L170.72553157641264,22.979428028448577L170.90963425812765,32.28533200132126L171.09373693984267,23.957737400880355L171.27783962155772,22.840580875514437L171.46194230327274,22.88508623989324L171.64604498498775,23.109889244622245L171.83014766670277,23.305131822270567L172.0142503484178,24.00275191141962L172.19835303013284,22.433518520228766L172.56655839356287,22.68311993794946L172.7506610752779,22.43441701345309L172.9347637569929,23.134732582275152L173.11886643870795,22.40250552910208L173.30296912042297,22.801556319804085L173.487071802138,22.31827178932052L173.671174483853,22.65126835314672L173.85527716556803,22.979772450851243L174.03937984728307,22.959511428642447L174.2234825289981,22.80492566939535L174.4075852107131,22.370743793621774L174.59168789242813,32.60282955702766L174.9598932558582,22.925503460101304L175.1439959375732,24.944687283152852L175.32809861928823,22.63443658007748L175.51220130100324,37.28385945672452L175.6963039827183,27.70538258936227L175.8804066644333,22.842782183914057L176.06450934614833,23.087516763336264L176.24861202786335,23.33575546633337L176.43271470957836,22.549843443006203L176.6168173912934,22.77954323580784L176.80092007300843,23.69393979021514L176.98502275472345,22.730874852822932L177.35322811815348,24.28230310328486L177.72143348158355,24.911263335207533L177.90553616329856,22.75751517692452L178.08963884501358,45.96075827301333L178.2737415267286,23.097669736771262L178.64194689015866,22.139336863693906L178.82604957187368,25.70577094371419L179.0101522535887,23.27927019229676L179.19425493530375,22.82999363035434L179.37835761701876,23.05042396805823L179.56246029873378,22.883693575395508L179.7465629804488,23.332880288015495L180.11476834387886,23.638697431805515L180.29887102559388,22.734229227527127L180.66707638902392,23.24470815293394L180.85117907073894,24.52643868722417L181.03528175245398,27.791053918302758L181.219384434169,22.26789626920938L181.58758979759904,24.922808973140242L181.77169247931405,44.93211830513164L181.9557951610291,22.551850077873883L182.1398978427441,22.30482434072962L182.3240005244591,23.025565655518253L182.50810320617413,28.021307781926073L182.69220588788914,39.223092357697176L182.8763085696042,22.66444625377032L183.0604112513192,22.843276355187445L183.61271929646426,24.699398632908967L183.7968219781793,22.86430109663691L183.98092465989433,22.73376500602788L184.16502734160935,22.27807919241854L184.34913002332436,22.439373701074008L184.71733538675443,26.829561344053133L184.90143806846945,23.600885841948028L185.08554075018446,22.34044959707456L185.26964343189948,23.046440648097015L185.45374611361453,27.958113758481073L185.82195147704456,22.575225876593695L186.00605415875958,22.977690941548182L186.1901568404746,22.57028416385985L186.37425952218965,24.02895796379611L186.55836220390466,25.66816900227571L186.74246488561968,29.67664677378251L186.9265675673347,23.36545066739771L187.11067024904972,22.864615569265432L187.29477293076476,23.320526006180877L187.47887561247978,32.53753904939253L187.84708097590982,39.426361474816254L188.03118365762484,23.328118273926517L188.21528633933988,23.250713082649924L188.58349170276992,23.507053199553148L188.76759438448494,23.400476928259753L188.95169706619996,23.866929685674076L189.135799747915,23.86249711910069L189.31990242963002,25.39150796361542L189.8722104747751,24.52485134919452L190.24041583820514,23.42314890728718L190.42451851992016,23.58796251440466L190.79272388335022,23.362111267580588L190.97682656506524,23.138086956979343L191.16092924678026,23.306224989026852L191.34503192849527,41.98627349516059L191.5291346102103,24.42219849831407L191.89733997364036,23.001590861315545L192.08144265535537,27.089345684982984L192.63375070050046,25.342480183340776L192.81785338221547,24.122011912063222L193.0019560639305,22.257878069758036L193.1860587456455,26.71434456291905L193.37016142736053,34.80515624897313L193.55426410907558,22.963554648151973L194.10657215422063,25.499416999858237L194.29067483593562,25.820403704252467L194.47477751765067,23.84150232742535L194.65888019936568,22.55742073586477L195.02708556279572,22.883693575395508L195.21118824451074,22.587789806847343L195.39529092622578,22.42373991897056L195.5793936079408,23.59592915432711L195.76349628965582,22.777955897778167L195.94759897137084,23.06888800381836L196.13170165308588,29.051475188289153L196.3158043348009,23.352632164063827L196.49990701651592,23.4590586864865L196.86811237994596,28.908165519007458L197.052215061661,23.44977425650168L197.23631774337602,23.554149219395455L197.60452310680606,41.98022364078341L197.78862578852107,23.29120517729335L197.97272847023612,23.301717548018104L198.15683115195114,23.796113444709295L198.34093383366616,23.205503898578716L198.52503651538117,23.508296115180137L198.7091391970962,23.152343049472133L198.89324187881124,23.2181576781548L199.07734456052626,24.149146407438185L199.26144724224127,22.950301873092993L199.4455499239563,23.854021333017783L199.62965260567134,22.71955383819629L199.81375528738636,22.47865282986459L200.1819606508164,23.37118604914639L200.3660633325314,27.386866741334966L200.55016601424646,23.188761974831912L200.9183713776765,23.10352491761652L201.1024740593915,23.09841848112488L201.28657674110653,23.70416763808552L201.47067942282158,24.68120414511616L201.8388847862516,22.92710577301805L202.02298746796663,23.6893724496581L202.20709014968165,22.883993073136956L202.3911928313967,22.899072784418745L202.94350087654175,22.767039205102478L203.12760355825677,23.594955786667402L203.3117062399718,22.885206038989818L203.49580892168683,22.647329957846704L203.86401428511687,22.9920518582505L204.0481169668319,25.08575071937369L204.23221964854693,23.354489050060803L204.41632233026195,23.01454413863306L204.60042501197697,23.63080566631843L204.78452769369198,22.928797935257208L204.96863037540703,23.11983256963823L205.15273305712205,23.485863734345866L205.33683573883707,22.584690005223383L205.52093842055208,22.942844379331003L205.7050411022671,23.190079764894282L205.88914378398215,23.230287336683332L206.07324646569717,22.764164026784602L206.25734914741219,22.82282065944671L206.44145182912717,22.786192085667917L206.6255545108422,22.718370822117592L206.80965719255724,22.294386844440247L206.99375987427226,22.512331350890143L207.17786255598728,22.92445521800626L207.5460679194173,23.123770964938245L207.73017060113236,22.50080068784449L207.91427328284738,23.044883259841487L208.0983759645624,22.65087900608284L208.2824786462774,28.66695003804724L208.46658132799243,23.191741977359296L208.65068400970748,23.39838044406964L209.20299205485253,22.724944797542328L209.38709473656755,23.07637544735449L209.5711974182826,25.970482022490817L209.7553000999976,23.643833818071304L209.93940278171263,22.647958903103742L210.12350546342765,23.310957053341685L210.3076081451427,23.287656129057236L210.4917108268577,22.88626925597194L210.67581350857273,23.021118114057796L210.85991619028775,22.82282065944671L211.04401887200277,23.227801505429337L211.2281215537178,22.93152336470436L211.41222423543283,23.381743344532342L211.78042959886287,23.305566093995665L211.96453228057788,22.74011435814653L212.33273764400795,23.79591877117735L212.51684032572297,22.755673265814618L212.885045689153,30.839566554041312L213.06914837086805,23.159620844589274L213.25325105258307,22.791178723063002L213.43735373429809,24.023387305805223L213.6214564160131,22.685351196123225L213.80555909772812,23.211973049793947L213.98966177944317,23.0957080265648L214.17376446115819,28.38343050110784L214.3578671428732,22.656449664073726L214.72607250630327,26.897397582490548L214.9101751880183,23.209636967410674L215.0942778697333,23.629952097755304L215.46248323316334,22.852965107123197L215.6465859148784,23.29047140782682L215.8306885965934,23.489307958372496L216.01479127830842,23.639011904434035L216.19889396002344,22.566540442091792L216.38299664173846,22.87572693547306L216.5670993234535,23.192715345019L216.75120200516852,22.9712068154459L216.93530468688354,23.35188341971023L217.11940736859856,23.03866868170649L217.85581809545866,23.00030302102732L218.03992077717368,44.47996656487134L218.2240234588887,46.30151182834297L218.59222882231873,22.63871939778016L218.77633150403375,23.187908406268807L218.96043418574877,23.100035768928677L219.14453686746378,23.483332978430653L219.32863954917883,23.49284203172156L219.51274223089385,22.69700165826546L219.69684491260887,22.723656957254104L220.0650502760389,22.42198785718311L220.24915295775395,24.91622002282845L220.43325563946897,22.467062267270645L220.801461002899,23.040645366800042L220.98556368461405,22.44567812853144L221.16966636632907,22.3280653654658L221.3537690480441,23.09798420939978L221.72197441147412,25.01828885311308L221.90607709318917,22.47085091369994L222.0901797749042,23.313233236176686L222.2742824566192,23.555137561942214L222.45838513833422,23.26723038309064L222.64248782004924,22.57645381733363L223.19479586519432,23.68318782129725" style="fill: none;" fill="none"></path></g></g></g></g></g></g><g transform="translate(51, 176)" clip-path="url(#clip_1)"><clipPath id="clip_1"><rect width="278" height="22"></rect></clipPath><g><g><line x1="1.9033724437361395" y1="0" x2="1.9033724437361395" y2="5" style="visibility: inherit;" fill="rgb(0, 0, 0)" stroke="rgb(204, 204, 204)" stroke-width="1px"></line><line x1="38.72390878674083" y1="0" x2="38.72390878674083" y2="5" style="visibility: inherit;" fill="rgb(0, 0, 0)" stroke="rgb(204, 204, 204)" stroke-width="1px"></line><line x1="75.54444512974551" y1="0" x2="75.54444512974551" y2="5" style="visibility: inherit;" fill="rgb(0, 0, 0)" stroke="rgb(204, 204, 204)" stroke-width="1px"></line><line x1="112.3649814727502" y1="0" x2="112.3649814727502" y2="5" style="visibility: inherit;" fill="rgb(0, 0, 0)" stroke="rgb(204, 204, 204)" stroke-width="1px"></line><line x1="149.1855178157549" y1="0" x2="149.1855178157549" y2="5" style="visibility: inherit;" fill="rgb(0, 0, 0)" stroke="rgb(204, 204, 204)" stroke-width="1px"></line><line x1="186.00605415875958" y1="0" x2="186.00605415875958" y2="5" style="visibility: inherit;" fill="rgb(0, 0, 0)" stroke="rgb(204, 204, 204)" stroke-width="1px"></line><line x1="222.8265905017643" y1="0" x2="222.8265905017643" y2="5" style="visibility: inherit;" fill="rgb(0, 0, 0)" stroke="rgb(204, 204, 204)" stroke-width="1px"></line><line x1="259.64712684476893" y1="0" x2="259.64712684476893" y2="5" style="visibility: inherit;" fill="rgb(0, 0, 0)" stroke="rgb(204, 204, 204)" stroke-width="1px"></line></g><g transform="translate(0, 8)"><text x="1.9033724437361395" y="0" dx="0em" dy="0.95em" style="text-anchor: middle; visibility: hidden; font-family: Roboto, sans-serif; font-size: 12px; font-weight: 200;" fill="rgb(33, 33, 33)" stroke="none" stroke-width="1px">0</text><text x="38.72390878674083" y="0" dx="0em" dy="0.95em" style="text-anchor: middle; visibility: inherit; font-family: Roboto, sans-serif; font-size: 12px; font-weight: 200;" fill="rgb(33, 33, 33)" stroke="none" stroke-width="1px">20k</text><text x="75.54444512974551" y="0" dx="0em" dy="0.95em" style="text-anchor: middle; visibility: inherit; font-family: Roboto, sans-serif; font-size: 12px; font-weight: 200;" fill="rgb(33, 33, 33)" stroke="none" stroke-width="1px">40k</text><text x="112.3649814727502" y="0" dx="0em" dy="0.95em" style="text-anchor: middle; visibility: inherit; font-family: Roboto, sans-serif; font-size: 12px; font-weight: 200;" fill="rgb(33, 33, 33)" stroke="none" stroke-width="1px">60k</text><text x="149.1855178157549" y="0" dx="0em" dy="0.95em" style="text-anchor: middle; visibility: inherit; font-family: Roboto, sans-serif; font-size: 12px; font-weight: 200;" fill="rgb(33, 33, 33)" stroke="none" stroke-width="1px">80k</text><text x="186.00605415875958" y="0" dx="0em" dy="0.95em" style="text-anchor: middle; visibility: inherit; font-family: Roboto, sans-serif; font-size: 12px; font-weight: 200;" fill="rgb(33, 33, 33)" stroke="none" stroke-width="1px">100k</text><text x="222.8265905017643" y="0" dx="0em" dy="0.95em" style="text-anchor: middle; visibility: inherit; font-family: Roboto, sans-serif; font-size: 12px; font-weight: 200;" fill="rgb(33, 33, 33)" stroke="none" stroke-width="1px">120k</text><text x="259.64712684476893" y="0" dx="0em" dy="0.95em" style="text-anchor: middle; visibility: inherit; font-family: Roboto, sans-serif; font-size: 12px; font-weight: 200;" fill="rgb(33, 33, 33)" stroke="none" stroke-width="1px">140k</text></g><line x1="0" y1="0" x2="278.4295" y2="0" fill="rgb(0, 0, 0)" stroke="rgb(204, 204, 204)" stroke-width="1px"></line></g></g></g></g></svg>