<svg viewBox="0 0 329.9917297363281 199.99655151367188" xmlns="http://www.w3.org/2000/svg"><g><g><g><g><g><line x1="72.34375" y1="176.997" x2="67.34375" y2="176.997" style="visibility: inherit;" fill="rgb(0, 0, 0)" stroke="rgb(204, 204, 204)" stroke-width="1px"></line><line x1="72.34375" y1="159.2973" x2="67.34375" y2="159.2973" style="visibility: inherit;" fill="rgb(0, 0, 0)" stroke="rgb(204, 204, 204)" stroke-width="1px"></line><line x1="72.34375" y1="141.59760000000003" x2="67.34375" y2="141.59760000000003" style="visibility: inherit;" fill="rgb(0, 0, 0)" stroke="rgb(204, 204, 204)" stroke-width="1px"></line><line x1="72.34375" y1="123.8979" x2="67.34375" y2="123.8979" style="visibility: inherit;" fill="rgb(0, 0, 0)" stroke="rgb(204, 204, 204)" stroke-width="1px"></line><line x1="72.34375" y1="106.1982" x2="67.34375" y2="106.1982" style="visibility: inherit;" fill="rgb(0, 0, 0)" stroke="rgb(204, 204, 204)" stroke-width="1px"></line><line x1="72.34375" y1="88.4985" x2="67.34375" y2="88.4985" style="visibility: inherit;" fill="rgb(0, 0, 0)" stroke="rgb(204, 204, 204)" stroke-width="1px"></line><line x1="72.34375" y1="70.79880000000001" x2="67.34375" y2="70.79880000000001" style="visibility: inherit;" fill="rgb(0, 0, 0)" stroke="rgb(204, 204, 204)" stroke-width="1px"></line><line x1="72.34375" y1="53.099100000000014" x2="67.34375" y2="53.099100000000014" style="visibility: inherit;" fill="rgb(0, 0, 0)" stroke="rgb(204, 204, 204)" stroke-width="1px"></line><line x1="72.34375" y1="35.39939999999999" x2="67.34375" y2="35.39939999999999" style="visibility: inherit;" fill="rgb(0, 0, 0)" stroke="rgb(204, 204, 204)" stroke-width="1px"></line><line x1="72.34375" y1="17.699699999999996" x2="67.34375" y2="17.699699999999996" style="visibility: inherit;" fill="rgb(0, 0, 0)" stroke="rgb(204, 204, 204)" stroke-width="1px"></line><line x1="72.34375" y1="0" x2="67.34375" y2="0" style="visibility: inherit;" fill="rgb(0, 0, 0)" stroke="rgb(204, 204, 204)" stroke-width="1px"></line></g><g transform="translate(62.34375, 0)"><text x="0" y="176.997" dx="0em" dy="0.3em" style="text-anchor: end; visibility: hidden; font-family: Roboto, sans-serif; font-size: 12px; font-weight: 200;" fill="rgb(33, 33, 33)" stroke="none" stroke-width="1px">0</text><text x="0" y="159.2973" dx="0em" dy="0.3em" style="text-anchor: end; visibility: inherit; font-family: Roboto, sans-serif; font-size: 12px; font-weight: 200;" fill="rgb(33, 33, 33)" stroke="none" stroke-width="1px">2e+3</text><text x="0" y="141.59760000000003" dx="0em" dy="0.3em" style="text-anchor: end; visibility: hidden; font-family: Roboto, sans-serif; font-size: 12px; font-weight: 200;" fill="rgb(33, 33, 33)" stroke="none" stroke-width="1px">4e+3</text><text x="0" y="123.8979" dx="0em" dy="0.3em" style="text-anchor: end; visibility: inherit; font-family: Roboto, sans-serif; font-size: 12px; font-weight: 200;" fill="rgb(33, 33, 33)" stroke="none" stroke-width="1px">6e+3</text><text x="0" y="106.1982" dx="0em" dy="0.3em" style="text-anchor: end; visibility: hidden; font-family: Roboto, sans-serif; font-size: 12px; font-weight: 200;" fill="rgb(33, 33, 33)" stroke="none" stroke-width="1px">8e+3</text><text x="0" y="88.4985" dx="0em" dy="0.3em" style="text-anchor: end; visibility: inherit; font-family: Roboto, sans-serif; font-size: 12px; font-weight: 200;" fill="rgb(33, 33, 33)" stroke="none" stroke-width="1px">1e+4</text><text x="0" y="70.79880000000001" dx="0em" dy="0.3em" style="text-anchor: end; visibility: hidden; font-family: Roboto, sans-serif; font-size: 12px; font-weight: 200;" fill="rgb(33, 33, 33)" stroke="none" stroke-width="1px">1.2e+4</text><text x="0" y="53.099100000000014" dx="0em" dy="0.3em" style="text-anchor: end; visibility: inherit; font-family: Roboto, sans-serif; font-size: 12px; font-weight: 200;" fill="rgb(33, 33, 33)" stroke="none" stroke-width="1px">1.4e+4</text><text x="0" y="35.39939999999999" dx="0em" dy="0.3em" style="text-anchor: end; visibility: hidden; font-family: Roboto, sans-serif; font-size: 12px; font-weight: 200;" fill="rgb(33, 33, 33)" stroke="none" stroke-width="1px">1.6e+4</text><text x="0" y="17.699699999999996" dx="0em" dy="0.3em" style="text-anchor: end; visibility: inherit; font-family: Roboto, sans-serif; font-size: 12px; font-weight: 200;" fill="rgb(33, 33, 33)" stroke="none" stroke-width="1px">1.8e+4</text><text x="0" y="0" dx="0em" dy="0.3em" style="text-anchor: end; visibility: hidden; font-family: Roboto, sans-serif; font-size: 12px; font-weight: 200;" fill="rgb(33, 33, 33)" stroke="none" stroke-width="1px">2e+4</text></g><line x1="72.34375" y1="0" x2="72.34375" y2="176.997" fill="rgb(0, 0, 0)" stroke="rgb(204, 204, 204)" stroke-width="1px"></line></g></g><g transform="translate(72, 0)" clip-path="url(#clip_0)"><clipPath id="clip_0"><rect width="257" height="176"></rect></clipPath><g><g><g><line x1="0" y1="0" x2="0" y2="176.997" fill="rgb(0, 0, 0)" stroke="rgb(66, 66, 66)" stroke-width="1px" opacity="0.25"></line><line x1="18.403446428571428" y1="0" x2="18.403446428571428" y2="176.997" fill="rgb(0, 0, 0)" stroke="rgb(66, 66, 66)" stroke-width="1px" opacity="0.25"></line><line x1="36.806892857142856" y1="0" x2="36.806892857142856" y2="176.997" fill="rgb(0, 0, 0)" stroke="rgb(66, 66, 66)" stroke-width="1px" opacity="0.25"></line><line x1="55.210339285714284" y1="0" x2="55.210339285714284" y2="176.997" fill="rgb(0, 0, 0)" stroke="rgb(66, 66, 66)" stroke-width="1px" opacity="0.25"></line><line x1="73.61378571428571" y1="0" x2="73.61378571428571" y2="176.997" fill="rgb(0, 0, 0)" stroke="rgb(66, 66, 66)" stroke-width="1px" opacity="0.25"></line><line x1="92.01723214285715" y1="0" x2="92.01723214285715" y2="176.997" fill="rgb(0, 0, 0)" stroke="rgb(66, 66, 66)" stroke-width="1px" opacity="0.25"></line><line x1="110.42067857142857" y1="0" x2="110.42067857142857" y2="176.997" fill="rgb(0, 0, 0)" stroke="rgb(66, 66, 66)" stroke-width="1px" opacity="0.25"></line><line x1="128.824125" y1="0" x2="128.824125" y2="176.997" fill="rgb(0, 0, 0)" stroke="rgb(66, 66, 66)" stroke-width="1px" opacity="0.25"></line><line x1="147.22757142857142" y1="0" x2="147.22757142857142" y2="176.997" fill="rgb(0, 0, 0)" stroke="rgb(66, 66, 66)" stroke-width="1px" opacity="0.25"></line><line x1="165.6310178571429" y1="0" x2="165.6310178571429" y2="176.997" fill="rgb(0, 0, 0)" stroke="rgb(66, 66, 66)" stroke-width="1px" opacity="0.25"></line><line x1="184.0344642857143" y1="0" x2="184.0344642857143" y2="176.997" fill="rgb(0, 0, 0)" stroke="rgb(66, 66, 66)" stroke-width="1px" opacity="0.25"></line><line x1="202.43791071428572" y1="0" x2="202.43791071428572" y2="176.997" fill="rgb(0, 0, 0)" stroke="rgb(66, 66, 66)" stroke-width="1px" opacity="0.25"></line><line x1="220.84135714285713" y1="0" x2="220.84135714285713" y2="176.997" fill="rgb(0, 0, 0)" stroke="rgb(66, 66, 66)" stroke-width="1px" opacity="0.25"></line><line x1="239.2448035714286" y1="0" x2="239.2448035714286" y2="176.997" fill="rgb(0, 0, 0)" stroke="rgb(66, 66, 66)" stroke-width="1px" opacity="0.25"></line><line x1="257.64825" y1="0" x2="257.64825" y2="176.997" fill="rgb(0, 0, 0)" stroke="rgb(66, 66, 66)" stroke-width="1px" opacity="0.25"></line></g><g><line x1="0" y1="176.997" x2="257.64825" y2="176.997" fill="rgb(0, 0, 0)" stroke="rgb(66, 66, 66)" stroke-width="1px" opacity="0.25"></line><line x1="0" y1="159.2973" x2="257.64825" y2="159.2973" fill="rgb(0, 0, 0)" stroke="rgb(66, 66, 66)" stroke-width="1px" opacity="0.25"></line><line x1="0" y1="141.59760000000003" x2="257.64825" y2="141.59760000000003" fill="rgb(0, 0, 0)" stroke="rgb(66, 66, 66)" stroke-width="1px" opacity="0.25"></line><line x1="0" y1="123.8979" x2="257.64825" y2="123.8979" fill="rgb(0, 0, 0)" stroke="rgb(66, 66, 66)" stroke-width="1px" opacity="0.25"></line><line x1="0" y1="106.1982" x2="257.64825" y2="106.1982" fill="rgb(0, 0, 0)" stroke="rgb(66, 66, 66)" stroke-width="1px" opacity="0.25"></line><line x1="0" y1="88.4985" x2="257.64825" y2="88.4985" fill="rgb(0, 0, 0)" stroke="rgb(66, 66, 66)" stroke-width="1px" opacity="0.25"></line><line x1="0" y1="70.79880000000001" x2="257.64825" y2="70.79880000000001" fill="rgb(0, 0, 0)" stroke="rgb(66, 66, 66)" stroke-width="1px" opacity="0.25"></line><line x1="0" y1="53.099100000000014" x2="257.64825" y2="53.099100000000014" fill="rgb(0, 0, 0)" stroke="rgb(66, 66, 66)" stroke-width="1px" opacity="0.25"></line><line x1="0" y1="35.39939999999999" x2="257.64825" y2="35.39939999999999" fill="rgb(0, 0, 0)" stroke="rgb(66, 66, 66)" stroke-width="1px" opacity="0.25"></line><line x1="0" y1="17.699699999999996" x2="257.64825" y2="17.699699999999996" fill="rgb(0, 0, 0)" stroke="rgb(66, 66, 66)" stroke-width="1px" opacity="0.25"></line><line x1="0" y1="0" x2="257.64825" y2="0" fill="rgb(0, 0, 0)" stroke="rgb(66, 66, 66)" stroke-width="1px" opacity="0.25"></line></g></g></g><g><g><line x1="0" y1="176.997" x2="257.64825" y2="176.997" fill="rgb(0, 0, 0)" stroke="rgb(153, 153, 153)" stroke-width="1.5px"></line></g></g><g><g><line x1="18.403446428571428" y1="0" x2="18.403446428571428" y2="176.997" fill="rgb(0, 0, 0)" stroke="rgb(153, 153, 153)" stroke-width="1.5px"></line></g></g><g><g><g><g><g><path stroke="rgb(255, 112, 67)" stroke-width="2px" d="M18.587480892857144,160.8590943475525L18.955549821428573,155.30243096512828L19.13958428571429,160.2636493824465L19.32361875,156.23566415867967L19.875722142857143,153.75256458036557L20.24379107142857,152.96250816657187L20.427825535714284,148.2543593545767L20.611860000000004,144.9196041947973L20.979928928571432,148.58918111368766L21.163963392857145,140.96921988694282L21.347997857142857,137.87948940995773L21.532032321428574,138.2034857872543L21.716066785714286,141.0325097287353L21.900101250000002,140.01040174231866L22.084135714285715,137.22115070408873L22.268170178571427,136.75303452893598L22.452204642857147,137.396307367628L22.63623910714286,138.9165764837566L22.820273571428572,141.93715582519772L23.1883425,133.10506025821587L23.372376964285717,126.95078351166643L23.55641142857143,114.70777820665948L23.740445892857142,68.89605907655752L23.92448035714286,58.208365346050584L24.10851482142857,54.759638661549985L24.29254928571429,46.24583945977884L24.476583750000003,42.458258340507335L24.660618214285716,41.74260630756085L24.844652678571432,41.86087862495414L25.212721607142857,34.91868337530675L25.396756071428573,33.79782752532178L25.580790535714286,29.97180976363717L25.764825000000002,48.69999058504311L25.948859464285718,67.09837148218908L26.316928392857147,41.48773761239833L26.50096285714286,36.955322125218046L27.05306625,48.99910790195583L27.237100714285717,36.50798851334665L27.42113517857143,52.53909858584694L27.605169642857142,38.93853570552743L27.78920410714286,42.3263361618121L27.973238571428574,36.29694796146379L28.15727303571429,23.71615792251155L28.341307500000003,30.878773308035793L28.525341964285715,31.936211307531188L28.70937642857143,41.47761381211815L29.077445357142857,38.060330693299996L29.261479821428573,58.661309759888354L29.629548750000005,61.712350310036484L29.813583214285718,37.05410110062301L29.99761767857143,35.128566833120566L30.181652142857146,35.67744485389525L30.549721071428575,36.55601513401001L30.733755535714288,34.462712548889726L30.91779,35.77304251917542L31.101824464285716,34.06287370537808L31.469893392857145,39.79187520203252L31.65392785714286,44.13959663395834L31.837962321428574,42.836547832695594L32.021996785714286,42.91921677972729L32.20603125,42.00812928488084L32.39006571428572,36.855171922711335L32.57410017857143,40.50555424556253L32.758134642857144,46.67962550787733L32.94216910714286,43.02621613431501L33.12620357142857,34.386608549520695L33.310238035714285,33.19458700964917L33.4942725,35.466542872834886L33.67830696428572,42.33252042824556L33.862341428571426,30.582316408804502L34.04637589285715,29.030857943863882L34.230410357142866,38.21211799737662L34.414444821428575,39.6851979805438L34.59847928571429,36.33195413260842L34.78251375000001,36.49291325358162L34.966548214285716,46.419762875407955L35.15058267857143,46.36019469820636L35.51865160714286,32.58515240079342L35.88672053571429,41.48686942857805L36.070755000000005,44.27179053335908L36.254789464285714,41.87640012162005L36.806892857142856,42.25745910177204L36.99092732142857,34.97556405129704L37.17496178571429,32.52874679363867L37.54303071428571,33.673755767265156L37.727065178571436,32.63468873728734L37.911099642857145,29.17338332351045L38.09513410714286,35.96071218056278L38.27916857142858,35.86856001931977L38.463203035714294,46.4948132357716L38.6472375,41.301151748805864L38.83127196428572,34.98241045019571L39.015306428571435,32.32287426656996L39.199340892857144,44.256377248330075L39.567409821428576,31.32330360632711L39.751444285714285,29.4124863637637L39.93547875,30.291914643062878L40.11951321428572,30.10978784051147L40.30354767857143,26.197358139422565L40.48758214285714,35.48618172765955L40.67161660714286,36.67880471870416L40.85565107142857,39.72584041300351L41.039685535714284,26.6135516785142L41.22372000000001,41.4811307296113L41.59178892857143,37.363250196672396L41.77582339285715,34.16238361827721L41.959857857142865,35.789853414102424L42.143892321428574,33.44223239467946L42.32792678571429,39.028592905038714L42.511961250000006,37.731602986303635L42.695995714285715,33.02099994668663L42.88003017857143,38.035921015523705L43.248099107142856,37.61856784497406L43.61616803571429,34.221381268339336L43.800202500000005,26.559469856620836L43.984236964285714,31.086053174388248L44.16827142857143,36.28742661733118L44.352305892857146,39.54029946712351L44.536340357142855,28.538603765927004L44.72037482142857,34.39280667834696L44.904409285714294,31.33193813810223L45.08844375,35.56361172984563L45.27247821428572,36.00511486488596L45.456512678571436,34.328137692473234L45.640547142857145,38.4262450418163L45.82458160714286,39.424209064833555L46.19265053571429,34.87080119768582L46.56071946428572,38.90293252840673L46.744753928571434,40.839259866859294L46.92878839285714,46.34490042621918L47.296857321428575,43.96576061378144L47.480891785714284,38.77291892412606L47.66492625,40.86135202976129L47.84896071428572,36.1901288221595L48.032995178571426,32.18210336582463L48.21702964285714,33.426121365204665L48.401064107142865,37.10487825389105L48.58509857142858,36.71270595244699L48.76913303571429,36.65829322639678L48.953167500000006,39.14855736602199L49.13720196428572,40.80829679706404L49.50527089285715,34.216363213795134L49.689305357142864,35.938319220107964L49.87333982142857,31.72746719025405L50.05737428571429,37.76370907524331L50.241408750000005,48.60204894747579L50.425443214285714,39.1880476304772L50.60947767857143,32.25835233737068L50.793512142857146,27.604294846533197L50.97754660714286,29.687901210885002L51.16158107142857,36.52456921417571L51.34561553571429,33.49438002234438L51.71368446428571,32.339072027111946L51.897718928571436,31.673219112446542L52.08175339285715,38.85071229007159L52.26578785714286,33.93997774011116L52.44982232142858,32.01730609697286L52.63385678571429,33.99160756000813L52.81789125,35.685825880990635L53.36999464285715,34.87432150140693L53.55402910714286,29.625116455774872L53.738063571428576,40.104548978860635L53.92209803571429,37.051332471748445L54.1061325,26.27800655216404L54.29016696428572,34.86666895062419L54.47420142857143,28.299747110558997L54.84227035714286,28.817070155085382L55.026304821428575,31.605337900256703L55.210339285714284,30.737074302654612L55.39437375,27.88570237031545L55.76244267857144,30.928918689934154L55.94647714285715,35.84768695376134L56.130511607142864,39.48856078626302L56.31454607142858,44.942755091155355L56.49858053571429,36.74330952128227L56.682615000000006,33.0973642126719L56.86664946428572,33.630861157323004L57.05068392857143,39.198971798486134L57.23471839285715,47.48496093834492L57.41875285714286,41.16659155549769L57.78682178571429,38.714949686909954L57.970856250000004,42.63518443862379L58.15489071428571,38.14372952678029L58.33892517857143,38.42304795291449L58.70699410714286,28.09344902702098L58.89102857142857,30.0449030706408L59.075063035714294,31.523253847157076L59.25909750000001,31.64115062775834L59.44313196428572,36.522102051296116L59.627166428571435,28.81556110377895L59.81120089285715,34.74471012654198L59.99523535714286,41.030757987774216L60.179269821428576,41.61476694925676L60.73137321428572,41.57044084316315L60.915407678571434,33.04796803800357L61.09944214285715,45.62836377730402L61.28347660714286,41.56103289500494L61.467511071428575,33.24388958952705L61.65154553571429,36.93564426839807L61.83558,33.2289009805943L62.019614464285716,32.92942630023891L62.20364892857143,39.25528173067537L62.38768339285714,36.138250768736675L62.57171785714286,34.721335093016506L62.93978678571429,38.926631114230105L63.123821250000006,43.47543013245355L63.30785571428572,33.59434530305373L63.49189017857144,43.82767933073155L63.67592464285715,40.11082522607792L63.85995910714286,30.891040520557937L64.04399357142857,31.606812008272193L64.22802803571429,35.9420620803717L64.4120625,27.293081434714566L64.96416589285715,29.20810739390914L65.14820035714285,38.496934860999616L65.33223482142857,35.94881241629158L65.51626928571429,40.977720466953436L65.88433821428572,35.24666054563273L66.06837267857144,34.529502462000885L66.25240714285714,31.446855869041087L66.43644160714285,26.53616993144268L66.80451053571429,34.10033803671952L66.988545,64.18912919329324L67.35661392857143,42.01740746971236L67.72468285714285,31.98258792914485L67.90871732142857,93.70218498570897L68.27678625000001,56.58639625732463L68.46082071428573,42.57830562508706L68.82888964285715,41.60214411195619L69.01292410714287,37.321039172495915L69.19695857142858,90.33896099085128L69.3809930357143,98.57449171618995L69.74906196428573,95.67558813142249L69.93309642857143,64.86036933459542L70.11713089285715,91.19312257043713L70.30116535714286,72.60306179535088L70.48519982142858,48.95127952050262L70.6692342857143,44.64126561572254L70.85326875000001,38.34629073350925L71.03730321428571,33.33490370503983L71.22133767857143,30.71315059145466L71.40537214285715,35.41077325363169L71.58940660714286,39.462809641629335L71.77344107142858,43.496909167490585L71.9574755357143,33.867221106827806L72.14151000000001,32.28763253694829L72.32554446428571,34.94000028881342L72.69361339285715,33.7312782272612L72.87764785714286,39.37858907119286L73.06168232142858,31.69430712080716L73.2457167857143,31.081391592387046L73.42975125,40.388194739527385L73.61378571428571,31.527254869435055L73.79782017857143,32.56184008486381L73.98185464285714,29.360106165515315L74.16588910714286,27.222880346137323L74.34992357142858,25.06104090822935L74.53395803571429,29.327900355851583L74.7179925,29.738832473775553L74.90202696428571,30.56850999953605L75.08606142857143,36.88226525146396L75.27009589285716,29.611462498614436L75.45413035714287,37.06448609764411L75.82219928571429,31.233863555733492L76.00623375,33.464132810232414L76.19026821428572,23.32978742776533L76.37430267857144,33.46615680869947L76.55833714285716,36.06264768434588L76.74237160714287,29.304800840850024L77.11044053571429,27.679699372467102L77.294475,33.03695436830173L77.47850946428572,25.863089368375054L77.66254392857144,24.164251025762415L77.84657839285715,30.529045883231117L78.21464732142857,41.35153604673601L78.39868178571429,36.46595441279294L78.76675071428572,44.42949675538843L79.13481964285715,37.952153002141664L79.31885410714287,35.034693616163615L79.50288857142857,41.75159299279718L79.68692303571429,45.810448587168835L79.8709575,43.6522959553617L80.05499196428572,36.05621819697177L80.23902642857144,37.970583206430355L80.42306089285715,28.899374929054286L80.60709535714285,31.379634653340165L80.79112982142857,29.606950467893277L81.15919875,28.296649291103105L81.34323321428572,34.562040533091114L81.52726767857143,33.85918701905985L81.71130214285714,28.589041073572886L81.89533660714285,28.631909127355677L82.07937107142857,28.21309581344904L82.26340553571428,30.94210116222094L82.44744000000001,38.02882870709037L82.63147446428573,34.75993323164282L82.81550892857145,36.4455081492459L82.99954339285715,36.437133966867314L83.36761232142858,29.07597811018956L83.5516467857143,37.187596177505L83.73568125000001,31.81451309663587L83.91971571428573,36.00331495587482L84.28778464285715,35.6482672779403L84.47181910714286,37.857144324312344L84.8398880357143,31.947683281098634L85.02392250000001,31.889909663318335L85.20795696428573,33.88681412525072L85.39199142857143,39.130480632415185L85.57602589285715,53.9211165847608L85.76006035714286,39.29113073335473L85.94409482142858,37.13602938046985L86.1281292857143,34.52795956833877L86.31216375000001,32.639033452620616L86.49619821428571,31.407716665885875L87.04830160714286,38.65223495541439L87.23233607142858,35.8282621550559L87.4163705357143,34.74524678237737L87.60040500000001,34.959825826064055L87.78443946428571,27.83617502237969L87.96847392857143,30.301377941454554L88.15250839285714,20.437916742585006L88.33654285714286,24.076228602738787L88.70461178571429,25.614361330314537L88.88864625,32.937927385296824L89.25671517857143,45.33054831282113L89.44074964285714,37.30593251620457L89.62478410714287,34.29441120214936L90.1768875,31.771955081167814L90.36092196428572,34.39522517473988L90.54495642857144,30.383805077772383L90.72899089285715,29.598885727559903L90.91302535714287,29.497671504667565L91.09705982142859,32.57780682135792L91.28109428571429,32.30585791214091L91.46512875,33.416373061375936L91.64916321428572,26.952638866531125L91.83319767857144,27.733581806692747L92.01723214285715,29.020669131280204L92.20126660714287,32.28689400382248L92.38530107142859,37.59858920416166L92.56933553571429,32.053028177832864L92.75337,30.679585072114076L92.93740446428572,28.61111074028069L93.12143892857144,19.982928100886554L93.30547339285715,28.285982407070087L93.48950785714287,23.8443065599562L93.67354232142857,28.912939188386027L93.85757678571429,30.15963859001572L94.04161125,30.085651305942882L94.40968017857143,39.031058629047955L94.59371464285715,29.692494296386247L94.77774910714287,29.99790083436654L94.96178357142857,34.94295992530582L95.51388696428572,32.222801082011394L95.69792142857143,31.43400825349735L95.88195589285715,34.706269790607536L96.06599035714285,33.59339079720891L96.25002482142857,40.39077022934145L96.43405928571428,43.482407794079066L96.61809375000001,40.98009562706946L96.80212821428573,30.316094120209772L96.98616267857145,21.84115913661001L97.17019714285716,24.603745425392063L97.53826607142858,27.642966323690935L97.7223005357143,30.428516076968883L97.90633500000001,33.31842424636889L98.45843839285715,36.483221230365004L98.64247285714286,34.675509424650926L98.82650732142858,39.008126275103386L99.0105417857143,31.63949613749227L99.19457625000001,34.3525948520407L99.37861071428573,31.085089141036466L99.56264517857144,31.381171939326236L99.74667964285715,42.99625394508215L100.11474857142858,35.68267081964676L100.2987830357143,36.37883836168553L100.48281750000001,26.911124659608333L100.66685196428573,28.225821921224433L101.40298982142858,34.36472687412842L101.58702428571429,34.37310593020305L101.77105875000001,36.93726865520573L101.95509321428572,30.89761899412831L102.13912767857143,38.16969401279323L102.32316214285714,37.98308273911608L102.50719660714286,27.179715858184554L102.87526553571429,32.08973470782152L103.05930000000001,29.651290425397264L103.24333446428571,30.178532436768L103.42736892857143,27.949359579427128L103.61140339285714,22.747730161553047L103.79543785714287,27.77647737425419L103.97947232142859,31.622487614696905L104.1635067857143,35.009823051498394L104.34754125000002,33.73040091586299L104.53157571428572,38.63306818499585L104.71561017857144,42.913135994262895L104.89964464285715,43.40309685766257L105.08367910714287,36.30863071981862L105.26771357142859,30.014112845430166L105.6357825,25.8776290940906L105.81981696428572,32.85843151283602L106.00385142857144,33.23823457411708L106.55595482142859,32.21612122085453L106.7399892857143,39.42383186436381L106.92402375,31.35053168289653L107.10805821428572,33.11950826000202L107.29209267857144,28.61957770248432L107.47612714285715,32.139601102400746L107.66016160714287,34.21032502463619L107.84419607142858,30.493613195765366L108.02823053571429,32.385992214112676L108.212265,39.6584800133054L108.39629946428572,29.71501987204863L108.58033392857143,36.574443278796004L108.76436839285715,27.77969471144574L108.94840285714287,24.776426801972903L109.50050625,20.82016850045626L109.68454071428572,28.094291618939074L110.05260964285715,29.69784099778295L110.23664410714287,24.640065986348684L110.42067857142857,26.235410713789044L110.7887475,28.140398070313083L110.97278196428573,28.27228691187082L111.15681642857145,34.76763716386454L111.70891982142858,26.827306824625055L111.8929542857143,33.61460910352558L112.07698875000001,28.961577316604615L112.26102321428573,23.77253555882235L112.44505767857144,17.39256653716464L112.62909214285716,19.328711095423916L112.81312660714286,22.057610248163094L112.99716107142858,22.331011583409428L113.1811955357143,22.237737822492193L113.54926446428573,26.549444457035534L113.73329892857144,25.583931585315483L113.91733339285715,31.192069212558494L114.10136785714286,34.089701558613285L114.28540232142858,30.65573909422324L114.4694367857143,29.8313142564551L114.83750571428573,23.9978550261353L115.38960910714286,26.94918191926874L115.57364357142858,28.951223689078688L115.75767803571429,27.21554775152676L116.12574696428572,23.369571440509276L116.30978142857143,28.852261100944272L116.49381589285714,27.681529455162867L116.67785035714286,29.82562509901005L116.86188482142857,28.016716497973764L117.04591928571429,32.68067259626946L117.22995375,23.38219680094126L117.41398821428572,25.44854081291177L117.59802267857143,27.927215859770197L117.78205714285714,29.190795832731094L117.96609160714286,25.61973425892423L118.15012607142859,28.09204069381214L118.3341605357143,35.32564893217784L118.51819500000002,34.61402841430474L118.70222946428572,27.002640374211964L119.07029839285715,30.27154331984695L119.25433285714287,23.718655534853752L119.43836732142859,25.229887070756387L119.80643625000002,29.672239445366817L120.17450517857144,26.579910415590575L120.35853964285715,30.524645954028042L120.54257410714287,35.774384876984385L120.72660857142859,24.954720776028182L120.9106430357143,32.22731372067603L121.27871196428572,24.630131420331686L121.46274642857144,31.633759095032662L121.64678089285715,31.23444166683473L121.83081535714287,27.69563042565505L122.01484982142858,25.263495163009885L122.1988842857143,24.85022854247007L122.38291875,28.382144943383032L122.75098767857143,25.729825793553314L122.93502214285715,21.31781795546875L123.11905660714287,26.726751213396497L123.30309107142858,19.966950835442788L123.48712553571428,23.08541162465444L123.67116,19.31701110764196L123.85519446428572,28.53383283245729L124.03922892857143,30.195954820319717L124.40729785714286,33.82896665015442L124.59133232142858,28.489914508394175L124.77536678571428,21.762833395417445L125.32747017857145,28.785329326460356L126.0636080357143,24.039713711140028L126.24764250000001,21.08749798157041L126.43167696428573,23.42911219049656L126.79974589285716,29.766534522288904L126.98378035714288,32.040155449388635L127.16781482142858,32.47954422025147L127.3518492857143,28.986227934898757L127.53588375000001,22.474041392909065L127.71991821428573,33.485697057106506L127.90395267857144,30.11172738968492L128.08798714285714,26.327985206974375L128.27202160714285,29.31909573917365L128.45605607142858,28.887354855547247L128.64009053571428,27.844562577489295L128.824125,26.639041064072657L129.19219392857144,29.9854857760041L129.37622839285714,26.206243150084457L129.56026285714287,32.30249735931685L129.74429732142858,33.985242850388275L129.9283317857143,39.77931129952921L130.11236625,32.607509811457895L130.2964007142857,30.474436048661797L130.48043517857144,23.697635096113324L130.66446964285714,30.452542527789653L130.84850410714287,28.860847708915625L131.21657303571428,28.032830792926795L131.4006075,25.37747084266772L131.5846419642857,24.321736422796942L131.76867642857144,28.483717325179807L131.95271089285714,27.17441539847595L132.13674535714287,29.732682392159152L132.32077982142857,32.861249599272156L132.50481428571428,23.504776761609293L132.68884875,17.757375260357136L132.8728832142857,30.819472229757856L133.05691767857144,20.170461307446836L133.24095214285714,18.87323172988142L133.60902107142857,25.409762794453613L133.79305553571427,19.603682933425077L133.97709,22.140174455951342L134.1611244642857,24.20366517113567L134.34515892857144,28.11735149200903L134.89726232142857,23.610522290773545L135.08129678571427,22.930513645267094L135.26533125,31.25378759884351L135.4493657142857,26.391718946539655L135.63340017857143,19.73594727823005L135.81743464285714,21.798672861463068L136.1855035714286,22.594789259258324L136.3695380357143,20.52539502052889L136.55357250000003,23.395726412838545L136.73760696428573,29.436865530794986L136.92164142857146,28.102439701689057L137.10567589285716,24.28904752658107L137.28971035714287,19.75326543722633L137.4737448214286,27.9069927144722L137.84181375000003,24.11528937204388L138.02584821428573,24.050235694423733L138.39391714285716,24.642340085134702L138.57795160714286,23.977561981011885L138.7619860714286,28.58553581846137L138.9460205357143,27.58470142241267L139.13005500000003,30.291060167600058L139.49812392857146,26.13635341877536L139.68215839285716,14.438531406717985L139.86619285714286,18.766526052572868L140.0502273214286,19.418278439259044L140.2342617857143,29.01715367178169L140.60233071428573,15.088624712130917L140.97039964285716,24.677947343531567L141.15443410714286,26.955933781959086L141.3384685714286,21.635979959833264L141.70653750000002,26.674452147853142L141.89057196428573,28.79387049846929L142.07460642857143,21.690161681678774L142.25864089285716,23.91599003003747L142.44267535714286,20.00417934138546L142.8107442857143,13.17795773439546L142.99477875000002,17.234874635923763L143.17881321428573,11.577582452642575L143.36284767857143,19.67931962722035L143.54688214285716,30.92454220569325L143.73091660714286,35.15664524781357L144.0989855357143,38.105044141591016L144.28302000000002,26.532102638076807L144.46705446428572,22.386794936730144L144.65108892857143,24.16767628914956L145.01915785714286,21.338050305448895L145.2031923214286,20.868873125685322L145.3872267857143,24.720007810871223L145.57126125,16.760461865611248L145.93933017857142,17.87631402290577L146.12336464285715,18.15957172721602L146.30739910714286,23.125570743767643L146.4914335714286,24.69000828436416L146.6754680357143,26.453873235963943L146.8595025,22.942236219319945L147.04353696428572,29.088064891686706L147.22757142857142,17.55782428008979L147.41160589285715,14.45432912258615L147.77967482142859,15.446042397373072L147.9637092857143,16.33618324362946L148.33177821428572,27.551678900189128L148.51581267857142,16.81021376220581L148.69984714285715,24.973903220297903L148.88388160714285,20.311920757873718L149.06791607142858,23.507141489480222L149.2519505357143,24.773680016579924L149.435985,22.693697405005004L149.62001946428572,28.282155977522397L149.80405392857142,17.359076968517996L150.17212285714285,16.173636630431307L150.35615732142858,23.587357133403717L150.5401917857143,26.678667356163007L150.72422625000002,17.74735891814931L150.90826071428575,28.793329318146863L151.09229517857145,17.252437847630134L151.27632964285718,15.730857621344274L151.46036410714288,18.517301327239327L151.64439857142858,23.086671547947812L151.8284330357143,31.398040066143054L152.0124675,24.81164540145441L152.19650196428574,24.390177277703327L152.38053642857145,20.946449975364963L152.56457089285718,16.90771126826335L152.74860535714288,28.36803616662534L152.93263982142858,26.897028812891726L153.1166742857143,25.57006078396086L153.30070875,22.479112022992624L153.48474321428574,27.1818997979002L153.66877767857144,21.156620497203292L153.85281214285718,19.72535700982455L154.03684660714288,25.573041843470133L154.4049155357143,25.382966904006118L154.58895,24.72178661881232L154.77298446428574,16.242799716572414L155.14105339285715,16.69144313756779L155.32508785714288,16.36551852577113L155.50912232142858,16.857254214025232L155.6931567857143,16.75286783947215L155.87719125,18.887317038658097L156.79736357142858,21.017411411521465L156.9813980357143,21.051625015131147L157.1654325,25.2011116719282L157.53350142857144,20.7064724432684L157.71753589285714,24.433438555561942L157.90157035714287,18.529677346295298L158.08560482142857,15.711994854353762L158.2696392857143,22.87864668341523L158.63770821428574,14.969061221986914L158.82174267857144,20.436910316945493L159.00577714285714,15.116077491763694L159.18981160714287,14.896772069501901L159.37384607142857,20.569526284395835L159.5578805357143,21.275328483698324L159.741915,20.650199582469224L159.9259494642857,15.002868686933795L160.10998392857144,11.485372161558264L160.29401839285714,13.287011031702786L160.47805285714287,18.792079957072847L160.66208732142857,14.561628825414674L160.8461217857143,25.795121077688222L161.2141907142857,20.150513366607143L161.39822517857144,23.843682142356972L161.58225964285714,16.16343460015831L161.76629410714287,23.62361444424905L161.95032857142857,24.232506416865643L162.1343630357143,31.127258113328626L162.3183975,25.54441524176829L162.5024319642857,21.81480774155087L162.68646642857144,18.781840658597215L163.23856982142857,20.010194424624775L163.42260428571427,15.17085612983018L163.60663875,22.47433737964587L163.7906732142857,23.274623912935898L163.97470767857143,22.48879250872015L164.15874214285714,21.070243077797805L164.52681107142857,17.408243187206114L164.7108455357143,22.293396329472827L164.89488000000003,18.112195130086867L165.07891446428573,11.082921812560242L165.26294892857146,7.435486214651751L165.44698339285716,14.271119321705289L165.6310178571429,15.104558839960745L165.8150523214286,15.393651436957093L166.18312125000003,13.085967004130982L166.36715571428573,26.253331059816105L166.55119017857146,29.847354660916842L166.73522464285716,28.403520990418954L166.9192591071429,22.527793299439054L167.1032935714286,12.42620232161825L167.2873280357143,8.90678467318034L167.47136250000003,19.060442059910173L167.65539696428573,14.418949882049356L167.83943142857146,21.465863581077237L168.20750035714286,18.97695313942012L168.3915348214286,23.559325726558598L168.5755692857143,19.266267125270105L168.94363821428573,13.424280957871254L169.12767267857146,13.931654052284028L169.31170714285716,12.067840134038363L169.49574160714286,10.68259972746596L169.6797760714286,23.18537221560003L169.8638105357143,16.662474154681096L170.04784500000002,16.626405262431803L170.23187946428573,22.20235108437958L170.41591392857146,19.71363225862856L170.59994839285716,20.6738259802897L170.78398285714286,14.358486368822657L170.9680173214286,11.497116989232339L171.1520517857143,19.9255596014973L171.33608625000002,14.472399400529094L171.52012071428572,14.402803774778148L171.70415517857145,13.678101589144902L171.88818964285716,14.46321690810542L172.07222410714286,13.46454402812302L172.2562585714286,9.84143964463212L172.4402930357143,13.975441263998702L172.62432750000002,19.167838255445606L172.99239642857142,17.860517311829664L173.17643089285716,11.408409535280592L173.5444998214286,9.047618488978237L173.7285342857143,7.28530738546081L174.09660321428572,8.920316307974819L174.46467214285715,12.29226553819044L174.64870660714286,12.541107448681636L175.0167755357143,24.849888915999774L175.20081000000002,19.064489879148187L175.56887892857142,23.674997884124934L175.75291339285715,13.186105643421492L175.93694785714285,10.744386062174875L176.12098232142858,14.031895964519363L176.3050167857143,16.620202949207112L176.48905125000002,18.180962748449492L176.85712017857142,22.319540892181028L177.04115464285715,20.09367684393374L177.22518910714285,7.39732425982988L177.7772925,15.86719300308579L177.96132696428572,18.82023719801295L178.32939589285715,24.143539870726226L178.51343035714285,17.95999914888615L178.69746482142858,15.95806095039802L178.88149928571428,15.770315539045116L179.06553375000001,29.11279797521063L179.24956821428574,26.1118548735694L179.43360267857145,13.091595799412543L179.80167160714288,15.303122398334395L179.9857060714286,17.655481465128442L180.1697405357143,12.807600680308601L180.53780946428574,15.439783373978807L180.72184392857145,14.454518386551525L180.90587839285718,15.482354129470906L181.08991285714288,9.911681783363052L181.2739473214286,9.771928918468907L181.4579817857143,6.394619388996889L181.64201625,9.455997049371735L181.82605071428574,22.324046518489858L182.01008517857144,16.616469100029246L182.19411964285717,17.658433785824357L182.37815410714288,16.734609531632206L182.7462230357143,15.046706707055128L182.9302575,17.16893015868866L183.29832642857144,29.764741853878444L183.66639535714287,18.872203096454975L183.85042982142858,12.805616873798172L184.0344642857143,13.927745211098753L184.40253321428574,10.284772864787715L184.58656767857144,9.954277998364871L184.95463660714287,13.940021931326784L185.13867107142858,22.761256423192805L185.3227055357143,17.361402198839407L185.50674,21.7103339071715L185.69077446428574,14.601112583575683L186.05884339285717,17.819863819304118L186.24287785714287,10.334568829454994L186.6109467857143,14.818868896754388L186.79498125,11.43928380705288L187.16305017857144,9.300027048690286L187.34708464285714,24.690249697192268L187.53111910714287,13.252862309316225L187.71515357142857,13.931427262854612L187.8991880357143,17.16048030405166L188.0832225,19.25125937307848L188.26725696428574,21.36290758321581L188.45129142857144,18.82859307864756L188.63532589285714,13.310837070486773L189.00339482142857,14.1834114844315L189.1874292857143,22.80366679906744L189.37146375,16.544996239244128L189.55549821428573,14.883537149109879L189.73953267857144,22.312492722259705L189.92356714285714,15.906440635889503L190.10760160714287,11.34197369482329L190.29163607142857,17.39351312979705L190.4756705357143,13.528727278547198L190.659705,13.083979891110811L190.84373946428573,16.030438037625604L191.02777392857143,20.700505961600285L191.39584285714287,16.10939045291056L191.57987732142857,12.09102792304204L191.7639117857143,12.595860647328836L191.94794625,19.738109033031723L192.1319807142857,17.15106365871161L192.31601517857143,17.436068351527677L192.50004964285714,15.039682698392411L192.68408410714287,9.331126698516709L192.86811857142857,20.7601781620706L193.0521530357143,13.612865997565313L193.23618750000003,8.144143618133722L193.42022196428573,19.545477354152812L193.78829089285716,19.898382085587528L194.1563598214286,14.537905017260544L194.34039428571432,13.510880760932658L194.52442875000003,20.21812044110862L194.70846321428573,18.89828930020734L195.07653214285716,11.34391314057363L195.2605666071429,11.443173151492989L195.4446010714286,12.246346596020237L195.6286355357143,20.881576028421662L195.81267000000003,15.660371334868026L195.99670446428573,17.123715507642324L196.18073892857146,10.355284580829231L196.5488078571429,12.448085938184622L196.7328423214286,10.396755619328967L197.10091125000002,8.320918644715315L197.28494571428573,15.36250364174453L197.46898017857146,13.810692720502919L197.65301464285716,15.60014267596212L198.0210835714286,17.254358508959214L198.2051180357143,24.788316147555022L198.38915250000002,13.438306482321488L198.57318696428572,10.85569084298685L198.75722142857146,16.286774654495673L198.94125589285716,14.315884316884555L199.1252903571429,20.38953296120887L199.3093248214286,19.30122858531752L199.4933592857143,15.519443544545034L200.04546267857145,13.257061026559587L200.22949714285716,10.537993662038527L200.41353160714286,13.837696314223386L200.5975660714286,7.314533620959447L200.7816005357143,12.947826768737968L201.14966946428572,20.28544919789516L201.33370392857145,10.77410326038563L201.51773839285715,11.34416139315665L201.70177285714286,10.45963052932208L201.8858073214286,7.265513147194491L202.25387625000002,9.28032806686L202.43791071428572,19.517266380024353L202.62194517857145,16.10191055607906L202.80597964285715,8.717507388279161L202.99001410714285,11.797430230462641L203.17404857142859,11.251648660268835L203.3580830357143,19.195292312724057L203.54211750000002,12.939868429949646L203.72615196428572,14.130383104017387L203.91018642857145,18.064143242586322L204.27825535714285,27.387803620242167L204.46228982142858,26.621769469179128L204.6463242857143,22.752687411738282L205.01439321428572,23.5381496120543L205.19842767857142,15.269854207815904L205.38246214285715,15.501140462327882L205.56649660714285,11.989462918647884L205.75053107142858,20.254886196188828L206.30263446428572,13.380174090221264L206.67070339285715,15.586756962311739L206.85473785714285,16.381030792720786L207.22280678571428,16.778844526775263L207.40684125,19.227321783993492L207.59087571428574,21.590874446966634L207.77491017857145,23.857397606821102L207.95894464285718,16.471080984503025L208.3270135714286,9.846586661437547L208.5110480357143,18.553914107993904L209.06315142857144,23.143182604910127L209.24718589285717,12.190254161160581L209.43122035714288,20.441723744382923L209.6152548214286,17.802446678841868L209.7992892857143,17.368801895414652L209.98332375,7.126265713500626L210.53542714285717,14.41147910300953L210.71946160714288,14.66550330418752L210.9034960714286,14.89131742771412L211.0875305357143,14.41045470749088L211.45559946428574,14.171061074285747L211.63963392857144,12.828933622343117L211.82366839285717,15.416396526261899L212.00770285714287,11.699624402258994L212.1917373214286,14.27146965295234L212.3757717857143,13.086895628625708L212.55980625,13.896088669576194L212.74384071428574,8.279482874301609L212.92787517857144,16.22482047364711L213.29594410714287,13.029657273913257L213.4799785714286,8.616207526935003L213.6640130357143,12.728632847245542L214.03208196428574,20.90568006531417L214.21611642857144,12.252877266260262L214.40015089285717,4.585277346032141L214.58418535714287,6.830409534375125L214.76821982142857,10.84823463507573L214.9522542857143,6.18778704480247L215.13628875,9.98912974241611L215.32032321428574,7.155477710448363L215.50435767857144,8.663939299514364L215.68839214285717,7.49050904072994L215.87242660714287,8.814381752007492L216.05646107142857,11.820593851612083L216.2404955357143,18.357213346785166L216.60856446428573,9.464179992788411L216.79259892857144,9.431820768390562L216.97663339285717,8.926366161604825L217.34470232142857,12.9734939444532L217.5287367857143,13.969180278907372L217.71277125,9.706057350596105L217.89680571428573,11.309902417333676L218.26487464285717,17.63876059906505L218.44890910714287,14.891551232775514L218.63294357142857,0.6821392748804178L218.8169780357143,14.42372058136624L219.36908142857143,6.789665426221446L219.55311589285714,9.931993750549335L219.73715035714287,1.945557783929871L219.92118482142857,2.4400436046310414L220.28925375,7.969254085165469L220.47328821428573,4.007696210253773L220.65732267857143,6.2010361592045635L220.84135714285713,4.24747320695904L221.02539160714286,8.279506540861084L221.20942607142857,11.107692461387039L221.3934605357143,13.662799918966707L221.577495,10.620043992143843L221.76152946428573,11.737237069688124L221.94556392857146,5.375219933164081L222.12959839285716,13.902660770098448L222.3136328571429,19.638766595176463L222.4976673214286,15.449651822271527L222.68170178571432,10.100560198476714L222.86573625000003,9.744896565840557L223.04977071428576,10.207411916265974L223.23380517857146,13.127695242787604L223.41783964285716,13.004949492270175L223.6018741071429,14.795576080608464L223.96994303571432,14.731219334766399L224.15397750000002,15.489051836824483L224.33801196428573,12.155591047569759L224.52204642857146,12.924924869514706L224.70608089285716,8.37412488942479L224.8901153571429,7.536248735647652L225.0741498214286,12.48436141433361L225.62625321428573,11.078167416557656L225.81028767857146,13.09261849365824L225.99432214285716,12.046159019142245L226.1783566071429,25.40223375820347L226.3623910714286,18.739547231752574L226.54642553571432,18.0515429277331L226.73046000000002,11.83752074293561L226.91449446428572,8.765364057855436L227.09852892857145,21.875608036864826L227.28256339285716,12.693515633517688L227.4665978571429,4.70694220501498L227.6506323214286,7.680178221770566L227.8346667857143,9.235865084986848L228.20273571428572,15.103472578439385L228.38677017857145,12.93050985137284L228.75483910714289,16.140099025666565L228.9388735714286,25.167769619515447L229.30694250000002,18.282695994326893L229.49097696428572,12.72242291719943L229.67501142857145,17.36607053819662L229.85904589285715,9.231894498095443L230.04308035714288,16.012803330625154L230.2271148214286,12.714336587009612L230.4111492857143,14.511765516604727L230.59518375000002,15.489387566354623L230.77921821428572,14.349815083232153L231.14728714285715,7.025335099674859L231.33132160714288,7.963218631672184L231.51535607142858,11.195786500426234L231.88342500000002,9.756116484534624L232.06745946428572,3.296892670183125L232.25149392857145,-1.4563235371880314L232.43552839285715,13.776622236823636L232.61956285714285,14.146605173789169L232.80359732142858,12.454506317667805L232.98763178571429,9.81311299065928L233.17166625000002,12.891126468419882L233.35570071428572,14.8253056104536L233.53973517857145,16.504689624429286L234.27587303571428,12.22742362483499L234.4599075,20.60301872385648L234.64394196428572,24.749112907200512L235.01201089285715,16.350130037251486L235.19604535714285,9.334432188771125L235.38007982142858,4.4462901539820185L235.56411428571428,12.922027443147005L235.74814875,8.194248267055466L235.93218321428571,8.746838086400377L236.11621767857145,17.64056071474538L236.48428660714288,11.596868943122297L236.6683210714286,18.48002909012091L236.8523555357143,16.675659240518314L237.22042446428574,22.064500896537314L237.40445892857144,13.390030279355724L237.58849339285717,10.225138142558482L237.77252785714288,8.946979603088748L238.1405967857143,12.70259498892658L238.32463125000004,12.082568611927835L238.50866571428574,12.135034714517579L238.69270017857144,7.670485537376385L238.87673464285717,5.060533419117247L239.06076910714287,12.10494588634033L239.61287250000004,4.528068087960856" style="fill: none;" fill="none"></path></g></g></g></g><g opacity="0.2"><g><g><g><path stroke="rgb(255, 112, 67)" stroke-width="2px" d="M18.587480892857144,160.8590943475525L18.955549821428573,153.3298154643677L19.13958428571429,162.65011947163697L19.32361875,154.11789503898927L19.875722142857143,152.4076031900757L20.24379107142857,152.53012262222902L20.427825535714284,145.66823931793215L20.611860000000004,143.0855004767212L20.979928928571432,150.6083612741089L21.163963392857145,136.7756632965088L21.347997857142857,136.17899413725587L21.532032321428574,138.3818073623291L21.716066785714286,142.58956317945558L21.900101250000002,139.4478469839844L22.084135714285715,135.6859823031006L22.268170178571427,136.49538923840333L22.452204642857147,137.7503567369385L22.63623910714286,139.75331373032228L22.820273571428572,143.59964521684572L23.1883425,128.2439844173584L23.372376964285717,123.56354592590334L23.55641142857143,107.96937994042969L23.740445892857142,43.68185707792969L23.92448035714286,52.325991277587896L24.10851482142857,52.86150226933593L24.29254928571429,41.55994997666015L24.476583750000003,40.37362067021485L24.660618214285716,41.34872030493164L24.844652678571432,41.92597424150391L25.212721607142857,31.097785214648443L25.396756071428573,33.18092236757813L25.580790535714286,27.866017042089855L25.764825000000002,59.00774902163087L25.948859464285718,77.22461213100586L26.316928392857147,27.391962381738285L26.50096285714286,34.460736857080086L27.05306625,55.62785821318359L27.237100714285717,29.633031330468757L27.42113517857143,61.36242273427735L27.605169642857142,31.45295458535157L27.78920410714286,44.19093951372071L27.973238571428574,32.97844747910157L28.15727303571429,16.791847125878906L28.341307500000003,34.8209879775879L28.525341964285715,32.51821206694337L28.70937642857143,46.729083407666025L29.077445357142857,36.179500449609385L29.261479821428573,69.99983312211916L29.629548750000005,63.391605186474614L29.813583214285718,23.482506574511724L29.99761767857143,34.06877665488282L30.181652142857146,35.979540508740236L30.549721071428575,37.039569319189454L30.733755535714288,33.31058476948242L30.91779,36.49423188266602L31.101824464285716,33.12161800166017L31.469893392857145,42.94504656840821L31.65392785714286,46.532528584863286L31.837962321428574,42.11936593432617L32.021996785714286,42.96471674282227L32.20603125,41.50667802802735L32.39006571428572,34.019048103222666L32.57410017857143,42.5146794L32.758134642857144,50.07775775302734L32.94216910714286,41.01542492871095L33.12620357142857,29.631475692773442L33.310238035714285,32.538513138867195L33.4942725,36.716999200634774L33.67830696428572,46.11146931533203L33.862341428571426,24.115149855468747L34.04637589285715,28.17695444765626L34.230410357142866,43.26536965473634L34.414444821428575,40.49596293251954L34.59847928571429,34.48637030932617L34.78251375000001,36.58150315737306L34.966548214285716,51.88337778354493L35.15058267857143,46.32740911230469L35.51865160714286,25.003539973535162L35.88672053571429,46.386264071777354L36.070755000000005,45.80457656777344L36.254789464285714,40.55800694926757L36.806892857142856,42.46718923813478L36.99092732142857,30.967699333593753L37.17496178571429,31.18204892314453L37.54303071428571,34.3039545046875L37.727065178571436,32.062799131640624L37.911099642857145,27.26832375468751L38.09513410714286,39.696373799560554L38.27916857142858,35.81784061274415L38.463203035714294,52.343371207617196L38.6472375,38.44262488388672L38.83127196428572,31.50465361142578L39.015306428571435,30.859098537597664L39.199340892857144,50.8244292770508L39.567409821428576,24.20510028398437L39.751444285714285,28.360796253515627L39.93547875,30.775941060351556L40.11951321428572,30.009547507324214L40.30354767857143,24.044005358203137L40.48758214285714,40.59863502041015L40.67161660714286,37.33520962075196L40.85565107142857,41.402891066455076L41.039685535714284,19.396710592089843L41.22372000000001,49.66406183525391L41.59178892857143,35.096819825830075L41.77582339285715,32.400666354199224L41.959857857142865,36.68559260405273L42.143892321428574,32.15013090336915L42.32792678571429,42.10325644174806L42.511961250000006,37.01775582172853L42.695995714285715,30.428342459765624L42.88003017857143,40.79607137124023L43.248099107142856,37.388861836376954L43.61616803571429,32.35161191220703L43.800202500000005,22.342448847070322L43.984236964285714,33.577428488818356L44.16827142857143,39.150198047167976L44.352305892857146,41.33064033793946L44.536340357142855,22.483406907128906L44.72037482142857,37.614887351074216L44.904409285714294,29.64727405781251L45.08844375,37.89267238886719L45.27247821428572,36.2481127144043L45.456512678571436,33.40515025649413L45.640547142857145,40.68179249765626L45.82458160714286,39.9734760852539L46.19265053571429,32.36466198398438L46.56071946428572,41.1221676019043L46.744753928571434,41.90499041748047L46.92878839285714,49.37513670307617L47.296857321428575,42.656311569726576L47.480891785714284,35.914843265478524L47.66492625,42.01079970805665L47.84896071428572,33.61914550634766L48.032995178571426,29.976135866601574L48.21702964285714,34.11081344238282L48.401064107142865,39.129620417431646L48.58509857142858,36.49685918188478L48.76913303571429,36.628345136865235L48.953167500000006,40.51916786147461L49.13720196428572,41.721796793994145L49.50527089285715,30.588244729980474L49.689305357142864,36.88606244838867L49.87333982142857,29.409866460644533L50.05737428571429,41.08598174062501L50.241408750000005,54.56733678413086L50.425443214285714,34.00669806840821L50.60947767857143,28.444333997753905L50.793512142857146,25.04275932832032L50.97754660714286,30.834692310644535L51.16158107142857,40.28738648730468L51.34561553571429,31.82660147490235L51.71368446428571,31.703204835937512L51.897718928571436,31.30674192685547L52.08175339285715,42.801115511865234L52.26578785714286,31.237170352148432L52.44982232142858,30.959091471679688L52.63385678571429,35.07823859780274L52.81789125,36.61830263129883L53.36999464285715,34.427679556054684L53.55402910714286,26.73601910507813L53.738063571428576,45.87229866210938L53.92209803571429,35.370879975585936L54.1061325,20.348501588671866L54.29016696428572,39.59376220869141L54.47420142857143,24.685394779980477L54.84227035714286,29.10179834238282L55.026304821428575,33.13996588403321L55.210339285714284,30.259192787695305L55.39437375,26.316342624609383L55.76244267857144,32.6038672069336L55.94647714285715,38.55491599819337L56.130511607142864,41.49245258554687L56.31454607142858,47.944675987646484L56.49858053571429,32.23043637817382L56.682615000000006,31.090681135839844L56.86664946428572,33.92449125864259L57.05068392857143,42.26359083354493L57.23471839285715,52.04546658896484L57.41875285714286,37.68903941455079L57.78682178571429,37.36559641040039L57.970856250000004,44.792833022900396L58.15489071428571,35.67168845126954L58.33892517857143,38.57678135024415L58.70699410714286,22.408165897265626L58.89102857142857,31.118959172167965L59.075063035714294,32.33691977841798L59.25909750000001,31.706039553515634L59.44313196428572,39.20851717587892L59.627166428571435,24.573976551269524L59.81120089285715,38.0080402088379L59.99523535714286,44.49052076411133L60.179269821428576,41.93619823813478L60.73137321428572,41.5460443041504L60.915407678571434,28.35730471113281L61.09944214285715,52.55245755629884L61.28347660714286,39.32242442490235L61.467511071428575,28.6662370725586L61.65154553571429,38.96754025444336L61.83558,31.188755450097663L62.019614464285716,32.764599150585944L62.20364892857143,42.73695409936524L62.38768339285714,34.42267558813478L62.57171785714286,33.941482279248056L62.93978678571429,41.2411738855957L63.123821250000006,45.97903269287111L63.30785571428572,28.155918769042973L63.49189017857144,49.45997945449219L63.67592464285715,38.065114827392584L63.85995910714286,25.8165853725586L64.04399357142857,32.00076375732423L64.22802803571429,38.328129949511734L64.4120625,22.53278976152344L64.96416589285715,30.26211392958985L65.14820035714285,43.60939028862305L65.33223482142857,34.54635742734374L65.51626928571429,43.74556908398438L65.88433821428572,32.09235624785157L66.06837267857144,34.13478754775391L66.25240714285714,29.750205418652357L66.43644160714285,23.833389299121094L66.80451053571429,38.26356234272462L66.988545,80.7496266515625L67.35661392857143,29.81436683115234L67.72468285714285,26.45954771689453L67.90871732142857,127.67188569125977L68.27678625000001,36.15832649208985L68.46082071428573,34.86842628486329L68.82888964285715,41.06487692255859L69.01292410714287,34.964772112792964L69.19695857142858,119.51936757304688L69.3809930357143,103.10722568129884L69.74906196428573,94.08006755375978L69.93309642857143,47.90005511308594L70.11713089285715,105.68634334365234L70.30116535714286,62.37132291914064L70.48519982142858,35.93363191186524L70.6692342857143,42.26908742006836L70.85326875000001,34.881614635546875L71.03730321428571,30.57669844130859L71.22133767857143,29.270170195605463L71.40537214285715,37.99628650180665L71.58940660714286,41.69300021176758L71.77344107142858,45.71722751118164L71.9574755357143,28.567160236230468L72.14151000000001,31.41824657988281L72.32554446428571,36.39983060185547L72.69361339285715,33.06601259648437L72.87764785714286,42.486798915527345L73.06168232142858,27.46497364423829L73.2457167857143,30.744050487597658L73.42975125,45.5105437584961L73.61378571428571,26.65030346806641L73.79782017857143,33.1312629553711L73.98185464285714,27.597911527734382L74.16588910714286,26.046577763378913L74.34992357142858,23.87119129511719L74.53395803571429,31.676326873535157L74.7179925,29.96500441464843L74.90202696428571,31.025154219140628L75.08606142857143,40.35727783198242L75.27009589285716,25.609702843945314L75.45413035714287,41.166537845947275L75.82219928571429,28.024761226464836L76.00623375,34.691645345654294L76.19026821428572,17.751969426562503L76.37430267857144,39.04508879355469L76.55833714285716,37.49172405776367L76.74237160714287,25.585365756445313L77.11044053571429,26.785263680566413L77.294475,35.98552107143556L77.47850946428572,21.914683050585936L77.66254392857144,23.229231472851556L77.84657839285715,34.03215002958985L78.21464732142857,47.308100400292965L78.39868178571429,33.77699087783203L78.76675071428572,48.81253168813477L79.13481964285715,34.387103339501955L79.31885410714287,33.42896015566407L79.50288857142857,45.448491099316406L79.68692303571429,48.044392363916025L79.8709575,42.46447551459961L80.05499196428572,31.875431213671884L80.23902642857144,39.02422596357423L80.42306089285715,23.906694404296868L80.60709535714285,32.74473884267578L80.79112982142857,28.631287079003904L81.15919875,27.57547577519531L81.34323321428572,38.01043416240234L81.52726767857143,33.472345162500005L81.71130214285714,25.688418111328136L81.89533660714285,28.655503172460946L82.07937107142857,27.982586160058602L82.26340553571428,32.444111858056644L82.44744000000001,41.92927565039062L82.63147446428573,32.96077370639649L82.81550892857145,37.373227677539056L82.99954339285715,36.43252492075196L83.36761232142858,25.024489227832024L83.5516467857143,41.652130152539065L83.73568125000001,28.857234811816415L83.91971571428573,38.308779545068354L84.28778464285715,35.452853439697265L84.47181910714286,39.07288285371094L84.8398880357143,28.6951892185547L85.02392250000001,31.858111780664057L85.20795696428573,34.985885573291014L85.39199142857143,42.01652964023438L85.57602589285715,62.06169916318359L85.76006035714286,31.238967977929683L85.94409482142858,35.949888325781245L86.1281292857143,33.09251029189454L86.31216375000001,31.599391947070306L86.49619821428571,30.730015178613286L87.04830160714286,42.63952796748047L87.23233607142858,34.27398255175781L87.4163705357143,34.149168554003914L87.60040500000001,35.077927470263674L87.78443946428571,23.91540597539063L87.96847392857143,31.658195051953136L88.15250839285714,15.009190036230468L88.33654285714286,26.078710324218747L88.70461178571429,26.460930505957037L88.88864625,36.968727307031244L89.25671517857143,52.1512931644043L89.44074964285714,32.889283511865244L89.62478410714287,32.63690722309571L90.1768875,30.383626518457035L90.36092196428572,35.839040497558585L90.54495642857144,28.17596921044922L90.72899089285715,29.16687585263672L90.91302535714287,29.441964451757816L91.09705982142859,34.27307509643556L91.28109428571429,32.156180605517584L91.46512875,34.027586825683606L91.64916321428572,23.395079736035157L91.83319767857144,28.163403114843742L92.01723214285715,29.729066030859386L92.20126660714287,34.08458366235352L92.38530107142859,40.522080360937494L92.56933553571429,29.000820171093757L92.75337,29.923659021679683L92.93740446428572,27.472648123535166L93.12143892857144,15.234083392382814L93.30547339285715,32.85588051357422L93.48950785714287,21.39966326425781L93.67354232142857,31.702651720312492L93.85757678571429,30.845806477734378L94.04161125,30.04492962246093L94.40968017857143,43.95449986889649L94.59371464285715,24.55266431484375L94.77774910714287,30.165992804882816L94.96178357142857,37.66465911489258L95.51388696428572,30.725659393066405L95.69792142857143,30.99986646416016L95.88195589285715,36.50728195444337L96.06599035714285,32.980876002392584L96.25002482142857,44.13196356020509L96.43405928571428,45.18400676381837L96.61809375000001,39.602854046777345L96.80212821428573,24.446759957519525L96.98616267857145,17.17666003710938L97.17019714285716,26.124238654101568L97.53826607142858,29.31571581035156L97.7223005357143,31.961648111718755L97.90633500000001,34.90899385898438L98.45843839285715,38.225086237060545L98.64247285714286,33.68056726801758L98.82650732142858,41.392744851708976L99.0105417857143,27.58389350361329L99.19457625000001,35.8458507336914L99.37861071428573,29.286694524902355L99.56264517857144,31.54413223916017L99.74667964285715,49.38905101801759L100.11474857142858,31.657365378515628L100.2987830357143,36.76200034218751L100.48281750000001,21.70021246699218L100.66685196428573,28.949414987695313L101.40298982142858,37.743504018749995L101.58702428571429,34.37771765874023L101.77105875000001,38.34855201547851L101.95509321428572,27.573470731054698L102.13912767857143,42.172153906787116L102.32316214285714,37.880374208642586L102.50719660714286,21.233676722167974L102.87526553571429,34.792148183203125L103.05930000000001,28.3092009366211L103.24333446428571,30.468719900390628L103.42736892857143,26.722450487402337L103.61140339285714,19.884817846289057L103.79543785714287,30.544237468066417L103.97947232142859,33.73928394858399L104.1635067857143,36.87417046245117L104.34754125000002,33.02622284121094L104.53157571428572,41.331435441650385L104.71561017857144,45.26883223037109L104.89964464285715,43.672765239843756L105.08367910714287,32.40392455092774L105.26771357142859,26.54968827890626L105.6357825,23.600959742578127L105.81981696428572,36.700578580517586L106.00385142857144,33.447273468310556L106.55595482142859,31.653562708593746L106.7399892857143,43.39086640458985L106.92402375,26.907087396972656L107.10805821428572,34.0931310272461L107.29209267857144,26.142871736718757L107.47612714285715,34.076978322509774L107.66016160714287,35.350025788037115L107.84419607142858,28.44798110390626L108.02823053571429,33.42753415444335L108.212265,43.66116709658204L108.39629946428572,24.242262740039063L108.58033392857143,40.349784843750015L108.76436839285715,22.939174182128905L108.94840285714287,23.123465394433588L109.50050625,18.642693001171875L109.68454071428572,32.09787876166992L110.05260964285715,30.580414686914068L110.23664410714287,21.856329352148446L110.42067857142857,27.113468664550776L110.7887475,29.18887948359375L110.97278196428573,28.344876894433604L111.15681642857145,38.34259738007812L111.70891982142858,22.457047490624994L111.8929542857143,37.35025609423828L112.07698875000001,26.40060633310547L112.26102321428573,20.91655133554688L112.44505767857144,13.881110719042972L112.62909214285716,20.39434104609375L112.81312660714286,23.55956249501953L112.99716107142858,22.481488287304696L113.1811955357143,22.186401101367185L113.54926446428573,28.92255431015625L113.73329892857144,25.05252527607423L113.91733339285715,34.278718604296884L114.10136785714286,35.68452246225587L114.28540232142858,28.76572874560548L114.4694367857143,29.37756105117187L114.83750571428573,20.787191418749995L115.38960910714286,28.57355563564454L115.57364357142858,30.053122647656252L115.75767803571429,26.260253243261715L116.12574696428572,21.25279378095703L116.30978142857143,31.869865487695307L116.49381589285714,27.03717327802735L116.67785035714286,31.005708747949228L116.86188482142857,27.02111564003907L117.04591928571429,35.24765618525391L117.22995375,18.264431053124998L117.41398821428572,26.58583092802734L117.59802267857143,29.291447862304683L117.78205714285714,29.886254577539056L117.96609160714286,23.654266260937504L118.15012607142859,29.452767491308595L118.3341605357143,39.30693718740235L118.51819500000002,34.22236130756837L118.70222946428572,22.813426801757817L119.07029839285715,32.0707069565918L119.25433285714287,20.1120273741211L119.43836732142859,26.061650164160152L119.80643625000002,32.11725509340821L120.17450517857144,24.87793087207031L120.35853964285715,32.69577946743165L120.54257410714287,38.66377606713867L120.72660857142859,18.9997118522461L120.9106430357143,36.230058674707024L121.27871196428572,20.448736510839847L121.46274642857144,35.48846890048828L121.64678089285715,31.01466230712891L121.83081535714287,25.747912610742198L122.01484982142858,23.924878080468755L122.1988842857143,24.622771720312507L122.38291875,30.326067923730477L122.75098767857143,24.270022230468758L122.93502214285715,18.889503563964848L123.11905660714287,29.70376099101562L123.30309107142858,16.246440549902346L123.48712553571428,24.80177376445312L123.67116,17.24293020292968L123.85519446428572,33.60665719262696L124.03922892857143,31.110766146972665L124.40729785714286,35.82853130068359L124.59133232142858,25.5513664303711L124.77536678571428,18.060331387500003L125.32747017857145,32.650423986181636L126.0636080357143,21.4277857368164L126.24764250000001,19.462635060644526L126.43167696428573,24.7179076078125L126.79974589285716,33.25457317001953L126.98378035714288,33.29152820771485L127.16781482142858,32.72137834995118L127.3518492857143,27.063549979394537L127.53588375000001,18.889814691503908L127.71991821428573,39.54637575600587L127.90395267857144,28.254736332421874L128.08798714285714,24.245460439746097L128.27202160714285,30.96536587705078L128.45605607142858,28.649730028125006L128.64009053571428,27.27062264150391L128.824125,25.975536975292965L129.19219392857144,31.827327439160157L129.37622839285714,24.126194883105462L129.56026285714287,35.65780006362304L129.74429732142858,34.91140509741212L129.9283317857143,42.968294709521494L130.11236625,28.660239224999998L130.2964007142857,29.30041870634766L130.48043517857144,19.967767905175783L130.66446964285714,34.17035979638671L130.84850410714287,27.984798622558596L131.21657303571428,27.577100552343754L131.4006075,23.915993660742185L131.5846419642857,23.740673292480476L131.76867642857144,30.774419992382814L131.95271089285714,26.453791857421887L132.13674535714287,31.14072081503906L132.32077982142857,34.58317418613282L132.50481428571428,18.355090161035154L132.68884875,14.594076759667962L132.8728832142857,38.00868839121094L133.05691767857144,14.309377776562508L133.24095214285714,18.159252660058602L133.60902107142857,29.007388419140632L133.79305553571427,16.408088591308598L133.97709,23.536227929589845L134.1611244642857,25.339384867089848L134.34515892857144,30.27139590117187L134.89726232142857,21.13001939707032L135.08129678571427,22.556245320996105L135.26533125,35.83481434848632L135.4493657142857,23.715696665039072L135.63340017857143,16.072693104199228L135.81743464285714,22.933971438281258L136.1855035714286,23.032961850292967L136.3695380357143,19.386426098437507L136.55357250000003,24.975521210156256L136.73760696428573,32.761833572460944L136.92164142857146,27.367988276367196L137.10567589285716,22.19020377128907L137.28971035714287,17.256827233007815L137.4737448214286,32.39470307636719L137.84181375000003,22.02838288125001L138.02584821428573,24.014430957128912L138.39391714285716,24.96822699785157L138.57795160714286,23.611676357812506L138.7619860714286,31.121707465429683L138.9460205357143,27.03385458427734L139.13005500000003,31.780606453710934L139.49812392857146,23.849654355468754L139.68215839285716,8.000195260546876L139.86619285714286,21.148600625097657L140.0502273214286,19.776994869140626L140.2342617857143,34.30025554394532L140.60233071428573,7.422535129687504L140.97039964285716,29.955791582519538L141.15443410714286,28.209709263574222L141.3384685714286,18.7079433600586L141.70653750000002,29.447564747460948L141.89057196428573,29.96037207128906L142.07460642857143,17.7803684569336L142.25864089285716,25.141058345800776L142.44267535714286,17.851167256933593L142.8107442857143,9.420890028222654L142.99477875000002,19.46775138017579L143.17881321428573,8.463879002929685L143.36284767857143,24.138415281445322L143.54688214285716,37.11377323725586L143.73091660714286,37.48594227099609L144.0989855357143,39.7278063234375L144.28302000000002,20.162499174902337L144.46705446428572,20.105268992578118L144.65108892857143,25.14785129707031L145.01915785714286,19.780659260156256L145.2031923214286,20.61064382519531L145.3872267857143,26.839624575585933L145.57126125,12.379626500390634L145.93933017857142,18.490465210253916L146.12336464285715,18.31547325439453L146.30739910714286,25.85879500869141L146.4914335714286,25.551055302832037L146.6754680357143,27.42468262792969L146.8595025,21.00947476054688L147.04353696428572,32.470652765625005L147.22757142857142,11.211722858203133L147.41160589285715,12.746203880859369L147.77967482142859,15.991869083496093L147.9637092857143,16.82610572490235L148.33177821428572,33.72454860263673L148.51581267857142,10.898244577734372L148.69984714285715,29.46709664296875L148.88388160714285,17.746023433593752L149.06791607142858,25.265751349511714L149.2519505357143,25.470767112890623L149.435985,21.548900773828134L149.62001946428572,31.357974261621088L149.80405392857142,11.347149762011728L150.17212285714285,15.521184971484367L150.35615732142858,27.667776945117186L150.5401917857143,28.380086160937495L150.72422625000002,12.831677529785154L150.90826071428575,34.872894422021496L151.09229517857145,10.900474325097663L151.27632964285718,14.893398737109376L151.46036410714288,20.050925382421873L151.64439857142858,25.6015962430664L151.8284330357143,35.9725142118164L152.0124675,21.18657546972656L152.19650196428574,24.158206449902337L152.38053642857145,19.051065181054692L152.56457089285718,14.684839576757817L152.74860535714288,34.67565684711914L152.93263982142858,26.087404610449216L153.1166742857143,24.83971403935547L153.30070875,20.777892162304695L153.48474321428574,29.7702558600586L153.66877767857144,17.84038150224609L153.85281214285718,18.937607338476553L154.03684660714288,28.79153504648437L154.4049155357143,25.278352014843747L154.58895,24.357881190527344L154.77298446428574,11.576070491308597L155.14105339285715,16.938370911914067L155.32508785714288,16.18613366191407L155.50912232142858,17.127899437792973L155.6931567857143,16.69541487363281L155.87719125,20.06209140410157L156.79736357142858,22.189788934570306L156.9813980357143,21.07045575820313L157.1654325,27.484937661328136L157.53350142857144,18.232678759277352L157.71753589285714,26.484714477832043L157.90157035714287,15.280320401660166L158.08560482142857,14.161177358789054L158.2696392857143,26.823082961425783L158.63770821428574,10.615723487402342L158.82174267857144,23.44634664052735L159.00577714285714,12.187557099609375L159.18981160714287,14.776069085156248L159.37384607142857,23.69173984453126L159.5578805357143,21.66379326005859L159.741915,20.306136388769527L159.9259494642857,11.894647806445306L160.10998392857144,9.549385701855478L160.29401839285714,14.278610719921884L160.47805285714287,21.822001613671873L160.66208732142857,12.233240993261726L160.8461217857143,31.977895883203118L161.2141907142857,17.043791293066416L161.39822517857144,25.87635642978515L161.58225964285714,11.936321611816412L161.76629410714287,27.72960490107422L161.95032857142857,24.567633006445305L162.1343630357143,34.92204393076173L162.3183975,22.47168776982421L162.5024319642857,19.7620780321289L162.68646642857144,17.112533194335946L163.23856982142857,20.68626510205078L163.42260428571427,12.50734435517578L163.60663875,26.494082873730466L163.7906732142857,23.715091694824224L163.97470767857143,22.05628065058594L164.15874214285714,20.289491065429697L164.52681107142857,15.392723867578118L164.7108455357143,24.982124027929686L164.89488000000003,15.810913849804699L165.07891446428573,7.214096963378903L165.26294892857146,5.427982901074218L165.44698339285716,18.03336700078126L165.6310178571429,15.563273613574218L165.8150523214286,15.552764416699222L166.18312125000003,11.8158461147461L166.36715571428573,33.500484919921874L166.55119017857146,31.82546067392578L166.73522464285716,27.608852846191418L166.9192591071429,19.2938656555664L167.1032935714286,6.866411938476567L167.2873280357143,6.96974085117188L167.47136250000003,24.64888914873046L167.65539696428573,11.864330156249999L167.83943142857146,25.344397477441408L168.20750035714286,17.60708770253906L168.3915348214286,26.081406762890634L168.5755692857143,16.90342091835937L168.94363821428573,10.208924230078132L169.12767267857146,14.210905910449226L169.31170714285716,11.042020070507817L169.49574160714286,9.92018058896484L169.6797760714286,30.066743119921878L169.8638105357143,13.07235196611329L170.04784500000002,16.606553391503905L170.23187946428573,25.27128250576172L170.41591392857146,18.343872284765627L170.59994839285716,21.2023046953125L170.78398285714286,10.882601776464838L170.9680173214286,9.9222547725586L171.1520517857143,24.564469876464845L171.33608625000002,11.471047662011715L171.52012071428572,14.364499205566412L171.70415517857145,13.279234494726555L171.88818964285716,14.895334641796882L172.07222410714286,12.914886861621092L172.2562585714286,7.847327929687497L172.4402930357143,16.250744480859378L172.62432750000002,22.025669157714848L172.99239642857142,17.140984079296874L173.17643089285716,7.857249441210939L173.5444998214286,7.748268378222661L173.7285342857143,6.315353212207023L174.09660321428572,9.820204939746093L174.46467214285715,14.148144571875001L174.64870660714286,12.67806694980469L175.0167755357143,31.62448956855469L175.20081000000002,15.880278006152354L175.56887892857142,26.21256430546875L175.75291339285715,7.413149448925783L175.93694785714285,9.40049388955079L176.12098232142858,15.841300639453133L176.3050167857143,18.04477501054687L176.48905125000002,19.039985583691404L176.85712017857142,24.597362971289062L177.04115464285715,18.868588879394537L177.22518910714285,0.4094092716796901L177.7772925,20.528903706738284L177.96132696428572,20.44555609599609L178.32939589285715,27.07341963632813L178.51343035714285,14.556655030664057L178.69746482142858,14.856218996191407L178.88149928571428,15.666982793261722L179.06553375000001,36.45633481992188L179.24956821428574,24.460173011425788L179.43360267857145,5.925406696582027L179.80167160714288,16.520319208593758L179.9857060714286,18.95019071894531L180.1697405357143,10.13938722509765L180.53780946428574,16.888504081347662L180.72184392857145,13.91224075781251L180.90587839285718,16.048062174023443L181.08991285714288,6.84565281767579L181.2739473214286,9.695010675000004L181.4579817857143,4.5357901130859375L181.64201625,11.140941343066398L181.82605071428574,29.406461342578137L182.01008517857144,13.475089280566403L182.19411964285717,18.231918225292972L182.37815410714288,16.226148120410162L182.7462230357143,14.117705927636717L182.9302575,18.33697562431641L183.29832642857144,36.69732038378906L183.66639535714287,12.877084865624996L183.85042982142858,9.466643061328133L184.0344642857143,14.545350730078127L184.40253321428574,8.279726069531256L184.58656767857144,9.772377723046873L184.95463660714287,16.13372595644531L185.13867107142858,27.616354476855463L185.3227055357143,14.389389408691413L185.50674,24.10393197919922L185.69077446428574,10.68828534345703L186.05884339285717,19.591424576953116L186.24287785714287,6.214755307910148L186.6109467857143,17.286972034570315L186.79498125,9.579202091015617L187.16305017857144,8.122606662304694L187.34708464285714,33.16083735644532L187.53111910714287,6.957866150097656L187.71515357142857,14.304900996972648L187.8991880357143,18.937711047656254L188.0832225,20.401998240527348L188.26725696428574,22.52513256708984L188.45129142857144,17.43373780869141L188.63532589285714,10.273932600878906L189.00339482142857,14.663665619238275L189.1874292857143,27.548148406347657L189.37146375,13.10030159003907L189.55549821428573,13.969090673144539L189.73953267857144,26.40129772763672L189.92356714285714,12.38062902246093L190.10760160714287,8.82974770400391L190.29163607142857,20.72420537695313L190.4756705357143,11.401597081347656L190.659705,12.839196445312496L190.84373946428573,17.65213205625001L191.02777392857143,23.27085342363281L191.39584285714287,13.58249742099609L191.57987732142857,9.879371026757816L191.7639117857143,12.873714317285154L191.94794625,23.669113958496105L192.1319807142857,15.727185972070314L192.31601517857143,17.592931399511713L192.50004964285714,13.720741757519527L192.68408410714287,6.189208279980468L192.86811857142857,27.050586331933594L193.0521530357143,9.679074031054682L193.23618750000003,5.134226649609384L193.42022196428573,25.8206300305664L193.78829089285716,20.092616472656257L194.1563598214286,11.587564925390632L194.34039428571432,12.945619348535162L194.52442875000003,23.909701970507815L194.70846321428573,18.17187061025391L195.07653214285716,7.186078199999995L195.2605666071429,11.497804630371094L195.4446010714286,12.688403298046877L195.6286355357143,25.63429920439453L195.81267000000003,12.786685030664055L195.99670446428573,17.929121990332035L196.18073892857146,6.630024148242185L196.5488078571429,13.599937848046874L196.7328423214286,9.267728854687508L197.10091125000002,7.178403720703121L197.28494571428573,19.238104686621092L197.46898017857146,12.956595236718753L197.65301464285716,16.585033736718746L198.0210835714286,18.164818386035165L198.2051180357143,28.93491298740235L198.38915250000002,7.19140193789062L198.57318696428572,9.434251227539066L198.75722142857146,19.27597582207032L198.94125589285716,13.231130720214848L199.1252903571429,23.732393842968754L199.3093248214286,18.702239355175788L199.4933592857143,13.437995963964836L200.04546267857145,12.011873749218754L200.22949714285716,9.041452709472654L200.41353160714286,15.653811727441415L200.5975660714286,3.7242657820312415L200.7816005357143,16.048321446972654L201.14966946428572,24.323985573632815L201.33370392857145,5.539176426562491L201.51773839285715,11.657914318945307L201.70177285714286,9.972795712792964L201.8858073214286,5.507510557031251L202.25387625000002,10.389257208691403L202.43791071428572,25.15155025781249L202.62194517857145,14.222141071582028L202.80597964285715,4.6532234742187475L202.99001410714285,13.492581562207038L203.17404857142859,10.951257253417962L203.3580830357143,23.567375253222657L203.54211750000002,9.49696071152344L203.72615196428572,14.785627614550776L203.91018642857145,20.229236032031253L204.27825535714285,32.51943064980469L204.46228982142858,26.200153773632824L204.6463242857143,20.623192635937492L205.01439321428572,23.970458264941406L205.19842767857142,10.719086969824229L205.38246214285715,15.628437548144541L205.56649660714285,10.056679154296878L205.75053107142858,24.80407265126954L206.30263446428572,9.596417814843743L206.67070339285715,16.801232806640627L206.85473785714285,16.81818925751954L207.22280678571428,16.997796271875004L207.40684125,20.57493329765625L207.59087571428574,22.89174451728515L207.77491017857145,25.104863842089845L207.95894464285718,12.40574392880859L208.3270135714286,6.200547150292971L208.5110480357143,23.346319136718748L209.06315142857144,25.669059064453123L209.24718589285717,6.16189819599609L209.43122035714288,24.98323025917968L209.6152548214286,16.34982131718751L209.7992892857143,17.130129185156242L209.98332375,1.4889008381835842L210.53542714285717,18.42117019335937L210.71946160714288,14.80531507382813L210.9034960714286,15.015602720507813L211.0875305357143,14.145793830468753L211.45559946428574,14.039301787792978L211.63963392857144,12.090243319335938L211.82366839285717,16.840504016015633L212.00770285714287,9.653959124707024L212.1917373214286,15.68698138007812L212.3757717857143,12.434920778027346L212.55980625,14.341458482812493L212.74384071428574,5.188172707910163L212.92787517857144,20.597835741503918L213.29594410714287,11.271079078710942L213.4799785714286,6.187099526660154L213.6640130357143,14.992060736718745L214.03208196428574,25.406225433398443L214.21611642857144,7.4904819272460985L214.40015089285717,0.3651254519531215L214.58418535714287,8.066102444238284L214.76821982142857,13.059595737011726L214.9522542857143,3.6227344951171787L215.13628875,12.081341614746089L215.32032321428574,5.595870778125007L215.50435767857144,9.49417784853515L215.68839214285717,6.84466758046875L215.87242660714287,9.543024872167964L216.05646107142857,13.475175704882806L216.2404955357143,21.954887642578132L216.60856446428573,4.569564735937491L216.79259892857144,9.414010652636714L216.97663339285717,8.64817021523437L217.34470232142857,15.200982879199218L217.5287367857143,14.517193687792965L217.71277125,7.359687366796876L217.89680571428573,12.192638849414063L218.26487464285717,21.122085644824214L218.44890910714287,13.379521271484368L218.63294357142857,-7.138544825976581L218.8169780357143,21.986916494238287L219.36908142857143,2.5879761547851508L219.55311589285714,11.661492285644531L219.73715035714287,-2.450077515527349L219.92118482142857,2.7122024671874967L220.28925375,11.012462954296872L220.47328821428573,1.8273038915039002L220.65732267857143,7.408223262890625L220.84135714285713,3.1722563882812507L221.02539160714286,10.498687678124998L221.20942607142857,12.664290913769532L221.3934605357143,15.069099372363274L221.577495,8.945348869628916L221.76152946428573,12.35212628291015L221.94556392857146,1.873644609960932L222.12959839285716,18.596058440039055L222.3136328571429,22.79584809580078L222.4976673214286,13.144015009277345L222.68170178571432,7.156486514062495L222.86573625000003,9.549143713769542L223.04977071428576,10.461974628515623L223.23380517857146,14.734982965136712L223.41783964285716,12.93739175361329L223.6018741071429,15.781114745507816L223.96994303571432,14.69579818007813L224.15397750000002,15.906153446484375L224.33801196428573,10.320895574414063L224.52204642857146,13.348356662988275L224.70608089285716,5.869421024414062L224.8901153571429,7.075092092871103L225.0741498214286,15.20774126074218L225.62625321428573,10.304215681347658L225.81028767857146,14.201347381054696L225.99432214285716,11.47020070371093L226.1783566071429,32.7532516378418L226.3623910714286,15.072487205566413L226.54642553571432,17.67287389218751L226.73046000000002,8.4174000055664L226.91449446428572,7.0744871226562545L227.09852892857145,29.09132371523438L227.28256339285716,7.639805861132808L227.4665978571429,0.31123124824219295L227.6506323214286,9.316610448046875L227.8346667857143,10.092095839160152L228.20273571428572,18.33293096630859L228.38677017857145,11.734538117871091L228.75483910714289,17.906617098339837L228.9388735714286,30.136487543261723L229.30694250000002,14.493236867285152L229.49097696428572,9.662117580175789L229.67501142857145,19.921876593164072L229.85904589285715,4.754944894628916L230.04308035714288,19.7449314477539L230.2271148214286,10.898901402539073L230.4111492857143,15.501048105761715L230.59518375000002,16.027458616992195L230.77921821428572,13.722608522753905L231.14728714285715,2.994032162988275L231.33132160714288,8.47941809501954L231.51535607142858,12.97495176152343L231.88342500000002,8.963739964160148L232.06745946428572,-0.2581840028320295L232.25149392857145,-4.072434783105469L232.43552839285715,22.160646655078125L232.61956285714285,14.350239193359384L232.80359732142858,11.523196094531244L232.98763178571429,8.359322864941417L233.17166625000002,14.585226909667963L233.35570071428572,15.88985382041016L233.53973517857145,17.42900175615234L234.27587303571428,9.873269470019533L234.4599075,25.212842383007807L234.64394196428572,27.031071721289067L235.01201089285715,11.727434039062494L235.19604535714285,5.473079109374998L235.38007982142858,1.755917406152336L235.56411428571428,17.586968121679686L235.74814875,5.592137247656251L235.93218321428571,9.05097666914063L236.11621767857145,22.535555339648432L236.48428660714288,8.270495952539067L236.6683210714286,22.2684350625L236.8523555357143,15.68255645507813L237.22042446428574,25.030452505664073L237.40445892857144,8.615709241992196L237.58849339285717,8.483220764941402L237.77252785714288,8.243496996093752L238.1405967857143,14.769639116015625L238.32463125000004,11.74131378427735L238.50866571428574,12.163911406640626L238.69270017857144,5.21325304453125L238.87673464285717,3.624048144726558L239.06076910714287,15.982103135742182L239.61287250000004,0.3578485245117144" style="fill: none;" fill="none"></path></g></g></g></g></g></g><g transform="translate(72, 176)" clip-path="url(#clip_1)"><clipPath id="clip_1"><rect width="257" height="22"></rect></clipPath><g><g><line x1="0" y1="0" x2="0" y2="5" style="visibility: inherit;" fill="rgb(0, 0, 0)" stroke="rgb(204, 204, 204)" stroke-width="1px"></line><line x1="18.403446428571428" y1="0" x2="18.403446428571428" y2="5" style="visibility: inherit;" fill="rgb(0, 0, 0)" stroke="rgb(204, 204, 204)" stroke-width="1px"></line><line x1="36.806892857142856" y1="0" x2="36.806892857142856" y2="5" style="visibility: inherit;" fill="rgb(0, 0, 0)" stroke="rgb(204, 204, 204)" stroke-width="1px"></line><line x1="55.210339285714284" y1="0" x2="55.210339285714284" y2="5" style="visibility: inherit;" fill="rgb(0, 0, 0)" stroke="rgb(204, 204, 204)" stroke-width="1px"></line><line x1="73.61378571428571" y1="0" x2="73.61378571428571" y2="5" style="visibility: inherit;" fill="rgb(0, 0, 0)" stroke="rgb(204, 204, 204)" stroke-width="1px"></line><line x1="92.01723214285715" y1="0" x2="92.01723214285715" y2="5" style="visibility: inherit;" fill="rgb(0, 0, 0)" stroke="rgb(204, 204, 204)" stroke-width="1px"></line><line x1="110.42067857142857" y1="0" x2="110.42067857142857" y2="5" style="visibility: inherit;" fill="rgb(0, 0, 0)" stroke="rgb(204, 204, 204)" stroke-width="1px"></line><line x1="128.824125" y1="0" x2="128.824125" y2="5" style="visibility: inherit;" fill="rgb(0, 0, 0)" stroke="rgb(204, 204, 204)" stroke-width="1px"></line><line x1="147.22757142857142" y1="0" x2="147.22757142857142" y2="5" style="visibility: inherit;" fill="rgb(0, 0, 0)" stroke="rgb(204, 204, 204)" stroke-width="1px"></line><line x1="165.6310178571429" y1="0" x2="165.6310178571429" y2="5" style="visibility: inherit;" fill="rgb(0, 0, 0)" stroke="rgb(204, 204, 204)" stroke-width="1px"></line><line x1="184.0344642857143" y1="0" x2="184.0344642857143" y2="5" style="visibility: inherit;" fill="rgb(0, 0, 0)" stroke="rgb(204, 204, 204)" stroke-width="1px"></line><line x1="202.43791071428572" y1="0" x2="202.43791071428572" y2="5" style="visibility: inherit;" fill="rgb(0, 0, 0)" stroke="rgb(204, 204, 204)" stroke-width="1px"></line><line x1="220.84135714285713" y1="0" x2="220.84135714285713" y2="5" style="visibility: inherit;" fill="rgb(0, 0, 0)" stroke="rgb(204, 204, 204)" stroke-width="1px"></line><line x1="239.2448035714286" y1="0" x2="239.2448035714286" y2="5" style="visibility: inherit;" fill="rgb(0, 0, 0)" stroke="rgb(204, 204, 204)" stroke-width="1px"></line><line x1="257.64825" y1="0" x2="257.64825" y2="5" style="visibility: inherit;" fill="rgb(0, 0, 0)" stroke="rgb(204, 204, 204)" stroke-width="1px"></line></g><g transform="translate(0, 8)"><text x="0" y="0" dx="0em" dy="0.95em" style="text-anchor: middle; visibility: hidden; font-family: Roboto, sans-serif; font-size: 12px; font-weight: 200;" fill="rgb(33, 33, 33)" stroke="none" stroke-width="1px">-10k</text><text x="18.403446428571428" y="0" dx="0em" dy="0.95em" style="text-anchor: middle; visibility: inherit; font-family: Roboto, sans-serif; font-size: 12px; font-weight: 200;" fill="rgb(33, 33, 33)" stroke="none" stroke-width="1px">0</text><text x="36.806892857142856" y="0" dx="0em" dy="0.95em" style="text-anchor: middle; visibility: hidden; font-family: Roboto, sans-serif; font-size: 12px; font-weight: 200;" fill="rgb(33, 33, 33)" stroke="none" stroke-width="1px">10k</text><text x="55.210339285714284" y="0" dx="0em" dy="0.95em" style="text-anchor: middle; visibility: inherit; font-family: Roboto, sans-serif; font-size: 12px; font-weight: 200;" fill="rgb(33, 33, 33)" stroke="none" stroke-width="1px">20k</text><text x="73.61378571428571" y="0" dx="0em" dy="0.95em" style="text-anchor: middle; visibility: hidden; font-family: Roboto, sans-serif; font-size: 12px; font-weight: 200;" fill="rgb(33, 33, 33)" stroke="none" stroke-width="1px">30k</text><text x="92.01723214285715" y="0" dx="0em" dy="0.95em" style="text-anchor: middle; visibility: inherit; font-family: Roboto, sans-serif; font-size: 12px; font-weight: 200;" fill="rgb(33, 33, 33)" stroke="none" stroke-width="1px">40k</text><text x="110.42067857142857" y="0" dx="0em" dy="0.95em" style="text-anchor: middle; visibility: hidden; font-family: Roboto, sans-serif; font-size: 12px; font-weight: 200;" fill="rgb(33, 33, 33)" stroke="none" stroke-width="1px">50k</text><text x="128.824125" y="0" dx="0em" dy="0.95em" style="text-anchor: middle; visibility: inherit; font-family: Roboto, sans-serif; font-size: 12px; font-weight: 200;" fill="rgb(33, 33, 33)" stroke="none" stroke-width="1px">60k</text><text x="147.22757142857142" y="0" dx="0em" dy="0.95em" style="text-anchor: middle; visibility: hidden; font-family: Roboto, sans-serif; font-size: 12px; font-weight: 200;" fill="rgb(33, 33, 33)" stroke="none" stroke-width="1px">70k</text><text x="165.6310178571429" y="0" dx="0em" dy="0.95em" style="text-anchor: middle; visibility: inherit; font-family: Roboto, sans-serif; font-size: 12px; font-weight: 200;" fill="rgb(33, 33, 33)" stroke="none" stroke-width="1px">80k</text><text x="184.0344642857143" y="0" dx="0em" dy="0.95em" style="text-anchor: middle; visibility: hidden; font-family: Roboto, sans-serif; font-size: 12px; font-weight: 200;" fill="rgb(33, 33, 33)" stroke="none" stroke-width="1px">90k</text><text x="202.43791071428572" y="0" dx="0em" dy="0.95em" style="text-anchor: middle; visibility: inherit; font-family: Roboto, sans-serif; font-size: 12px; font-weight: 200;" fill="rgb(33, 33, 33)" stroke="none" stroke-width="1px">100k</text><text x="220.84135714285713" y="0" dx="0em" dy="0.95em" style="text-anchor: middle; visibility: hidden; font-family: Roboto, sans-serif; font-size: 12px; font-weight: 200;" fill="rgb(33, 33, 33)" stroke="none" stroke-width="1px">110k</text><text x="239.2448035714286" y="0" dx="0em" dy="0.95em" style="text-anchor: middle; visibility: inherit; font-family: Roboto, sans-serif; font-size: 12px; font-weight: 200;" fill="rgb(33, 33, 33)" stroke="none" stroke-width="1px">120k</text><text x="257.64825" y="0" dx="0em" dy="0.95em" style="text-anchor: middle; visibility: hidden; font-family: Roboto, sans-serif; font-size: 12px; font-weight: 200;" fill="rgb(33, 33, 33)" stroke="none" stroke-width="1px">130k</text></g><line x1="0" y1="0" x2="257.64825" y2="0" fill="rgb(0, 0, 0)" stroke="rgb(204, 204, 204)" stroke-width="1px"></line></g></g></g></g></svg>